<svg width="120" height="120" viewBox="0 0 120 120" fill="none" xmlns="http://www.w3.org/2000/svg">
<g clip-path="url(#clip0_8_13)">
<path opacity="0.05" d="M-0.383789 -62.5713V683.738M119.616 -62.5713V683.738M239.616 -62.5713V683.738M359.616 -62.5713V683.738M479.616 -62.5713V683.738M599.616 -62.5713V683.738M719.616 -62.5713V683.738M839.616 -62.5713V683.738M959.616 -62.5713V683.738M1079.62 -62.5713V683.738M1199.62 -62.5713V683.738M1319.62 -62.5713V683.738M1439.62 -62.5713V683.738M1559.62 -62.5713V683.738M1679.62 -62.5713V683.738" stroke="#61D9FF" stroke-linecap="round" stroke-linejoin="round"/>
<path opacity="0.05" d="M1826.5 0.583374L-147.268 0.583288M1826.5 120.583L-147.268 120.583M1826.5 240.583L-147.268 240.583M1826.5 360.583L-147.268 360.583M1826.5 480.583L-147.268 480.583M1826.5 600.583L-147.268 600.583" stroke="#61D9FF" stroke-linecap="round" stroke-linejoin="round"/>
<path d="M-0.898682 0.0683594H0.130859V1.0979H-0.898682V0.0683594Z" fill="#2CD9FF"/>
<path d="M-0.898682 120.068H0.130859V121.098H-0.898682V120.068Z" fill="#2CD9FF"/>
<path d="M-0.898682 240.068H0.130859V241.098H-0.898682V240.068Z" fill="#2CD9FF"/>
<path d="M-0.898682 360.068H0.130859V361.098H-0.898682V360.068Z" fill="#2CD9FF"/>
<path d="M-0.898682 480.068H0.130859V481.098H-0.898682V480.068Z" fill="#2CD9FF"/>
<path d="M-0.898682 600.068H0.130859V601.098H-0.898682V600.068Z" fill="#2CD9FF"/>
<path d="M119.101 0.0683594H120.131V1.0979H119.101V0.0683594Z" fill="#2CD9FF"/>
<path d="M119.101 120.068H120.131V121.098H119.101V120.068Z" fill="#2CD9FF"/>
<path d="M119.101 240.068H120.131V241.098H119.101V240.068Z" fill="#2CD9FF"/>
<path d="M119.101 360.068H120.131V361.098H119.101V360.068Z" fill="#2CD9FF"/>
<path d="M119.101 480.068H120.131V481.098H119.101V480.068Z" fill="#2CD9FF"/>
<path d="M119.101 600.068H120.131V601.098H119.101V600.068Z" fill="#2CD9FF"/>
<path d="M239.101 0.0683594H240.131V1.0979H239.101V0.0683594Z" fill="#2CD9FF"/>
<path d="M239.101 120.068H240.131V121.098H239.101V120.068Z" fill="#2CD9FF"/>
<path d="M239.101 240.068H240.131V241.098H239.101V240.068Z" fill="#2CD9FF"/>
<path d="M239.101 360.068H240.131V361.098H239.101V360.068Z" fill="#2CD9FF"/>
<path d="M239.101 480.068H240.131V481.098H239.101V480.068Z" fill="#2CD9FF"/>
<path d="M239.101 600.068H240.131V601.098H239.101V600.068Z" fill="#2CD9FF"/>
<path d="M359.101 0.0683594H360.131V1.0979H359.101V0.0683594Z" fill="#2CD9FF"/>
<path d="M359.101 120.068H360.131V121.098H359.101V120.068Z" fill="#2CD9FF"/>
<path d="M359.101 240.068H360.131V241.098H359.101V240.068Z" fill="#2CD9FF"/>
<path d="M359.101 360.068H360.131V361.098H359.101V360.068Z" fill="#2CD9FF"/>
<path d="M359.101 480.068H360.131V481.098H359.101V480.068Z" fill="#2CD9FF"/>
<path d="M359.101 600.068H360.131V601.098H359.101V600.068Z" fill="#2CD9FF"/>
<path d="M479.101 0.0683594H480.131V1.0979H479.101V0.0683594Z" fill="#2CD9FF"/>
<path d="M479.101 120.068H480.131V121.098H479.101V120.068Z" fill="#2CD9FF"/>
<path d="M479.101 240.068H480.131V241.098H479.101V240.068Z" fill="#2CD9FF"/>
<path d="M479.101 360.068H480.131V361.098H479.101V360.068Z" fill="#2CD9FF"/>
<path d="M479.101 480.068H480.131V481.098H479.101V480.068Z" fill="#2CD9FF"/>
<path d="M479.101 600.068H480.131V601.098H479.101V600.068Z" fill="#2CD9FF"/>
<path d="M599.101 0.0683594H600.131V1.0979H599.101V0.0683594Z" fill="#2CD9FF"/>
<path d="M599.101 120.068H600.131V121.098H599.101V120.068Z" fill="#2CD9FF"/>
<path d="M599.101 240.068H600.131V241.098H599.101V240.068Z" fill="#2CD9FF"/>
<path d="M599.101 360.068H600.131V361.098H599.101V360.068Z" fill="#2CD9FF"/>
<path d="M599.101 480.068H600.131V481.098H599.101V480.068Z" fill="#2CD9FF"/>
<path d="M599.101 600.068H600.131V601.098H599.101V600.068Z" fill="#2CD9FF"/>
<path d="M719.101 0.0683594H720.131V1.0979H719.101V0.0683594Z" fill="#2CD9FF"/>
<path d="M719.101 120.068H720.131V121.098H719.101V120.068Z" fill="#2CD9FF"/>
<path d="M719.101 240.068H720.131V241.098H719.101V240.068Z" fill="#2CD9FF"/>
<path d="M719.101 360.068H720.131V361.098H719.101V360.068Z" fill="#2CD9FF"/>
<path d="M719.101 480.068H720.131V481.098H719.101V480.068Z" fill="#2CD9FF"/>
<path d="M719.101 600.068H720.131V601.098H719.101V600.068Z" fill="#2CD9FF"/>
<path d="M839.101 0.0683594H840.131V1.0979H839.101V0.0683594Z" fill="#2CD9FF"/>
<path d="M839.101 120.068H840.131V121.098H839.101V120.068Z" fill="#2CD9FF"/>
<path d="M839.101 240.068H840.131V241.098H839.101V240.068Z" fill="#2CD9FF"/>
<path d="M839.101 360.068H840.131V361.098H839.101V360.068Z" fill="#2CD9FF"/>
<path d="M839.101 480.068H840.131V481.098H839.101V480.068Z" fill="#2CD9FF"/>
<path d="M839.101 600.068H840.131V601.098H839.101V600.068Z" fill="#2CD9FF"/>
<path d="M959.101 0.0683594H960.131V1.0979H959.101V0.0683594Z" fill="#2CD9FF"/>
<path d="M959.101 120.068H960.131V121.098H959.101V120.068Z" fill="#2CD9FF"/>
<path d="M959.101 240.068H960.131V241.098H959.101V240.068Z" fill="#2CD9FF"/>
<path d="M959.101 360.068H960.131V361.098H959.101V360.068Z" fill="#2CD9FF"/>
<path d="M959.101 480.068H960.131V481.098H959.101V480.068Z" fill="#2CD9FF"/>
<path d="M959.101 600.068H960.131V601.098H959.101V600.068Z" fill="#2CD9FF"/>
<path d="M1079.1 0.0683594H1080.13V1.0979H1079.1V0.0683594Z" fill="#2CD9FF"/>
<path d="M1079.1 120.068H1080.13V121.098H1079.1V120.068Z" fill="#2CD9FF"/>
<path d="M1079.1 240.068H1080.13V241.098H1079.1V240.068Z" fill="#2CD9FF"/>
<path d="M1079.1 360.068H1080.13V361.098H1079.1V360.068Z" fill="#2CD9FF"/>
<path d="M1079.1 480.068H1080.13V481.098H1079.1V480.068Z" fill="#2CD9FF"/>
<path d="M1079.1 600.068H1080.13V601.098H1079.1V600.068Z" fill="#2CD9FF"/>
<path d="M1199.1 0.0683594H1200.13V1.0979H1199.1V0.0683594Z" fill="#2CD9FF"/>
<path d="M1199.1 120.068H1200.13V121.098H1199.1V120.068Z" fill="#2CD9FF"/>
<path d="M1199.1 240.068H1200.13V241.098H1199.1V240.068Z" fill="#2CD9FF"/>
<path d="M1199.1 360.068H1200.13V361.098H1199.1V360.068Z" fill="#2CD9FF"/>
<path d="M1199.1 480.068H1200.13V481.098H1199.1V480.068Z" fill="#2CD9FF"/>
<path d="M1199.1 600.068H1200.13V601.098H1199.1V600.068Z" fill="#2CD9FF"/>
<path d="M1319.1 0.0683594H1320.13V1.0979H1319.1V0.0683594Z" fill="#2CD9FF"/>
<path d="M1319.1 120.068H1320.13V121.098H1319.1V120.068Z" fill="#2CD9FF"/>
<path d="M1319.1 240.068H1320.13V241.098H1319.1V240.068Z" fill="#2CD9FF"/>
<path d="M1319.1 360.068H1320.13V361.098H1319.1V360.068Z" fill="#2CD9FF"/>
<path d="M1319.1 480.068H1320.13V481.098H1319.1V480.068Z" fill="#2CD9FF"/>
<path d="M1319.1 600.068H1320.13V601.098H1319.1V600.068Z" fill="#2CD9FF"/>
<path d="M1439.1 0.0683594H1440.13V1.0979H1439.1V0.0683594Z" fill="#2CD9FF"/>
<path d="M1439.1 120.068H1440.13V121.098H1439.1V120.068Z" fill="#2CD9FF"/>
<path d="M1439.1 240.068H1440.13V241.098H1439.1V240.068Z" fill="#2CD9FF"/>
<path d="M1439.1 360.068H1440.13V361.098H1439.1V360.068Z" fill="#2CD9FF"/>
<path d="M1439.1 480.068H1440.13V481.098H1439.1V480.068Z" fill="#2CD9FF"/>
<path d="M1439.1 600.068H1440.13V601.098H1439.1V600.068Z" fill="#2CD9FF"/>
<path d="M1559.1 0.0683594H1560.13V1.0979H1559.1V0.0683594Z" fill="#2CD9FF"/>
<path d="M1559.1 120.068H1560.13V121.098H1559.1V120.068Z" fill="#2CD9FF"/>
<path d="M1559.1 240.068H1560.13V241.098H1559.1V240.068Z" fill="#2CD9FF"/>
<path d="M1559.1 360.068H1560.13V361.098H1559.1V360.068Z" fill="#2CD9FF"/>
<path d="M1559.1 480.068H1560.13V481.098H1559.1V480.068Z" fill="#2CD9FF"/>
<path d="M1559.1 600.068H1560.13V601.098H1559.1V600.068Z" fill="#2CD9FF"/>
<path d="M1679.1 0.0683594H1680.13V1.0979H1679.1V0.0683594Z" fill="#2CD9FF"/>
<path d="M1679.1 120.068H1680.13V121.098H1679.1V120.068Z" fill="#2CD9FF"/>
<path d="M1679.1 240.068H1680.13V241.098H1679.1V240.068Z" fill="#2CD9FF"/>
<path d="M1679.1 360.068H1680.13V361.098H1679.1V360.068Z" fill="#2CD9FF"/>
<path d="M1679.1 480.068H1680.13V481.098H1679.1V480.068Z" fill="#2CD9FF"/>
<path d="M1679.1 600.068H1680.13V601.098H1679.1V600.068Z" fill="#2CD9FF"/>
</g>
<defs>
<clipPath id="clip0_8_13">
<rect width="1920" height="3357" fill="white" transform="translate(-127 -223)"/>
</clipPath>
</defs>
</svg>
