<svg width="125" height="45" viewBox="0 0 125 45" fill="none" xmlns="http://www.w3.org/2000/svg">
<path d="M5.54079 7.02219C6.1323 3.11027 9.49448 0.218262 13.4509 0.218262H115.823C118.882 0.218262 121.224 2.94096 120.766 5.9658L116.564 33.7569C115.973 37.6688 112.611 40.5608 108.654 40.5608H6.28236C3.22314 40.5608 0.881177 37.8381 1.33856 34.8133L5.54079 7.02219Z" fill="url(#paint0_linear_34_1337)" fill-opacity="0.9"/>
<path d="M6.03235 7.04146C6.611 3.3993 9.75161 0.718262 13.4394 0.718262H116.743C119.51 0.718262 121.621 3.19171 121.187 5.92434L116.768 33.7376C116.189 37.3798 113.049 40.0608 109.361 40.0608H6.05777C3.29086 40.0608 1.17936 37.5873 1.61351 34.8547L6.03235 7.04146Z" stroke="url(#paint1_linear_34_1337)" stroke-opacity="0.75"/>
<path d="M7.0922 8.30034C7.66963 4.66585 10.7987 1.98723 14.4788 1.97716L117.948 1.69405C120.72 1.68646 122.839 4.16256 122.405 6.90012L117.985 34.716C117.408 38.3505 114.279 41.0291 110.599 41.0391L7.12952 41.3223C4.35764 41.3299 2.23802 38.8538 2.67294 36.1162L7.0922 8.30034Z" stroke="url(#paint2_linear_34_1337)" stroke-opacity="0.5"/>
<path d="M8.90887 10.445C9.49785 6.81377 12.6335 4.14575 16.3121 4.14575H118.841C121.613 4.14575 123.726 6.6292 123.283 9.36623L118.735 37.4043C118.146 41.0354 115.01 43.7035 111.332 43.7035H8.8031C6.0303 43.7035 3.9172 41.22 4.36115 38.483L8.90887 10.445Z" stroke="url(#paint3_linear_34_1337)" stroke-opacity="0.3"/>
<defs>
<linearGradient id="paint0_linear_34_1337" x1="-9.43409" y1="49.9928" x2="134.788" y2="8.16842" gradientUnits="userSpaceOnUse">
<stop stop-color="#CCCCCC"/>
<stop offset="0.279507" stop-color="#C4C5C6" stop-opacity="0.22"/>
<stop offset="0.498284" stop-color="#C8C8C8" stop-opacity="0"/>
<stop offset="0.725028" stop-color="#B7B7B7" stop-opacity="0"/>
<stop offset="1" stop-color="#CBCDCD" stop-opacity="0.91"/>
</linearGradient>
<linearGradient id="paint1_linear_34_1337" x1="78.896" y1="40.5608" x2="63.056" y2="0.21826" gradientUnits="userSpaceOnUse">
<stop offset="0.0001" stop-color="white"/>
<stop offset="1" stop-color="#FAFAFA" stop-opacity="0"/>
</linearGradient>
<linearGradient id="paint2_linear_34_1337" x1="79.3211" y1="41.8363" x2="63.4811" y2="1.49377" gradientUnits="userSpaceOnUse">
<stop stop-color="white" stop-opacity="0.35"/>
<stop offset="1" stop-color="white" stop-opacity="0.7"/>
</linearGradient>
<linearGradient id="paint3_linear_34_1337" x1="85.2149" y1="44.2035" x2="69.2904" y2="3.64578" gradientUnits="userSpaceOnUse">
<stop stop-color="white"/>
<stop offset="1" stop-color="white" stop-opacity="0.37"/>
</linearGradient>
</defs>
</svg>
