<svg width="30" height="30" viewBox="0 0 30 30" fill="none" xmlns="http://www.w3.org/2000/svg">
<path d="M21.9167 30C16.35 30 10.7833 30 5.23333 30C4.83333 29.8667 4.43333 29.7333 4.11667 29.4167C3.66667 28.9667 3.51667 28.4 3.51667 27.7833C3.5 19.2667 3.5 10.7333 3.5 2.21667C3.5 2.16667 3.5 2.1 3.5 2.05C3.53333 1.01667 4.11667 0.3 5.13333 0.05C5.16667 0.05 5.2 0.0166667 5.23333 0C11.75 0 18.25 0 24.7667 0C24.8 0.0166667 24.85 0.0333333 24.8833 0.05C25.8667 0.283333 26.5 1.03333 26.5 2.03333C26.5 9.7 26.5 17.3667 26.5 25.0333C26.5 27.1667 25.1167 29.05 23.0833 29.7167C22.7 29.85 22.3 29.9 21.9167 30ZM24.5 2.01667C18.15 2.01667 11.8333 2.01667 5.5 2.01667C5.5 10.6833 5.5 19.3333 5.5 27.9833C5.6 27.9833 5.68333 28 5.75 28C10.95 28 16.1667 28 21.3667 28C21.7167 28 22.0833 27.95 22.4167 27.85C23.4833 27.5333 24.5 26.45 24.5 24.8167C24.4833 17.3333 24.5 9.83333 24.5 2.35C24.5 2.23333 24.5 2.13333 24.5 2.01667Z" fill="white"/>
<path d="M7.53516 4C7.63516 4 7.73516 4 7.83516 4C12.6185 4 17.4018 4 22.1852 4C22.4352 4 22.5018 4.05 22.5018 4.31667C22.4852 8.1 22.5018 11.9 22.5018 15.6833C22.5018 15.7667 22.5018 15.8667 22.4852 15.9667C17.5018 15.9667 12.5352 15.9667 7.53516 15.9667C7.53516 11.9833 7.53516 8.01667 7.53516 4ZM9.48516 6C9.48516 6.13333 9.48516 6.21667 9.48516 6.31667C9.48516 8.76667 9.48516 11.2167 9.48516 13.6833C9.48516 13.95 9.55182 14.0167 9.81849 14.0167C13.2852 14 16.7352 14.0167 20.2018 14.0167C20.3018 14.0167 20.4018 14.0167 20.4852 14.0167C20.4852 11.3167 20.4852 8.66667 20.4852 6C16.8185 6 13.1685 6 9.48516 6Z" fill="white"/>
<path d="M11.5008 23C11.5008 23.6833 11.5008 24.3167 11.5008 24.9667C10.8341 24.9667 10.1841 24.9667 9.51745 24.9667C9.51745 24.3167 9.51745 23.6833 9.51745 23C8.85078 23 8.20078 23 7.55078 23C7.55078 22.3333 7.55078 21.6833 7.55078 21.0167C8.18411 21.0167 8.83411 21.0167 9.51745 21.0167C9.51745 20.4333 9.51745 19.9 9.51745 19.35C9.51745 19 9.51745 19 9.88411 19C10.4174 19 10.9508 19 11.5008 19C11.5008 19.6667 11.5008 20.3167 11.5008 20.9833C12.1674 20.9833 12.8174 20.9833 13.5174 20.9833C13.5174 21.3333 13.5174 21.6667 13.5174 21.9833C13.5174 22.2333 13.5008 22.4667 13.5174 22.7167C13.5341 22.95 13.4341 23 13.2341 22.9833C12.6508 22.9833 12.0841 23 11.5008 23Z" fill="white"/>
<path d="M22.4656 20.0332C22.4656 20.6832 22.4656 21.3165 22.4656 21.9665C21.799 21.9665 21.1656 21.9665 20.5156 21.9665C20.5156 21.3165 20.5156 20.6832 20.5156 20.0332C21.1656 20.0332 21.8156 20.0332 22.4656 20.0332Z" fill="white"/>
<path d="M17.5156 23.0332C18.1823 23.0332 18.8156 23.0332 19.4656 23.0332C19.4656 23.6832 19.4656 24.3332 19.4656 24.9665C18.799 24.9665 18.1656 24.9665 17.5156 24.9665C17.5156 24.3165 17.5156 23.6832 17.5156 23.0332Z" fill="white"/>
</svg>
