<svg width="30" height="32" viewBox="0 0 30 32" fill="none" xmlns="http://www.w3.org/2000/svg">
<path d="M27.9256 21.7448V10.2507C27.9251 9.87453 27.8261 9.505 27.6385 9.17895C27.4508 8.85289 27.181 8.58166 26.856 8.39227L16.6247 2.43793C16.1318 2.15095 15.5716 1.99976 15.0012 1.99976C14.4308 1.99976 13.8706 2.15095 13.3776 2.43793L3.1477 8.39227C2.82265 8.58166 2.55287 8.85289 2.36522 9.17895C2.17757 9.505 2.07858 9.87453 2.07812 10.2507V21.7448C2.07835 22.1212 2.17722 22.491 2.36488 22.8173C2.55255 23.1436 2.82245 23.4151 3.1477 23.6046L13.379 29.5589C13.8721 29.8455 14.4322 29.9964 15.0025 29.9964C15.5728 29.9964 16.133 29.8455 16.6261 29.5589L26.8573 23.6046C27.1823 23.4149 27.452 23.1434 27.6394 22.8171C27.8268 22.4908 27.9255 22.1211 27.9256 21.7448Z" stroke="white" stroke-width="2.5" stroke-linecap="round" stroke-linejoin="round"/>
<path d="M2.41406 9.13354L15.0012 16.5378L27.5884 9.13354M15.0012 30V16.5378" stroke="white" stroke-width="2.5" stroke-linecap="round" stroke-linejoin="round"/>
<path d="M15.0022 10.0756C15.8944 10.0756 16.6176 9.59341 16.6176 8.99861C16.6176 8.40381 15.8944 7.92163 15.0022 7.92163C14.11 7.92163 13.3867 8.40381 13.3867 8.99861C13.3867 9.59341 14.11 10.0756 15.0022 10.0756Z" fill="white"/>
<path d="M11.7723 20.3069C12.3671 20.3069 12.8493 19.5836 12.8493 18.6914C12.8493 17.7992 12.3671 17.0759 11.7723 17.0759C11.1775 17.0759 10.6953 17.7992 10.6953 18.6914C10.6953 19.5836 11.1775 20.3069 11.7723 20.3069Z" fill="white"/>
<path d="M5.31135 22.4612C5.90615 22.4612 6.38833 21.7379 6.38833 20.8457C6.38833 19.9535 5.90615 19.2302 5.31135 19.2302C4.71655 19.2302 4.23438 19.9535 4.23438 20.8457C4.23438 21.7379 4.71655 22.4612 5.31135 22.4612Z" fill="white"/>
<path d="M18.2332 20.3069C18.828 20.3069 19.3102 19.5836 19.3102 18.6914C19.3102 17.7992 18.828 17.0759 18.2332 17.0759C17.6384 17.0759 17.1562 17.7992 17.1562 18.6914C17.1562 19.5836 17.6384 20.3069 18.2332 20.3069Z" fill="white"/>
<path d="M24.6942 16.5373C25.289 16.5373 25.7711 15.8141 25.7711 14.9219C25.7711 14.0297 25.289 13.3064 24.6942 13.3064C24.0994 13.3064 23.6172 14.0297 23.6172 14.9219C23.6172 15.8141 24.0994 16.5373 24.6942 16.5373Z" fill="white"/>
<path d="M18.2332 26.2307C18.828 26.2307 19.3102 25.5074 19.3102 24.6152C19.3102 23.723 18.828 22.9998 18.2332 22.9998C17.6384 22.9998 17.1562 23.723 17.1562 24.6152C17.1562 25.5074 17.6384 26.2307 18.2332 26.2307Z" fill="white"/>
<path d="M24.6942 22.4612C25.289 22.4612 25.7711 21.7379 25.7711 20.8457C25.7711 19.9535 25.289 19.2302 24.6942 19.2302C24.0994 19.2302 23.6172 19.9535 23.6172 20.8457C23.6172 21.7379 24.0994 22.4612 24.6942 22.4612Z" fill="white"/>
</svg>
