<svg width="30" height="29" viewBox="0 0 30 29" fill="none" xmlns="http://www.w3.org/2000/svg">
<path d="M24.9292 9.76001L21.5592 23.29C21.3192 24.3 20.4192 25 19.3792 25H6.23915C4.72915 25 3.64917 23.5199 4.09917 22.0699L8.30916 8.55005C8.59916 7.61005 9.46917 6.95996 10.4492 6.95996H22.7492C23.6992 6.95996 24.4892 7.53997 24.8192 8.33997C25.0092 8.76997 25.0492 9.26001 24.9292 9.76001Z" stroke="white" stroke-width="2" stroke-miterlimit="10"/>
<path d="M19 25H23.78C25.07 25 26.08 23.91 25.99 22.62L25 9" stroke="white" stroke-width="2" stroke-miterlimit="10" stroke-linecap="round" stroke-linejoin="round"/>
<path d="M12.6797 9.38049L13.7197 5.06055" stroke="white" stroke-width="2" stroke-miterlimit="10" stroke-linecap="round" stroke-linejoin="round"/>
<path d="M19.3789 9.38977L20.3189 5.0498" stroke="white" stroke-width="2" stroke-miterlimit="10" stroke-linecap="round" stroke-linejoin="round"/>
<path d="M10.6992 15H18.6992" stroke="white" stroke-width="2" stroke-miterlimit="10" stroke-linecap="round" stroke-linejoin="round"/>
<path d="M9.69922 19H17.6992" stroke="white" stroke-width="2" stroke-miterlimit="10" stroke-linecap="round" stroke-linejoin="round"/>
</svg>
