<svg width="30" height="29" viewBox="0 0 30 29" fill="none" xmlns="http://www.w3.org/2000/svg">
<path d="M18.1134 3.9467C17.7924 3.4068 17.3365 2.95963 16.7905 2.64907C16.2446 2.3385 15.6272 2.1752 14.9991 2.1752C14.371 2.1752 13.7536 2.3385 13.2077 2.64907C12.6617 2.95963 12.2058 3.4068 11.8848 3.9467C11.2389 3.59689 10.5509 3.33087 9.83766 3.15509C10.3243 2.20514 11.0637 1.40793 11.9744 0.851246C12.8851 0.294562 13.9317 0 14.9991 0C16.0665 0 17.1131 0.294562 18.0238 0.851246C18.9345 1.40793 19.6739 2.20514 20.1605 3.15509C19.4473 3.33085 18.7593 3.59687 18.1134 3.9467ZM11.2063 7.88593C11.9856 7.61684 12.7915 7.43214 13.6102 7.33499C12.9933 6.48924 12.2007 5.7871 11.2867 5.27686C10.3727 4.76662 9.35899 4.46037 8.31536 4.37919C7.27173 4.298 6.22289 4.4438 5.24097 4.80655C4.25905 5.1693 3.36734 5.74041 2.62715 6.4806C1.88697 7.22079 1.31586 8.1125 0.953107 9.09442C0.590353 10.0763 0.444556 11.1252 0.525743 12.1688C0.606929 13.2124 0.913171 14.2261 1.42341 15.1401C1.93366 16.0541 2.63579 16.8468 3.48154 17.4636C3.57908 16.6444 3.76428 15.838 4.03393 15.0583C3.13452 14.0969 2.64398 12.8235 2.66591 11.5071C2.68784 10.1907 3.22053 8.93442 4.15148 8.00347C5.08243 7.07253 6.33875 6.53984 7.65512 6.51791C8.9715 6.49597 10.2449 6.98651 11.2063 7.88593ZM26.5167 17.4621C27.3624 16.8453 28.0645 16.0527 28.5748 15.1387C29.085 14.2247 29.3913 13.211 29.4725 12.1674C29.5536 11.1237 29.4079 10.0749 29.0451 9.09297C28.6823 8.11105 28.1112 7.21934 27.371 6.47915C26.6309 5.73896 25.7392 5.16785 24.7572 4.8051C23.7753 4.44235 22.7265 4.29655 21.6828 4.37774C20.6392 4.45892 19.6255 4.76517 18.7115 5.27541C17.7975 5.78565 17.0049 6.48779 16.3881 7.33354C17.2068 7.43118 18.0127 7.61637 18.7919 7.88593C19.7533 6.98651 21.0267 6.49597 22.3431 6.51791C23.6595 6.53984 24.9158 7.07253 25.8467 8.00347C26.7777 8.93442 27.3104 10.1907 27.3323 11.5071C27.3542 12.8235 26.8637 14.0969 25.9643 15.0583C26.2296 15.8267 26.4166 16.6314 26.5152 17.4621H26.5167ZM11.3745 16.3139C11.3745 16.0255 11.4891 15.7489 11.693 15.545C11.8969 15.3411 12.1735 15.2265 12.4619 15.2265H18.6237C18.8446 15.2266 19.0602 15.2941 19.2419 15.4198C19.4235 15.5455 19.5625 15.7236 19.6404 15.9303C19.7184 16.137 19.7315 16.3625 19.6781 16.5769C19.6246 16.7912 19.5072 16.9842 19.3414 17.1301V17.1316L19.3225 17.1475L19.2457 17.22C18.7621 17.6931 18.3139 18.2009 17.9046 18.7395C17.097 19.7993 16.1822 21.3057 15.6863 23.1238C15.6488 23.2616 15.5845 23.3907 15.4971 23.5037C15.4097 23.6167 15.3009 23.7114 15.1769 23.7824C15.0529 23.8533 14.9162 23.8992 14.7745 23.9173C14.6328 23.9354 14.4889 23.9254 14.351 23.8879C14.2132 23.8503 14.0841 23.7861 13.9711 23.6986C13.8581 23.6112 13.7634 23.5024 13.6924 23.3784C13.6215 23.2544 13.5757 23.1177 13.5576 22.976C13.5395 22.8343 13.5494 22.6904 13.587 22.5525C14.1785 20.3836 15.2572 18.6278 16.172 17.423L16.188 17.4013H12.4619C12.1735 17.4013 11.8969 17.2867 11.693 17.0828C11.4891 16.8788 11.3745 16.6023 11.3745 16.3139ZM14.9991 29C17.6908 29 20.2722 27.9307 22.1755 26.0275C24.0788 24.1242 25.148 21.5428 25.148 18.8511C25.148 16.1594 24.0788 13.578 22.1755 11.6747C20.2722 9.77145 17.6908 8.70219 14.9991 8.70219C12.3074 8.70219 9.72603 9.77145 7.82274 11.6747C5.91945 13.578 4.8502 16.1594 4.8502 18.8511C4.8502 21.5428 5.91945 24.1242 7.82274 26.0275C9.72603 27.9307 12.3074 29 14.9991 29ZM14.9991 26.8252C12.8842 26.8252 10.856 25.9851 9.36053 24.4897C7.86509 22.9942 7.02496 20.966 7.02496 18.8511C7.02496 16.7362 7.86509 14.708 9.36053 13.2125C10.856 11.7171 12.8842 10.877 14.9991 10.877C17.114 10.877 19.1422 11.7171 20.6377 13.2125C22.1331 14.708 22.9732 16.7362 22.9732 18.8511C22.9732 20.966 22.1331 22.9942 20.6377 24.4897C19.1422 25.9851 17.114 26.8252 14.9991 26.8252Z" fill="white"/>
</svg>
