<svg width="28" height="28" viewBox="0 0 28 28" fill="none" xmlns="http://www.w3.org/2000/svg">
<path d="M22.647 28C16.883 28 11.105 28 5.34096 28C5.01683 27.8449 4.66451 27.7321 4.38265 27.5206C3.8753 27.1259 3.73438 26.5619 3.73438 25.9275C3.73438 17.9758 3.73438 10.0242 3.73438 2.07251C3.73438 2.01611 3.73438 1.97382 3.73438 1.91742C3.76256 0.944612 4.29809 0.281974 5.25641 0.0422961C5.28459 0.0422961 5.31278 0.0140987 5.34096 0C11.105 0 16.883 0 22.647 0C22.8302 0.0704935 23.0275 0.11279 23.1966 0.197382C23.9577 0.578046 24.2677 1.22659 24.2677 2.07251C24.2677 9.98187 24.2677 17.8771 24.2677 25.7865C24.2677 27.0695 23.8872 27.5911 22.6752 27.9859C22.6611 27.9859 22.647 28 22.647 28ZM22.3793 26.1249C22.3793 18.0322 22.3793 9.96777 22.3793 1.87513C16.7844 1.87513 11.2036 1.87513 5.59464 1.87513C5.59464 9.96777 5.59464 18.0322 5.59464 26.1249C11.2036 26.1249 16.7844 26.1249 22.3793 26.1249Z" fill="white"/>
<path d="M9.34375 13.9995C10.894 12.1244 12.4301 10.2775 13.9944 8.40234C15.5587 10.2775 17.0948 12.1244 18.6451 13.9995C17.0948 15.8606 15.5587 17.7216 13.9944 19.5967C12.4301 17.7216 10.894 15.8747 9.34375 13.9995ZM13.9944 11.2926C13.2334 12.2231 12.4865 13.1113 11.7536 13.9995C12.5146 14.9018 13.2475 15.7901 13.9944 16.7065C14.7554 15.7901 15.4882 14.9018 16.2352 13.9995C15.4882 13.0972 14.7554 12.209 13.9944 11.2926Z" fill="white"/>
<path d="M7.48438 5.58338C7.48438 4.96304 7.48438 4.37089 7.48438 3.76465C8.09037 3.76465 8.68227 3.76465 9.30236 3.76465C9.30236 4.37089 9.30236 4.96304 9.30236 5.58338C8.69636 5.58338 8.10446 5.58338 7.48438 5.58338Z" fill="white"/>
<path d="M18.6875 24.2357C18.6875 23.6154 18.6875 23.0373 18.6875 22.417C19.2935 22.417 19.8854 22.417 20.5055 22.417C20.5055 23.0091 20.5055 23.6154 20.5055 24.2357C19.8995 24.2357 19.3076 24.2357 18.6875 24.2357Z" fill="white"/>
</svg>
