<svg width="30" height="29" viewBox="0 0 30 29" fill="none" xmlns="http://www.w3.org/2000/svg">
<g clip-path="url(#clip0_3259_63711)">
<path d="M18.6397 1.05655C18.9027 1.1203 19.1289 1.28279 19.2685 1.50831C19.408 1.73382 19.4496 2.0039 19.3841 2.25916L18.8728 4.24368C18.8429 4.37269 18.7867 4.4946 18.7076 4.60224C18.6284 4.70988 18.5279 4.80108 18.4119 4.87047C18.2959 4.93987 18.1668 4.98607 18.0321 5.00636C17.8975 5.02664 17.76 5.0206 17.6278 4.98859C17.4956 4.95658 17.3713 4.89924 17.2622 4.81996C17.1532 4.74067 17.0616 4.64102 16.9928 4.52688C16.924 4.41274 16.8794 4.28641 16.8616 4.1553C16.8438 4.02419 16.8532 3.89096 16.8892 3.76342L17.4005 1.77891C17.4662 1.52368 17.6336 1.30421 17.866 1.16875C18.0984 1.0333 18.3767 0.992936 18.6397 1.05655ZM24.7398 3.30103C24.835 3.39321 24.9106 3.5027 24.9621 3.62325C25.0137 3.7438 25.0402 3.87304 25.0402 4.00355C25.0402 4.13407 25.0137 4.2633 24.9621 4.38385C24.9106 4.5044 24.835 4.6139 24.7398 4.70607L22.6949 6.69058C22.5998 6.78271 22.487 6.85576 22.3628 6.90557C22.2386 6.95538 22.1056 6.98097 21.9712 6.98087C21.8369 6.98078 21.7039 6.95501 21.5798 6.90503C21.4557 6.85505 21.343 6.78185 21.2481 6.68959C21.1531 6.59734 21.0778 6.48784 21.0265 6.36735C20.9752 6.24686 20.9488 6.11774 20.9489 5.98736C20.949 5.85699 20.9756 5.7279 21.0271 5.60749C21.0786 5.48707 21.154 5.37767 21.2491 5.28555L23.294 3.30103C23.4858 3.11501 23.7458 3.01051 24.0169 3.01051C24.288 3.01051 24.5481 3.11501 24.7398 3.30103ZM9.25952 24.9045C9.77292 25.7328 10.5802 26.3509 11.5299 26.6427C12.4795 26.9345 13.5063 26.8799 14.4174 26.4892C15.3285 26.0985 16.0614 25.3985 16.4785 24.5207C16.8956 23.6428 16.9682 22.6474 16.6827 21.7213L9.25952 24.9045ZM7.37816 25.7122L5.3373 26.5873C4.80965 26.8142 4.22368 26.881 3.65622 26.779C3.08876 26.677 2.56631 26.411 2.15739 26.0158L1.33941 25.222C0.931938 24.8283 0.656665 24.3242 0.549733 23.776C0.442801 23.2277 0.509209 22.6609 0.740239 22.1499L8.65625 4.66836C8.84403 4.25574 9.1325 3.89369 9.49675 3.61349C9.861 3.33329 10.2901 3.14337 10.7469 3.06014C11.2037 2.9769 11.6746 3.00286 12.1187 3.13577C12.5629 3.26867 12.967 3.50453 13.2963 3.82296L24.1999 14.3726C24.5284 14.6906 24.7721 15.0815 24.9097 15.5114C25.0473 15.9414 25.0748 16.3974 24.9898 16.84C24.9048 17.2826 24.7099 17.6984 24.4218 18.0514C24.1338 18.4044 23.7614 18.6838 23.337 18.8656L18.562 20.9136C19.0668 22.3253 19.006 23.8695 18.3919 25.2398C17.7778 26.61 16.6551 27.7061 15.2469 28.3103C13.8386 28.9145 12.2477 28.9828 10.79 28.5015C9.33235 28.0201 8.11446 27.0245 7.37816 25.7122ZM26.0609 8.96484H24.0159C23.7447 8.96484 23.4847 9.06938 23.2929 9.25546C23.1011 9.44155 22.9934 9.69393 22.9934 9.95709C22.9934 10.2203 23.1011 10.4726 23.2929 10.6587C23.4847 10.8448 23.7447 10.9494 24.0159 10.9494H26.0609C26.332 10.9494 26.5921 10.8448 26.7839 10.6587C26.9756 10.4726 27.0833 10.2203 27.0833 9.95709C27.0833 9.69393 26.9756 9.44155 26.7839 9.25546C26.5921 9.06938 26.332 8.96484 26.0609 8.96484ZM10.5294 5.46812L2.61137 22.9477C2.54591 23.0923 2.52708 23.2527 2.55738 23.4079C2.58768 23.563 2.66567 23.7056 2.7811 23.8169L3.60113 24.6107C3.71798 24.7234 3.86718 24.7993 4.02919 24.8283C4.1912 24.8574 4.35846 24.8382 4.50909 24.7735L22.5088 17.0497C22.629 16.9984 22.7345 16.9193 22.8162 16.8194C22.8978 16.7196 22.9531 16.6019 22.9773 16.4765C23.0015 16.3512 22.9938 16.2221 22.9549 16.1003C22.916 15.9785 22.8471 15.8678 22.7542 15.7777L11.8546 5.228C11.7607 5.13746 11.6457 5.07037 11.5192 5.03248C11.3928 4.99459 11.2588 4.98703 11.1287 5.01044C10.9986 5.03386 10.8763 5.08756 10.7723 5.16693C10.6682 5.2463 10.5856 5.34897 10.5315 5.46614L10.5294 5.46812Z" fill="white"/>
</g>
<defs>
<clipPath id="clip0_3259_63711">
<rect width="29" height="29" fill="white" transform="translate(0.5)"/>
</clipPath>
</defs>
</svg>
