<svg viewBox="0 0 28 28" fill="none" xmlns="http://www.w3.org/2000/svg">
<g clip-path="url(#clip0_3259_63715)">
<path d="M7.26946 28C6.93413 28 6.5988 28 6.26347 28C6.19162 27.9884 6.13174 27.9653 6.05988 27.9537C3.30539 27.676 0.994012 25.8132 0.263473 23.2331C0.143713 22.8165 0.0838324 22.3769 0 21.9488C0 21.6248 0 21.3008 0 20.9769C0.0359282 20.7802 0.0718563 20.5835 0.107784 20.3752C0.634731 17.1471 3.77246 14.7289 7.13773 14.9603C7.72455 15.0066 8.31138 15.1223 8.93413 15.2149C9.94012 13.2826 10.9581 11.3157 11.9761 9.36033C11.485 9.29091 11.0299 9.24463 10.5868 9.15207C6.71856 8.29587 4.71856 4.26942 6.44311 0.844628C6.49102 0.752066 6.58683 0.647934 6.69461 0.613223C7.17365 0.439669 7.6527 0.277686 8.13174 0.138843C8.38323 0.0694215 8.64671 0.046281 8.91018 0C9.22156 0 9.54491 0 9.85629 0C9.92815 0.0115702 9.98803 0.0347107 10.0599 0.046281C11.1138 0.150413 12.0719 0.48595 12.9341 1.07603C13.3174 1.33058 13.6527 1.63141 14.024 1.93223C14.0719 1.89752 14.1198 1.83967 14.1796 1.79339C15.018 0.983471 16.024 0.45124 17.1737 0.185124C17.485 0.115702 17.8084 0.0694215 18.1198 0.0115702C18.4311 0.0115702 18.7545 0.0115702 19.0659 0.0115702C19.1258 0.0231405 19.1856 0.046281 19.2455 0.0578512C19.9761 0.115702 20.6587 0.323967 21.3174 0.613223C21.4012 0.647934 21.509 0.717355 21.5449 0.798347C22.0958 1.85124 22.3114 2.96198 22.1677 4.13058C21.8563 6.52562 20.0599 8.50413 17.6407 9.11736C17.1377 9.24463 16.6108 9.29091 16.0719 9.38347C17.0898 11.3388 18.1078 13.3174 19.1377 15.2843C20.0958 14.9835 21.0539 14.8793 22.024 14.9835C25.3054 15.3537 27.7844 17.8992 28 21.081C28.2036 24.1124 26.1437 26.924 23.1018 27.7339C22.6707 27.8496 22.2156 27.9074 21.7725 28C21.4371 28 21.1018 28 20.7665 28C20.6946 27.9884 20.6108 27.9537 20.5389 27.9537C17.2575 27.6529 14.5868 24.9107 14.515 21.7174C14.4551 19.4496 15.3892 17.6215 17.2455 16.2331C17.2934 16.1983 17.3533 16.1521 17.4132 16.0942C16.2874 13.919 15.1617 11.7554 14.024 9.55702C13.9641 9.64959 13.9401 9.69587 13.9162 9.74215C12.8503 11.7901 11.7844 13.8496 10.7186 15.8975C10.6228 16.0942 10.7066 16.1521 10.8383 16.2562C13.006 17.9339 13.9281 20.1091 13.3772 22.7355C12.8503 25.2926 11.1856 26.9587 8.5988 27.7223C8.15569 27.8727 7.71258 27.919 7.26946 28ZM6.77844 26.1372C9.46108 26.1256 11.6168 24.0314 11.6048 21.4512C11.6048 18.8711 9.42515 16.7884 6.74252 16.8C4.08383 16.8116 1.92814 18.9058 1.92814 21.4744C1.92814 24.0545 4.09581 26.1488 6.77844 26.1372ZM21.2575 26.1372C23.9281 26.1372 26.0958 24.043 26.0958 21.4512C26.0958 18.8826 23.9281 16.7884 21.2695 16.7884C18.5868 16.7884 16.4311 18.8711 16.4311 21.4628C16.4192 24.0545 18.5868 26.1372 21.2575 26.1372ZM18.5988 1.81653C18.1796 1.88595 17.7605 1.92066 17.3533 2.03636C15.1018 2.66116 13.7964 4.95207 14.479 7.03471C14.5269 7.18512 14.5988 7.25455 14.7545 7.30083C15.7246 7.57851 16.6826 7.53223 17.6168 7.17355C19.6407 6.40992 20.7425 4.25785 20.1317 2.32562C20.0838 2.16364 20 2.0595 19.8204 2.03636C19.4132 1.96694 19.018 1.88595 18.5988 1.81653ZM12.5868 7.41653C12.5868 7.37025 12.5988 7.33554 12.5868 7.30083C12.2515 6.07438 12.3593 4.88264 12.8383 3.71405C12.8743 3.63306 12.8263 3.48264 12.7665 3.40165C11.7126 2.10578 9.83234 1.55041 8.19162 2.02479C8.02395 2.07107 7.94012 2.15207 7.88024 2.32562C7.29341 4.17686 8.28743 6.24793 10.1796 7.08099C10.9461 7.41653 11.7365 7.56694 12.5868 7.41653Z" fill="white"/>
</g>
<defs>
<clipPath id="clip0_3259_63715">
<rect width="28" height="28" fill="white"/>
</clipPath>
</defs>
</svg>
