<svg width="28" height="28" viewBox="0 0 28 28" fill="none" xmlns="http://www.w3.org/2000/svg">
<path d="M14 0C6.2678 0 0 6.2678 0 14C0 21.7322 6.2678 28 14 28C21.7322 28 28 21.7322 28 14C28 6.2678 21.7322 0 14 0ZM11.3036 2.408C13.0777 1.99661 14.9223 1.99661 16.6964 2.408L14.0028 4.0222L11.3036 2.4066V2.408ZM8.7416 3.3222L12.9528 5.8422V8.9124L9.0454 11.7516L6.1838 10.7618L5.362 5.8142C6.33243 4.79036 7.47666 3.94664 8.7416 3.3222ZM3.626 8.169L4.1272 11.1888L2.128 13.188C2.246 11.4241 2.75788 9.70904 3.626 8.169ZM2.2708 16.0146L5.5286 12.7568L8.3846 13.7438L9.898 18.41L8.54 20.615L3.9298 20.3434C3.09617 19.0241 2.53186 17.5529 2.2694 16.0146H2.2708ZM5.7288 22.5526L8.3944 22.7094L9.3394 24.9522C7.99874 24.38 6.77447 23.5667 5.7274 22.5526H5.7288ZM11.9434 25.7222L10.2858 21.7896L11.634 19.5958H16.3548L17.6316 21.8092L16.1756 25.7012C14.7773 25.9594 13.3442 25.9665 11.9434 25.7222ZM18.7054 24.934L19.4992 22.8102L21.8372 22.9572C20.9024 23.7756 19.8452 24.4426 18.704 24.934H18.7054ZM23.6502 20.9664L19.4166 20.7004L18.1034 18.4268L19.6252 13.7438L22.4434 12.7694L25.6802 16.2974C25.35 17.9825 24.6574 19.5756 23.6502 20.9664ZM25.8874 13.419L23.8714 11.221L24.3782 8.1718C25.2835 9.77926 25.8004 11.5762 25.8874 13.419ZM22.6422 5.817L21.8176 10.7646L18.9616 11.7516L15.0542 8.9124V5.8408L19.257 3.3208C20.5243 3.9464 21.6705 4.79206 22.6422 5.8184V5.817ZM10.4552 13.3238L14.0042 10.745L17.5532 13.3238L16.198 17.4958H11.8104L10.4552 13.3238Z" fill="white"/>
</svg>
