<svg width="30" height="29" viewBox="0 0 30 29" fill="none" xmlns="http://www.w3.org/2000/svg">
<g filter="url(#filter0_b_370_3180)">
<path d="M3.44056e-06 6.00012C1.54039e-06 2.68641 2.68629 0.000123638 6 0.000123315L26.0093 0.000121366C27.9595 0.000121176 29.3913 1.83163 28.9206 3.72419L23.7269 24.6069C23.1726 26.8356 21.1713 28.4001 18.8747 28.4001L6.00001 28.4001C2.68631 28.4001 1.47449e-05 25.7138 1.28448e-05 22.4001L8.14266e-06 14.2001L3.44056e-06 6.00012Z" fill="url(#paint0_linear_370_3180)" fill-opacity="0.25"/>
<path d="M6 0.500123L26.0093 0.500121C27.6344 0.500121 28.8276 2.02638 28.4354 3.60351L23.2417 24.4862C22.7428 26.4921 20.9416 27.9001 18.8747 27.9001L6.00001 27.9001C2.96245 27.9001 0.500015 25.4377 0.500013 22.4001L0.500008 14.2001L0.500003 6.00012C0.500002 2.96256 2.96244 0.500124 6 0.500123Z" stroke="url(#paint1_linear_370_3180)" stroke-opacity="0.25"/>
</g>
<path fill-rule="evenodd" clip-rule="evenodd" d="M15.2066 19.3652C15.4201 19.1594 15.5401 18.8804 15.5401 18.5894C15.5401 18.2985 15.4201 18.0194 15.2066 17.8137L11.4553 14.2003L15.2066 10.587C15.4141 10.3801 15.5289 10.1029 15.5263 9.81519C15.5237 9.52748 15.4039 9.25227 15.1927 9.04883C14.9815 8.84539 14.6958 8.72999 14.3971 8.72749C14.0984 8.72499 13.8106 8.83559 13.5958 9.03547L9.0391 13.4246C8.82554 13.6303 8.70557 13.9094 8.70557 14.2003C8.70557 14.4913 8.82554 14.7703 9.0391 14.9761L13.5958 19.3652C13.8094 19.5709 14.0991 19.6865 14.4012 19.6865C14.7033 19.6865 14.993 19.5709 15.2066 19.3652V19.3652Z" fill="white" fill-opacity="0.25"/>
<defs>
<filter id="filter0_b_370_3180" x="-5" y="-4.99988" width="39.0107" height="38.4" filterUnits="userSpaceOnUse" color-interpolation-filters="sRGB">
<feFlood flood-opacity="0" result="BackgroundImageFix"/>
<feGaussianBlur in="BackgroundImageFix" stdDeviation="2.5"/>
<feComposite in2="SourceAlpha" operator="in" result="effect1_backgroundBlur_370_3180"/>
<feBlend mode="normal" in="SourceGraphic" in2="effect1_backgroundBlur_370_3180" result="shape"/>
</filter>
<linearGradient id="paint0_linear_370_3180" x1="-2.82356e-07" y1="28.4001" x2="6.73483" y2="-12.4331" gradientUnits="userSpaceOnUse">
<stop offset="0.0791864" stop-color="white" stop-opacity="0.42"/>
<stop offset="0.859375" stop-color="#333333" stop-opacity="0"/>
</linearGradient>
<linearGradient id="paint1_linear_370_3180" x1="0" y1="0.00012207" x2="13.9493" y2="42.7888" gradientUnits="userSpaceOnUse">
<stop stop-color="white"/>
<stop offset="1" stop-opacity="0"/>
</linearGradient>
</defs>
</svg>
