<svg width="32" height="32" viewBox="0 0 32 32" fill="none" xmlns="http://www.w3.org/2000/svg">
<path d="M26.6625 5.4552C29.4412 8.26132 31 12.0509 31 16C31 19.9491 29.4412 23.7387 26.6625 26.5448C26.6512 26.556 26.6421 26.563 26.6344 26.5689C26.6218 26.5785 26.6127 26.5854 26.6036 26.6036C26.5945 26.6218 26.5855 26.6287 26.5729 26.6383C26.5651 26.6443 26.556 26.6512 26.5448 26.6625L26.6625 5.4552ZM26.6625 5.4552C26.6512 5.44396 26.6443 5.43487 26.6383 5.42711C26.6287 5.41455 26.6218 5.40546 26.6036 5.39637C26.5854 5.38728 26.5785 5.37819 26.5689 5.36563C26.563 5.35787 26.556 5.34878 26.5448 5.33754M26.6625 5.4552L26.5448 5.33754M26.5448 5.33754C23.7387 2.5588 19.9491 1 16 1C12.0509 1 8.26132 2.5588 5.4552 5.33754H26.5448ZM26.7685 26.6509L26.769 26.6503C29.5756 23.8161 31.15 19.9887 31.15 16C31.15 12.0113 29.5756 8.18387 26.769 5.34965L26.7685 5.34913C26.7645 5.34508 26.7638 5.34416 26.761 5.34043C26.759 5.33784 26.756 5.33389 26.7502 5.32657C26.7434 5.31806 26.733 5.30584 26.7182 5.29334C26.7074 5.28413 26.6961 5.27629 26.6843 5.26949C26.6771 5.26028 26.6649 5.24555 26.6509 5.23147L26.6503 5.23096C23.8161 2.4244 19.9887 0.85 16 0.85C12.0113 0.85 8.18387 2.4244 5.34965 5.23096L5.34913 5.23148L5.2903 5.2903L5.23148 5.34913L5.23096 5.34965C2.4244 8.18387 0.85 12.0113 0.85 16C0.85 19.9887 2.4244 23.8161 5.23096 26.6503L5.23147 26.6509L5.27689 26.6963C5.28185 26.7038 5.2873 26.7111 5.29334 26.7182C5.30584 26.733 5.31806 26.7434 5.32657 26.7502C5.33389 26.756 5.33784 26.759 5.34043 26.761C5.34416 26.7638 5.34508 26.7645 5.34913 26.7685L5.34965 26.769C8.18387 29.5756 12.0113 31.15 16 31.15C19.9887 31.15 23.8161 29.5756 26.6503 26.769L26.6509 26.7685C26.6577 26.7617 26.6556 26.7644 26.6734 26.7502C26.6819 26.7434 26.6941 26.733 26.7067 26.7182C26.7159 26.7074 26.7237 26.6961 26.7305 26.6843C26.7397 26.6771 26.7544 26.6649 26.7685 26.6509ZM6.05118 24.4866C4.25494 22.393 3.17048 19.7825 2.9545 17.0324H6.79065C6.9839 18.7696 7.66453 20.4169 8.7539 21.7839L6.05118 24.4866ZM6.79065 14.9676H2.9545C3.17048 12.2175 4.25494 9.60701 6.05118 7.5134L8.7539 10.2161C7.66453 11.5831 6.9839 13.2304 6.79065 14.9676ZM23.2461 10.2161L25.9488 7.5134C27.7451 9.60701 28.8295 12.2175 29.0455 14.9676H25.2093C25.0161 13.2304 24.3355 11.5831 23.2461 10.2161ZM16 23.2034C14.5753 23.2034 13.1826 22.7809 11.998 21.9894C10.8134 21.1979 9.89012 20.0729 9.34491 18.7566C8.7997 17.4404 8.65705 15.992 8.93499 14.5947C9.21294 13.1974 9.899 11.9138 10.9064 10.9064C11.9138 9.899 13.1974 9.21294 14.5947 8.93499C15.992 8.65705 17.4404 8.7997 18.7566 9.34491C20.0729 9.89012 21.1979 10.8134 21.9894 11.998C22.7809 13.1826 23.2034 14.5753 23.2034 16C23.2034 17.9105 22.4445 19.7427 21.0936 21.0936C19.7427 22.4445 17.9105 23.2034 16 23.2034ZM21.7839 8.7539C20.4169 7.66453 18.7696 6.9839 17.0324 6.79065V2.9545C19.7825 3.17048 22.393 4.25494 24.4866 6.05118L21.7839 8.7539ZM14.9676 2.9545V6.79065C13.2304 6.9839 11.5831 7.66453 10.2161 8.7539L7.5134 6.05118C9.60701 4.25494 12.2175 3.17048 14.9676 2.9545ZM7.5134 25.9488L10.2161 23.2461C11.5831 24.3355 13.2304 25.0161 14.9676 25.2093V29.0455C12.2175 28.8295 9.60701 27.7451 7.5134 25.9488ZM17.0324 29.0455V25.2093C18.7696 25.0161 20.4169 24.3355 21.7839 23.2461L24.4866 25.9488C22.393 27.7451 19.7825 28.8295 17.0324 29.0455ZM25.9488 24.4866L23.2461 21.7839C24.3355 20.4169 25.0161 18.7696 25.2093 17.0324H29.0455C28.8295 19.7825 27.7451 22.393 25.9488 24.4866Z" fill="white" stroke="white" stroke-width="0.3"/>
</svg>
