<svg viewBox="0 0 21 20" fill="none" xmlns="http://www.w3.org/2000/svg">
<path fill-rule="evenodd" clip-rule="evenodd" d="M13.12 14.7799C13.3013 14.5986 13.4031 14.3528 13.4031 14.0964C13.4031 13.8401 13.3013 13.5943 13.12 13.413L9.93682 10.2298L13.12 7.04655C13.2961 6.86423 13.3936 6.62005 13.3914 6.36659C13.3892 6.11314 13.2875 5.87068 13.1083 5.69146C12.929 5.51223 12.6866 5.41056 12.4331 5.40836C12.1797 5.40616 11.9355 5.50359 11.7532 5.67968L7.88652 9.54635C7.7053 9.72762 7.60349 9.97345 7.60349 10.2298C7.60349 10.4861 7.7053 10.7319 7.88652 10.9132L11.7532 14.7799C11.9345 14.9611 12.1803 15.0629 12.4366 15.0629C12.6929 15.0629 12.9388 14.9611 13.12 14.7799Z" fill="currentColor"/>
</svg>
