<svg viewBox="0 0 13 10" fill="none" xmlns="http://www.w3.org/2000/svg">
<path d="M7.50673 9.25785C7.34529 9.09641 7.2678 8.90134 7.27426 8.67264C7.28126 8.44394 7.36547 8.24888 7.52691 8.08744L9.80717 5.80717H0.807175C0.578475 5.80717 0.386637 5.72969 0.231659 5.57471C0.0772199 5.42027 0 5.2287 0 5C0 4.7713 0.0772199 4.57946 0.231659 4.42448C0.386637 4.27004 0.578475 4.19282 0.807175 4.19282H9.80717L7.50673 1.89238C7.34529 1.73094 7.26457 1.5391 7.26457 1.31686C7.26457 1.09516 7.34529 0.903587 7.50673 0.742152C7.66816 0.580717 7.86 0.5 8.08224 0.5C8.30395 0.5 8.49552 0.580717 8.65695 0.742152L12.3498 4.43498C12.4305 4.5157 12.4878 4.60314 12.5217 4.69731C12.5551 4.79148 12.5717 4.89238 12.5717 5C12.5717 5.10762 12.5551 5.20852 12.5217 5.30269C12.4878 5.39686 12.4305 5.4843 12.3498 5.56502L8.63677 9.27803C8.48879 9.42601 8.30395 9.5 8.08224 9.5C7.86 9.5 7.66816 9.41928 7.50673 9.25785Z" fill="currentColor"/>
</svg>
