<svg viewBox="0 0 21 20" fill="none" xmlns="http://www.w3.org/2000/svg">
<path fill-rule="evenodd" clip-rule="evenodd" d="M7.87995 14.7799C7.69873 14.5986 7.59692 14.3528 7.59692 14.0964C7.59692 13.8401 7.69873 13.5943 7.87995 13.413L11.0632 10.2298L7.87995 7.04655C7.70386 6.86423 7.60643 6.62005 7.60863 6.36659C7.61083 6.11314 7.7125 5.87068 7.89173 5.69146C8.07095 5.51223 8.31341 5.41056 8.56686 5.40836C8.82032 5.40616 9.0645 5.50359 9.24682 5.67968L13.1135 9.54635C13.2947 9.72762 13.3965 9.97345 13.3965 10.2298C13.3965 10.4861 13.2947 10.7319 13.1135 10.9132L9.24682 14.7799C9.06554 14.9611 8.81971 15.0629 8.56338 15.0629C8.30706 15.0629 8.06123 14.9611 7.87995 14.7799Z" fill="currentColor"/>
</svg>
