<svg viewBox="0 0 82 82" fill="none" xmlns="http://www.w3.org/2000/svg">
<path d="M32.458 31.8601V50.1393C32.458 51.449 33.0559 52.4455 34.2518 53.1288C35.4476 53.8122 36.615 53.7552 37.7538 52.958L51.933 43.9038C53.0149 43.2205 53.5559 42.2524 53.5559 40.9997C53.5559 39.7469 53.0149 38.7788 51.933 38.0955L37.7538 29.0413C36.615 28.2441 35.4476 28.1872 34.2518 28.8705C33.0559 29.5538 32.458 30.5504 32.458 31.8601ZM40.9997 75.1663C36.2733 75.1663 31.8316 74.2689 27.6747 72.474C23.5177 70.6814 19.9018 68.2476 16.8268 65.1726C13.7518 62.0976 11.318 58.4816 9.52534 54.3247C7.73045 50.1677 6.83301 45.7261 6.83301 40.9997C6.83301 36.2733 7.73045 31.8316 9.52534 27.6747C11.318 23.5177 13.7518 19.9018 16.8268 16.8268C19.9018 13.7518 23.5177 11.3168 27.6747 9.52192C31.8316 7.72931 36.2733 6.83301 40.9997 6.83301C45.7261 6.83301 50.1677 7.72931 54.3247 9.52192C58.4816 11.3168 62.0976 13.7518 65.1726 16.8268C68.2476 19.9018 70.6814 23.5177 72.474 27.6747C74.2689 31.8316 75.1663 36.2733 75.1663 40.9997C75.1663 45.7261 74.2689 50.1677 72.474 54.3247C70.6814 58.4816 68.2476 62.0976 65.1726 65.1726C62.0976 68.2476 58.4816 70.6814 54.3247 72.474C50.1677 74.2689 45.7261 75.1663 40.9997 75.1663Z" fill="currentColor"/>
</svg>
