<svg width="28" height="28" viewBox="0 0 28 28" fill="currentColor" xmlns="http://www.w3.org/2000/svg">
<path fill-rule="evenodd" clip-rule="evenodd" d="M14 25.1998C16.9705 25.1998 19.8192 24.0198 21.9196 21.9194C24.0201 19.819 25.2001 16.9702 25.2001 13.9998C25.2001 11.0294 24.0201 8.18062 21.9196 6.08021C19.8192 3.9798 16.9705 2.7998 14 2.7998C11.0296 2.7998 8.18086 3.9798 6.08045 6.08021C3.98005 8.18062 2.80005 11.0294 2.80005 13.9998C2.80005 16.9702 3.98005 19.819 6.08045 21.9194C8.18086 24.0198 11.0296 25.1998 14 25.1998ZM19.1898 12.1896C19.4449 11.9256 19.586 11.5719 19.5828 11.2048C19.5796 10.8378 19.4324 10.4866 19.1728 10.2271C18.9132 9.96749 18.5621 9.82025 18.195 9.81706C17.8279 9.81387 17.4743 9.95498 17.2102 10.21L12.6 14.8202L10.7898 13.01C10.5258 12.755 10.1722 12.6139 9.80509 12.6171C9.43801 12.6203 9.08687 12.7675 8.8273 13.0271C8.56773 13.2866 8.4205 13.6378 8.41731 14.0048C8.41412 14.3719 8.55523 14.7256 8.81025 14.9896L11.6102 17.7896C11.8728 18.0521 12.2288 18.1995 12.6 18.1995C12.9713 18.1995 13.3273 18.0521 13.5898 17.7896L19.1898 12.1896Z" fill="currentColor" />
</svg>
