<svg width="50" height="50" viewBox="0 0 50 50" fill="none" xmlns="http://www.w3.org/2000/svg">
<g id="Arrow Right">
<g id="Frame">
<rect width="50" height="50" rx="25" transform="matrix(1 1.74846e-07 1.74846e-07 -1 0 50)" fill="#07243A" fill-opacity="0.6"/>
<path id="Vector" fill-rule="evenodd" clip-rule="evenodd" d="M21.847 18.2757C21.5792 18.5439 21.4287 18.9076 21.4287 19.2869C21.4287 19.6662 21.5792 20.03 21.847 20.2982L26.5516 25.0084L21.847 29.7185C21.5868 29.9883 21.4428 30.3496 21.446 30.7246C21.4493 31.0997 21.5995 31.4584 21.8644 31.7236C22.1293 31.9888 22.4876 32.1393 22.8622 32.1425C23.2368 32.1458 23.5977 32.0016 23.8672 31.7411L29.5818 26.0196C29.8497 25.7514 30.0001 25.3876 30.0001 25.0084C30.0001 24.6291 29.8497 24.2653 29.5818 23.9971L23.8672 18.2757C23.5992 18.0075 23.2359 17.8569 22.8571 17.8569C22.4782 17.8569 22.1149 18.0075 21.847 18.2757Z" fill="white"/>
</g>
</g>
</svg>
