<svg width="50" height="50" viewBox="0 0 50 50" fill="none" xmlns="http://www.w3.org/2000/svg">
<g id="Arrow Right">
<g id="Frame">
<rect width="50" height="50" rx="25" transform="matrix(-1 0 0 1 50 0)" fill="#07243A" fill-opacity="0.6"/>
<path id="Vector" fill-rule="evenodd" clip-rule="evenodd" d="M28.153 31.7243C28.4208 31.4561 28.5713 31.0924 28.5713 30.7131C28.5713 30.3338 28.4208 29.97 28.153 29.7018L23.4484 24.9916L28.153 20.2815C28.4132 20.0117 28.5572 19.6504 28.554 19.2754C28.5507 18.9003 28.4005 18.5416 28.1356 18.2764C27.8707 18.0112 27.5124 17.8607 27.1378 17.8575C26.7632 17.8542 26.4023 17.9984 26.1328 18.2589L20.4182 23.9804C20.1503 24.2486 19.9999 24.6124 19.9999 24.9916C19.9999 25.3709 20.1503 25.7347 20.4182 26.0029L26.1328 31.7243C26.4008 31.9925 26.7641 32.1431 27.1429 32.1431C27.5218 32.1431 27.8851 31.9925 28.153 31.7243Z" fill="white"/>
</g>
</g>
</svg>
