<svg width="20" height="21" viewBox="0 0 20 21" fill="none" xmlns="http://www.w3.org/2000/svg">

<path d="M8.33398 7.16675H16.6673C17.5865 7.16675 18.334 7.91425 18.334 8.83342V17.1668C18.334 18.0859 17.5865 18.8334 16.6673 18.8334H8.33398C7.41482 18.8334 6.66732 18.0859 6.66732 17.1668V8.83342C6.66732 7.91425 7.41482 7.16675 8.33398 7.16675Z" fill="currentColor"/>
<path d="M3.33398 2.16675H11.6673C12.1093 2.16675 12.5333 2.34234 12.8458 2.6549C13.1584 2.96746 13.334 3.39139 13.334 3.83342V5.50008H6.66732C6.22529 5.50008 5.80136 5.67568 5.4888 5.98824C5.17624 6.3008 5.00065 6.72472 5.00065 7.16675V13.8334H3.33398C2.89195 13.8334 2.46803 13.6578 2.15547 13.3453C1.84291 13.0327 1.66731 12.6088 1.66731 12.1667V3.83342C1.66731 3.39139 1.84291 2.96746 2.15547 2.6549C2.46803 2.34234 2.89195 2.16675 3.33398 2.16675Z" fill="currentColor" />

</svg>
