<svg viewBox="0 0 32 28" fill="none" xmlns="http://www.w3.org/2000/svg">
<path d="M29.3645 5.09091H3.90998C3.57243 5.09091 3.24871 4.95682 3.01002 4.71814C2.77134 4.47945 2.63725 4.15573 2.63725 3.81818C2.63725 3.48063 2.77134 3.15691 3.01002 2.91823C3.24871 2.67955 3.57243 2.54545 3.90998 2.54545H25.5463C25.8839 2.54545 26.2076 2.41136 26.4463 2.17268C26.685 1.934 26.8191 1.61028 26.8191 1.27273C26.8191 0.935179 26.685 0.611456 26.4463 0.372773C26.2076 0.134091 25.8839 0 25.5463 0H3.90998C2.89862 0.00418786 1.92989 0.407804 1.21474 1.12295C0.499601 1.83809 0.0959847 2.80683 0.0917969 3.81818V24.1818C0.0959847 25.1932 0.499601 26.1619 1.21474 26.8771C1.92989 27.5922 2.89862 27.9958 3.90998 28H29.3645C30.0396 28 30.6871 27.7318 31.1644 27.2545C31.6418 26.7771 31.91 26.1296 31.91 25.4545V7.63636C31.91 6.96127 31.6418 6.31382 31.1644 5.83646C30.6871 5.35909 30.0396 5.09091 29.3645 5.09091ZM29.3645 25.4545H3.90998C3.57243 25.4545 3.24871 25.3205 3.01002 25.0818C2.77134 24.8431 2.63725 24.5194 2.63725 24.1818V7.41364C3.04544 7.56087 3.47605 7.63623 3.90998 7.63636H29.3645V25.4545ZM21.7282 16.5455C21.7282 16.1679 21.8401 15.7988 22.0499 15.4848C22.2597 15.1709 22.5578 14.9262 22.9067 14.7817C23.2555 14.6372 23.6394 14.5994 24.0097 14.673C24.38 14.7467 24.7202 14.9285 24.9872 15.1955C25.2542 15.4625 25.436 15.8027 25.5097 16.173C25.5833 16.5433 25.5455 16.9272 25.401 17.276C25.2565 17.6249 25.0118 17.923 24.6979 18.1328C24.3839 18.3426 24.0148 18.4545 23.6373 18.4545C23.1309 18.4545 22.6453 18.2534 22.2873 17.8954C21.9293 17.5374 21.7282 17.0518 21.7282 16.5455Z" fill="white"/>
</svg>
