<svg viewBox="0 0 24 24" fill="none" xmlns="http://www.w3.org/2000/svg">
<path d="M19 3V7M19 21V11M12 3V15M12 21V19M5 3V5M5 21V9" stroke="currentColor" stroke-width="2" stroke-linecap="round"/>
<path d="M17 9C17 10.1046 17.8954 11 19 11C20.1046 11 21 10.1046 21 9C21 7.89543 20.1046 7 19 7C17.8954 7 17 7.89543 17 9Z" stroke="currentColor" stroke-width="2" stroke-linecap="round"/>
<path d="M10 17C10 18.1046 10.8954 19 12 19C13.1046 19 14 18.1046 14 17C14 15.8954 13.1046 15 12 15C10.8954 15 10 15.8954 10 17Z" stroke="currentColor" stroke-width="2" stroke-linecap="round"/>
<path d="M3 7C3 8.10457 3.89543 9 5 9C6.10457 9 7 8.10457 7 7C7 5.89543 6.10457 5 5 5C3.89543 5 3 5.89543 3 7Z" stroke="currentColor" stroke-width="2" stroke-linecap="round"/>
</svg>
