<svg width="18" height="18" viewBox="0 0 18 18" fill="none" xmlns="http://www.w3.org/2000/svg">
<path d="M17.0625 13.125C17.0625 13.4325 16.8075 13.6875 16.5 13.6875H11.25V13.875C11.25 15 10.575 15.375 9.75 15.375H5.25C4.425 15.375 3.75 15 3.75 13.875V13.6875H1.5C1.1925 13.6875 0.9375 13.4325 0.9375 13.125C0.9375 12.8175 1.1925 12.5625 1.5 12.5625H3.75V12.375C3.75 11.25 4.425 10.875 5.25 10.875H9.75C10.575 10.875 11.25 11.25 11.25 12.375V12.5625H16.5C16.8075 12.5625 17.0625 12.8175 17.0625 13.125Z" fill="currentColor"/>
<path d="M17.0625 4.875C17.0625 5.1825 16.8075 5.4375 16.5 5.4375H14.25V5.625C14.25 6.75 13.575 7.125 12.75 7.125H8.25C7.425 7.125 6.75 6.75 6.75 5.625V5.4375H1.5C1.1925 5.4375 0.9375 5.1825 0.9375 4.875C0.9375 4.5675 1.1925 4.3125 1.5 4.3125H6.75V4.125C6.75 3 7.425 2.625 8.25 2.625H12.75C13.575 2.625 14.25 3 14.25 4.125V4.3125H16.5C16.8075 4.3125 17.0625 4.5675 17.0625 4.875Z" fill="currentColor"/>
</svg>
