<svg width="44" height="54" viewBox="0 0 44 54" fill="none" xmlns="http://www.w3.org/2000/svg">
<path d="M3.8155 11.16L17.8155 2.56808C20.3827 0.992548 23.6173 0.992549 26.1845 2.56808L40.1178 11.1191C42.5246 12.5962 43.9743 15.2326 43.9324 18.0561L43.6696 35.7773C43.6287 38.5315 42.1739 41.0709 39.8187 42.4991L26.1547 50.7854C23.6303 52.3163 20.468 52.3324 17.9282 50.8274L3.9217 42.5275C1.49071 41.087 0 38.4709 0 35.6452V17.9784C0 15.1968 1.4448 12.615 3.8155 11.16Z" fill="#2F5064"/>
<path d="M7.36989 14.5133L18.8801 7.50656C20.7964 6.34001 23.2035 6.34001 25.1198 7.50657L36.5794 14.4825C38.3953 15.5879 39.4906 17.5717 39.4589 19.6973L39.2448 34.0137C39.2138 36.0867 38.1148 37.9969 36.3382 39.0655L25.1002 45.8254C23.216 46.9588 20.8628 46.9707 18.9671 45.8565L7.44941 39.0867C5.61577 38.009 4.48975 36.041 4.48975 33.9141V19.6384C4.48975 17.5445 5.58134 15.6021 7.36989 14.5133Z" fill="#042B43"/>
<path fill-rule="evenodd" clip-rule="evenodd" d="M17.4079 20.5417C14.6131 20.5417 12.4662 23.017 12.8615 25.7837L13.0539 27.1306L14.2675 31.3781C14.6193 32.6094 15.7447 33.4583 17.0252 33.4583C18.0012 33.4583 18.9101 32.9621 19.4379 32.1411L19.7499 31.6559C20.8028 30.018 23.197 30.018 24.25 31.6559L24.4408 31.9527C25.044 32.8911 26.083 33.4583 27.1986 33.4583C28.8301 33.4583 30.2133 32.2586 30.4441 30.6435L31.1383 25.7838C31.5336 23.017 29.3867 20.5417 26.5919 20.5417C25.9493 20.5417 25.3139 20.6765 24.7267 20.9375L24.2842 21.1341C23.4297 21.5139 23.0838 21.6642 22.7353 21.7381C22.2505 21.8411 21.7494 21.8411 21.2645 21.7381C20.916 21.6642 20.5701 21.5139 19.7156 21.1341L19.2732 20.9375C18.6859 20.6765 18.0505 20.5417 17.4079 20.5417ZM17.8332 23.875C18.1784 23.875 18.4582 24.1548 18.4582 24.5V25.5417H19.4999C19.8451 25.5417 20.1249 25.8215 20.1249 26.1667C20.1249 26.5118 19.8451 26.7917 19.4999 26.7917H18.4582V27.8333C18.4582 28.1785 18.1784 28.4583 17.8332 28.4583C17.488 28.4583 17.2082 28.1785 17.2082 27.8333V26.7917H16.1666C15.8214 26.7917 15.5416 26.5118 15.5416 26.1667C15.5416 25.8215 15.8214 25.5417 16.1666 25.5417H17.2082V24.5C17.2082 24.1548 17.488 23.875 17.8332 23.875ZM26.1666 25.3333C26.6268 25.3333 26.9999 24.9602 26.9999 24.5C26.9999 24.0398 26.6268 23.6667 26.1666 23.6667C25.7064 23.6667 25.3333 24.0398 25.3333 24.5C25.3333 24.9602 25.7064 25.3333 26.1666 25.3333ZM24.4999 27C24.9602 27 25.3333 26.6269 25.3333 26.1667C25.3333 25.7064 24.9602 25.3333 24.4999 25.3333C24.0397 25.3333 23.6666 25.7064 23.6666 26.1667C23.6666 26.6269 24.0397 27 24.4999 27ZM28.6666 26.1667C28.6666 26.6269 28.2935 27 27.8333 27C27.373 27 26.9999 26.6269 26.9999 26.1667C26.9999 25.7064 27.373 25.3333 27.8333 25.3333C28.2935 25.3333 28.6666 25.7064 28.6666 26.1667ZM26.1666 28.6667C26.6268 28.6667 26.9999 28.2936 26.9999 27.8333C26.9999 27.3731 26.6268 27 26.1666 27C25.7064 27 25.3333 27.3731 25.3333 27.8333C25.3333 28.2936 25.7064 28.6667 26.1666 28.6667Z" fill="#E4F2FF" fill-opacity="0.6"/>
</svg>
