<svg width="18" height="18" viewBox="0 0 18 18" fill="none" xmlns="http://www.w3.org/2000/svg">
<path d="M15.6225 6.00751L10.71 2.07751C9.74997 1.31251 8.24997 1.30501 7.29747 2.07001L2.38497 6.00751C1.67997 6.57001 1.25247 7.69501 1.40247 8.58001L2.34747 14.235C2.56497 15.5025 3.74247 16.5 5.02497 16.5H12.975C14.2425 16.5 15.4425 15.48 15.66 14.2275L16.605 8.57251C16.74 7.69501 16.3125 6.57001 15.6225 6.00751ZM9.56247 13.5C9.56247 13.8075 9.30747 14.0625 8.99997 14.0625C8.69247 14.0625 8.43747 13.8075 8.43747 13.5V11.25C8.43747 10.9425 8.69247 10.6875 8.99997 10.6875C9.30747 10.6875 9.56247 10.9425 9.56247 11.25V13.5Z" fill="#D3F2FF"/>
</svg>
