<svg width="20" height="20" viewBox="0 0 20 20" fill="none" xmlns="http://www.w3.org/2000/svg">
<path d="M12.6834 5.4585H4.81669C4.58335 5.4585 4.36669 5.46683 4.16669 5.47516C2.19169 5.59183 1.66669 6.31683 1.66669 8.56683V9.05016C1.66669 9.5085 2.04169 9.8835 2.50002 9.8835H15C15.4584 9.8835 15.8334 9.5085 15.8334 9.05016V8.56683C15.8334 6.0835 15.2 5.4585 12.6834 5.4585Z" fill="currentColor" fill-opacity="1"/>
<path d="M2.50002 11.1333C2.04169 11.1333 1.66669 11.5083 1.66669 11.9666V14.3916C1.66669 16.875 2.30002 17.5 4.81669 17.5H12.6834C15.1584 17.5 15.8084 16.9 15.8334 14.525V11.9666C15.8334 11.5083 15.4584 11.1333 15 11.1333H2.50002ZM5.80002 15.4666H4.37502C4.03335 15.4666 3.75002 15.1833 3.75002 14.8416C3.75002 14.5 4.03335 14.2166 4.37502 14.2166H5.80835C6.15002 14.2166 6.43335 14.5 6.43335 14.8416C6.43335 15.1833 6.15002 15.4666 5.80002 15.4666ZM10.4584 15.4666H7.59169C7.25002 15.4666 6.96669 15.1833 6.96669 14.8416C6.96669 14.5 7.25002 14.2166 7.59169 14.2166H10.4584C10.8 14.2166 11.0834 14.5 11.0834 14.8416C11.0834 15.1833 10.8084 15.4666 10.4584 15.4666Z" fill="currentColor" fill-opacity="1"/>
<path d="M18.3333 11.1083V6.74167C18.3333 4.13333 16.8417 3 14.5917 3H7.15001C6.51668 3 5.95001 3.09167 5.45001 3.28333C5.05834 3.425 4.70834 3.63333 4.42501 3.90833C4.27501 4.05 4.39168 4.28333 4.60834 4.28333H13.6667C15.5417 4.28333 17.0583 5.8 17.0583 7.675V13.65C17.0583 13.8583 17.2833 13.975 17.4333 13.825C18.0083 13.2167 18.3333 12.325 18.3333 11.1083Z" fill="currentColor" fill-opacity="1"/>
</svg>
