<svg viewBox="0 0 20 20" fill="none" xmlns="http://www.w3.org/2000/svg">
<path d="M7.50008 1.66675C5.31675 1.66675 3.54175 3.44175 3.54175 5.62508C3.54175 7.76675 5.21675 9.50008 7.40008 9.57508C7.46675 9.56675 7.53341 9.56675 7.58342 9.57508C7.60008 9.57508 7.60841 9.57508 7.62508 9.57508C7.63341 9.57508 7.63341 9.57508 7.64175 9.57508C9.77508 9.50008 11.4501 7.76675 11.4584 5.62508C11.4584 3.44175 9.68341 1.66675 7.50008 1.66675Z" fill="currentColor"/>
<path d="M11.7333 11.7917C9.4083 10.2417 5.61663 10.2417 3.27497 11.7917C2.21663 12.5 1.6333 13.4583 1.6333 14.4833C1.6333 15.5083 2.21663 16.4583 3.26663 17.1583C4.4333 17.9417 5.96663 18.3333 7.49997 18.3333C9.0333 18.3333 10.5666 17.9417 11.7333 17.1583C12.7833 16.45 13.3666 15.5 13.3666 14.4667C13.3583 13.4417 12.7833 12.4917 11.7333 11.7917Z" fill="currentColor"/>
<path d="M16.6583 6.11659C16.7916 7.73325 15.6416 9.14992 14.05 9.34159C14.0416 9.34159 14.0416 9.34159 14.0333 9.34159H14.0083C13.9583 9.34159 13.9083 9.34159 13.8666 9.35825C13.0583 9.39992 12.3166 9.14159 11.7583 8.66659C12.6166 7.89992 13.1083 6.74992 13.0083 5.49992C12.95 4.82492 12.7166 4.20825 12.3666 3.68325C12.6833 3.52492 13.05 3.42492 13.425 3.39159C15.0583 3.24992 16.5166 4.46659 16.6583 6.11659Z" fill="currentColor"/>
<path d="M18.3251 13.8249C18.2584 14.6333 17.7418 15.3333 16.8751 15.8083C16.0418 16.2666 14.9918 16.4833 13.9501 16.4583C14.5501 15.9166 14.9001 15.2416 14.9668 14.5249C15.0501 13.4916 14.5584 12.4999 13.5751 11.7083C13.0168 11.2666 12.3668 10.9166 11.6584 10.6583C13.5001 10.1249 15.8168 10.4833 17.2418 11.6333C18.0084 12.2499 18.4001 13.0249 18.3251 13.8249Z" fill="currentColor"/>
</svg>
