<svg width="55" height="16" viewBox="0 0 55 16" fill="none" xmlns="http://www.w3.org/2000/svg">
<g clip-path="url(#clip0_2521_70005)">
<path d="M1.66564 1.60973C3.99921 0.531096 6.4218 0 8.92456 0C8.94227 0 8.95998 0 8.97793 0C8.99588 0 9.01359 0 9.03129 0C11.5341 0 13.9567 0.531096 16.2902 1.60973L16.4329 1.7464C17.3858 3.77456 17.9291 5.84295 17.9559 7.94356C17.9559 7.98378 17.9559 8.016 17.9559 8.05622V8.20111C17.947 10.2213 17.466 12.2817 16.4329 14.3743L16.2725 14.5109C13.8411 15.4849 11.4094 15.9758 8.97793 16C6.54648 15.9758 4.11479 15.4849 1.68335 14.5109L1.523 14.3743C0.48988 12.2817 0.00885325 10.2213 0 8.20111V8.05622C0 8.016 0 7.98378 0 7.94356C0.0268057 5.84295 0.570051 3.77456 1.523 1.7464L1.66564 1.60973ZM8.97793 0.547318C8.95998 0.547318 8.94227 0.547318 8.92456 0.547318C6.54648 0.547318 4.25743 1.04619 2.03969 2.05239C1.1401 3.98389 0.632515 5.94761 0.60571 7.95178C0.570051 9.9395 1.02427 11.9757 2.03084 14.0523C4.34645 14.9616 6.66207 15.4285 8.97793 15.4527C11.2935 15.4285 13.6094 14.9616 15.925 14.0523C16.9316 11.9757 17.3858 9.9395 17.3501 7.95178C17.3233 5.94761 16.8158 3.98389 15.9162 2.05239C13.6984 1.04619 11.4094 0.547318 9.03129 0.547318C9.01359 0.547318 8.99588 0.547318 8.97793 0.547318Z" fill="#E4F2FF"/>
<path fill-rule="evenodd" clip-rule="evenodd" d="M9.13634 12.4667C9.01166 10.9294 9.09183 9.32788 8.584 7.86303C8.11207 6.49485 6.32175 5.7142 6.28609 4.20913C6.25043 3.03405 7.23929 1.67387 9.09183 1.67387C10.8285 1.66587 11.9062 2.80873 12.0309 4.08047C12.1823 5.55332 10.2051 6.54307 9.68844 7.94347C9.15405 9.3761 9.30554 10.9616 9.13634 12.4667Z" fill="#E4F2FF"/>
<path fill-rule="evenodd" clip-rule="evenodd" d="M9.82487 12.0965C9.75355 10.7605 9.75355 9.48079 10.1633 8.34593C10.6175 7.05819 11.5616 5.97178 13.0044 5.61756C13.993 5.37624 15.445 6.42243 15.2133 7.49284C15.0173 8.35393 14.0643 9.36813 12.5325 9.48079C11.8198 9.53723 11.5171 10.0521 11.0717 10.3501C13.0669 10.173 14.3582 9.46457 15.2578 8.72414C15.3913 9.3519 15.4804 10.4063 14.9371 10.7685C13.8683 11.4525 12.8797 10.8972 11.6238 11.2192C10.9202 11.4043 10.4839 11.8067 9.82487 12.0965Z" fill="#E4F2FF"/>
<path fill-rule="evenodd" clip-rule="evenodd" d="M8.46289 12.0965C8.54306 10.7605 8.53421 9.48079 8.13335 8.34593C7.67913 7.05819 6.73503 5.97178 5.2922 5.61756C4.30359 5.37624 2.8428 6.42243 3.08331 7.49284C3.27931 8.35393 4.23227 9.36813 5.76437 9.48079C6.46796 9.53723 6.77954 10.0521 7.22491 10.3501C5.22088 10.173 3.93839 9.46457 3.0388 8.72414C2.90527 9.3519 2.81624 10.4063 3.35949 10.7685C4.42827 11.4525 5.41688 10.8972 6.67281 11.2192C7.3764 11.4043 7.80382 11.8067 8.46289 12.0965Z" fill="#E4F2FF"/>
<path fill-rule="evenodd" clip-rule="evenodd" d="M13.2101 14.0845V13.8672L13.3881 13.827L13.2101 13.5854V13.183L14.0118 14.1892L13.7267 14.2534L13.5307 14.0039L13.2101 14.0845ZM13.2101 13.183V13.5854L13.0854 13.4246L13.032 13.9074L13.2101 13.8672V14.0845L13.0052 14.1248L12.9696 14.4225L12.6845 14.487L12.8717 13.175L13.1567 13.1106L13.2101 13.183ZM10.5558 14.7847V14.5754H10.6183C10.7162 14.5674 10.7786 14.5594 10.8052 14.5512C10.8408 14.5432 10.8765 14.519 10.8944 14.495C10.921 14.4627 10.9301 14.4305 10.9301 14.3903C10.921 14.3501 10.9122 14.3179 10.8854 14.2936C10.8676 14.2696 10.832 14.2534 10.7963 14.2454C10.7607 14.2374 10.6805 14.2374 10.5558 14.2454V14.0361C10.6271 14.0361 10.6716 14.0281 10.6896 14.0281C10.7341 14.0201 10.7698 13.9959 10.7963 13.9719C10.8231 13.9476 10.832 13.9154 10.8231 13.8752C10.8231 13.835 10.8052 13.8028 10.7786 13.7868C10.7607 13.7625 10.725 13.7465 10.6716 13.7465C10.6539 13.7465 10.6183 13.7465 10.5558 13.7545V13.5452C10.6539 13.5372 10.725 13.5372 10.7698 13.5452C10.8231 13.5452 10.8765 13.5614 10.921 13.5854C10.9655 13.6017 11.0012 13.6337 11.0368 13.6741C11.0636 13.7143 11.0814 13.7625 11.0902 13.8188C11.0993 13.8752 11.0814 13.9316 11.0545 13.9799C11.028 14.0281 10.9835 14.0683 10.921 14.1005C11.01 14.1168 11.0814 14.1488 11.1259 14.1972C11.1795 14.2454 11.206 14.3019 11.2149 14.3743C11.2149 14.4305 11.206 14.487 11.1883 14.5432C11.1615 14.5996 11.1259 14.6399 11.0814 14.6801C11.028 14.7123 10.9746 14.7363 10.9033 14.7525C10.8588 14.7605 10.743 14.7685 10.5738 14.7847H10.5558ZM12.2392 14.1085L12.5153 14.1408C12.4976 14.2776 12.4531 14.3903 12.3729 14.4707C12.2928 14.5432 12.1769 14.5996 12.0343 14.6236C11.8563 14.6479 11.6959 14.6156 11.5624 14.5272C11.4197 14.4305 11.3396 14.2936 11.2951 14.1005C11.2596 13.8994 11.2862 13.7303 11.3843 13.6017C11.4734 13.4728 11.6157 13.3923 11.8029 13.3601C11.9721 13.3359 12.1056 13.3601 12.2303 13.4326C12.3016 13.4728 12.3638 13.5372 12.4084 13.6337L12.1501 13.7303C12.1236 13.6741 12.0788 13.6257 12.0255 13.6017C11.9632 13.5694 11.9008 13.5614 11.8295 13.5694C11.7316 13.5854 11.6603 13.6337 11.6069 13.7063C11.5535 13.7868 11.5444 13.8914 11.5712 14.0361C11.6069 14.1892 11.6603 14.2936 11.7316 14.3501C11.8029 14.4065 11.8919 14.4305 11.9898 14.4145C12.0611 14.3983 12.1145 14.3661 12.159 14.3179C12.2037 14.2696 12.2303 14.1972 12.2392 14.1085ZM10.5558 13.5452V13.7545C10.5204 13.7545 10.4847 13.7625 10.4402 13.7625L10.2799 13.7788L10.3064 14.0603L10.4936 14.0443C10.5113 14.0443 10.5381 14.0443 10.5558 14.0361V14.2454C10.5558 14.2454 10.5558 14.2454 10.547 14.2454L10.3333 14.2616L10.3601 14.5914L10.5558 14.5754V14.7847L10.1104 14.825L9.98576 13.5934L10.5293 13.5532C10.5381 13.5452 10.547 13.5452 10.5558 13.5452ZM8.83681 14.3581V14.1488C8.89927 14.1488 8.93493 14.1408 8.96149 14.1328C8.99715 14.1248 9.02396 14.1005 9.05076 14.0765C9.06847 14.0443 9.07732 14.0121 9.07732 13.9799C9.08642 13.9316 9.06847 13.8994 9.04166 13.8672C9.0151 13.835 8.97944 13.8188 8.93493 13.8108C8.90813 13.8108 8.88132 13.8028 8.83681 13.8028V13.5934C8.97059 13.5934 9.05076 13.6017 9.09527 13.6177C9.17545 13.6337 9.23766 13.6741 9.29103 13.7383C9.34464 13.8028 9.3712 13.8832 9.36235 13.9799C9.36235 14.0523 9.34464 14.1168 9.31783 14.173C9.28218 14.2214 9.24652 14.2616 9.202 14.2936C9.14864 14.3179 9.10413 14.3339 9.05076 14.3501C8.99715 14.3581 8.92608 14.3581 8.83681 14.3581ZM8.83681 13.5934V13.8028C8.81025 13.8028 8.77459 13.8028 8.73008 13.8028L8.59654 13.7948V14.1488H8.73893C8.77459 14.1488 8.81025 14.1488 8.83681 14.1488V14.3581C8.8191 14.3581 8.7923 14.3581 8.76574 14.3581H8.58744L8.57859 14.825L8.30242 14.8167L8.32922 13.5854L8.76574 13.5934C8.7923 13.5934 8.8191 13.5934 8.83681 13.5934ZM6.26297 14.2374V13.8592C6.34315 13.8752 6.39651 13.8752 6.42332 13.8752C6.45898 13.8672 6.48553 13.8592 6.51234 13.835C6.53005 13.8108 6.548 13.7868 6.55685 13.7465C6.56571 13.7063 6.55685 13.6741 6.5389 13.6419C6.52119 13.6097 6.48554 13.5934 6.44102 13.5774C6.42332 13.5694 6.36085 13.5614 6.26297 13.5452V13.3359L6.3788 13.3521C6.52119 13.3763 6.61907 13.4003 6.68154 13.4326C6.74375 13.4648 6.78851 13.513 6.81507 13.5774C6.84188 13.6337 6.85073 13.7063 6.83302 13.7788C6.81507 13.8672 6.77056 13.9396 6.69924 13.9879C6.63702 14.0361 6.5389 14.0603 6.41422 14.0603C6.46783 14.1005 6.51234 14.1408 6.5389 14.181C6.57456 14.2294 6.61022 14.3019 6.65473 14.4065L6.77056 14.6721L6.44988 14.6156L6.30749 14.3179C6.28953 14.2936 6.28068 14.2616 6.26297 14.2374ZM7.04673 13.4728L7.3138 13.497L7.25159 14.165C7.24273 14.2696 7.24273 14.3421 7.24273 14.3661C7.25159 14.4225 7.27815 14.4627 7.3138 14.495C7.35832 14.5352 7.41193 14.5512 7.4921 14.5594C7.57227 14.5674 7.63449 14.5512 7.67015 14.5272C7.71466 14.503 7.74147 14.4707 7.75917 14.4305C7.76803 14.3903 7.77712 14.3179 7.78598 14.2214L7.8482 13.5372L8.12437 13.5614L8.06215 14.2052C8.05305 14.3581 8.03534 14.4627 8.00854 14.519C7.99083 14.5754 7.95517 14.6316 7.91951 14.6639C7.875 14.7043 7.81278 14.7363 7.74147 14.7525C7.679 14.7767 7.58998 14.7767 7.483 14.7685C7.34946 14.7605 7.25159 14.7363 7.18912 14.7043C7.1269 14.6721 7.07329 14.6316 7.03788 14.5914C7.00222 14.5432 6.98427 14.495 6.97541 14.4467C6.96656 14.3743 6.96656 14.2696 6.97541 14.1328L7.04673 13.4728ZM4.88236 13.835L4.93573 13.6337L5.51488 13.7705L5.37224 14.2454C5.30092 14.2856 5.2119 14.3099 5.08721 14.3179C4.97138 14.3259 4.86465 14.3179 4.75768 14.2936C4.61529 14.2616 4.49946 14.2052 4.41929 14.1328C4.33026 14.0523 4.27665 13.9556 4.25009 13.851C4.23214 13.7383 4.23214 13.6257 4.2678 13.513C4.30346 13.3923 4.36567 13.2877 4.45495 13.1992C4.53512 13.1186 4.64185 13.0703 4.76653 13.0463C4.86465 13.0221 4.98024 13.0301 5.10517 13.0623C5.26526 13.1026 5.38995 13.159 5.46126 13.2474C5.53258 13.3279 5.56824 13.4326 5.55939 13.5452L5.28322 13.5292C5.28322 13.4648 5.26526 13.4083 5.22075 13.3601C5.17624 13.3199 5.12287 13.2797 5.0427 13.2637C4.92687 13.2394 4.82899 13.2474 4.73997 13.2957C4.6507 13.3441 4.58848 13.4406 4.54397 13.5694C4.49946 13.7143 4.50831 13.827 4.55282 13.9154C4.60619 14.0039 4.68636 14.0603 4.79334 14.0845C4.85555 14.1005 4.90917 14.1005 4.97138 14.1005C5.03385 14.0925 5.08721 14.0765 5.14058 14.0603L5.18509 13.9074L4.88236 13.835ZM6.26297 13.3359L5.79965 13.2637L5.56824 14.4787L5.83531 14.519L5.93344 14.0121L5.99566 14.0201C6.05812 14.0281 6.10263 14.0443 6.12919 14.0523C6.156 14.0683 6.1737 14.0925 6.20051 14.1168C6.20936 14.1408 6.23617 14.181 6.26297 14.2374V13.8592C6.23617 13.8592 6.20936 13.851 6.1737 13.851L5.97795 13.8188L6.03131 13.513L6.24502 13.5452C6.25388 13.5452 6.26297 13.5452 6.26297 13.5452V13.3359Z" fill="#E4F2FF"/>
<path fill-rule="evenodd" clip-rule="evenodd" d="M48.7093 11.831V9.56133H49.8138V5.56944L48.7093 7.56539V2.58352H53.0469L54.1514 14.0603H49.8138V11.831H48.7093ZM48.7093 2.58352V7.56539L47.6049 9.56133H48.7093V11.831H46.6254L45.7703 13.9397H43.0804V11.3159L46.0819 5.46478H45.4673L47.1775 2.58352H48.7093ZM43.0804 6.40653L44.4253 3.52505L43.0804 2.84907V6.40653ZM32.3834 5.30389C32.4459 4.9739 32.4459 4.65191 32.3834 4.34614V5.30389ZM43.0804 2.84907V6.40653L42.9023 6.79274C40.2481 5.07857 36.3293 6.63986 36.1065 8.45069C35.8839 10.342 37.4782 11.8713 41.5485 10.7284L40.1502 14.1085C34.7795 14.6479 32.6953 12.7244 32.3834 10.4789V9.20734C32.4636 8.6198 32.6331 8.04826 32.8645 7.51716C35.5099 1.57755 39.8027 2.91351 41.4327 2.80085L41.6732 2.14087L43.0804 2.84907ZM43.0804 11.3159L41.7354 13.9397H43.0804V11.3159ZM27.5562 13.8672C30.433 13.3521 33.2565 10.2293 30.4242 7.74249C31.5286 7.21117 32.2142 6.25364 32.3834 5.30389V4.34614C32.1877 3.35617 31.3415 2.5513 29.7471 2.52708L27.5562 2.48686V4.69213H28.4647C29.4356 4.69213 29.3109 6.96185 28.0995 6.96185H27.5562V8.70024C28.8655 8.92557 28.4022 10.5673 27.5562 11.0744V13.8672ZM32.3834 9.20734V10.4789C32.3301 10.0604 32.3301 9.63377 32.3834 9.20734ZM23.7619 2.41442L21.9895 5.52122L22.7821 5.46478L20.6445 13.9397H26.7634C27.0307 13.9397 27.2889 13.9154 27.5562 13.8672V11.0744C27.4047 11.1711 27.2355 11.2273 27.0663 11.2273H24.8663L25.5967 8.67602H27.2444C27.3602 8.67602 27.4672 8.68402 27.5562 8.70024V6.96185H26.0241L26.6387 4.69213H27.5562V2.48686L23.7619 2.41442Z" fill="#E4F2FF"/>
</g>
<defs>
<clipPath id="clip0_2521_70005">
<rect width="54.1539" height="16" fill="white"/>
</clipPath>
</defs>
</svg>
