<svg width="20" height="20" viewBox="0 0 20 20" fill="none" xmlns="http://www.w3.org/2000/svg">
<path d="M15.45 3.47487L10.8666 1.7582C10.3916 1.5832 9.61665 1.5832 9.14165 1.7582L4.55831 3.47487C3.67498 3.8082 2.95831 4.84154 2.95831 5.7832V12.5332C2.95831 13.2082 3.39998 14.0999 3.94165 14.4999L8.52498 17.9249C9.33331 18.5332 10.6583 18.5332 11.4666 17.9249L16.05 14.4999C16.5916 14.0915 17.0333 13.2082 17.0333 12.5332V5.7832C17.0416 4.84154 16.325 3.8082 15.45 3.47487ZM10.625 10.7249V12.9165C10.625 13.2582 10.3416 13.5415 9.99998 13.5415C9.65831 13.5415 9.37498 13.2582 9.37498 12.9165V10.7249C8.53331 10.4582 7.91665 9.67487 7.91665 8.74987C7.91665 7.59987 8.84998 6.66654 9.99998 6.66654C11.15 6.66654 12.0833 7.59987 12.0833 8.74987C12.0833 9.6832 11.4666 10.4582 10.625 10.7249Z" fill="currentColor" fill-opacity="1"/>
</svg>
