<svg width="20" height="20" viewBox="0 0 20 20" fill="none" xmlns="http://www.w3.org/2000/svg">
<path d="M17.4062 18.125H18.75L15 8.75H13.5312L9.78125 18.125H11.125L12.125 15.625H16.4062L17.4062 18.125ZM12.625 14.375L14.2625 10.275L15.9062 14.375H12.625ZM11.25 4.375V3.125H6.875V1.25H5.625V3.125H1.25V4.375H7.9625C7.6162 5.80335 6.93251 7.12787 5.96875 8.2375C5.3405 7.45844 4.85587 6.57383 4.5375 5.625H3.225C3.61842 6.89788 4.2552 8.08229 5.1 9.1125C4.16632 10.0182 3.07285 10.7429 1.875 11.25L2.34375 12.4125C3.68974 11.8442 4.9156 11.0255 5.95625 10C6.97802 11.0396 8.20367 11.8567 9.55625 12.4L10 11.25C8.79525 10.7843 7.70414 10.0661 6.8 9.14375C7.99661 7.77997 8.83816 6.14196 9.25 4.375H11.25Z" fill="white"/>
</svg>
