<svg width="16" height="16" viewBox="0 0 16 16" fill="none" xmlns="http://www.w3.org/2000/svg">
<path d="M14.3 9.09334V9.76001C14.3 9.94001 14.16 10.0867 13.9734 10.0933H13C12.6467 10.0933 12.3267 9.83334 12.3 9.48668C12.28 9.28001 12.36 9.08668 12.4934 8.95334C12.6134 8.82668 12.78 8.76001 12.96 8.76001H13.9667C14.16 8.76668 14.3 8.91334 14.3 9.09334Z" fill="currentColor"/>
<path d="M11.9933 8.45993C11.66 8.78659 11.5 9.27326 11.6333 9.77993C11.8066 10.3999 12.4133 10.7933 13.0533 10.7933H13.6333C14 10.7933 14.3 11.0933 14.3 11.4599V11.5866C14.3 12.9666 13.1733 14.0933 11.7933 14.0933H4.13997C2.75997 14.0933 1.6333 12.9666 1.6333 11.5866V7.09993C1.6333 6.27993 2.02663 5.55326 2.6333 5.09993C3.0533 4.77993 3.5733 4.59326 4.13997 4.59326H11.7933C13.1733 4.59326 14.3 5.71993 14.3 7.09993V7.39326C14.3 7.75993 14 8.05993 13.6333 8.05993H12.9533C12.58 8.05993 12.24 8.20659 11.9933 8.45993Z" fill="currentColor"/>
<path d="M10.8 3.21325C10.98 3.39325 10.8266 3.67325 10.5733 3.67325L5.45329 3.66659C5.15996 3.66659 5.00662 3.30659 5.21996 3.09992L6.29996 2.01325C7.21329 1.10659 8.69329 1.10659 9.60662 2.01325L10.7733 3.19325C10.78 3.19992 10.7933 3.20659 10.8 3.21325Z" fill="currentColor"/>
</svg>
