<svg width="20" height="20" viewBox="0 0 20 20" fill="none" xmlns="http://www.w3.org/2000/svg">
<path d="M14.1667 2.9165H5.83335C3.33335 2.9165 1.66669 4.1665 1.66669 7.08317V12.9165C1.66669 15.8332 3.33335 17.0832 5.83335 17.0832H14.1667C16.6667 17.0832 18.3334 15.8332 18.3334 12.9165V7.08317C18.3334 4.1665 16.6667 2.9165 14.1667 2.9165ZM14.5584 7.9915L11.95 10.0748C11.4 10.5165 10.7 10.7332 10 10.7332C9.30002 10.7332 8.59169 10.5165 8.05002 10.0748L5.44169 7.9915C5.17502 7.77484 5.13335 7.37484 5.34169 7.10817C5.55835 6.8415 5.95002 6.7915 6.21669 7.00817L8.82502 9.0915C9.45835 9.59984 10.5334 9.59984 11.1667 9.0915L13.775 7.00817C14.0417 6.7915 14.4417 6.83317 14.65 7.10817C14.8667 7.37484 14.825 7.77484 14.5584 7.9915Z" fill="currentColor" fill-opacity="1"/>
</svg>
