<svg width="20" height="20" viewBox="0 0 20 20" fill="none" xmlns="http://www.w3.org/2000/svg">
<path d="M14 1.66675H11.8333C9.16667 1.66675 7.5 3.33341 7.5 6.00008V9.37508H11.2L9.475 7.65008C9.35 7.52508 9.29167 7.36675 9.29167 7.20841C9.29167 7.05008 9.35 6.89175 9.475 6.76675C9.71667 6.52508 10.1167 6.52508 10.3583 6.76675L13.15 9.55841C13.3917 9.80008 13.3917 10.2001 13.15 10.4417L10.3583 13.2334C10.1167 13.4751 9.71667 13.4751 9.475 13.2334C9.23333 12.9917 9.23333 12.5917 9.475 12.3501L11.2 10.6251H7.5V14.0001C7.5 16.6667 9.16667 18.3334 11.8333 18.3334H13.9917C16.6583 18.3334 18.325 16.6667 18.325 14.0001V6.00008C18.3333 3.33341 16.6667 1.66675 14 1.66675Z" fill="white"/>
<path d="M2.29175 9.375C1.95008 9.375 1.66675 9.65833 1.66675 10C1.66675 10.3417 1.95008 10.625 2.29175 10.625H7.50008V9.375H2.29175Z" fill="white"/>
</svg>
