<svg width="18" height="18" viewBox="0 0 18 18" fill="none" xmlns="http://www.w3.org/2000/svg">
<path d="M15.8025 3.9225C14.595 3.8025 13.3875 3.7125 12.1725 3.645V3.6375L12.0075 2.6625C11.895 1.9725 11.73 0.9375 9.975 0.9375H8.01C6.2625 0.9375 6.0975 1.9275 5.9775 2.655L5.82 3.615C5.1225 3.66 4.425 3.705 3.7275 3.7725L2.1975 3.9225C1.8825 3.9525 1.6575 4.23 1.6875 4.5375C1.7175 4.845 1.9875 5.07 2.3025 5.04L3.8325 4.89C7.7625 4.5 11.7225 4.65 15.6975 5.0475C15.72 5.0475 15.735 5.0475 15.7575 5.0475C16.0425 5.0475 16.29 4.83 16.32 4.5375C16.3425 4.23 16.1175 3.9525 15.8025 3.9225Z" fill="white"/>
<path d="M14.4226 6.105C14.2426 5.9175 13.9951 5.8125 13.7401 5.8125H4.26006C4.00506 5.8125 3.75006 5.9175 3.57756 6.105C3.40506 6.2925 3.30756 6.5475 3.32256 6.81L3.78756 14.505C3.87006 15.645 3.97506 17.07 6.59256 17.07H11.4076C14.0251 17.07 14.1301 15.6525 14.2126 14.505L14.6776 6.8175C14.6926 6.5475 14.5951 6.2925 14.4226 6.105ZM10.2451 13.3125H7.74756C7.44006 13.3125 7.18506 13.0575 7.18506 12.75C7.18506 12.4425 7.44006 12.1875 7.74756 12.1875H10.2451C10.5526 12.1875 10.8076 12.4425 10.8076 12.75C10.8076 13.0575 10.5526 13.3125 10.2451 13.3125ZM10.8751 10.3125H7.12506C6.81756 10.3125 6.56256 10.0575 6.56256 9.75C6.56256 9.4425 6.81756 9.1875 7.12506 9.1875H10.8751C11.1826 9.1875 11.4376 9.4425 11.4376 9.75C11.4376 10.0575 11.1826 10.3125 10.8751 10.3125Z" fill="white"/>
</svg>
