<svg width="20" height="20" viewBox="0 0 20 20" fill="none" xmlns="http://www.w3.org/2000/svg">
<path d="M10 6.4585C8.425 6.4585 8.125 7.11683 8.125 8.3335V8.85016H11.875V8.3335C11.875 7.11683 11.575 6.4585 10 6.4585Z" fill="currentColor" fill-opacity="1"/>
<path d="M10 12.5833C10.5063 12.5833 10.9167 12.1729 10.9167 11.6667C10.9167 11.1604 10.5063 10.75 10 10.75C9.49375 10.75 9.08334 11.1604 9.08334 11.6667C9.08334 12.1729 9.49375 12.5833 10 12.5833Z" fill="currentColor" fill-opacity="1"/>
<path d="M10 1.6665C5.40002 1.6665 1.66669 5.39984 1.66669 9.99984C1.66669 14.5998 5.40002 18.3332 10 18.3332C14.6 18.3332 18.3334 14.5998 18.3334 9.99984C18.3334 5.39984 14.6 1.6665 10 1.6665ZM14.4834 12.0832C14.4834 13.9165 13.9167 14.4832 12.0834 14.4832H7.91669C6.08335 14.4832 5.51669 13.9165 5.51669 12.0832V11.2498C5.51669 9.82484 5.85835 9.1665 6.87502 8.9415V8.33317C6.87502 7.55817 6.87502 5.20817 10 5.20817C13.125 5.20817 13.125 7.55817 13.125 8.33317V8.9415C14.1417 9.1665 14.4834 9.82484 14.4834 11.2498V12.0832Z" fill="currentColor" fill-opacity="1"/>
</svg>
