<svg viewBox="0 0 14 14" fill="none" xmlns="http://www.w3.org/2000/svg">
<path d="M6.4165 4.08341H7.58317V5.25008H6.4165V4.08341ZM6.4165 6.41675H7.58317V9.91675H6.4165V6.41675ZM6.99984 1.16675C3.77984 1.16675 1.1665 3.78008 1.1665 7.00008C1.1665 10.2201 3.77984 12.8334 6.99984 12.8334C10.2198 12.8334 12.8332 10.2201 12.8332 7.00008C12.8332 3.78008 10.2198 1.16675 6.99984 1.16675ZM6.99984 11.6667C4.42734 11.6667 2.33317 9.57258 2.33317 7.00008C2.33317 4.42758 4.42734 2.33341 6.99984 2.33341C9.57234 2.33341 11.6665 4.42758 11.6665 7.00008C11.6665 9.57258 9.57234 11.6667 6.99984 11.6667Z" fill="currentColor"/>
</svg>
