<svg width="30" height="32" viewBox="0 0 30 32" fill="none" xmlns="http://www.w3.org/2000/svg">
<path d="M27.9236 21.7448V10.2507C27.9232 9.87453 27.8242 9.505 27.6365 9.17895C27.4489 8.85289 27.1791 8.58166 26.854 8.39227L16.6228 2.43793C16.1298 2.15095 15.5696 1.99976 14.9992 1.99976C14.4288 1.99976 13.8686 2.15095 13.3757 2.43793L3.14574 8.39227C2.82069 8.58166 2.55092 8.85289 2.36326 9.17895C2.17561 9.505 2.07663 9.87453 2.07617 10.2507V21.7448C2.0764 22.1212 2.17527 22.491 2.36293 22.8173C2.55059 23.1436 2.8205 23.4151 3.14574 23.6046L13.377 29.5589C13.8701 29.8455 14.4303 29.9964 15.0006 29.9964C15.5709 29.9964 16.131 29.8455 16.6241 29.5589L26.8554 23.6046C27.1804 23.4149 27.45 23.1434 27.6374 22.8171C27.8249 22.4908 27.9235 22.1211 27.9236 21.7448Z" stroke="white" stroke-width="2.5" stroke-linecap="round" stroke-linejoin="round"/>
<path d="M2.41211 9.13354L14.9993 16.5378L27.5864 9.13354M14.9993 30V16.5378" stroke="white" stroke-width="2.5" stroke-linecap="round" stroke-linejoin="round"/>
<path d="M15.0002 10.0756C15.8924 10.0756 16.6157 9.59341 16.6157 8.99861C16.6157 8.40381 15.8924 7.92163 15.0002 7.92163C14.108 7.92163 13.3848 8.40381 13.3848 8.99861C13.3848 9.59341 14.108 10.0756 15.0002 10.0756Z" fill="white"/>
<path d="M11.7684 20.3069C12.3632 20.3069 12.8454 19.5836 12.8454 18.6914C12.8454 17.7992 12.3632 17.0759 11.7684 17.0759C11.1736 17.0759 10.6914 17.7992 10.6914 18.6914C10.6914 19.5836 11.1736 20.3069 11.7684 20.3069Z" fill="white"/>
<path d="M5.30745 22.4612C5.90224 22.4612 6.38442 21.7379 6.38442 20.8457C6.38442 19.9535 5.90224 19.2302 5.30745 19.2302C4.71265 19.2302 4.23047 19.9535 4.23047 20.8457C4.23047 21.7379 4.71265 22.4612 5.30745 22.4612Z" fill="white"/>
<path d="M18.2313 20.3069C18.8261 20.3069 19.3083 19.5836 19.3083 18.6914C19.3083 17.7992 18.8261 17.0759 18.2313 17.0759C17.6365 17.0759 17.1543 17.7992 17.1543 18.6914C17.1543 19.5836 17.6365 20.3069 18.2313 20.3069Z" fill="white"/>
<path d="M24.6922 16.5373C25.287 16.5373 25.7692 15.8141 25.7692 14.9219C25.7692 14.0297 25.287 13.3064 24.6922 13.3064C24.0974 13.3064 23.6152 14.0297 23.6152 14.9219C23.6152 15.8141 24.0974 16.5373 24.6922 16.5373Z" fill="white"/>
<path d="M18.2313 26.2307C18.8261 26.2307 19.3083 25.5074 19.3083 24.6152C19.3083 23.723 18.8261 22.9998 18.2313 22.9998C17.6365 22.9998 17.1543 23.723 17.1543 24.6152C17.1543 25.5074 17.6365 26.2307 18.2313 26.2307Z" fill="white"/>
<path d="M24.6922 22.4612C25.287 22.4612 25.7692 21.7379 25.7692 20.8457C25.7692 19.9535 25.287 19.2302 24.6922 19.2302C24.0974 19.2302 23.6152 19.9535 23.6152 20.8457C23.6152 21.7379 24.0974 22.4612 24.6922 22.4612Z" fill="white"/>
</svg>
