<svg width="25" height="24" viewBox="0 0 25 24" fill="none" xmlns="http://www.w3.org/2000/svg">
<path d="M18.5449 8C18.5449 6.4087 17.9128 4.88258 16.7876 3.75736C15.6623 2.63214 14.1362 2 12.5449 2C10.9536 2 9.4275 2.63214 8.30228 3.75736C7.17706 4.88258 6.54492 6.4087 6.54492 8C6.54492 15 3.54492 17 3.54492 17H21.5449C21.5449 17 18.5449 15 18.5449 8Z" stroke="white" stroke-width="2" stroke-linecap="round" stroke-linejoin="round"/>
<path d="M14.2745 21C14.0986 21.3031 13.8463 21.5547 13.5427 21.7295C13.2391 21.9044 12.8948 21.9965 12.5445 21.9965C12.1941 21.9965 11.8498 21.9044 11.5462 21.7295C11.2426 21.5547 10.9903 21.3031 10.8145 21" stroke="white" stroke-width="2" stroke-linecap="round" stroke-linejoin="round"/>
</svg>
