<svg width="20" height="20" viewBox="0 0 20 20" fill="none" xmlns="http://www.w3.org/2000/svg">
<path d="M16 8C16 9.5913 15.3679 11.1174 14.2426 12.2426C13.1174 13.3679 11.5913 14 10 14C8.4087 14 6.88258 13.3679 5.75736 12.2426C4.63214 11.1174 4 9.5913 4 8C4 6.4087 4.63214 4.88258 5.75736 3.75736C6.88258 2.63214 8.4087 2 10 2C11.5913 2 13.1174 2.63214 14.2426 3.75736C15.3679 4.88258 16 6.4087 16 8ZM9.847 5.102L9.13 6.655C9.11743 6.68205 9.09815 6.70543 9.074 6.72293C9.04984 6.74044 9.02162 6.75147 8.992 6.755L7.294 6.957C7.26079 6.96085 7.22937 6.97414 7.20348 6.99528C7.17758 7.01643 7.15828 7.04455 7.14787 7.07632C7.13745 7.10809 7.13635 7.14218 7.14471 7.17456C7.15306 7.20693 7.17051 7.23624 7.195 7.259L8.451 8.42C8.47307 8.44034 8.48954 8.46602 8.49882 8.49457C8.5081 8.52311 8.50989 8.55357 8.504 8.583L8.17 10.26C8.14 10.407 8.296 10.52 8.427 10.447L9.919 9.612C9.94512 9.59737 9.97456 9.58969 10.0045 9.58969C10.0344 9.58969 10.0639 9.59737 10.09 9.612L11.582 10.447C11.712 10.52 11.869 10.407 11.84 10.26L11.506 8.583C11.5001 8.55357 11.5019 8.52311 11.5112 8.49457C11.5205 8.46602 11.5369 8.44034 11.559 8.42L12.815 7.259C12.8395 7.23624 12.8569 7.20693 12.8653 7.17456C12.8736 7.14218 12.8725 7.10809 12.8621 7.07632C12.8517 7.04455 12.8324 7.01643 12.8065 6.99528C12.7806 6.97414 12.7492 6.96085 12.716 6.957L11.018 6.755C10.9884 6.75147 10.9602 6.74044 10.936 6.72293C10.9119 6.70543 10.8926 6.68205 10.88 6.655L10.163 5.102C10.1489 5.07187 10.1265 5.04638 10.0984 5.02852C10.0704 5.01067 10.0378 5.00118 10.0045 5.00118C9.97123 5.00118 9.93865 5.01067 9.91058 5.02852C9.8825 5.04638 9.8601 5.07187 9.846 5.102H9.847ZM10 15C11.4305 15.0022 12.8271 14.564 14 13.745V17.5C13.9999 17.5918 13.9746 17.6818 13.9268 17.7601C13.879 17.8385 13.8106 17.9021 13.729 17.9442C13.6474 17.9862 13.5558 18.005 13.4643 17.9984C13.3727 17.9919 13.2848 17.9602 13.21 17.907L10 16L6.79 17.907C6.71524 17.9602 6.62726 17.9919 6.53572 17.9984C6.44418 18.005 6.35259 17.9862 6.27101 17.9442C6.18942 17.9021 6.12098 17.8385 6.07317 17.7601C6.02537 17.6818 6.00006 17.5918 6 17.5V13.745C7.17289 14.564 8.56945 15.0022 10 15Z" fill="url(#paint0_linear_6938_110520)"/>
<defs>
<linearGradient id="paint0_linear_6938_110520" x1="10" y1="2" x2="10" y2="17.9997" gradientUnits="userSpaceOnUse">
<stop stop-color="#FDCC26"/>
<stop offset="1" stop-color="#CA8600"/>
</linearGradient>
</defs>
</svg>
