<svg viewBox="0 0 52 27" fill="none" xmlns="http://www.w3.org/2000/svg">
<path d="M0 6.40024C0 4.16003 0 3.03993 0.435974 2.18428C0.819467 1.43163 1.43139 0.819712 2.18404 0.436218C3.03969 0.000244141 4.15979 0.000244141 6.4 0.000244141H41.1347C44.5731 0.000244141 46.2922 0.000244141 47.1255 0.692019C47.8492 1.29285 48.2492 2.19835 48.206 3.13798C48.1563 4.21984 46.9986 5.49076 44.6832 8.03261L29.3094 24.9101C28.6081 25.6799 28.2575 26.0648 27.8384 26.3408C27.467 26.5855 27.0573 26.7664 26.6264 26.8763C26.1401 27.0002 25.6194 27.0002 24.578 27.0002H6.4C4.15979 27.0002 3.03969 27.0002 2.18404 26.5643C1.43139 26.1808 0.819467 25.5689 0.435974 24.8162C0 23.9606 0 22.8405 0 20.6002V6.40024Z" fill="url(#paint0_linear_701_7318)"/>
<path fill-rule="evenodd" clip-rule="evenodd" d="M14.2928 17.7073C14.1053 17.5198 14 17.2654 14 17.0003C14 16.7351 14.1053 16.4808 14.2928 16.2933L17.5858 13.0003L14.2928 9.70729C14.1106 9.51868 14.0098 9.26608 14.0121 9.00388C14.0144 8.74169 14.1196 8.49087 14.305 8.30547C14.4904 8.12006 14.7412 8.01489 15.0034 8.01261C15.2656 8.01033 15.5182 8.11113 15.7068 8.29329L19.7068 12.2933C19.8943 12.4808 19.9996 12.7351 19.9996 13.0003C19.9996 13.2654 19.8943 13.5198 19.7068 13.7073L15.7068 17.7073C15.5193 17.8948 15.265 18.0001 14.9998 18.0001C14.7346 18.0001 14.4803 17.8948 14.2928 17.7073Z" fill="#17181B"/>
<defs>
<linearGradient id="paint0_linear_701_7318" x1="26" y1="0.000244141" x2="26" y2="27.0002" gradientUnits="userSpaceOnUse">
<stop stop-color="#F4FAFF"/>
<stop offset="1" stop-color="#B9E1FF"/>
</linearGradient>
</defs>
</svg>
