<svg viewBox="0 0 52 27" fill="none" xmlns="http://www.w3.org/2000/svg">
<path d="M52 6.40049C52 4.16028 52 3.04017 51.564 2.18453C51.1805 1.43188 50.5686 0.819956 49.816 0.436462C48.9603 0.000488281 47.8402 0.000488281 45.6 0.000488281H10.8653C7.42695 0.000488281 5.70779 0.000488281 4.87452 0.692264C4.15079 1.2931 3.75077 2.19859 3.79395 3.13823C3.84368 4.22009 5.00137 5.49101 7.31677 8.03285L22.6906 24.9103C23.3919 25.6802 23.7425 26.0651 24.1616 26.3411C24.533 26.5857 24.9427 26.7667 25.3736 26.8765C25.8599 27.0005 26.3806 27.0005 27.422 27.0005H45.6C47.8402 27.0005 48.9603 27.0005 49.816 26.5645C50.5686 26.181 51.1805 25.5691 51.564 24.8165C52 23.9608 52 22.8407 52 20.6005V6.40049Z" fill="url(#paint0_linear_701_7322)"/>
<path fill-rule="evenodd" clip-rule="evenodd" d="M37.707 17.7075C37.8944 17.52 37.9998 17.2657 37.9998 17.0005C37.9998 16.7354 37.8944 16.4811 37.707 16.2935L34.414 13.0005L37.707 9.70753C37.8891 9.51893 37.9899 9.26632 37.9876 9.00413C37.9854 8.74193 37.8802 8.49112 37.6948 8.30571C37.5094 8.1203 37.2586 8.01513 36.9964 8.01286C36.7342 8.01058 36.4816 8.11137 36.293 8.29353L32.293 12.2935C32.1055 12.4811 32.0002 12.7354 32.0002 13.0005C32.0002 13.2657 32.1055 13.52 32.293 13.7075L36.293 17.7075C36.4805 17.895 36.7348 18.0003 37 18.0003C37.2651 18.0003 37.5194 17.895 37.707 17.7075Z" fill="#17181B"/>
<defs>
<linearGradient id="paint0_linear_701_7322" x1="26" y1="0.000488281" x2="26" y2="27.0005" gradientUnits="userSpaceOnUse">
<stop stop-color="#F4FAFF"/>
<stop offset="1" stop-color="#B9E1FF"/>
</linearGradient>
</defs>
</svg>
