<svg width="14" height="14" viewBox="0 0 14 14" fill="none" xmlns="http://www.w3.org/2000/svg">
<path fill-rule="evenodd" clip-rule="evenodd" d="M6.9987 0.583252C3.45495 0.583252 0.582031 3.45617 0.582031 6.99992C0.582031 10.5437 3.45495 13.4166 6.9987 13.4166C10.5424 13.4166 13.4154 10.5437 13.4154 6.99992C13.4154 3.45617 10.5424 0.583252 6.9987 0.583252ZM9.78003 5.91492C9.83125 5.85638 9.87024 5.78818 9.89471 5.71435C9.91918 5.64052 9.92863 5.56254 9.92252 5.48499C9.91641 5.40745 9.89485 5.33191 9.85912 5.26283C9.82338 5.19374 9.77419 5.1325 9.71443 5.0827C9.65468 5.03291 9.58557 4.99556 9.51117 4.97287C9.43677 4.95018 9.35859 4.9426 9.28121 4.95057C9.20384 4.95854 9.12884 4.9819 9.06063 5.01929C8.99242 5.05667 8.93238 5.10732 8.88403 5.16825L6.3757 8.17767L5.07778 6.87917C4.96776 6.77291 4.82041 6.71411 4.66746 6.71544C4.51452 6.71677 4.36821 6.77812 4.26005 6.88627C4.1519 6.99443 4.09055 7.14074 4.08922 7.29368C4.08789 7.44663 4.14669 7.59398 4.25295 7.704L6.00295 9.454C6.06026 9.51128 6.12889 9.556 6.20444 9.58529C6.27999 9.61458 6.36082 9.62781 6.44177 9.62413C6.52272 9.62045 6.60202 9.59995 6.6746 9.56393C6.74719 9.52791 6.81148 9.47716 6.86336 9.41492L9.78003 5.91492Z" fill="white"/>
</svg>
