<svg viewBox="0 0 32 28" fill="none" xmlns="http://www.w3.org/2000/svg">
<path d="M15.9996 14C15.1689 14 14.3569 14.2463 13.6662 14.7078C12.9755 15.1693 12.4372 15.8253 12.1193 16.5927C11.8014 17.3602 11.7183 18.2047 11.8803 19.0194C12.0424 19.8341 12.4424 20.5825 13.0298 21.1698C13.6171 21.7572 14.3655 22.1572 15.1802 22.3193C15.995 22.4814 16.8394 22.3982 17.6069 22.0803C18.3743 21.7624 19.0303 21.2241 19.4918 20.5334C19.9533 19.8427 20.1996 19.0307 20.1996 18.2C20.1996 17.0861 19.7571 16.0178 18.9695 15.2302C18.1818 14.4425 17.1135 14 15.9996 14ZM15.9996 19.6C15.7227 19.6 15.452 19.5179 15.2218 19.3641C14.9916 19.2102 14.8121 18.9916 14.7062 18.7358C14.6002 18.4799 14.5725 18.1984 14.6265 17.9269C14.6805 17.6553 14.8139 17.4058 15.0097 17.2101C15.2055 17.0143 15.4549 16.8809 15.7265 16.8269C15.9981 16.7729 16.2795 16.8006 16.5354 16.9066C16.7912 17.0125 17.0098 17.192 17.1637 17.4222C17.3175 17.6524 17.3996 17.9231 17.3996 18.2C17.3996 18.5713 17.2521 18.9274 16.9896 19.1899C16.727 19.4525 16.3709 19.6 15.9996 19.6ZM15.0056 10.794C15.1388 10.9215 15.2958 11.0214 15.4676 11.088C15.6352 11.1621 15.8164 11.2003 15.9996 11.2003C16.1828 11.2003 16.364 11.1621 16.5316 11.088C16.7035 11.0214 16.8605 10.9215 16.9936 10.794L20.1996 7.644C20.4707 7.37295 20.6229 7.00532 20.6229 6.622C20.6229 6.23868 20.4707 5.87105 20.1996 5.6C19.9286 5.32895 19.5609 5.17667 19.1776 5.17667C18.7943 5.17667 18.4267 5.32895 18.1556 5.6L17.3996 6.426V1.4C17.3996 1.0287 17.2521 0.672601 16.9896 0.41005C16.727 0.1475 16.3709 0 15.9996 0C15.6283 0 15.2722 0.1475 15.0097 0.41005C14.7471 0.672601 14.5996 1.0287 14.5996 1.4V6.426L13.8436 5.6C13.5726 5.32895 13.2049 5.17667 12.8216 5.17667C12.4383 5.17667 12.0707 5.32895 11.7996 5.6C11.5286 5.87105 11.3763 6.23868 11.3763 6.622C11.3763 7.00532 11.5286 7.37295 11.7996 7.644L15.0056 10.794ZM25.7996 18.2C25.7996 17.9231 25.7175 17.6524 25.5637 17.4222C25.4098 17.192 25.1912 17.0125 24.9354 16.9066C24.6795 16.8006 24.3981 16.7729 24.1265 16.8269C23.8549 16.8809 23.6055 17.0143 23.4097 17.2101C23.2139 17.4058 23.0805 17.6553 23.0265 17.9269C22.9725 18.1984 23.0002 18.4799 23.1062 18.7358C23.2121 18.9916 23.3916 19.2102 23.6218 19.3641C23.852 19.5179 24.1227 19.6 24.3996 19.6C24.7709 19.6 25.127 19.4525 25.3896 19.1899C25.6521 18.9274 25.7996 18.5713 25.7996 18.2ZM27.1996 8.4H22.9996C22.6283 8.4 22.2722 8.5475 22.0097 8.81005C21.7471 9.0726 21.5996 9.4287 21.5996 9.8C21.5996 10.1713 21.7471 10.5274 22.0097 10.7899C22.2722 11.0525 22.6283 11.2 22.9996 11.2H27.1996C27.5709 11.2 27.927 11.3475 28.1896 11.6101C28.4521 11.8726 28.5996 12.2287 28.5996 12.6V23.8C28.5996 24.1713 28.4521 24.5274 28.1896 24.7899C27.927 25.0525 27.5709 25.2 27.1996 25.2H4.79961C4.42831 25.2 4.07221 25.0525 3.80966 24.7899C3.54711 24.5274 3.39961 24.1713 3.39961 23.8V12.6C3.39961 12.2287 3.54711 11.8726 3.80966 11.6101C4.07221 11.3475 4.42831 11.2 4.79961 11.2H8.99961C9.37091 11.2 9.72701 11.0525 9.98956 10.7899C10.2521 10.5274 10.3996 10.1713 10.3996 9.8C10.3996 9.4287 10.2521 9.0726 9.98956 8.81005C9.72701 8.5475 9.37091 8.4 8.99961 8.4H4.79961C3.6857 8.4 2.61741 8.8425 1.82976 9.63015C1.04211 10.4178 0.599609 11.4861 0.599609 12.6V23.8C0.599609 24.9139 1.04211 25.9822 1.82976 26.7698C2.61741 27.5575 3.6857 28 4.79961 28H27.1996C28.3135 28 29.3818 27.5575 30.1695 26.7698C30.9571 25.9822 31.3996 24.9139 31.3996 23.8V12.6C31.3996 11.4861 30.9571 10.4178 30.1695 9.63015C29.3818 8.8425 28.3135 8.4 27.1996 8.4ZM6.19961 18.2C6.19961 18.4769 6.28172 18.7476 6.43555 18.9778C6.58939 19.208 6.80804 19.3875 7.06385 19.4934C7.31967 19.5994 7.60116 19.6271 7.87274 19.5731C8.14431 19.5191 8.39376 19.3857 8.58956 19.1899C8.78535 18.9942 8.91869 18.7447 8.97271 18.4731C9.02673 18.2016 8.999 17.9201 8.89304 17.6642C8.78708 17.4084 8.60764 17.1898 8.37741 17.0359C8.14718 16.8821 7.8765 16.8 7.59961 16.8C7.22831 16.8 6.87221 16.9475 6.60966 17.2101C6.34711 17.4726 6.19961 17.8287 6.19961 18.2Z" fill="white"/>
</svg>
