<svg viewBox="0 0 28 28" fill="none" xmlns="http://www.w3.org/2000/svg">
<path d="M21 19.5417C20.8133 19.5417 20.6383 19.4833 20.475 19.3667C20.09 19.075 20.0083 18.5267 20.3 18.1417C22.1317 15.7033 22.1317 12.2967 20.3 9.85833C20.0083 9.47333 20.09 8.92499 20.475 8.63333C20.86 8.34166 21.4083 8.42333 21.7 8.80833C23.9867 11.865 23.9867 16.135 21.7 19.1917C21.525 19.425 21.2683 19.5417 21 19.5417Z" fill="currentColor"/>
<path d="M23.135 22.4582C22.9483 22.4582 22.7733 22.3999 22.61 22.2832C22.225 21.9916 22.1433 21.4432 22.435 21.0582C25.55 16.9049 25.55 11.0949 22.435 6.94158C22.1433 6.55658 22.225 6.00824 22.61 5.71658C22.995 5.42491 23.5433 5.50658 23.835 5.89158C27.4167 10.6632 27.4167 17.3366 23.835 22.1082C23.6717 22.3416 23.4033 22.4582 23.135 22.4582Z" fill="currentColor"/>
<path d="M16.3567 4.41C15.05 3.68667 13.3817 3.87334 11.6783 4.935L8.27168 7.07C8.03834 7.21 7.77001 7.29167 7.50168 7.29167H6.41668H5.83334C3.01001 7.29167 1.45834 8.84334 1.45834 11.6667V16.3333C1.45834 19.1567 3.01001 20.7083 5.83334 20.7083H6.41668H7.50168C7.77001 20.7083 8.03834 20.79 8.27168 20.93L11.6783 23.065C12.705 23.7067 13.7083 24.0217 14.6417 24.0217C15.2483 24.0217 15.8317 23.8817 16.3567 23.59C17.6517 22.8667 18.375 21.3617 18.375 19.355V8.645C18.375 6.63834 17.6517 5.13334 16.3567 4.41Z" fill="currentColor"/>
</svg>
