<svg viewBox="0 0 20 20" fill="none" xmlns="http://www.w3.org/2000/svg">
<path d="M16.7 5.68324L11.9 2.32491C10.5917 1.40824 8.58333 1.45824 7.325 2.43324L3.15 5.69157C2.31667 6.34157 1.65833 7.67491 1.65833 8.72491V14.4749C1.65833 16.5999 3.38333 18.3332 5.50833 18.3332H14.4917C16.6167 18.3332 18.3417 16.6082 18.3417 14.4832V8.83324C18.3417 7.70824 17.6167 6.32491 16.7 5.68324ZM10.625 14.9999C10.625 15.3416 10.3417 15.6249 10 15.6249C9.65833 15.6249 9.375 15.3416 9.375 14.9999V12.4999C9.375 12.1582 9.65833 11.8749 10 11.8749C10.3417 11.8749 10.625 12.1582 10.625 12.4999V14.9999Z" fill="currentColor"/>
</svg>
