<svg viewBox="0 0 20 20" fill="none" xmlns="http://www.w3.org/2000/svg">
<path d="M6.04167 9.99996C6.04167 9.65829 6.325 9.37496 6.66667 9.37496H9.16667V6.24996C9.16667 5.79163 8.79167 5.41663 8.33333 5.41663H6.475C3.85 5.41663 1.56667 7.56663 1.66667 10.1833C1.71667 11.375 2.21667 12.45 3.00833 13.2416C3.84167 14.0666 4.98333 14.5833 6.25 14.5833H8.33333C8.79167 14.5833 9.16667 14.2083 9.16667 13.75V10.625H6.66667C6.325 10.625 6.04167 10.3416 6.04167 9.99996Z" fill="currentColor"/>
<path d="M16.9917 6.75829C16.1583 5.93329 15.0167 5.41663 13.75 5.41663H11.6667C11.2083 5.41663 10.8333 5.79163 10.8333 6.24996V9.37496H13.3333C13.675 9.37496 13.9583 9.65829 13.9583 9.99996C13.9583 10.3416 13.675 10.625 13.3333 10.625H10.8333V13.75C10.8333 14.2083 11.2083 14.5833 11.6667 14.5833H13.525C16.15 14.5833 18.4333 12.4333 18.325 9.81663C18.2833 8.62496 17.775 7.54996 16.9917 6.75829Z" fill="currentColor"/>
<path d="M10.8333 9.375H9.16666V10.625H10.8333V9.375Z" fill="currentColor"/>
</svg>
