<svg viewBox="0 0 28 28" fill="none" xmlns="http://www.w3.org/2000/svg">
<path d="M25.7637 8.14803L14.7296 14.3947C14.2854 14.6468 13.7265 14.6468 13.268 14.3947L2.23384 8.14803C1.44569 7.69984 1.24507 6.64938 1.84693 5.9911C2.2625 5.5289 2.73539 5.15073 3.23694 4.88462L11.0038 0.682796C12.6661 -0.227599 15.3601 -0.227599 17.0224 0.682796L24.7893 4.88462C25.2909 5.15073 25.7637 5.5429 26.1793 5.9911C26.7525 6.64938 26.5519 7.69984 25.7637 8.14803Z" fill="currentColor"/>
<path d="M13.1836 17.0006V26.5527C13.1836 27.6172 12.0802 28.3175 11.1058 27.8553C8.15378 26.4406 3.18127 23.7935 3.18127 23.7935C1.433 22.8271 0 20.39 0 18.3872V11.16C0 10.0535 1.18939 9.35324 2.16383 9.89948L12.4671 15.74C12.897 16.0061 13.1836 16.4823 13.1836 17.0006Z" fill="currentColor"/>
<path d="M14.8164 17.0006V26.5527C14.8164 27.6172 15.9198 28.3175 16.8943 27.8553C19.8462 26.4406 24.8188 23.7935 24.8188 23.7935C26.567 22.8271 28 20.39 28 18.3872V11.16C28 10.0535 26.8106 9.35324 25.8362 9.89948L15.5329 15.74C15.103 16.0061 14.8164 16.4823 14.8164 17.0006Z" fill="currentColor"/>
</svg>
