<svg viewBox="0 0 20 20" fill="none" xmlns="http://www.w3.org/2000/svg">
<path d="M15.3917 14.0251L15.7167 16.6584C15.8 17.3501 15.0584 17.8334 14.4667 17.4751L11.5834 15.7584C11.3834 15.6417 11.3334 15.3917 11.4417 15.1917C11.8584 14.4251 12.0834 13.5584 12.0834 12.6917C12.0834 9.64175 9.4667 7.15841 6.25003 7.15841C5.5917 7.15841 4.95003 7.25841 4.35003 7.45841C4.0417 7.55841 3.7417 7.27508 3.8167 6.95842C4.57503 3.92508 7.4917 1.66675 10.975 1.66675C15.0417 1.66675 18.3334 4.74175 18.3334 8.53341C18.3334 10.7834 17.175 12.7751 15.3917 14.0251Z" fill="currentColor"/>
<path d="M10.8333 12.6918C10.8333 13.6834 10.4666 14.6001 9.84996 15.3251C9.02496 16.3251 7.71663 16.9668 6.24996 16.9668L4.07496 18.2584C3.70829 18.4834 3.24163 18.1751 3.29163 17.7501L3.49996 16.1084C2.38329 15.3334 1.66663 14.0918 1.66663 12.6918C1.66663 11.2251 2.44996 9.93345 3.64996 9.16678C4.39163 8.68345 5.28329 8.40845 6.24996 8.40845C8.78329 8.40845 10.8333 10.3251 10.8333 12.6918Z" fill="currentColor"/>
</svg>
