<svg viewBox="0 0 28 28" fill="none" xmlns="http://www.w3.org/2000/svg">
<path d="M10.5 2.33325C7.44334 2.33325 4.95834 4.81825 4.95834 7.87492C4.95834 10.8733 7.30334 13.2999 10.36 13.4049C10.4533 13.3933 10.5467 13.3933 10.6167 13.4049C10.64 13.4049 10.6517 13.4049 10.675 13.4049C10.6867 13.4049 10.6867 13.4049 10.6983 13.4049C13.685 13.2999 16.03 10.8733 16.0417 7.87492C16.0417 4.81825 13.5567 2.33325 10.5 2.33325Z" fill="currentColor"/>
<path d="M16.4267 16.5084C13.1717 14.3384 7.86332 14.3384 4.58499 16.5084C3.10332 17.5 2.28665 18.8417 2.28665 20.2767C2.28665 21.7117 3.10332 23.0417 4.57332 24.0217C6.20665 25.1184 8.35332 25.6667 10.5 25.6667C12.6467 25.6667 14.7933 25.1184 16.4267 24.0217C17.8967 23.03 18.7133 21.7 18.7133 20.2534C18.7017 18.8184 17.8967 17.4884 16.4267 16.5084Z" fill="currentColor"/>
<path d="M23.3217 8.56337C23.5083 10.8267 21.8983 12.81 19.67 13.0784C19.6583 13.0784 19.6583 13.0784 19.6467 13.0784H19.6117C19.5417 13.0784 19.4717 13.0784 19.4133 13.1017C18.2817 13.16 17.2433 12.7984 16.4617 12.1334C17.6633 11.06 18.3517 9.45003 18.2117 7.70003C18.13 6.75503 17.8033 5.8917 17.3133 5.1567C17.7567 4.93504 18.27 4.79504 18.795 4.74837C21.0817 4.55004 23.1233 6.25337 23.3217 8.56337Z" fill="currentColor"/>
<path d="M25.655 19.3549C25.5617 20.4866 24.8383 21.4666 23.625 22.1316C22.4583 22.7732 20.9883 23.0766 19.53 23.0416C20.37 22.2832 20.86 21.3382 20.9533 20.3349C21.07 18.8882 20.3817 17.4999 19.005 16.3916C18.2233 15.7732 17.3133 15.2832 16.3217 14.9216C18.9 14.1749 22.1433 14.6766 24.1383 16.2866C25.2117 17.1499 25.76 18.2349 25.655 19.3549Z" fill="currentColor"/>
</svg>
