<svg viewBox="0 0 28 28" fill="none" xmlns="http://www.w3.org/2000/svg">
<path d="M15.4583 13.9999C16.2637 13.9999 16.9167 13.347 16.9167 12.5416C16.9167 11.7362 16.2637 11.0833 15.4583 11.0833C14.6529 11.0833 14 11.7362 14 12.5416C14 13.347 14.6529 13.9999 15.4583 13.9999Z" fill="currentColor"/>
<path d="M18.8883 2.33325H9.11166C4.86499 2.33325 2.33333 4.86492 2.33333 9.11159V18.8766C2.33333 23.1349 4.86499 25.6666 9.11166 25.6666H18.8767C23.1233 25.6666 25.655 23.1349 25.655 18.8883V9.11159C25.6667 4.86492 23.135 2.33325 18.8883 2.33325ZM18.5383 15.7149C17.3367 16.9049 15.6217 17.2783 14.105 16.7999L12.8683 18.0249C12.7633 18.1299 12.5767 18.1299 12.46 18.0249L11.3283 16.8933C11.165 16.7299 10.885 16.7299 10.71 16.8933C10.535 17.0566 10.5467 17.3366 10.71 17.5116L11.8417 18.6433C11.9583 18.7599 11.9583 18.9466 11.8417 19.0516L11.3633 19.5299C11.165 19.7399 10.78 19.8683 10.5 19.8333L9.22833 19.6583C8.80833 19.5999 8.42333 19.2033 8.35333 18.7833L8.17833 17.5116C8.13166 17.2316 8.27166 16.8466 8.45833 16.6483L11.2 13.9066C10.7333 12.3899 11.095 10.6749 12.2967 9.47325C14.0117 7.75825 16.8117 7.75825 18.5383 9.47325C20.265 11.1883 20.265 13.9883 18.5383 15.7149Z" fill="currentColor"/>
</svg>
