<svg viewBox="0 0 28 28" fill="none" xmlns="http://www.w3.org/2000/svg">
<path d="M25.6667 8.80822C25.6667 9.57822 25.0367 10.2082 24.2667 10.2082H3.73333C2.96333 10.2082 2.33333 9.57822 2.33333 8.80822V8.79655C2.33333 6.12489 4.49167 3.96655 7.16333 3.96655H20.825C23.4967 3.96655 25.6667 6.13655 25.6667 8.80822Z" fill="currentColor"/>
<path d="M2.33333 13.3583V19.2033C2.33333 21.8749 4.49167 24.0333 7.16333 24.0333H20.825C23.4967 24.0333 25.6667 21.8633 25.6667 19.1916V13.3583C25.6667 12.5883 25.0367 11.9583 24.2667 11.9583H3.73333C2.96333 11.9583 2.33333 12.5883 2.33333 13.3583ZM9.33333 20.1249H7C6.52167 20.1249 6.125 19.7283 6.125 19.2499C6.125 18.7716 6.52167 18.3749 7 18.3749H9.33333C9.81167 18.3749 10.2083 18.7716 10.2083 19.2499C10.2083 19.7283 9.81167 20.1249 9.33333 20.1249ZM16.9167 20.1249H12.25C11.7717 20.1249 11.375 19.7283 11.375 19.2499C11.375 18.7716 11.7717 18.3749 12.25 18.3749H16.9167C17.395 18.3749 17.7917 18.7716 17.7917 19.2499C17.7917 19.7283 17.395 20.1249 16.9167 20.1249Z" fill="currentColor"/>
</svg>
