<svg viewBox="0 0 20 20" fill="none" xmlns="http://www.w3.org/2000/svg">
<path fill-rule="evenodd" clip-rule="evenodd" d="M8.87796 2.46572L7.67274 3.66988C7.57542 3.76724 7.44349 3.82208 7.30583 3.8224H5.40946C4.53274 3.8224 3.8224 4.53274 3.8224 5.40946V7.30583C3.82213 7.44381 3.7673 7.57609 3.66988 7.6738L2.46465 8.87796C2.16714 9.17558 2 9.57918 2 10C2 10.4208 2.16714 10.8244 2.46465 11.122L3.66988 12.3273C3.76724 12.4246 3.82208 12.5565 3.8224 12.6942V14.5905C3.8224 15.4673 4.53274 16.1776 5.40946 16.1776H7.30583C7.44381 16.1779 7.57609 16.2327 7.6738 16.3301L8.87796 17.5353C9.17558 17.8329 9.57918 18 10 18C10.4208 18 10.8244 17.8329 11.122 17.5353L12.3273 16.3301C12.4246 16.2328 12.5565 16.1779 12.6942 16.1776H14.5905C15.4673 16.1776 16.1776 15.4673 16.1776 14.5905V12.6942C16.1779 12.5562 16.2327 12.4239 16.3301 12.3262L17.5353 11.122C17.8329 10.8244 18 10.4208 18 10C18 9.57918 17.8329 9.17558 17.5353 8.87796L16.3301 7.67274C16.2328 7.57542 16.1779 7.44349 16.1776 7.30583V5.40946C16.1776 4.53274 15.4673 3.8224 14.5905 3.8224H12.6942C12.5561 3.82236 12.4238 3.7675 12.3262 3.66988L11.122 2.46465C10.8244 2.16714 10.4208 2 10 2C9.57918 2 9.17558 2.1682 8.87796 2.46572ZM6.956 12.2889L12.2889 6.956L13.044 7.71113L7.71113 13.044L6.956 12.2889ZM7.33356 7.33356V8.40014H8.40014V7.33356H7.33356ZM11.5999 12.6664H12.6664V11.5999H11.5999V12.6664Z" fill="currentColor"/>
</svg>
