<svg width="20" height="20" viewBox="0 0 20 20" fill="none" xmlns="http://www.w3.org/2000/svg">
<path d="M9.99944 14.5316V9.0187C9.99944 8.55502 9.67621 8.17954 9.27765 8.17954H9.05428C8.65571 8.17954 8.33248 8.55502 8.33248 9.01954V14.5325C8.33248 14.9961 8.65659 15.3725 9.05428 15.3725H9.27765C9.67621 15.3725 9.99944 14.9953 9.99944 14.5316Z" fill="currentColor"/>
<path d="M15.2532 11.9472H13.6501C13.0851 11.9472 12.6279 12.431 12.6279 13.0282C12.6279 13.6255 13.0851 14.1102 13.6493 14.1102H15.2523C15.8173 14.1102 16.2745 13.6255 16.2745 13.0282C16.2745 12.4318 15.8173 11.9472 15.2532 11.9472Z" fill="currentColor"/>
<path d="M16.335 14.3376H3.66503C3.0212 14.3376 2.5 14.735 2.5 15.2255V17.4448C2.5 17.9354 3.0212 18.3327 3.66503 18.3327H16.335C16.9788 18.3327 17.5 17.9354 17.5 17.4448V15.2255C17.5 14.735 16.9788 14.3376 16.335 14.3376Z" fill="currentColor"/>
<path d="M9.03524 9.3999C9.57181 9.41063 10.1052 9.31855 10.6042 9.12905C11.1032 8.93956 11.5577 8.65647 11.9411 8.29637C12.3246 7.93627 12.6292 7.50639 12.8371 7.03195C13.0451 6.55751 13.1522 6.04803 13.1522 5.53338C13.1522 5.01873 13.0451 4.50925 12.8371 4.03481C12.6292 3.56036 12.3246 3.13049 11.9411 2.77039C11.5577 2.41029 11.1032 2.1272 10.6042 1.9377C10.1052 1.74821 9.57181 1.65613 9.03524 1.66686C8.49867 1.65613 7.96526 1.74821 7.46628 1.9377C6.96729 2.1272 6.51277 2.41029 6.12934 2.77039C5.74591 3.13049 5.44129 3.56036 5.23333 4.03481C5.02537 4.50925 4.91825 5.01873 4.91825 5.53338C4.91825 6.04803 5.02537 6.55751 5.23333 7.03195C5.44129 7.50639 5.74591 7.93627 6.12934 8.29637C6.51277 8.65647 6.96729 8.93956 7.46628 9.12905C7.96526 9.31855 8.49867 9.41063 9.03524 9.3999Z" fill="currentColor"/>
</svg>
