<svg viewBox="0 0 20 20" fill="none" xmlns="http://www.w3.org/2000/svg">
<path d="M8.61151 2.10901C7.70815 2.31917 7.18044 2.51105 6.47385 2.89482C4.11258 4.17404 2.59207 6.4949 2.29691 9.25435L2.2343 9.82086L1.75131 9.88482C1.25938 9.93965 1 10.1041 1 10.3417C1 10.5244 3.52226 13.7042 3.6922 13.7407C3.7727 13.759 3.89792 13.7042 3.96947 13.6311C4.04103 13.558 4.40774 12.6534 4.7834 11.6118C5.59732 9.39141 5.59732 9.31831 4.79234 9.40055C4.22886 9.45537 4.2378 9.49192 4.48824 8.51423C5.007 6.44008 6.66168 4.74968 8.68307 4.21058C9.41649 4.0187 10.7939 4.0187 11.5094 4.21058C14.0228 4.88674 15.7669 7.05227 15.91 9.69294C15.9994 11.4107 15.4359 12.9093 14.2016 14.1702C13.343 15.0565 12.5738 15.4951 11.411 15.7784C10.454 16.0159 9.32705 15.9794 8.42369 15.687C7.69026 15.4494 7.40405 15.4494 7.01945 15.687C6.56329 15.9794 6.33969 16.5459 6.50963 17.0027C6.59012 17.2129 7.30566 17.5601 8.17325 17.7977C8.7904 17.9713 9.13028 18.0078 10.2125 17.9987C11.3484 17.9896 11.6078 17.9622 12.2965 17.752C15.0692 16.884 17.0817 14.7641 17.7793 11.9681C18.0387 10.9173 18.0745 9.40055 17.8598 8.37718C17.2516 5.40757 15.1229 3.0867 12.225 2.23694C11.3842 1.99023 9.42544 1.91713 8.61151 2.10901Z" fill="currentColor"/>
<path d="M8.94245 5.04207C7.74393 5.33447 6.44702 6.2756 5.8567 7.2807C5.57049 7.77411 5.20377 8.95282 5.3111 9.05333C5.33794 9.08988 5.53471 9.06247 5.73148 8.99851C5.9372 8.93455 6.12503 8.91627 6.15186 8.94368C6.18764 8.9711 6.0177 9.55588 5.78515 10.232L5.36477 11.4747L5.5526 11.9498C6.6259 14.6545 9.93526 15.8515 12.4844 14.4626C15.4359 12.8544 16.0263 8.81576 13.656 6.40353C12.4217 5.13345 10.6329 4.62176 8.94245 5.04207ZM10.7313 6.55886C10.8118 6.64109 10.8386 7.26243 10.8386 8.79749C10.8386 10.7985 10.8297 10.9265 10.6687 11.0178C10.4809 11.1184 7.53821 11.1458 7.18939 11.0544C6.95684 10.9904 6.83162 10.5975 6.98367 10.4422C7.05522 10.3691 7.59188 10.3234 8.55785 10.3051L10.0336 10.2777V8.46855C10.0336 6.57713 10.0605 6.44921 10.4361 6.44921C10.5435 6.44921 10.6687 6.4949 10.7313 6.55886Z" fill="currentColor"/>
</svg>
