<svg viewBox="0 0 20 20" fill="none" xmlns="http://www.w3.org/2000/svg">
<path d="M2.75568 18H5.26432C5.59635 18 5.89623 17.77 5.99026 17.4402C6.01014 17.3712 6.01999 17.2945 6.01999 17.2229L6.02016 9.96206C6.02016 9.77807 5.95828 9.60179 5.84662 9.46629C5.69798 9.28482 5.48728 9.18265 5.26431 9.18265L2.75568 9.1825C2.33947 9.1825 2 9.53263 2 9.9619V17.2231C1.99982 17.6526 2.3393 18 2.75568 18ZM4.43917 15.7022C4.82081 15.7022 5.12795 16.0192 5.12795 16.4127C5.12795 16.8063 4.82062 17.1231 4.43917 17.1231C4.06012 17.1231 3.7504 16.8062 3.7504 16.4127C3.7504 16.019 4.06014 15.7022 4.43917 15.7022Z" fill="currentColor"/>
<path d="M6.5173 17.2229C6.5173 17.2919 6.50987 17.3634 6.50002 17.4326C6.79489 17.7315 7.1914 17.9029 7.6076 17.9029H14.9595C15.2817 17.9029 15.5889 17.77 15.8268 17.5322C16.0548 17.292 16.1836 16.9751 16.1836 16.6403C16.1836 16.354 16.092 16.0856 15.9209 15.8609C15.9134 15.8532 15.911 15.843 15.906 15.8326C15.8961 15.8173 15.8887 15.802 15.8837 15.7867C15.8763 15.7688 15.8739 15.7508 15.8712 15.7355C15.8712 15.7227 15.8663 15.7125 15.8663 15.7023C15.8663 15.6972 15.8686 15.6922 15.8686 15.687C15.8686 15.6692 15.8737 15.6538 15.8785 15.6359C15.8836 15.6205 15.8859 15.6052 15.8934 15.5923C15.8984 15.577 15.9083 15.5668 15.9181 15.554C15.928 15.5387 15.938 15.5258 15.9502 15.5132C15.9553 15.5107 15.9553 15.5055 15.9601 15.503C15.9675 15.4953 15.9774 15.4929 15.9874 15.4877C16.0023 15.4776 16.0171 15.4699 16.032 15.4647C16.0493 15.4571 16.0667 15.4545 16.084 15.4519C16.0939 15.4519 16.1039 15.4467 16.1137 15.4467H16.1485C16.4731 15.4467 16.7804 15.3139 17.0158 15.076C17.2462 14.8357 17.3726 14.5189 17.3726 14.1841C17.3726 13.8851 17.2736 13.6064 17.0876 13.3765L17.0879 13.3738C17.0706 13.3533 17.0558 13.3278 17.0458 13.3023V13.2946C17.0383 13.2768 17.0383 13.2588 17.036 13.2385C17.036 13.2256 17.0309 13.2103 17.0335 13.195C17.0335 13.1797 17.0385 13.1668 17.0433 13.1515C17.0484 13.1336 17.0484 13.1156 17.0558 13.1003C17.0632 13.0902 17.0731 13.0798 17.0805 13.0671C17.0904 13.0518 17.1004 13.0365 17.1153 13.0211C17.1177 13.0211 17.1177 13.0186 17.1203 13.016C17.1327 13.0058 17.145 13.0031 17.1574 12.9954C17.1699 12.9878 17.1797 12.9777 17.1921 12.9725C17.3607 12.9087 17.5144 12.8088 17.6431 12.6785C17.8711 12.4381 17.9998 12.1213 17.9998 11.7865C17.9998 11.3214 17.7371 10.8818 17.3284 10.6671C17.3233 10.6646 17.3185 10.6594 17.3159 10.6569C17.3061 10.6517 17.296 10.6468 17.2886 10.6391C17.2787 10.6315 17.2687 10.6238 17.2589 10.6136C17.2514 10.6084 17.2464 10.6008 17.2416 10.5931C17.2317 10.583 17.2217 10.5676 17.2142 10.5547C17.2142 10.5523 17.2119 10.5496 17.2093 10.5471C17.2069 10.5419 17.2093 10.5394 17.2069 10.537C17.1944 10.5114 17.187 10.4833 17.1845 10.4527V10.4475V10.4346C17.1845 10.4141 17.1896 10.3938 17.1944 10.3733C17.1968 10.3657 17.1968 10.3554 17.1994 10.3478C17.2093 10.3223 17.2217 10.3018 17.2366 10.2813C17.2416 10.2761 17.244 10.2684 17.249 10.2635C17.2663 10.243 17.2886 10.2276 17.3134 10.2123C17.3185 10.2098 17.3209 10.2071 17.3259 10.2046C17.4398 10.1485 17.5465 10.0691 17.6407 9.96947C17.8711 9.72913 18 9.41232 18 9.07752C18 8.38244 17.4498 7.81743 16.7759 7.81743L12.2312 7.81725C12.095 7.81725 11.9833 7.70226 11.9833 7.56159V3.72526C11.9833 3.2653 11.8098 2.8333 11.4926 2.50867C11.1754 2.18151 10.7566 2 10.3107 2C9.9067 2 9.57733 2.33998 9.57733 2.75645V5.06701C9.57733 5.22033 9.52773 5.37116 9.43851 5.49133L6.87626 9.09001C6.62839 9.44785 6.57145 9.85928 6.57145 9.85928C6.51692 10.6976 6.51692 10.4523 6.51692 10.6976L6.5173 17.2229Z" fill="currentColor"/>
</svg>
