<svg width="18" height="18" viewBox="0 0 18 18" fill="none" xmlns="http://www.w3.org/2000/svg">
<g opacity="0.5">
<path d="M13.14 2.835C12.3 2.37 11.2275 2.49 10.1325 3.1725L7.9425 4.545C7.7925 4.635 7.62 4.6875 7.4475 4.6875H6.75H6.375C4.56 4.6875 3.5625 5.685 3.5625 7.5V10.5C3.5625 12.315 4.56 13.3125 6.375 13.3125H6.75H7.4475C7.62 13.3125 7.7925 13.365 7.9425 13.455L10.1325 14.8275C10.7925 15.24 11.4375 15.4425 12.0375 15.4425C12.4275 15.4425 12.8025 15.3525 13.14 15.165C13.9725 14.7 14.4375 13.7325 14.4375 12.4425V5.5575C14.4375 4.2675 13.9725 3.3 13.14 2.835Z" fill="white"/>
</g>
</svg>
