<svg viewBox="0 0 20 20" fill="none" xmlns="http://www.w3.org/2000/svg">
<path d="M8.77081 2.10753C6.24033 2.50162 4.00293 4.13529 2.85206 6.42816C2.73054 6.67895 2.65191 6.90823 2.68765 6.93689C2.71624 6.96556 3.59548 7.27366 4.63197 7.61759L6.51196 8.24097L7.97021 7.25933L9.42845 6.27769V4.13529C9.42845 2.95303 9.4213 1.99289 9.41415 2.00005C9.39986 2.00722 9.11393 2.05021 8.77081 2.10753Z" fill="currentColor"/>
<path d="M10.5722 4.14958V6.27766L12.0233 7.25929L13.4744 8.23376L15.3829 7.47425L17.2844 6.70757L17.0842 6.30632C15.9548 4.07793 13.553 2.3941 11.0583 2.07883L10.5722 2.01434V4.14958Z" fill="currentColor"/>
<path d="M8.64215 8.19079C7.91302 8.68519 7.31257 9.12227 7.29827 9.15809C7.28398 9.18675 7.50557 9.93194 7.78435 10.7989L8.29903 12.3824H10.0003H11.7016L12.2091 10.7989C12.4951 9.93194 12.7166 9.19392 12.7024 9.15809C12.6809 9.09361 10.0718 7.29513 10.0003 7.29513C9.97887 7.29513 9.36412 7.69638 8.64215 8.19079Z" fill="currentColor"/>
<path d="M15.7547 8.55633L13.8961 9.30152L13.3671 10.9567L12.831 12.6047L14.2964 14.0736C15.097 14.8761 15.7761 15.5281 15.8047 15.5209C15.9905 15.4493 16.784 14.2957 17.1486 13.5648C18.0064 11.8308 18.2065 10.19 17.7919 8.19807C17.749 7.97595 17.6918 7.79682 17.6632 7.79682C17.6346 7.80398 16.7769 8.14075 15.7547 8.55633Z" fill="currentColor"/>
<path d="M2.13724 8.52762C1.6869 10.9495 2.35168 13.3642 4.03152 15.3561L4.21023 15.571L5.68992 14.0878L7.16961 12.6046L6.67638 11.0784C6.40474 10.2401 6.1617 9.50209 6.12596 9.43044C6.09022 9.35879 5.42543 9.10084 4.23167 8.69959C3.21662 8.36282 2.35168 8.08338 2.30879 8.08338C2.25876 8.08338 2.18727 8.284 2.13724 8.52762Z" fill="currentColor"/>
<path d="M6.49767 14.9333L5.10376 16.3305L5.31106 16.5025C5.96155 17.0255 7.33401 17.6417 8.39196 17.871C9.17826 18.043 10.8224 18.043 11.6087 17.871C12.6666 17.6417 14.0391 17.0255 14.6896 16.5025L14.8969 16.3305L13.503 14.9333L12.109 13.5289H10.0003H7.89158L6.49767 14.9333Z" fill="currentColor"/>
</svg>
