<svg viewBox="0 0 20 20" fill="none" xmlns="http://www.w3.org/2000/svg">
<path d="M4.9651 4.08258C4.69129 4.22239 4.66967 4.3107 4.66967 5.23789C4.66967 6.0915 4.68048 6.15037 4.87143 6.36009C4.91826 6.4116 5.01194 6.51463 5.08039 6.58821C5.18127 6.70227 5.2281 6.72803 5.33619 6.72803C5.44427 6.72803 5.49111 6.70227 5.59199 6.58821C5.66044 6.51463 5.75411 6.4116 5.80095 6.36009C5.9919 6.15037 6.0027 6.0915 6.0027 5.23789C6.0027 4.52042 5.9955 4.42844 5.93065 4.30334C5.79014 4.02003 5.30736 3.90965 4.9651 4.08258Z" fill="currentColor"/>
<path d="M8.7048 4.07161C8.63635 4.10841 8.54267 4.19671 8.49944 4.26294C8.42018 4.38068 8.41658 4.41379 8.41658 5.22693C8.41658 6.12837 8.42738 6.20195 8.60392 6.34913C8.65076 6.38592 8.7084 6.45951 8.73002 6.51838C8.8309 6.74282 9.20919 6.79065 9.34249 6.59564C9.37852 6.54413 9.4758 6.41904 9.55866 6.32337C9.74961 6.09525 9.75682 6.02535 9.7424 5.10183C9.7316 4.31077 9.72439 4.28134 9.483 4.10105C9.33889 3.99067 8.88134 3.97227 8.7048 4.07161Z" fill="currentColor"/>
<path d="M12.4697 4.05682C12.3364 4.11569 12.2175 4.24815 12.1671 4.38429C12.1166 4.52042 12.113 5.95169 12.1635 6.08782C12.2031 6.18716 12.3256 6.35641 12.5454 6.60293C12.6318 6.69491 12.6895 6.72803 12.7724 6.72803C12.9381 6.72803 13.0822 6.63972 13.147 6.49991C13.1795 6.43368 13.2335 6.36009 13.2731 6.33434C13.4353 6.235 13.4605 6.08782 13.4605 5.23053C13.4605 4.29966 13.4425 4.22975 13.1723 4.08626C12.9885 3.9906 12.6463 3.97588 12.4697 4.05682Z" fill="currentColor"/>
<path d="M2.29903 4.61988C2.23418 4.65299 2.14411 4.73026 2.10088 4.79281C2.02162 4.90319 2.02162 4.93262 2.01081 6.22039L2 7.5376H9.06508H16.1266V6.23511C16.1266 4.94734 16.1266 4.9363 16.0437 4.8112C15.8888 4.57205 15.8131 4.55733 14.8584 4.55733H14.0045L13.9937 5.37414C13.9829 6.28662 13.9649 6.36389 13.7055 6.66927C13.6406 6.74654 13.5325 6.87532 13.4641 6.95626C13.2767 7.17702 13.093 7.25797 12.794 7.26165C12.5814 7.26165 12.513 7.24693 12.3724 7.1623C12.2824 7.10344 12.1671 7.00777 12.1202 6.9489C12.0734 6.88635 11.9725 6.75758 11.8969 6.66191C11.6267 6.32709 11.6087 6.25719 11.5942 5.35575L11.5798 4.55733H10.9169H10.254V5.34103C10.254 6.24983 10.2324 6.35285 9.98019 6.65456C9.89372 6.76126 9.80365 6.879 9.78203 6.91579C9.71718 7.04089 9.46499 7.1991 9.25963 7.24693C8.87053 7.33523 8.5787 7.1991 8.24724 6.77597C7.88696 6.31974 7.89417 6.34917 7.88336 5.39254L7.87255 4.55733H7.20964H6.55033L6.53592 5.37414C6.52151 6.36757 6.54673 6.29398 6.00631 6.95258C5.81896 7.17702 5.63882 7.25797 5.33619 7.25797C5.03355 7.25797 4.85341 7.17702 4.66607 6.95258C4.36343 6.58097 4.31299 6.51474 4.23373 6.36021C4.15087 6.202 4.14726 6.15416 4.13646 5.37414L4.12205 4.55733H3.27179C2.55843 4.55733 2.39991 4.56837 2.29903 4.61988Z" fill="currentColor"/>
<path d="M16.6706 11.7025L16.667 15.4481H17.1173C17.4992 15.4481 17.5929 15.4371 17.7118 15.3745C17.8595 15.2973 18 15.0802 18 14.9293C18 14.8521 16.7138 8.07471 16.685 7.99745C16.6778 7.97537 16.6706 9.64579 16.6706 11.7025Z" fill="currentColor"/>
<path d="M2.00407 11.8239C2.00407 15.4665 2.00407 15.5658 2.07612 15.702C2.12296 15.8013 2.19501 15.8712 2.3031 15.9227L2.45802 16H9.06914H15.6803L15.8388 15.9154C16.1486 15.7535 16.127 16.0736 16.127 11.835V8.08941H9.06554H2.00407V11.8239ZM9.77889 9.00925C10.6616 9.22633 11.4146 9.84078 11.8145 10.6723C12.1892 11.4523 12.2216 12.3942 11.9081 13.2037C11.6776 13.7924 11.1732 14.3958 10.6508 14.7159C10.0959 15.0507 9.61316 15.1721 8.92503 15.1464C8.52512 15.1317 8.42785 15.1133 8.10359 14.9992C7.11643 14.6534 6.4319 13.9212 6.12566 12.891C6.03919 12.6003 6.02839 12.4973 6.02839 12.0447C6.02839 11.5921 6.03919 11.4891 6.12566 11.2058C6.45712 10.0836 7.26775 9.27784 8.33778 9.00925C8.73048 8.91358 9.37898 8.91358 9.77889 9.00925Z" fill="currentColor"/>
<path d="M9.483 9.60901C9.72799 9.78194 9.94776 10.0469 10.0667 10.3044C10.2216 10.6429 10.3297 10.5693 10.3837 10.08C10.4053 9.86657 10.4053 9.86657 10.2864 9.79298C10.1171 9.68628 9.68836 9.53543 9.47579 9.50599L9.29926 9.48024L9.483 9.60901Z" fill="currentColor"/>
<path d="M7.9374 9.74517C7.33213 10.0579 6.89619 10.573 6.68003 11.2316C6.62598 11.3935 6.58635 11.5333 6.59356 11.537C6.60076 11.5444 6.74848 11.4818 6.92502 11.3972C7.69962 11.0329 8.54627 10.8232 9.07588 10.8637L9.3533 10.8858L9.49381 10.7386L9.63071 10.5914L9.53344 10.4332C9.3533 10.1425 8.99662 9.90338 8.47422 9.72309C8.33731 9.67526 8.20761 9.63479 8.18599 9.63479C8.16438 9.63479 8.05269 9.6863 7.9374 9.74517Z" fill="currentColor"/>
<path d="M10.8485 10.5068C10.816 10.6245 10.7656 10.7607 10.7404 10.8122C10.7116 10.8674 10.7044 10.9262 10.7152 10.9483C10.7296 10.9741 10.8629 11.0182 11.0106 11.0513C11.1583 11.0844 11.3204 11.1212 11.3673 11.1323C11.4537 11.1543 11.4537 11.1507 11.3204 10.9005C11.1943 10.665 10.9493 10.2971 10.9205 10.2971C10.9133 10.2971 10.8809 10.3927 10.8485 10.5068Z" fill="currentColor"/>
<path d="M9.89372 11.1066C9.85409 11.147 9.82166 11.2133 9.82166 11.2537C9.82166 11.2942 9.85409 11.3604 9.89372 11.4009C9.93335 11.4414 9.9982 11.4745 10.0378 11.4745C10.0775 11.4745 10.1423 11.4414 10.1819 11.4009C10.2216 11.3604 10.254 11.2942 10.254 11.2537C10.254 11.2133 10.2216 11.147 10.1819 11.1066C10.1423 11.0661 10.0775 11.033 10.0378 11.033C9.9982 11.033 9.93335 11.0661 9.89372 11.1066Z" fill="currentColor"/>
<path d="M8.50665 11.4413C8.03829 11.5222 7.13038 11.8607 6.70165 12.1183L6.53952 12.2139L6.56474 12.3869C6.68724 13.2736 7.2853 14.072 8.08152 14.4179C8.3121 14.5172 8.39136 14.5025 8.61113 14.3038C9.02905 13.9285 9.32088 13.2699 9.4794 12.3538C9.55506 11.927 9.54786 11.8644 9.42536 11.6878C9.36772 11.6068 9.31728 11.5185 9.31728 11.4928C9.31728 11.4045 8.87413 11.3787 8.50665 11.4413Z" fill="currentColor"/>
<path d="M10.7584 11.5665C10.7584 11.5775 10.834 11.6805 10.9313 11.8019C11.1151 12.0374 11.27 12.3281 11.3925 12.6666L11.4681 12.8837L11.5186 12.685C11.5438 12.5746 11.5654 12.3465 11.5654 12.1772L11.569 11.8645L11.4465 11.7799C11.306 11.6805 10.7584 11.5113 10.7584 11.5665Z" fill="currentColor"/>
<path d="M10.1891 12.0005C10.1135 12.0226 10.0667 12.0667 10.0594 12.1146C9.8685 13.2589 9.66314 13.8439 9.28124 14.3627C9.18037 14.4988 9.1011 14.6129 9.1011 14.6202C9.1011 14.6791 9.82166 14.5209 10.0703 14.4068C10.4125 14.256 10.9457 13.8365 11.0466 13.6415C11.1115 13.5201 10.8521 12.6702 10.6467 12.3353C10.5314 12.1514 10.3657 11.949 10.3297 11.9564C10.3188 11.96 10.254 11.9784 10.1891 12.0005Z" fill="currentColor"/>
</svg>
