<svg viewBox="0 0 16 16" fill="none" xmlns="http://www.w3.org/2000/svg">
<path d="M4.22542 9.89632C4.30355 9.24937 4.56889 8.88715 5.0689 8.51583C5.78433 8.01294 6.67801 8.29741 6.67801 8.29741V6.60983C6.89527 6.60427 7.11261 6.61715 7.32751 6.64831V8.82007C7.32751 8.82007 6.4341 8.53559 5.71867 9.03875C5.21893 9.40981 4.95305 9.77229 4.87519 10.4192C4.87275 10.7705 4.93868 11.2297 5.24226 11.6268C5.1672 11.5883 5.0907 11.5445 5.01274 11.4952C4.34398 11.0462 4.22216 10.3724 4.22542 9.89632ZM11.0175 3.48949C10.5254 2.95019 10.3393 2.40569 10.272 2.02319H10.8911C10.8911 2.02319 10.7676 3.02612 11.6673 4.01241L11.6798 4.02567C11.4373 3.87315 11.2149 3.69312 11.0175 3.48949ZM14 5.01846V7.14653C14 7.14653 13.2099 7.11558 12.6253 6.96685C11.8089 6.75882 11.2842 6.43977 11.2842 6.43977C11.2842 6.43977 10.9217 6.21224 10.8924 6.19638V10.5909C10.8924 10.8355 10.8254 11.4466 10.6211 11.9563C10.3544 12.623 9.94288 13.0606 9.86719 13.1501C9.86719 13.1501 9.36663 13.7416 8.48354 14.14C7.68753 14.4993 6.98865 14.4902 6.77974 14.4993C6.77974 14.4993 5.57163 14.5472 4.48451 13.8407C4.24943 13.685 4.02999 13.5086 3.82904 13.3139L3.83447 13.3178C4.92185 14.0243 6.1297 13.9764 6.1297 13.9764C6.33888 13.9673 7.03776 13.9764 7.83349 13.6171C8.71577 13.2187 9.21714 12.6271 9.21714 12.6271C9.29202 12.5377 9.70549 12.1001 9.9711 11.4331C10.1748 10.9237 10.2424 10.3124 10.2424 10.0677V5.67373C10.2717 5.68985 10.6339 5.91737 10.6339 5.91737C10.6339 5.91737 11.1589 6.23669 11.9752 6.44445C12.5602 6.59319 13.3499 6.62413 13.3499 6.62413V4.95657C13.6201 5.01716 13.8505 5.03354 14 5.01846Z" fill="#EE1D52"/>
<path d="M13.3502 4.95657V6.62361C13.3502 6.62361 12.5604 6.59266 11.9755 6.44393C11.1591 6.23591 10.6342 5.91685 10.6342 5.91685C10.6342 5.91685 10.272 5.68933 10.2427 5.67321V10.0682C10.2427 10.3129 10.1757 10.9242 9.97136 11.4336C9.70467 12.1006 9.2931 12.5382 9.21741 12.6277C9.21741 12.6277 8.71658 13.2192 7.83376 13.6176C7.03802 13.9769 6.33914 13.9678 6.12997 13.9769C6.12997 13.9769 4.92212 14.0248 3.83473 13.3183L3.82931 13.3144C3.7145 13.2032 3.60644 13.0858 3.50564 12.9628C3.15864 12.5398 2.94594 12.0395 2.89249 11.8967C2.8924 11.8961 2.8924 11.8955 2.89249 11.8949C2.80649 11.6468 2.6258 11.0511 2.65049 10.4741C2.69417 9.45609 3.05229 8.83125 3.14698 8.67471C3.39774 8.24784 3.7239 7.86591 4.11092 7.54593C4.45245 7.26981 4.83955 7.05012 5.25637 6.89586C5.70696 6.71474 6.18946 6.61766 6.678 6.60983V8.29741C6.678 8.29741 5.78432 8.01398 5.06917 8.51583C4.56915 8.88715 4.30382 9.24937 4.22568 9.89632C4.22243 10.3724 4.34424 11.0462 5.01246 11.4955C5.09042 11.5449 5.16693 11.5888 5.24199 11.6271C5.35873 11.7788 5.50081 11.911 5.66251 12.0184C6.31527 12.4316 6.86222 12.4605 7.56164 12.1921C8.02801 12.0127 8.37908 11.6083 8.54186 11.1603C8.64414 10.8805 8.64279 10.5989 8.64279 10.3077V2.02319H10.2706C10.3379 2.40569 10.524 2.95019 11.0162 3.48949C11.2136 3.69312 11.4359 3.87315 11.6784 4.02567C11.75 4.09978 12.1163 4.46616 12.5865 4.69108C12.8296 4.80734 13.0858 4.89643 13.3502 4.95657V4.95657Z" fill="white"/>
<path d="M2.24463 11.3784V11.3797L2.28502 11.4892C2.28038 11.4764 2.26537 11.4377 2.24463 11.3784Z" fill="#69C9D0"/>
<path d="M5.25641 6.89582C4.8396 7.05008 4.45249 7.26978 4.11096 7.54589C3.72381 7.8666 3.39774 8.24933 3.14729 8.67701C3.0526 8.83303 2.69448 9.4584 2.6508 10.4764C2.62611 11.0534 2.8068 11.6491 2.89281 11.8972C2.89271 11.8978 2.89271 11.8984 2.89281 11.899C2.94707 12.0405 3.15896 12.5408 3.50595 12.9651C3.60675 13.0881 3.71482 13.2055 3.82962 13.3167C3.46178 13.0729 3.13373 12.7781 2.85618 12.442C2.51217 12.0225 2.30001 11.5274 2.24466 11.3813C2.2446 11.3803 2.2446 11.3792 2.24466 11.3782V11.3764C2.15839 11.1286 1.97716 10.5326 2.00239 9.95479C2.04607 8.93678 2.40419 8.31194 2.49887 8.1554C2.74925 7.72767 3.07533 7.34492 3.46255 7.02428C3.804 6.74806 4.19113 6.52836 4.60799 6.37421C4.86801 6.27081 5.13888 6.19453 5.41594 6.14668C5.83346 6.07683 6.2599 6.07077 6.6794 6.12874V6.60979C6.1904 6.61746 5.70742 6.71454 5.25641 6.89582Z" fill="#69C9D0"/>
<path d="M10.272 2.02318H8.64413V10.3079C8.64413 10.5992 8.64413 10.88 8.54321 11.1606C8.3788 11.6083 8.02909 12.0127 7.56298 12.1921C6.86329 12.4615 6.31634 12.4316 5.66386 12.0184C5.50188 11.9115 5.35943 11.7797 5.24225 11.6284C5.79815 11.9126 6.29572 11.9076 6.91213 11.6705C7.37795 11.4911 7.72821 11.0867 7.89208 10.6387C7.99463 10.3589 7.99327 10.0773 7.99327 9.78631V1.5H10.241C10.241 1.5 10.2158 1.70594 10.272 2.02318ZM13.3502 4.49552V4.95655C13.0863 4.89631 12.8305 4.80723 12.5878 4.69106C12.1176 4.46614 11.7514 4.09976 11.6798 4.02565C11.7629 4.07795 11.8491 4.12553 11.938 4.16815C12.5097 4.4417 13.0726 4.52335 13.3502 4.49552Z" fill="#69C9D0"/>
</svg>
