<svg viewBox="0 0 16 12" fill="none" xmlns="http://www.w3.org/2000/svg">
<path fill-rule="evenodd" clip-rule="evenodd" d="M4.32635 0.833374C2.09049 0.833374 0.372999 2.81366 0.689197 5.02705L0.843128 6.10456L1.81398 9.50254C2.09542 10.4876 2.99576 11.1667 4.02022 11.1667C4.80096 11.1667 5.52813 10.7697 5.95032 10.113L6.1999 9.72473C7.04224 8.41442 8.95763 8.41442 9.79998 9.72473L9.95265 9.96222C10.4352 10.7129 11.2664 11.1667 12.1589 11.1667C13.4641 11.1667 14.5707 10.207 14.7553 8.91485L15.3107 5.02705C15.6269 2.81366 13.9094 0.833374 11.6735 0.833374C11.1595 0.833374 10.6511 0.941254 10.1813 1.15004L9.82735 1.30737C9.1438 1.61116 8.86707 1.73138 8.5883 1.79055C8.20038 1.8729 7.7995 1.8729 7.41158 1.79055C7.13281 1.73138 6.85608 1.61116 6.17253 1.30737L5.81854 1.15004C5.34877 0.941253 4.84042 0.833374 4.32635 0.833374ZM4.66659 3.50004C4.94274 3.50004 5.16659 3.7239 5.16659 4.00004V4.83337H5.99993C6.27607 4.83337 6.49993 5.05723 6.49993 5.33337C6.49993 5.60952 6.27607 5.83337 5.99993 5.83337H5.16659V6.66671C5.16659 6.94285 4.94274 7.16671 4.66659 7.16671C4.39045 7.16671 4.1666 6.94285 4.1666 6.66671V5.83337H3.33326C3.05712 5.83337 2.83326 5.60952 2.83326 5.33337C2.83326 5.05723 3.05712 4.83337 3.33326 4.83337H4.1666V4.00004C4.1666 3.7239 4.39045 3.50004 4.66659 3.50004ZM11.3333 4.66671C11.7015 4.66671 12 4.36823 12 4.00004C12 3.63185 11.7015 3.33337 11.3333 3.33337C10.9651 3.33337 10.6666 3.63185 10.6666 4.00004C10.6666 4.36823 10.9651 4.66671 11.3333 4.66671ZM9.99997 6.00004C10.3682 6.00004 10.6666 5.70156 10.6666 5.33337C10.6666 4.96518 10.3682 4.66671 9.99997 4.66671C9.63178 4.66671 9.3333 4.96518 9.3333 5.33337C9.3333 5.70156 9.63178 6.00004 9.99997 6.00004ZM13.3333 5.33337C13.3333 5.70156 13.0348 6.00004 12.6666 6.00004C12.2984 6.00004 12 5.70156 12 5.33337C12 4.96518 12.2984 4.66671 12.6666 4.66671C13.0348 4.66671 13.3333 4.96518 13.3333 5.33337ZM11.3333 7.33337C11.7015 7.33337 12 7.0349 12 6.66671C12 6.29852 11.7015 6.00004 11.3333 6.00004C10.9651 6.00004 10.6666 6.29852 10.6666 6.66671C10.6666 7.0349 10.9651 7.33337 11.3333 7.33337Z" fill="currentColor"/>
</svg>
