<svg viewBox="0 0 29 28" fill="none" xmlns="http://www.w3.org/2000/svg">
<g clip-path="url(#clip0_12_24094)">
<path d="M12.6964 11.6281C12.9957 11.2339 13.3335 10.8668 13.6512 10.4872C13.7531 10.3655 13.9836 10.18 13.9677 10.0045C13.9498 9.80779 13.6699 9.57896 13.5483 9.43411C13.1413 8.94937 12.7285 8.4695 12.3199 7.98607L9.90583 5.13388C9.57334 4.74044 9.22062 4.135 8.78594 3.8551C8.27218 3.52425 7.28199 3.51601 6.68304 3.39623L4.26893 2.91355C4.03782 2.86733 3.61167 2.70457 3.40503 2.87861C3.22212 3.03265 3.32563 3.35847 3.36473 3.55421L3.71587 5.3094L4.12848 7.37176C4.18436 7.65109 4.19417 8.04676 4.35045 8.28928C4.63043 8.72383 5.23605 9.07644 5.62961 9.40883L8.48265 11.8222L10.1945 13.2703C10.3397 13.3929 10.6401 13.7636 10.8522 13.7141C11.0829 13.6602 11.314 13.2479 11.4617 13.0761C11.6256 12.8853 12.13 12.4625 12.1184 12.1985C12.1083 11.9675 11.7072 11.6924 11.5551 11.5403C11.0919 11.0772 10.2621 10.511 9.98352 9.91679C9.86202 9.65759 10.1552 9.3714 10.4139 9.4876C10.837 9.67764 11.2295 10.2494 11.5551 10.575C11.8945 10.9143 12.2587 11.4241 12.6964 11.6281Z" fill="url(#paint0_radial_12_24094)"/>
<path d="M9.75562 16.1476C9.91385 16.3722 10.4751 17.1478 10.7652 17.1478C10.9452 17.1478 11.1331 16.8768 11.248 16.7619L12.3453 15.6649L16.8663 11.1453L18.1391 9.87279C18.2965 9.71557 18.4973 9.43852 18.7534 9.49266C19.1105 9.56814 19.0169 9.94107 18.8388 10.1361C18.3387 10.6838 17.7859 11.1913 17.2613 11.7157L12.9598 16.016L11.8186 17.1568C11.6808 17.2946 11.4 17.4868 11.3509 17.6834C11.2925 17.9176 12.0137 18.5637 12.2136 18.6597C12.4963 18.7955 13.1472 18.0512 13.3548 17.8769C14.4414 16.9651 15.5148 16.0376 16.6029 15.1276C18.4846 13.5538 20.3472 11.957 22.2212 10.3741L23.933 8.92604C24.1653 8.72986 24.5223 8.52187 24.6654 8.24753C24.8556 7.88276 24.8708 7.33527 24.9513 6.93285L25.5044 4.16842C25.5626 3.87757 25.8586 3.10729 25.587 2.8785C25.441 2.75558 25.1975 2.81945 25.0303 2.85205C24.5617 2.94348 24.0939 3.03921 23.6258 3.13284L21.2555 3.60675C20.9403 3.66977 20.4791 3.67913 20.2061 3.85499C19.606 4.24138 19.0987 5.11404 18.64 5.66033C17.4571 7.06922 16.2716 8.47772 15.0724 9.87279C13.2885 11.948 11.6098 14.1351 9.75562 16.1476Z" fill="url(#paint1_radial_12_24094)"/>
<path d="M18.0508 14.7874L16.8657 15.7966L17.8314 16.8497L18.2264 17.1478L18.797 16.6742L19.1836 16.1915L18.9322 15.7966L18.0508 14.7874Z" fill="url(#paint2_radial_12_24094)"/>
<path d="M7.47296 15.5968C6.95355 15.6777 6.64049 16.0562 6.28789 16.4111C6.1506 16.5494 5.93951 16.7177 6.01404 16.9377C6.16504 17.3833 6.83726 17.838 7.16571 18.1663L10.0187 21.0185L11.16 22.1594C11.2934 22.292 11.4726 22.5215 11.6867 22.4917C11.8964 22.4626 12.0736 22.2114 12.2134 22.0716C12.7047 21.5805 13.1268 21.0308 12.7779 20.3164C12.539 19.8274 11.9797 19.4246 11.5989 19.0439L9.05311 16.4989C8.61637 16.0623 8.16612 15.4887 7.47296 15.5968Z" fill="url(#paint3_radial_12_24094)"/>
<path d="M21.2118 15.5966C20.5704 15.6965 20.1525 16.2852 19.7195 16.7181L17.3931 19.0437C17.0189 19.4178 16.4913 19.8042 16.2365 20.2724C15.8452 20.9912 16.2784 21.5713 16.7786 22.0714C16.9229 22.2156 17.1212 22.4998 17.3492 22.4937C17.5462 22.4885 17.7048 22.2857 17.8321 22.1591L18.7538 21.2377L21.7824 18.21C22.1217 17.8708 22.8222 17.3973 22.978 16.9375C23.0634 16.6853 22.7703 16.4771 22.6164 16.3232C22.225 15.9317 21.8204 15.5017 21.2118 15.5966Z" fill="url(#paint4_radial_12_24094)"/>
<path d="M15.0662 17.3322L16.2074 18.3594L16.6902 18.684L17.2169 18.2537L17.6468 17.7271L17.1291 17.1128L16.3391 16.3813L15.944 16.5863L15.0662 17.3322Z" fill="url(#paint5_radial_12_24094)"/>
<path d="M7.60476 19.6143L5.58569 21.6766C6.12176 21.9078 6.5834 22.3693 6.81469 22.9052L8.87766 20.8868V20.8429L7.60476 19.6143Z" fill="url(#paint6_radial_12_24094)"/>
<path d="M21.3433 19.6143L20.1143 20.8429V20.8868L22.1772 22.9052C22.4085 22.3693 22.8702 21.9078 23.4062 21.6766C22.9086 20.9704 22.0497 20.1117 21.3433 19.6143Z" fill="url(#paint7_radial_12_24094)"/>
<path d="M4.75148 22.2344C2.82759 22.2662 2.87214 25.2315 4.79538 25.1997C6.71652 25.168 6.67227 22.2026 4.75148 22.2344Z" fill="url(#paint8_radial_12_24094)"/>
<path d="M24.1965 22.2292C22.2523 22.3056 22.34 25.2906 24.2843 25.1979C26.1753 25.1077 26.0887 22.1547 24.1965 22.2292Z" fill="url(#paint9_radial_12_24094)"/>
</g>
<defs>
<radialGradient id="paint0_radial_12_24094" cx="0" cy="0" r="1" gradientUnits="userSpaceOnUse" gradientTransform="translate(5.39777 4.7016) rotate(53.4297) scale(8.24871 8.19547)">
<stop stop-color="#FFCC24"/>
<stop offset="1" stop-color="#FFA900"/>
</radialGradient>
<radialGradient id="paint1_radial_12_24094" cx="0" cy="0" r="1" gradientUnits="userSpaceOnUse" gradientTransform="translate(12.8907 5.57003) rotate(52.663) scale(12.1107 12.1258)">
<stop stop-color="#FFCC24"/>
<stop offset="1" stop-color="#FFA900"/>
</radialGradient>
<radialGradient id="paint2_radial_12_24094" cx="0" cy="0" r="1" gradientUnits="userSpaceOnUse" gradientTransform="translate(17.3215 15.1984) rotate(53.2926) scale(1.78642 1.77744)">
<stop stop-color="#FFCC24"/>
<stop offset="1" stop-color="#FFA900"/>
</radialGradient>
<radialGradient id="paint3_radial_12_24094" cx="0" cy="0" r="1" gradientUnits="userSpaceOnUse" gradientTransform="translate(7.35675 16.7871) rotate(52.8054) scale(5.26383 5.26315)">
<stop stop-color="#FFCC24"/>
<stop offset="1" stop-color="#FFA900"/>
</radialGradient>
<radialGradient id="paint4_radial_12_24094" cx="0" cy="0" r="1" gradientUnits="userSpaceOnUse" gradientTransform="translate(17.4433 16.7868) rotate(52.8008) scale(5.2639 5.26345)">
<stop stop-color="#FFCC24"/>
<stop offset="1" stop-color="#FFA900"/>
</radialGradient>
<radialGradient id="paint5_radial_12_24094" cx="0" cy="0" r="1" gradientUnits="userSpaceOnUse" gradientTransform="translate(15.5736 16.7824) rotate(49.6058) scale(1.83446 1.87992)">
<stop stop-color="#FFCC24"/>
<stop offset="1" stop-color="#FFA900"/>
</radialGradient>
<radialGradient id="paint6_radial_12_24094" cx="0" cy="0" r="1" gradientUnits="userSpaceOnUse" gradientTransform="translate(6.23299 20.1874) rotate(52.7839) scale(2.50738 2.50758)">
<stop stop-color="#FFCC24"/>
<stop offset="1" stop-color="#FFA900"/>
</radialGradient>
<radialGradient id="paint7_radial_12_24094" cx="0" cy="0" r="1" gradientUnits="userSpaceOnUse" gradientTransform="translate(20.7616 20.1874) rotate(52.7839) scale(2.50738 2.50758)">
<stop stop-color="#FFCC24"/>
<stop offset="1" stop-color="#FFA900"/>
</radialGradient>
<radialGradient id="paint8_radial_12_24094" cx="0" cy="0" r="1" gradientUnits="userSpaceOnUse" gradientTransform="translate(3.8976 22.7506) rotate(53.5632) scale(2.23674 2.21914)">
<stop stop-color="#FFCC24"/>
<stop offset="1" stop-color="#FFA900"/>
</radialGradient>
<radialGradient id="paint9_radial_12_24094" cx="0" cy="0" r="1" gradientUnits="userSpaceOnUse" gradientTransform="translate(23.3475 22.7454) rotate(53.6737) scale(2.23839 2.21812)">
<stop stop-color="#FFCC24"/>
<stop offset="1" stop-color="#FFA900"/>
</radialGradient>
<clipPath id="clip0_12_24094">
<rect width="28" height="28" fill="white" transform="translate(0.5)"/>
</clipPath>
</defs>
</svg>
