<svg viewBox="0 0 29 28" fill="none" xmlns="http://www.w3.org/2000/svg">
<g clip-path="url(#clip0_12_24081)">
<path d="M27.6249 16.5359C27.6249 16.6557 27.6249 16.7756 27.5663 16.8351H27.596V18.2999C27.596 21.9775 21.7029 24.9376 14.4404 24.9376C7.6539 24.9376 2.05827 22.3362 1.37402 18.9876C3.2194 21.3195 8.04065 22.9942 13.7255 22.9942C18.8154 22.9942 23.2201 21.6782 25.4225 19.7051C23.1011 21.2897 19.112 22.3065 14.5594 22.3065C8.6059 22.3065 3.5764 20.5425 2.02852 18.1205C1.99877 18.1205 1.99877 18.0907 1.99877 18.0907C1.7599 17.7311 1.61202 17.3732 1.55165 16.9847C1.55165 16.8351 1.5219 16.6855 1.5219 16.5359C1.5219 13.5757 6.52165 11.1537 12.9511 10.795L12.8619 11.453C8.9629 11.6621 5.7184 12.7086 4.2309 14.1436C3.66565 14.7115 3.3384 15.31 3.3384 15.9374C3.3384 16.2366 3.42765 16.5647 3.5764 16.864C3.8144 17.3129 4.20115 17.7311 4.73665 18.1196C6.61177 19.4951 10.2133 20.4217 14.3503 20.4217C18.4873 20.4217 22.0888 19.4951 23.9639 18.1196C24.4994 17.7311 24.8861 17.3129 25.1241 16.864C25.2729 16.5647 25.3621 16.2664 25.3621 15.9374C25.3621 15.1306 24.8564 14.4122 23.9928 13.7551C22.3557 12.5292 19.35 11.6621 15.8378 11.453L15.7485 10.8545V10.7652C22.4151 11.0339 27.6249 13.5162 27.6249 16.5359ZM23.3313 15.3546C23.8694 15.3546 24.2877 15.772 24.2877 16.3092C24.2877 16.5779 24.1984 16.7861 24.0181 16.9655C23.8379 17.1449 23.5999 17.2639 23.3304 17.2639C23.0609 17.2639 22.822 17.1449 22.6426 16.9655C22.4633 16.7861 22.3731 16.5779 22.3731 16.3092C22.3731 15.772 22.822 15.3546 23.3295 15.3546H23.3313ZM15.9778 12.3402C19.1768 12.6386 21.5681 13.8321 21.5681 15.2347C21.5681 15.8612 21.0895 16.4589 20.253 16.9357C18.937 17.6821 16.7845 18.1887 14.3634 18.1887C11.9423 18.1887 9.7889 17.6821 8.47377 16.9357C7.63727 16.4589 7.15865 15.8612 7.15865 15.2347C7.15865 13.8321 9.55002 12.6386 12.749 12.3402L12.3001 15.4736C12.3001 16.1001 14.0038 16.4282 14.3625 16.4282C14.7213 16.4282 16.4249 16.1001 16.4249 15.443L15.976 12.3402H15.9778ZM10.0418 9.56823C9.44415 9.56823 8.93665 9.0546 8.9384 8.47798C8.9384 7.87248 9.4459 7.35885 10.0435 7.35885C10.3419 7.35885 10.5808 7.4796 10.7899 7.6616H13.7159L13.7763 7.2381C13.7159 7.20748 13.687 7.20748 13.6266 7.17773C13.5663 7.17773 13.5374 7.1471 13.477 7.11648C12.8199 6.75335 12.3421 6.02798 12.3421 5.21073C12.3421 4.03123 13.2976 3.06348 14.4614 3.06348C15.6252 3.06348 16.5815 4.03123 16.5815 5.21073C16.5815 6.05773 16.1335 6.75335 15.4466 7.11648C15.3863 7.1471 15.3574 7.1471 15.297 7.17773C15.2366 7.20835 15.2069 7.20835 15.1474 7.2381L15.2069 7.6616H18.4313C18.6404 7.4796 18.8793 7.35885 19.1785 7.35885C19.7761 7.35885 20.2836 7.87248 20.2836 8.47798C20.2836 9.08348 19.7761 9.5971 19.1785 9.5971C18.8801 9.5971 18.6404 9.47635 18.4313 9.29435H15.4458L15.5648 10.081V10.1414L15.654 10.7469L15.6838 11.019L15.773 11.5632L16.221 14.7701C16.221 15.0422 14.9969 15.436 14.4588 15.436C13.9206 15.436 12.6974 15.0431 12.6974 14.8016L13.1454 11.565L13.2346 11.0207L13.2644 10.7486L13.3536 10.0827L13.4726 9.26635H10.7855C10.5764 9.44748 10.3384 9.5691 10.0391 9.5691L10.0418 9.56823ZM15.8343 5.72873C15.8343 5.72873 15.8045 4.51948 14.4605 4.45823C14.4605 4.45823 14.9383 4.73035 15.2078 5.00248C15.7153 5.4566 15.8343 5.72873 15.8343 5.72873Z" fill="url(#paint0_radial_12_24081)"/>
</g>
<defs>
<radialGradient id="paint0_radial_12_24081" cx="0" cy="0" r="1" gradientUnits="userSpaceOnUse" gradientTransform="translate(6.53571 6.87301) rotate(47.6609) scale(17.9552 18.5601)">
<stop stop-color="#FFCC24"/>
<stop offset="1" stop-color="#FFA900"/>
</radialGradient>
<clipPath id="clip0_12_24081">
<rect width="28" height="28" fill="white" transform="translate(0.5)"/>
</clipPath>
</defs>
</svg>
