<svg viewBox="0 0 24 24" fill="none" xmlns="http://www.w3.org/2000/svg">
<path d="M21.4499 13.6399V14.6399C21.4499 14.9099 21.2399 15.1299 20.9599 15.1399H19.4999C18.9699 15.1399 18.4899 14.7499 18.4499 14.2299C18.4199 13.9199 18.5399 13.6299 18.7399 13.4299C18.9199 13.2399 19.1699 13.1399 19.4399 13.1399H20.9499C21.2399 13.1499 21.4499 13.3699 21.4499 13.6399Z" fill="currentColor"/>
<path d="M17.9899 12.6899C17.4899 13.1799 17.25 13.9099 17.45 14.6699C17.71 15.5999 18.6199 16.1899 19.5799 16.1899H20.4499C20.9999 16.1899 21.4499 16.6399 21.4499 17.1899V17.3799C21.4499 19.4499 19.76 21.1399 17.6899 21.1399H6.20995C4.13995 21.1399 2.44995 19.4499 2.44995 17.3799V10.6499C2.44995 9.41989 3.03995 8.32989 3.94995 7.64989C4.57995 7.16989 5.35995 6.88989 6.20995 6.88989H17.6899C19.76 6.88989 21.4499 8.57989 21.4499 10.6499V11.0899C21.4499 11.6399 20.9999 12.0899 20.4499 12.0899H19.4299C18.8699 12.0899 18.3599 12.3099 17.9899 12.6899Z" fill="currentColor"/>
<path d="M16.2001 4.82C16.4701 5.09 16.2401 5.51 15.8601 5.51L8.18006 5.5C7.74006 5.5 7.51006 4.96 7.83006 4.65L9.45006 3.02C10.8201 1.66 13.0401 1.66 14.4101 3.02L16.1601 4.79C16.1701 4.8 16.1901 4.81 16.2001 4.82Z" fill="currentColor"/>
</svg>
