<svg viewBox="0 0 28 28" fill="none" xmlns="http://www.w3.org/2000/svg">
<path d="M23.5783 9.12326L14.595 14.3266C14.2333 14.5366 13.7783 14.5366 13.405 14.3266L4.42167 9.12326C3.78001 8.74993 3.61667 7.87493 4.10667 7.3266C4.44501 6.9416 4.83001 6.6266 5.23834 6.40493L11.5617 2.90493C12.915 2.1466 15.1083 2.1466 16.4617 2.90493L22.785 6.40493C23.1933 6.6266 23.5783 6.95327 23.9167 7.3266C24.3833 7.87493 24.22 8.74993 23.5783 9.12326Z" fill="currentColor"/>
<path d="M13.3349 16.4967V24.4534C13.3349 25.34 12.4366 25.9234 11.6432 25.5384C9.2399 24.36 5.19156 22.155 5.19156 22.155C3.76823 21.35 2.60156 19.32 2.60156 17.6517V11.6317C2.60156 10.71 3.5699 10.1267 4.36323 10.5817L12.7516 15.4467C13.1016 15.6684 13.3349 16.065 13.3349 16.4967Z" fill="currentColor"/>
<path d="M14.665 16.4967V24.4534C14.665 25.34 15.5634 25.9234 16.3567 25.5384C18.76 24.36 22.8084 22.155 22.8084 22.155C24.2317 21.35 25.3984 19.32 25.3984 17.6517V11.6317C25.3984 10.71 24.43 10.1267 23.6367 10.5817L15.2484 15.4467C14.8984 15.6684 14.665 16.065 14.665 16.4967Z" fill="currentColor"/>
</svg>
