<svg viewBox="0 0 24 24" fill="none" xmlns="http://www.w3.org/2000/svg">
<path d="M18.4699 16.83L18.8599 19.99C18.9599 20.82 18.0699 21.4 17.3599 20.97L13.8999 18.91C13.6599 18.77 13.5999 18.47 13.7299 18.23C14.2299 17.31 14.4999 16.27 14.4999 15.23C14.4999 11.57 11.3599 8.59 7.49989 8.59C6.70989 8.59 5.93989 8.71 5.21989 8.95C4.84989 9.07 4.48989 8.73 4.57989 8.35C5.48989 4.71 8.98989 2 13.1699 2C18.0499 2 21.9999 5.69 21.9999 10.24C21.9999 12.94 20.6099 15.33 18.4699 16.83Z" fill="currentColor"/>
<path d="M13 15.2301C13 16.4201 12.56 17.5201 11.82 18.3901C10.83 19.5901 9.26 20.3601 7.5 20.3601L4.89 21.9101C4.45 22.1801 3.89 21.8101 3.95 21.3001L4.2 19.3301C2.86 18.4001 2 16.9101 2 15.2301C2 13.4701 2.94 11.9201 4.38 11.0001C5.27 10.4201 6.34 10.0901 7.5 10.0901C10.54 10.0901 13 12.3901 13 15.2301Z" fill="currentColor"/>
</svg>
