<svg viewBox="0 0 35 28" fill="none" xmlns="http://www.w3.org/2000/svg">
<g clip-path="url(#clip0_12_24107)">
<path d="M9.62071 20.5643C9.29888 20.3753 9.06327 20.0629 8.96595 19.6963C8.86864 19.3296 8.91729 18.9385 9.10168 18.6086L16.7803 4.86413L16.2485 3.39763C16.1196 3.0415 15.8575 2.75188 15.5203 2.5935C15.1831 2.43513 14.7981 2.42025 14.4507 2.55325L3.12693 6.86175C2.77949 6.99388 2.49693 7.2625 2.34242 7.60725C2.1879 7.952 2.17339 8.34663 2.30229 8.70275L8.24461 25.1116C8.37351 25.4678 8.63559 25.7574 8.97193 25.9158C9.30827 26.0741 9.69327 26.089 10.0407 25.9569L15.359 23.933L9.61815 20.5634L9.62071 20.5643Z" fill="url(#paint0_radial_12_24107)"/>
<path d="M32.2367 8.43504L21.869 2.08254C21.5506 1.88741 21.1699 1.82966 20.8105 1.92241C20.4511 2.01516 20.1421 2.25054 19.9517 2.57691L11.1906 17.5998C11.0002 17.9262 10.9439 18.3164 11.0344 18.6848C11.1249 19.0532 11.3545 19.3699 11.6729 19.565L22.0406 25.9175C22.359 26.1127 22.7398 26.1704 23.0992 26.0777C23.4585 25.9849 23.7676 25.7495 23.9579 25.4232L32.7199 10.4003C32.9102 10.0739 32.9666 9.68366 32.8761 9.31529C32.7856 8.94691 32.5551 8.63016 32.2367 8.43504ZM24.7049 17.2927C23.3851 18.347 21.6556 17.3347 21.4379 15.8743C21.4379 15.8743 20.0789 18.438 21.2595 19.5948L17.5956 17.3014C19.1382 17.8492 20.7439 15.4403 20.7439 15.4403C19.3781 15.9084 17.7117 14.7937 18.0224 13.1084C18.3289 11.4538 19.4131 11.2167 20.9556 11.137C21.9945 11.0837 24.4181 10.0765 24.4181 10.0765C24.4181 10.0765 24.6511 12.7462 25.0779 13.7183C25.7131 15.1612 26.0016 16.2584 24.7049 17.2927Z" fill="url(#paint1_radial_12_24107)"/>
</g>
<defs>
<radialGradient id="paint0_radial_12_24107" cx="0" cy="0" r="1" gradientUnits="userSpaceOnUse" gradientTransform="translate(5.07904 6.57031) rotate(64.8768) scale(15.804 12.6139)">
<stop stop-color="#FFCC24"/>
<stop offset="1" stop-color="#FFA900"/>
</radialGradient>
<radialGradient id="paint1_radial_12_24107" cx="0" cy="0" r="1" gradientUnits="userSpaceOnUse" gradientTransform="translate(15.3035 6.10103) rotate(55.5213) scale(17.8428 17.2885)">
<stop stop-color="#FFCC24"/>
<stop offset="1" stop-color="#FFA900"/>
</radialGradient>
<clipPath id="clip0_12_24107">
<rect width="35" height="28" fill="white"/>
</clipPath>
</defs>
</svg>
