<svg viewBox="0 0 29 28" fill="none" xmlns="http://www.w3.org/2000/svg">
<g clip-path="url(#clip0_12_24078)">
<path d="M19.988 4.06079C21.1587 4.06079 22.2043 5.49929 22.8877 7.74979L22.8965 7.74892L23.005 8.16542C23.8695 11.6978 23.81 16.6695 22.634 21.0043C21.9585 22.8173 21.0213 23.939 19.9871 23.939L19.9241 23.9347L19.925 23.939L8.96734 23.932C8.00047 23.8349 7.12809 22.7569 6.48584 21.0603L6.47622 21.0594C5.54259 16.7185 5.49359 11.5613 6.17609 8.00092L6.26709 7.55729H6.27147C6.94259 5.45729 7.93659 4.11067 9.04872 4.06254V4.06079H19.988ZM5.79197 7.55729C5.13484 9.76754 4.83209 12.0574 4.88547 14.4269C4.93447 16.6275 5.27047 18.7302 5.89347 20.7348L5.99759 21.0577H5.37372C4.44359 21.0577 3.73222 19.6612 3.35247 17.6688C2.36634 17.163 1.66284 15.84 1.66284 14.2878C1.66284 12.7565 2.34709 11.4493 3.31134 10.9278C3.67972 8.91179 4.40947 7.55729 5.37459 7.55729H5.79197ZM23.7347 7.75067C24.6386 7.86442 25.4191 9.10954 25.8417 11.0214C26.7255 11.5919 27.3371 12.8405 27.3371 14.2878C27.3371 15.7123 26.7447 16.9443 25.8855 17.5279C25.4961 19.4442 24.755 20.7374 23.8826 20.9658L23.7356 20.9938L23.7338 21.0034L23.0723 21.0043L23.2263 20.6114C23.9097 18.766 24.2956 16.7579 24.3831 14.5862C24.4785 12.2114 24.1302 9.93379 23.3375 7.75154H23.7338L23.7347 7.75067ZM12.3702 10.0694L12.0675 10.1849L11.6212 10.3862C11.4978 10.4107 11.4243 10.3398 11.399 10.1735C11.3736 10.0073 11.2625 9.92067 11.0656 9.91367C10.6946 9.91367 10.3883 9.93117 10.1468 9.96617C9.93947 9.99592 9.83272 10.0965 9.82484 10.268L9.82922 10.3599L9.72947 13.3113C9.71722 13.4303 9.72947 13.5187 9.76709 13.5773C9.79247 13.6167 9.82834 13.642 9.87559 13.6552L9.95522 13.6639L11.1067 13.6403C11.1732 13.6613 11.231 13.6508 11.2817 13.6097C11.315 13.5825 11.3447 13.5405 11.3718 13.4863L11.4086 13.3935L11.5608 13.1319C11.7008 12.8878 11.8863 12.718 12.1173 12.6218C12.3098 12.5422 12.5706 12.529 12.9005 12.5815L13.107 12.6218L14.7765 13.0995C15.2026 13.1669 15.6252 13.1669 16.0443 13.0995C16.4635 13.0322 16.8528 12.893 17.2142 12.6839C17.0882 12.8344 16.9045 13.005 16.663 13.1949C16.4215 13.3848 16.1205 13.5939 15.7617 13.8232C15.536 13.9352 15.3006 14.0655 15.0556 14.2143C14.8106 14.363 14.5568 14.5302 14.2935 14.7148C14.0161 14.9265 13.7755 15.1418 13.5716 15.3614C13.3677 15.581 13.2015 15.8033 13.072 16.029C12.9031 16.295 12.7701 16.6039 12.6747 16.9539C12.5793 17.3039 12.5207 17.6968 12.4997 18.1317C12.4848 18.2463 12.5023 18.332 12.5513 18.388C12.5881 18.43 12.6423 18.4545 12.715 18.4633L12.7937 18.4659L16.8362 18.4738C17.02 18.4922 17.1477 18.4843 17.2195 18.451C17.2737 18.4265 17.2965 18.3863 17.2877 18.3329L17.2685 18.2743L17.1993 17.8998C17.1678 17.646 17.1538 17.3625 17.1582 17.0493C17.1626 16.736 17.1836 16.393 17.223 16.0212C17.2658 15.6983 17.3271 15.3824 17.4058 15.0744C17.4846 14.7664 17.5808 14.4663 17.6946 14.1732C17.811 13.8529 17.9413 13.537 18.0857 13.2264C18.2301 12.9158 18.3885 12.6104 18.56 12.3094C18.658 12.1082 18.7988 11.8719 18.9826 11.6015C19.1663 11.3312 19.393 11.0267 19.6625 10.688C19.7246 10.6242 19.7561 10.5673 19.7561 10.5183C19.7561 10.485 19.7421 10.4553 19.715 10.4282L19.6633 10.3905L19.4192 10.2777L18.917 9.96704C18.8478 9.91979 18.7883 9.90229 18.7367 9.91279C18.6851 9.92329 18.6422 9.96267 18.6081 10.0309C18.5468 10.1123 18.4663 10.1797 18.3657 10.2313C18.2651 10.2829 18.1452 10.3197 18.0052 10.3415C17.8162 10.373 17.6272 10.3888 17.4382 10.3905C17.2492 10.3923 17.0593 10.3783 16.8695 10.3494C16.0006 10.1805 15.186 10.0265 14.4273 9.88742C13.7632 9.76579 13.079 9.82704 12.3746 10.0694H12.3702Z" fill="url(#paint0_radial_12_24078)"/>
</g>
<defs>
<radialGradient id="paint0_radial_12_24078" cx="0" cy="0" r="1" gradientUnits="userSpaceOnUse" gradientTransform="translate(6.71115 7.52273) rotate(45.56) scale(16.8925 17.5338)">
<stop stop-color="currentColor"/>
<stop offset="1" stop-color="currentColor"/>
</radialGradient>
<clipPath id="clip0_12_24078">
<rect width="28" height="28" fill="white" transform="translate(0.5)"/>
</clipPath>
</defs>
</svg>
