<svg viewBox="0 0 29 28" fill="none" xmlns="http://www.w3.org/2000/svg">
<g clip-path="url(#clip0_12_24111)">
<path d="M27.0143 8.57753C27.051 8.65365 27.0913 8.74728 27.135 8.85665L27.2768 9.2364L27.4395 9.7159C27.653 10.338 27.4981 11.0608 27.0895 11.6917C25.6318 13.943 23.516 16.5462 21.2384 19.004C18.4288 22.035 15.6401 24.359 12.9381 25.9542C12.1244 26.4345 11.0534 26.4258 10.2326 25.9769L10.0331 25.8553L9.09426 25.2078L8.31726 24.66C7.99701 24.4325 7.91739 23.9837 8.14051 23.6564C8.33826 23.3659 8.70751 23.2697 9.01201 23.4114L9.12226 23.4753L10.1101 24.17L10.811 24.6513C11.2083 24.9182 11.8208 24.9479 12.232 24.7047C16.6394 22.1024 21.6549 17.1377 25.9993 10.905C26.0623 10.8149 26.106 10.6049 26.1095 10.4395L26.1043 10.3267L26.078 10.2112L25.8505 9.59603C25.7543 9.19703 25.7954 8.91965 26.0929 8.60465C26.4569 8.21878 26.8305 8.19165 27.0151 8.57578L27.0143 8.57753ZM8.27351 18.598L8.50801 18.7477L8.71714 18.8982C9.03039 19.1353 9.09514 19.5877 8.86239 19.907C8.62964 20.2264 8.18776 20.2929 7.87539 20.0558C6.74751 19.2 5.61089 19.3225 4.27214 20.4644C4.09976 20.6114 3.87226 20.6639 3.65614 20.6114L3.52839 20.5677L3.41726 20.5038L1.61564 19.2263C1.29539 18.9988 1.21576 18.5499 1.43889 18.2227C1.60951 17.9715 1.91314 17.8622 2.19226 17.9357L2.31564 17.9812L2.42064 18.0424L3.75851 19.0478L3.82151 18.9997C5.34226 17.8963 6.86389 17.7563 8.27439 18.5989L8.27351 18.598ZM16.9876 0.642152L18.483 1.6344C18.4191 1.70703 18.3596 1.78578 18.3045 1.8689C17.4321 3.17703 17.5266 4.93403 19.1471 6.11178C20.7676 7.28953 22.7583 7.05678 23.74 5.86853C23.8739 5.70665 23.9763 5.5264 24.0498 5.33303L25.6274 6.38128C26.099 6.69715 26.225 7.33503 25.9083 7.80665C25.9013 7.81715 25.8934 7.82765 25.8864 7.83815C23.3673 11.2839 20.8709 14.2554 18.3955 16.7509C15.9936 19.1738 13.6688 21.076 11.4226 22.4594C10.9659 22.742 10.3814 22.7105 9.95701 22.3807L8.48964 21.23C8.61651 21.1469 8.72764 21.0559 8.81951 20.9579C9.64289 20.0847 9.81351 18.1317 8.14226 16.8305C6.47101 15.5294 4.61864 15.7858 3.43301 16.6494C3.29476 16.75 3.18101 16.8682 3.09089 17.0012L1.63401 15.861C1.29889 15.5985 1.24114 15.1138 1.50451 14.7787C1.55351 14.7157 1.61301 14.6614 1.67951 14.6168C4.55564 12.683 7.12026 10.59 9.37339 8.3369C11.6265 6.08378 13.6933 3.6084 15.5745 0.909902C15.8939 0.450527 16.5221 0.331527 16.9876 0.642152ZM10.0935 14.5862C9.64726 14.7227 9.40051 15.21 9.54226 15.6738C9.68401 16.1375 10.1609 16.4035 10.608 16.267C11.0543 16.1305 11.301 15.6432 11.1593 15.1794C11.0175 14.7157 10.5406 14.4497 10.0935 14.5862ZM15.3199 8.6414L15.235 8.68603L13.6583 9.76753L11.8269 9.07715C11.735 9.04215 11.6335 9.04128 11.5408 9.07453C11.3553 9.14103 11.2459 9.32478 11.2669 9.5129L11.2888 9.60653L11.9258 11.395L10.7795 12.8633C10.7253 12.9324 10.6946 13.0164 10.692 13.1048C10.685 13.3017 10.8163 13.4714 10.9983 13.5213L11.0936 13.5353L13.086 13.607L14.2515 15.2363C14.304 15.3107 14.3801 15.3649 14.4668 15.392C14.6549 15.4507 14.8535 15.3684 14.9489 15.2057L14.9874 15.1182L15.536 13.348L17.3508 12.8843C17.4444 12.8607 17.5266 12.8047 17.5835 12.7268C17.6999 12.5675 17.6868 12.354 17.5634 12.2105L17.4925 12.1458L15.8904 10.9759L15.8886 9.03165C15.8886 8.94765 15.8633 8.86628 15.816 8.79715C15.7049 8.6344 15.4984 8.57578 15.3225 8.64403L15.3199 8.6414ZM17.4444 7.24053C16.9981 7.37703 16.7514 7.8644 16.8931 8.32815C17.0349 8.7919 17.5118 9.0579 17.9589 8.9214C18.4051 8.7849 18.6519 8.29753 18.5101 7.83378C18.3684 7.37003 17.8915 7.10403 17.4444 7.24053Z" fill="url(#paint0_radial_12_24111)"/>
</g>
<defs>
<radialGradient id="paint0_radial_12_24111" cx="0" cy="0" r="1" gradientUnits="userSpaceOnUse" gradientTransform="translate(6.46848 4.97029) rotate(52.3903) scale(19.7947 19.8702)">
<stop stop-color="#FFCC24"/>
<stop offset="1" stop-color="#FFA900"/>
</radialGradient>
<clipPath id="clip0_12_24111">
<rect width="28" height="28" fill="white" transform="translate(0.5)"/>
</clipPath>
</defs>
</svg>
