<svg viewBox="0 0 20 20" fill="none" xmlns="http://www.w3.org/2000/svg">
<g clip-path="url(#clip0_1_23852)">
<path d="M8.71165 8.30575C8.92544 8.0242 9.16679 7.76199 9.39368 7.49084C9.46645 7.40389 9.63111 7.27141 9.61973 7.14607C9.60697 7.00553 9.40707 6.84208 9.32019 6.73861C9.0295 6.39237 8.7346 6.04961 8.44277 5.7043L6.71841 3.66703C6.48092 3.38599 6.22898 2.95354 5.9185 2.75361C5.55152 2.51729 4.84424 2.5114 4.41642 2.42584L2.69206 2.08107C2.52698 2.04806 2.22259 1.9318 2.07499 2.05611C1.94434 2.16615 2.01828 2.39887 2.0462 2.53869L2.29701 3.7924L2.59174 5.2655C2.63165 5.46503 2.63866 5.74765 2.75029 5.92088C2.95027 6.23127 3.38285 6.48314 3.66397 6.72056L5.70185 8.44441L6.92458 9.47872C7.0283 9.56636 7.2429 9.83114 7.39439 9.79575C7.55915 9.75723 7.72425 9.46274 7.82972 9.34006C7.94685 9.20378 8.30708 8.90173 8.29884 8.71321C8.29159 8.54819 8.00513 8.35167 7.8965 8.24306C7.56557 7.91224 6.9729 7.50783 6.7739 7.08338C6.68712 6.89824 6.89655 6.69382 7.08134 6.77682C7.38355 6.91257 7.66386 7.32096 7.8965 7.55352C8.13891 7.79587 8.39904 8.16001 8.71165 8.30575Z" fill="currentColor"/>
<path d="M6.61115 11.534C6.72417 11.6944 7.12504 12.2484 7.33224 12.2484C7.46082 12.2484 7.59507 12.0548 7.67711 11.9728L8.46091 11.1892L11.6902 7.96094L12.5994 7.052C12.7117 6.9397 12.8552 6.7418 13.0382 6.78047C13.2932 6.83438 13.2264 7.10077 13.0992 7.24005C12.7419 7.63127 12.3471 7.99378 11.9723 8.36839L8.89984 11.44L8.08469 12.2549C7.98625 12.3533 7.78569 12.4906 7.75067 12.631C7.70894 12.7983 8.22408 13.2598 8.36686 13.3283C8.56877 13.4254 9.03369 12.8937 9.18201 12.7692C9.95813 12.118 10.7249 11.4554 11.5021 10.8054C12.8461 9.68128 14.1765 8.54071 15.5151 7.41006L16.7379 6.37575C16.9038 6.23561 17.1588 6.08705 17.261 5.89109C17.3969 5.63054 17.4077 5.23948 17.4652 4.95203L17.8603 2.97744C17.9018 2.76969 18.1133 2.21949 17.9193 2.05607C17.815 1.96827 17.641 2.01389 17.5217 2.03718C17.1869 2.10248 16.8528 2.17087 16.5184 2.23774L14.8254 2.57625C14.6002 2.62126 14.2708 2.62795 14.0758 2.75357C13.6471 3.02956 13.2848 3.65288 12.9571 4.04309C12.1122 5.04945 11.2654 6.05552 10.4088 7.052C9.13464 8.53426 7.93555 10.0965 6.61115 11.534Z" fill="currentColor"/>
<path d="M12.5364 10.5623L11.6898 11.2831L12.3796 12.0354L12.6618 12.2483L13.0693 11.91L13.3455 11.5652L13.1659 11.2831L12.5364 10.5623Z" fill="currentColor"/>
<path d="M4.98071 11.1406C4.6097 11.1984 4.38609 11.4687 4.13423 11.7223C4.03617 11.821 3.88539 11.9413 3.93862 12.0984C4.04648 12.4167 4.52664 12.7415 4.76125 12.976L6.79913 15.0133L7.61428 15.8281C7.70956 15.9229 7.83757 16.0868 7.99051 16.0655C8.14034 16.0447 8.26688 15.8653 8.36673 15.7655C8.71769 15.4146 9.01917 15.022 8.76995 14.5118C8.59933 14.1624 8.19982 13.8748 7.92781 13.6028L6.10939 11.785C5.79743 11.4731 5.47583 11.0634 4.98071 11.1406Z" fill="currentColor"/>
<path d="M14.7941 11.1404C14.3359 11.2117 14.0374 11.6322 13.7281 11.9415L12.0664 13.6026C11.7991 13.8698 11.4223 14.1459 11.2403 14.4802C10.9608 14.9937 11.2702 15.408 11.6275 15.7653C11.7305 15.8683 11.8722 16.0712 12.0351 16.0669C12.1758 16.0632 12.2891 15.9183 12.38 15.8279L13.0383 15.1698L15.2016 13.0071C15.444 12.7648 15.9443 12.4266 16.0556 12.0982C16.1166 11.918 15.9072 11.7693 15.7973 11.6594C15.5178 11.3798 15.2288 11.0726 14.7941 11.1404Z" fill="currentColor"/>
<path d="M10.4043 12.3801L11.2194 13.1138L11.5643 13.3457L11.9405 13.0383L12.2476 12.6622L11.8778 12.2234L11.3135 11.7009L11.0313 11.8473L10.4043 12.3801Z" fill="currentColor"/>
<path d="M5.07482 14.0103L3.63263 15.4834C4.01553 15.6485 4.34528 15.9782 4.51049 16.361L5.98403 14.9192V14.8879L5.07482 14.0103Z" fill="currentColor"/>
<path d="M14.888 14.0103L14.0102 14.8879V14.9192L15.4837 16.361C15.6489 15.9782 15.9787 15.6485 16.3616 15.4834C16.0061 14.9789 15.3926 14.3656 14.888 14.0103Z" fill="currentColor"/>
<path d="M3.03682 15.8815C1.66261 15.9042 1.69443 18.0223 3.06817 17.9996C4.44042 17.9769 4.40881 15.8588 3.03682 15.8815Z" fill="currentColor"/>
<path d="M16.926 15.8779C15.5372 15.9326 15.5999 18.0647 16.9887 17.9985C18.3394 17.934 18.2775 15.8248 16.926 15.8779Z" fill="currentColor"/>
</g>
<defs>
<clipPath id="clip0_1_23852">
<rect width="20" height="20" fill="currentColor"/>
</clipPath>
</defs>
</svg>
