<svg viewBox="0 0 20 20" fill="none" xmlns="http://www.w3.org/2000/svg">
<g clip-path="url(#clip0_1_23833)">
<path d="M19.375 11.8114C19.375 11.897 19.375 11.9826 19.3331 12.0251H19.3544V13.0714C19.3544 15.6982 15.145 17.8126 9.9575 17.8126C5.11 17.8126 1.11312 15.9545 0.624374 13.5626C1.9425 15.2282 5.38625 16.4245 9.44688 16.4245C13.0825 16.4245 16.2288 15.4845 17.8019 14.0751C16.1438 15.207 13.2944 15.9332 10.0425 15.9332C5.79 15.9332 2.1975 14.6732 1.09187 12.9432C1.07062 12.9432 1.07062 12.922 1.07062 12.922C0.899999 12.6651 0.794374 12.4095 0.751249 12.132C0.751249 12.0251 0.729999 11.9182 0.729999 11.8114C0.729999 9.69698 4.30125 7.96698 8.89375 7.71073L8.83 8.18073C6.045 8.33011 3.7275 9.07761 2.665 10.1026C2.26125 10.5082 2.0275 10.9357 2.0275 11.3839C2.0275 11.5976 2.09125 11.832 2.1975 12.0457C2.3675 12.3664 2.64375 12.6651 3.02625 12.9426C4.36562 13.9251 6.93813 14.587 9.89313 14.587C12.8481 14.587 15.4206 13.9251 16.76 12.9426C17.1425 12.6651 17.4188 12.3664 17.5888 12.0457C17.695 11.832 17.7588 11.6189 17.7588 11.3839C17.7588 10.8076 17.3975 10.2945 16.7806 9.82511C15.6113 8.94948 13.4644 8.33011 10.9556 8.18073L10.8919 7.75323V7.68948C15.6538 7.88136 19.375 9.65448 19.375 11.8114ZM16.3081 10.9676C16.6925 10.9676 16.9913 11.2657 16.9913 11.6495C16.9913 11.8414 16.9275 11.9901 16.7988 12.1182C16.67 12.2464 16.5 12.3314 16.3075 12.3314C16.115 12.3314 15.9444 12.2464 15.8163 12.1182C15.6881 11.9901 15.6237 11.8414 15.6237 11.6495C15.6237 11.2657 15.9444 10.9676 16.3069 10.9676H16.3081ZM11.0556 8.81448C13.3406 9.02761 15.0487 9.88011 15.0487 10.882C15.0487 11.3295 14.7069 11.7564 14.1094 12.097C13.1694 12.6301 11.6319 12.992 9.9025 12.992C8.17313 12.992 6.635 12.6301 5.69563 12.097C5.09813 11.7564 4.75625 11.3295 4.75625 10.882C4.75625 9.88011 6.46438 9.02761 8.74938 8.81448L8.42875 11.0526C8.42875 11.5001 9.64563 11.7345 9.90188 11.7345C10.1581 11.7345 11.375 11.5001 11.375 11.0307L11.0544 8.81448H11.0556ZM6.81563 6.83448C6.38875 6.83448 6.02625 6.46761 6.0275 6.05573C6.0275 5.62323 6.39 5.25636 6.81687 5.25636C7.03 5.25636 7.20063 5.34261 7.35 5.47261H9.44L9.48313 5.17011C9.44 5.14823 9.41938 5.14823 9.37625 5.12698C9.33313 5.12698 9.3125 5.10511 9.26938 5.08323C8.8 4.82386 8.45875 4.30573 8.45875 3.72198C8.45875 2.87948 9.14125 2.18823 9.9725 2.18823C10.8038 2.18823 11.4869 2.87948 11.4869 3.72198C11.4869 4.32698 11.1669 4.82386 10.6763 5.08323C10.6331 5.10511 10.6125 5.10511 10.5694 5.12698C10.5263 5.14886 10.505 5.14886 10.4625 5.17011L10.505 5.47261H12.8081C12.9575 5.34261 13.1281 5.25636 13.3419 5.25636C13.7688 5.25636 14.1313 5.62323 14.1313 6.05573C14.1313 6.48823 13.7688 6.85511 13.3419 6.85511C13.1288 6.85511 12.9575 6.76886 12.8081 6.63886H10.6756L10.7606 7.20073V7.24386L10.8244 7.67636L10.8456 7.87073L10.9094 8.25948L11.2294 10.5501C11.2294 10.7445 10.355 11.0257 9.97063 11.0257C9.58625 11.0257 8.7125 10.7451 8.7125 10.5726L9.0325 8.26073L9.09625 7.87198L9.1175 7.67761L9.18125 7.20198L9.26625 6.61886H7.34688C7.1975 6.74823 7.0275 6.83511 6.81375 6.83511L6.81563 6.83448ZM10.9531 4.09198C10.9531 4.09198 10.9319 3.22823 9.97188 3.18448C9.97188 3.18448 10.3131 3.37886 10.5056 3.57323C10.8681 3.89761 10.9531 4.09198 10.9531 4.09198Z" fill="currentColor"/>
</g>
<defs>
<clipPath id="clip0_1_23833">
<rect width="20" height="20" fill="white"/>
</clipPath>
</defs>
</svg>
