<svg viewBox="0 0 20 20" fill="none" xmlns="http://www.w3.org/2000/svg">
<path d="M17.875 11.3666V12.2C17.875 12.425 17.7 12.6083 17.4667 12.6166H16.25C15.8083 12.6166 15.4083 12.2916 15.375 11.8583C15.35 11.6 15.45 11.3583 15.6167 11.1916C15.7667 11.0333 15.975 10.95 16.2 10.95H17.4583C17.7 10.9583 17.875 11.1416 17.875 11.3666Z" fill="currentColor"/>
<path d="M14.9917 10.575C14.575 10.9834 14.375 11.5917 14.5417 12.225C14.7583 13 15.5167 13.4917 16.3167 13.4917H17.0417C17.5 13.4917 17.875 13.8667 17.875 14.325V14.4834C17.875 16.2084 16.4667 17.6167 14.7417 17.6167H5.17499C3.44999 17.6167 2.04166 16.2084 2.04166 14.4834V8.87503C2.04166 7.85003 2.53332 6.9417 3.29166 6.37503C3.81666 5.97503 4.46666 5.7417 5.17499 5.7417H14.7417C16.4667 5.7417 17.875 7.15003 17.875 8.87503V9.2417C17.875 9.70003 17.5 10.075 17.0417 10.075H16.1917C15.725 10.075 15.3 10.2584 14.9917 10.575Z" fill="currentColor"/>
<path d="M13.5 4.01663C13.725 4.24163 13.5333 4.59163 13.2167 4.59163L6.81668 4.58329C6.45001 4.58329 6.25834 4.13329 6.52501 3.87496L7.87501 2.51663C9.01667 1.38329 10.8667 1.38329 12.0083 2.51663L13.4667 3.99163C13.475 3.99996 13.4917 4.00829 13.5 4.01663Z" fill="currentColor"/>
</svg>
