<svg viewBox="0 0 28 28" fill="none" xmlns="http://www.w3.org/2000/svg">
<path d="M19.8333 4.08325H8.16666C4.66666 4.08325 2.33333 5.83325 2.33333 9.91659V18.0833C2.33333 22.1666 4.66666 23.9166 8.16666 23.9166H19.8333C23.3333 23.9166 25.6667 22.1666 25.6667 18.0833V9.91659C25.6667 5.83325 23.3333 4.08325 19.8333 4.08325ZM20.3817 11.1883L16.73 14.1049C15.96 14.7233 14.98 15.0266 14 15.0266C13.02 15.0266 12.0283 14.7233 11.27 14.1049L7.61833 11.1883C7.245 10.8849 7.18666 10.3249 7.47833 9.95159C7.78166 9.57825 8.33 9.50825 8.70333 9.81159L12.355 12.7283C13.2417 13.4399 14.7467 13.4399 15.6333 12.7283L19.285 9.81159C19.6583 9.50825 20.2183 9.56659 20.51 9.95159C20.8133 10.3249 20.755 10.8849 20.3817 11.1883Z" fill="currentColor"/>
</svg>
