<svg viewBox="0 0 28 28" fill="none" xmlns="http://www.w3.org/2000/svg">
<path d="M24.3833 11.4917L25.0717 23.03C25.095 23.345 24.9433 23.555 24.8617 23.6483C24.7683 23.7533 24.57 23.9167 24.2433 23.9167H21.0583L23.5783 11.4917H24.3833ZM25.6667 7L25.655 7.02333C25.6783 7.30333 25.655 7.595 25.585 7.88667L16.9867 23.6717C16.7067 24.85 15.6567 25.6667 14.4433 25.6667H24.2433C25.7483 25.6667 26.9383 24.395 26.8217 22.89L25.6667 7Z" fill="currentColor"/>
<path d="M13.3583 2.61322C13.475 2.14655 13.1833 1.66822 12.7167 1.55155C12.25 1.44655 11.7717 1.72655 11.655 2.19322L11.0717 4.60822H12.8683L13.3583 2.61322Z" fill="currentColor"/>
<path d="M21.0583 2.5784C21.1633 2.10006 20.86 1.64506 20.3817 1.54006C19.915 1.43506 19.4483 1.7384 19.3433 2.21673L18.8183 4.63173H20.615L21.0583 2.5784Z" fill="currentColor"/>
<path d="M25.4567 6.21835C25.0717 5.28501 24.1617 4.62001 23.0417 4.62001H20.615L19.9617 7.64168C19.8683 8.05001 19.5067 8.33001 19.11 8.33001C19.0517 8.33001 18.9817 8.33001 18.9233 8.30668C18.4567 8.20168 18.1533 7.73501 18.2467 7.26835L18.8183 4.60835H12.8683L12.1333 7.64168C12.04 8.03835 11.6783 8.30668 11.2817 8.30668C11.2117 8.30668 11.1417 8.29501 11.0717 8.28335C10.605 8.16668 10.3133 7.70001 10.43 7.22168L11.06 4.59668H8.69167C7.54834 4.59668 6.53334 5.34335 6.19501 6.44001L1.28334 22.2483C0.770009 23.94 2.01834 25.6667 3.78001 25.6667H19.11C20.3233 25.6667 21.3733 24.85 21.6533 23.6717L25.585 7.88668C25.655 7.59501 25.6783 7.30335 25.655 7.02335C25.6317 6.74335 25.5733 6.46335 25.4567 6.21835ZM17.15 19.5417H7.81667C7.33834 19.5417 6.94167 19.145 6.94167 18.6667C6.94167 18.1883 7.33834 17.7917 7.81667 17.7917H17.15C17.6283 17.7917 18.025 18.1883 18.025 18.6667C18.025 19.145 17.6283 19.5417 17.15 19.5417ZM18.3167 14.875H8.98334C8.50501 14.875 8.10834 14.4783 8.10834 14C8.10834 13.5217 8.50501 13.125 8.98334 13.125H18.3167C18.795 13.125 19.1917 13.5217 19.1917 14C19.1917 14.4783 18.795 14.875 18.3167 14.875Z" fill="currentColor"/>
</svg>
