<svg viewBox="0 0 28 28" fill="none" xmlns="http://www.w3.org/2000/svg">
<path d="M18.41 2.33325H9.59004C5.18004 2.33325 4.08337 3.51158 4.08337 8.21325V21.3499C4.08337 24.4533 5.78671 25.1883 7.85171 22.9716L7.86337 22.9599C8.82004 21.9449 10.2784 22.0266 11.1067 23.1349L12.285 24.7099C13.23 25.9583 14.7584 25.9583 15.7034 24.7099L16.8817 23.1349C17.7217 22.0149 19.18 21.9333 20.1367 22.9599C22.2134 25.1766 23.905 24.4416 23.905 21.3383V8.21325C23.9167 3.51158 22.82 2.33325 18.41 2.33325ZM17.5 13.7083H10.5C10.0217 13.7083 9.62504 13.3116 9.62504 12.8333C9.62504 12.3549 10.0217 11.9583 10.5 11.9583H17.5C17.9784 11.9583 18.375 12.3549 18.375 12.8333C18.375 13.3116 17.9784 13.7083 17.5 13.7083ZM18.6667 9.04158H9.33337C8.85504 9.04158 8.45837 8.64492 8.45837 8.16658C8.45837 7.68825 8.85504 7.29158 9.33337 7.29158H18.6667C19.145 7.29158 19.5417 7.68825 19.5417 8.16658C19.5417 8.64492 19.145 9.04158 18.6667 9.04158Z" fill="currentColor"/>
</svg>
