<svg width="28" height="29" viewBox="0 0 28 29" fill="none" xmlns="http://www.w3.org/2000/svg">
<g clip-path="url(#clip0_7692_101689)">
<path d="M16.5648 14.2315C15.5419 16.1617 14.9382 18.4507 14.9312 20.8797V22.3401H9.42481C9.43706 19.9312 9.97344 17.6501 10.9246 15.6017L10.8826 15.7015C11.9579 13.3451 13.2739 11.316 14.8411 9.50998L14.8148 9.54148H6.64844V5.27148H20.9984V7.53511C19.3797 9.49161 17.9088 11.6861 16.6672 14.0206L16.5648 14.2315Z" fill="#FFC700"/>
<path d="M24.2664 18.9683C23.4229 20.0296 22.8095 21.3124 22.526 22.7141L22.5164 22.771L22.3414 23.646L17.5 22.7596C18.0267 20.1215 19.425 17.8736 21.3771 16.2768L21.3973 16.261L17.8973 15.5724L19.3673 12.4688L28.0009 14.1724L27.7323 15.526C26.4548 16.5725 25.3199 17.7004 24.3005 18.9271L24.2664 18.9683Z" fill="#FFC700"/>
<path d="M7.19862 17.4985C7.03762 18.1276 6.94487 18.8495 6.94487 19.5924C6.94487 20.3352 7.03762 21.058 7.21175 21.7475L7.19862 21.6871L7.40862 22.5621L2.66 23.7285C2.45787 22.9375 2.3415 22.0292 2.3415 21.0939C2.3415 19.2992 2.76937 17.6035 3.52887 16.1055L3.5 16.1685L0 16.9971V13.5907L8.56362 11.5371L8.89 12.8785C8.22412 14.1954 7.64575 15.7327 7.23362 17.3375L7.19862 17.4985Z" fill="#FFC700"/>
</g>
<defs>
<clipPath id="clip0_7692_101689">
<rect width="28" height="28" fill="white" transform="translate(0 0.5)"/>
</clipPath>
</defs>
</svg>
