<svg viewBox="0 0 20 20" fill="none" xmlns="http://www.w3.org/2000/svg">
<path d="M14.0296 17.9999H5.97211C5.64175 17.9999 5.3678 17.7248 5.3678 17.393C5.3678 17.0613 5.64175 16.7861 5.97211 16.7861H14.0296C14.36 16.7861 14.634 17.0613 14.634 17.393C14.634 17.7248 14.36 17.9999 14.0296 17.9999Z" fill="currentColor"/>
<path d="M16.7307 4.66431L13.5077 6.97864C13.0806 7.28614 12.4683 7.10002 12.2829 6.60641L10.7601 2.52801C10.5022 1.824 9.51115 1.824 9.2533 2.52801L7.72235 6.59831C7.53703 7.10002 6.93271 7.28614 6.50566 6.97055L3.28265 4.65622C2.63804 4.20306 1.78395 4.84234 2.04984 5.5949L5.40178 15.0221C5.51458 15.3458 5.82077 15.5562 6.15919 15.5562H13.838C14.1765 15.5562 14.4826 15.3377 14.5955 15.0221L17.9474 5.5949C18.2213 4.84234 17.3672 4.20306 16.7307 4.66431ZM12.017 12.1333H7.98827C7.65789 12.1333 7.38393 11.8581 7.38393 11.5263C7.38393 11.1946 7.65789 10.9194 7.98827 10.9194H12.017C12.3474 10.9194 12.6214 11.1946 12.6214 11.5263C12.6214 11.8581 12.3474 12.1333 12.017 12.1333Z" fill="currentColor"/>
</svg>
