<svg viewBox="0 0 28 28" fill="none" xmlns="http://www.w3.org/2000/svg">
<path d="M14 9.04175C11.795 9.04175 11.375 9.96341 11.375 11.6667V12.3901H16.625V11.6667C16.625 9.96341 16.205 9.04175 14 9.04175Z" fill="currentColor"/>
<path d="M14 17.6167C14.7088 17.6167 15.2833 17.0421 15.2833 16.3334C15.2833 15.6246 14.7088 15.05 14 15.05C13.2912 15.05 12.7167 15.6246 12.7167 16.3334C12.7167 17.0421 13.2912 17.6167 14 17.6167Z" fill="currentColor"/>
<path d="M14 2.33325C7.56001 2.33325 2.33334 7.55992 2.33334 13.9999C2.33334 20.4399 7.56001 25.6666 14 25.6666C20.44 25.6666 25.6667 20.4399 25.6667 13.9999C25.6667 7.55992 20.44 2.33325 14 2.33325ZM20.2767 16.9166C20.2767 19.4833 19.4833 20.2766 16.9167 20.2766H11.0833C8.51668 20.2766 7.72334 19.4833 7.72334 16.9166V15.7499C7.72334 13.7549 8.20168 12.8333 9.62501 12.5183V11.6666C9.62501 10.5816 9.62501 7.29158 14 7.29158C18.375 7.29158 18.375 10.5816 18.375 11.6666V12.5183C19.7983 12.8333 20.2767 13.7549 20.2767 15.7499V16.9166Z" fill="currentColor"/>
</svg>
