<svg viewBox="0 0 25 20" fill="none" xmlns="http://www.w3.org/2000/svg">
<g clip-path="url(#clip0_1_23868)">
<path d="M6.87194 14.6886C6.64207 14.5536 6.47377 14.3305 6.40426 14.0686C6.33475 13.8068 6.3695 13.5274 6.50121 13.2918L11.986 3.47427L11.6061 2.42677C11.514 2.1724 11.3268 1.96552 11.086 1.8524C10.8451 1.73927 10.5701 1.72865 10.3219 1.82365L2.23353 4.90115C1.98536 4.99552 1.78353 5.1874 1.67316 5.43365C1.5628 5.6799 1.55243 5.96177 1.6445 6.21615L5.88902 17.9368C5.98109 18.1911 6.16828 18.398 6.40853 18.5111C6.64877 18.6243 6.92377 18.6349 7.17194 18.5405L10.9707 17.0949L6.87011 14.688L6.87194 14.6886Z" fill="currentColor"/>
<path d="M23.0262 6.02506L15.6207 1.48756C15.3933 1.34819 15.1213 1.30694 14.8646 1.37319C14.6079 1.43944 14.3872 1.60756 14.2512 1.84069L7.9933 12.5713C7.85732 12.8044 7.81708 13.0832 7.88171 13.3463C7.94634 13.6094 8.11037 13.8357 8.33781 13.9751L15.7433 18.5126C15.9707 18.6519 16.2427 18.6932 16.4994 18.6269C16.7561 18.5607 16.9768 18.3926 17.1128 18.1594L23.3713 7.42881C23.5073 7.19569 23.5476 6.91694 23.4829 6.65381C23.4183 6.39069 23.2537 6.16444 23.0262 6.02506ZM17.6463 12.3519C16.7037 13.1051 15.4683 12.3819 15.3128 11.3388C15.3128 11.3388 14.3421 13.1701 15.1854 13.9963L12.5683 12.3582C13.6701 12.7494 14.8171 11.0288 14.8171 11.0288C13.8415 11.3632 12.6512 10.5669 12.8732 9.36319C13.0921 8.18131 13.8665 8.01194 14.9683 7.95506C15.7104 7.91694 17.4415 7.19756 17.4415 7.19756C17.4415 7.19756 17.6079 9.10444 17.9128 9.79881C18.3665 10.8294 18.5726 11.6132 17.6463 12.3519Z" fill="currentColor"/>
</g>
<defs>
<clipPath id="clip0_1_23868">
<rect width="25" height="20" fill="white"/>
</clipPath>
</defs>
</svg>
