<svg viewBox="0 0 20 20" fill="none" xmlns="http://www.w3.org/2000/svg">
<g clip-path="url(#clip0_6764_97064)">
<mask id="mask0_6764_97064" style="mask-type:luminance" maskUnits="userSpaceOnUse" x="0" y="0" width="20" height="20">
<path d="M20 0H0V20H20V0Z" fill="currentColor"/>
</mask>
<g mask="url(#mask0_6764_97064)">
<path fill-rule="evenodd" clip-rule="evenodd" d="M13.9356 6.13618C14.9167 7.44147 16.089 9.00124 16.25 11.4167C16.25 11.4167 16.3333 11.9167 16.3333 12.0833C16.3333 15.5 13.4167 18.3333 9.83332 18.3333C6.25001 18.3333 3.33334 15.5 3.33334 12.0833V11.75C3.41667 8.16665 5.25001 7.24996 5.33334 7.24996C5.41668 7.16665 5.58334 7.16665 5.66667 7.24996C5.75001 7.33328 5.83334 7.41665 5.83334 7.49996C5.83334 7.58328 6.16667 9.66665 7.66669 9.99996C7.66669 9.08328 7.66669 7.66665 8.00001 6.49996C8.50001 4.66663 9.83332 2.83329 11.4167 1.74996C11.5 1.66663 11.6667 1.66663 11.8333 1.66663C11.9167 1.74996 12 1.83329 12 1.99996C12 3.66663 12.8333 4.74996 13.8333 5.99996L13.9356 6.13618ZM7.08332 14.9166C7.41669 16.5 8.50001 17.75 10.4167 17.3333C13.0833 16.75 12.9167 13.5833 11.8333 11.8333C10.75 10.0833 10.6667 8.58328 10.6667 8.16665C10.0833 8.99996 9.00001 11 9.25001 12.3333C9.50001 13.4166 8.58332 13.6667 7.83332 12.0833C7.50001 12.25 6.83332 13.5833 7.08332 14.9166Z" fill="currentColor"/>
</g>
</g>
<defs>
<clipPath id="clip0_6764_97064">
<rect width="20" height="20" fill="currentColor"/>
</clipPath>
</defs>
</svg>
