<svg viewBox="0 0 20 20" fill="none" xmlns="http://www.w3.org/2000/svg">
<g clip-path="url(#clip0_1_23827)">
<path d="M13.92 2.90063C14.7562 2.90063 15.5031 3.92814 15.9912 5.53564L15.9975 5.53501L16.075 5.83251C16.6925 8.35563 16.65 11.9069 15.81 15.0031C15.3275 16.2981 14.6581 17.0994 13.9194 17.0994L13.8744 17.0963L13.875 17.0994L6.04812 17.0944C5.3575 17.025 4.73437 16.255 4.27562 15.0431L4.26875 15.0425C3.60187 11.9419 3.56687 8.25813 4.05437 5.71501L4.11937 5.39813H4.1225C4.60187 3.89813 5.31187 2.93626 6.10625 2.90188V2.90063H13.92ZM3.78 5.39813C3.31062 6.97688 3.09437 8.61251 3.1325 10.305C3.1675 11.8769 3.4075 13.3788 3.8525 14.8106L3.92687 15.0413H3.48125C2.81687 15.0413 2.30875 14.0438 2.0375 12.6206C1.33312 12.2594 0.830624 11.3144 0.830624 10.2056C0.830624 9.11189 1.31937 8.17814 2.00812 7.80564C2.27125 6.36564 2.7925 5.39813 3.48187 5.39813H3.78ZM16.5962 5.53626C17.2419 5.61751 17.7994 6.50688 18.1012 7.87251C18.7325 8.28001 19.1694 9.17189 19.1694 10.2056C19.1694 11.2231 18.7462 12.1031 18.1325 12.52C17.8544 13.8888 17.325 14.8125 16.7019 14.9756L16.5969 14.9956L16.5956 15.0025L16.1231 15.0031L16.2331 14.7225C16.7212 13.4044 16.9969 11.97 17.0594 10.4188C17.1275 8.72251 16.8787 7.09563 16.3125 5.53689H16.5956L16.5962 5.53626ZM8.47875 7.19251L8.2625 7.27501L7.94375 7.41876C7.85562 7.43626 7.80312 7.38563 7.785 7.26688C7.76687 7.14813 7.6875 7.08626 7.54687 7.08126C7.28187 7.08126 7.06312 7.09376 6.89062 7.11876C6.7425 7.14001 6.66625 7.21188 6.66062 7.33438L6.66375 7.40001L6.5925 9.50814C6.58375 9.59314 6.5925 9.65626 6.61937 9.69814C6.6375 9.72626 6.66312 9.74438 6.69687 9.75376L6.75375 9.76001L7.57625 9.74313C7.62375 9.75813 7.665 9.75063 7.70125 9.72126C7.725 9.70188 7.74625 9.67188 7.76562 9.63313L7.79187 9.56688L7.90062 9.38001C8.00062 9.20564 8.13312 9.08439 8.29812 9.01564C8.43562 8.95876 8.62187 8.94938 8.8575 8.98688L9.005 9.01564L10.1975 9.35688C10.5019 9.40501 10.8037 9.40501 11.1031 9.35688C11.4025 9.30876 11.6806 9.20939 11.9387 9.06001C11.8487 9.16751 11.7175 9.28938 11.545 9.42501C11.3725 9.56063 11.1575 9.71001 10.9012 9.87376C10.74 9.95376 10.5719 10.0469 10.3969 10.1531C10.2219 10.2594 10.0406 10.3788 9.8525 10.5106C9.65437 10.6619 9.4825 10.8156 9.33687 10.9725C9.19125 11.1294 9.0725 11.2881 8.98 11.4494C8.85937 11.6394 8.76437 11.86 8.69625 12.11C8.62812 12.36 8.58625 12.6406 8.57125 12.9513C8.56062 13.0331 8.57312 13.0944 8.60812 13.1344C8.63437 13.1644 8.67312 13.1819 8.725 13.1881L8.78125 13.19L11.6687 13.1956C11.8 13.2088 11.8912 13.2031 11.9425 13.1794C11.9812 13.1619 11.9975 13.1331 11.9912 13.095L11.9775 13.0531L11.9281 12.7856C11.9056 12.6044 11.8956 12.4019 11.8987 12.1781C11.9019 11.9544 11.9169 11.7094 11.945 11.4438C11.9756 11.2131 12.0194 10.9875 12.0756 10.7675C12.1319 10.5475 12.2006 10.3331 12.2819 10.1238C12.365 9.89501 12.4581 9.66938 12.5612 9.44751C12.6644 9.22564 12.7775 9.00751 12.9 8.79251C12.97 8.64876 13.0706 8.48001 13.2019 8.28688C13.3331 8.09376 13.495 7.87626 13.6875 7.63438C13.7319 7.58876 13.7544 7.54813 13.7544 7.51313C13.7544 7.48938 13.7444 7.46814 13.725 7.44876L13.6881 7.42188L13.5137 7.34126L13.155 7.11938C13.1056 7.08563 13.0631 7.07314 13.0262 7.08064C12.9894 7.08814 12.9587 7.11626 12.9344 7.16501C12.8906 7.22313 12.8331 7.27126 12.7612 7.30813C12.6894 7.34501 12.6037 7.37126 12.5037 7.38689C12.3687 7.40939 12.2337 7.42063 12.0987 7.42188C11.9637 7.42313 11.8281 7.41313 11.6925 7.39251C11.0719 7.27188 10.49 7.16189 9.94812 7.06251C9.47375 6.97564 8.985 7.01939 8.48187 7.19251H8.47875Z" fill="currentColor"/>
</g>
<defs>
<clipPath id="clip0_1_23827">
<rect width="20" height="20" fill="currentColor"/>
</clipPath>
</defs>
</svg>
