<svg viewBox="0 0 20 20" fill="none" xmlns="http://www.w3.org/2000/svg">
<g clip-path="url(#clip0_1_23839)">
<g clip-path="url(#clip1_1_23839)">
<g clip-path="url(#clip2_1_23839)">
<path d="M11.1108 2.14C11.1128 2.131 11.1138 2.1205 11.1138 2.11C11.1138 2.0995 11.1128 2.089 11.1103 2.079V2.08C10.7773 2.0295 10.3923 2.0005 10.0008 2H10.0003C7.77931 2.001 5.76981 2.907 4.32081 4.3695L4.32031 4.37C6.88231 5.4705 9.08781 6.871 11.0303 8.5655L11.0003 8.54C12.0003 6.88 12.0003 4.64 11.1103 2.14H11.1108Z" fill="currentColor"/>
<path d="M9.72 10.05C7.8305 8.3855 5.6285 7.0185 3.222 6.054L3.07 6C2.3975 7.1465 2 8.5255 2 9.997C2 9.998 2 9.999 2 10.0005C2.0045 10.358 2.03 10.7045 2.075 11.045L2.07 11.0005C5.13 11.7505 7.91 11.4705 9.72 10.0505V10.05Z" fill="currentColor"/>
<path d="M12.4707 17.6101C13.3617 17.3131 14.1342 16.8986 14.8202 16.3756L14.8007 16.3901C14.4307 15.7201 14.0507 15.0601 13.6207 14.3901C12.9792 15.2921 12.5622 16.3946 12.4722 17.5886L12.4707 17.6101Z" fill="currentColor"/>
<path d="M11.1808 11.4299C9.63784 12.6434 7.66734 13.3764 5.52534 13.3764C5.40434 13.3764 5.28384 13.3739 5.16384 13.3694L5.18134 13.3699C4.27084 13.3614 3.38634 13.2744 2.52734 13.1154L2.62134 13.1299C3.87184 16.0169 6.69584 17.9999 9.98384 17.9999C9.98984 17.9999 9.99634 17.9999 10.0023 17.9999H10.4413C10.4773 16.0114 11.2043 14.1994 12.3918 12.7874L12.3813 12.7999C12.0013 12.3266 11.6013 11.8699 11.1813 11.4299H11.1808Z" fill="currentColor"/>
<path d="M12.5103 9.92999C13.0003 10.44 13.5103 10.93 13.9303 11.51C15.0033 10.8785 16.2938 10.5055 17.6718 10.5055C17.7628 10.5055 17.8533 10.507 17.9433 10.5105L17.9303 10.51C17.9303 10.34 17.9303 10.17 17.9303 9.98999C17.9278 6.80499 16.0643 4.05599 13.3688 2.77099L13.3203 2.75049C13.5868 3.55399 13.7408 4.47899 13.7408 5.43949C13.7408 7.09649 13.2833 8.64649 12.4883 9.96999L12.5103 9.92999V9.92999Z" fill="currentColor"/>
<path d="M16.28 15.0001C16.831 14.3051 17.2765 13.4951 17.5735 12.6166L17.59 12.5601C16.6935 12.5631 15.85 12.7881 15.1115 13.1841L15.14 13.1701C15.54 13.7234 15.92 14.3334 16.28 15.0001V15.0001Z" fill="currentColor"/>
</g>
</g>
</g>
<defs>
<clipPath id="clip0_1_23839">
<rect width="20" height="20" fill="white"/>
</clipPath>
<clipPath id="clip1_1_23839">
<rect width="16" height="16" fill="white" transform="translate(2 2)"/>
</clipPath>
<clipPath id="clip2_1_23839">
<rect width="16" height="16" fill="white" transform="translate(2 2)"/>
</clipPath>
</defs>
</svg>
