<svg viewBox="0 0 20 20" fill="none" xmlns="http://www.w3.org/2000/svg">
<g clip-path="url(#clip0_1_23875)">
<path d="M18.9388 6.12684C18.965 6.18122 18.9938 6.24809 19.025 6.32622L19.1263 6.59747L19.2425 6.93997C19.395 7.38434 19.2844 7.90059 18.9925 8.35122C17.9513 9.95934 16.44 11.8187 14.8132 13.5743C12.8063 15.7393 10.8144 17.3993 8.8844 18.5387C8.30315 18.8818 7.53815 18.8756 6.9519 18.555L6.8094 18.4681L6.13878 18.0056L5.58378 17.6143C5.35503 17.4518 5.29815 17.1312 5.45753 16.8975C5.59878 16.69 5.86253 16.6212 6.08003 16.7225L6.15878 16.7681L6.8644 17.2643L7.36503 17.6081C7.64878 17.7987 8.08628 17.82 8.38003 17.6462C11.5282 15.7875 15.1107 12.2412 18.2138 7.78934C18.2588 7.72497 18.29 7.57497 18.2925 7.45684L18.2888 7.37622L18.27 7.29372L18.1075 6.85434C18.0388 6.56934 18.0682 6.37122 18.2807 6.14622C18.5407 5.87059 18.8075 5.85122 18.9394 6.12559L18.9388 6.12684ZM5.55253 13.2843L5.72003 13.3912L5.8694 13.4987C6.09315 13.6681 6.1394 13.9912 5.97315 14.2193C5.8069 14.4475 5.49128 14.495 5.26815 14.3256C4.46253 13.7143 3.65065 13.8018 2.6944 14.6175C2.57128 14.7225 2.40878 14.76 2.2544 14.7225L2.16315 14.6912L2.08378 14.6456L0.796901 13.7331C0.568151 13.5706 0.511276 13.25 0.670651 13.0162C0.792526 12.8368 1.0094 12.7587 1.20878 12.8112L1.2969 12.8437L1.3719 12.8875L2.32753 13.6056L2.37253 13.5712C3.45878 12.7831 4.54565 12.6831 5.55315 13.285L5.55253 13.2843ZM11.7769 0.458715L12.845 1.16746C12.7994 1.21934 12.7569 1.27559 12.7175 1.33496C12.0944 2.26934 12.1619 3.52434 13.3194 4.36559C14.4769 5.20684 15.8988 5.04059 16.6 4.19184C16.6957 4.07621 16.7688 3.94746 16.8213 3.80934L17.9482 4.55809C18.285 4.78372 18.375 5.23934 18.1488 5.57622C18.1438 5.58372 18.1382 5.59122 18.1332 5.59872C16.3338 8.05997 14.5507 10.1825 12.7825 11.965C11.0669 13.6956 9.40628 15.0543 7.8019 16.0425C7.47565 16.2443 7.05815 16.2218 6.75503 15.9862L5.7069 15.1643C5.79753 15.105 5.8769 15.04 5.94253 14.97C6.53065 14.3462 6.65253 12.9512 5.45878 12.0218C4.26503 11.0925 2.9419 11.2756 2.09503 11.8925C1.99628 11.9643 1.91503 12.0487 1.85065 12.1437L0.810026 11.3293C0.570651 11.1418 0.529401 10.7956 0.717526 10.5562C0.752526 10.5112 0.795026 10.4725 0.842526 10.4406C2.8969 9.05934 4.72878 7.56434 6.33815 5.95497C7.94753 4.34559 9.42378 2.57746 10.7675 0.649965C10.9957 0.32184 11.4444 0.23684 11.7769 0.458715ZM6.85253 10.4187C6.53378 10.5162 6.35753 10.8643 6.45878 11.1956C6.56003 11.5268 6.90065 11.7168 7.22003 11.6193C7.53878 11.5218 7.71503 11.1737 7.61378 10.8425C7.51253 10.5112 7.1719 10.3212 6.85253 10.4187ZM10.5857 6.17247L10.525 6.20434L9.39878 6.97684L8.09065 6.48372C8.02503 6.45872 7.95253 6.45809 7.88628 6.48184C7.75378 6.52934 7.67565 6.66059 7.69065 6.79497L7.70628 6.86184L8.16128 8.13934L7.34253 9.18809C7.30378 9.23747 7.2819 9.29747 7.28003 9.36059C7.27503 9.50122 7.36878 9.62247 7.49878 9.65809L7.5669 9.66809L8.99003 9.71934L9.82253 10.8831C9.86003 10.9362 9.9144 10.975 9.97628 10.9943C10.1107 11.0362 10.2525 10.9775 10.3207 10.8612L10.3482 10.7987L10.74 9.53434L12.0363 9.20309C12.1032 9.18622 12.1619 9.14622 12.2025 9.09059C12.2857 8.97684 12.2763 8.82434 12.1882 8.72184L12.1375 8.67559L10.9932 7.83997L10.9919 6.45122C10.9919 6.39122 10.9738 6.33309 10.94 6.28372C10.8607 6.16747 10.7132 6.12559 10.5875 6.17434L10.5857 6.17247ZM12.1032 5.17184C11.7844 5.26934 11.6082 5.61747 11.7094 5.94872C11.8107 6.27997 12.1513 6.46997 12.4707 6.37247C12.7894 6.27497 12.9657 5.92684 12.8644 5.59559C12.7632 5.26434 12.4225 5.07434 12.1032 5.17184Z" fill="currentColor"/>
</g>
<defs>
<clipPath id="clip0_1_23875">
<rect width="20" height="20" fill="white"/>
</clipPath>
</defs>
</svg>
