<svg viewBox="0 0 28 28" fill="none" xmlns="http://www.w3.org/2000/svg">
<path d="M14 2.33325C7.55998 2.33325 2.33331 7.55992 2.33331 13.9999C2.33331 20.4399 7.55998 25.6666 14 25.6666C20.44 25.6666 25.6666 20.4399 25.6666 13.9999C25.6666 7.55992 20.44 2.33325 14 2.33325ZM12.7516 20.0083C12.7516 20.1249 12.7283 20.2299 12.6816 20.3466C12.5883 20.5566 12.425 20.7316 12.2033 20.8249C12.0983 20.8716 11.9816 20.8949 11.865 20.8949C11.7483 20.8949 11.6433 20.8716 11.5266 20.8249C11.4216 20.7783 11.3283 20.7199 11.2466 20.6383L7.69998 17.0916C7.36165 16.7533 7.36165 16.1933 7.69998 15.8549C8.03831 15.5166 8.59831 15.5166 8.93665 15.8549L10.99 17.9083V7.99158C10.99 7.51325 11.3866 7.11658 11.865 7.11658C12.3433 7.11658 12.74 7.51325 12.74 7.99158V20.0083H12.7516ZM20.2883 12.1566C20.1133 12.3316 19.8916 12.4133 19.67 12.4133C19.4483 12.4133 19.2266 12.3316 19.0516 12.1566L16.9983 10.1033V20.0199C16.9983 20.4983 16.6016 20.8949 16.1233 20.8949C15.645 20.8949 15.2483 20.4983 15.2483 20.0199V7.99158C15.2483 7.87492 15.2716 7.76992 15.3183 7.65325C15.4116 7.44325 15.575 7.26825 15.7966 7.17492C16.0066 7.08159 16.2516 7.08159 16.4616 7.17492C16.5666 7.22159 16.66 7.27992 16.7416 7.36159L20.2883 10.9083C20.6266 11.2583 20.6266 11.8066 20.2883 12.1566Z" fill="currentColor"/>
</svg>
