<svg viewBox="0 0 28 28" fill="none" xmlns="http://www.w3.org/2000/svg">
<path d="M23.2983 10.2084H19.8683C18.3867 10.2084 17.5 9.32175 17.5 7.84008V4.41008C17.5 2.92841 18.3867 2.04175 19.8683 2.04175H23.2983C24.78 2.04175 25.6667 2.92841 25.6667 4.41008V7.84008C25.6667 9.32175 24.78 10.2084 23.2983 10.2084ZM23.555 6.34675C23.415 6.20675 23.2283 6.13675 23.0417 6.13675C22.855 6.13675 22.6683 6.20675 22.5283 6.34675L22.3183 6.55675V3.94341C22.3183 3.53508 21.9917 3.20841 21.5833 3.20841C21.175 3.20841 20.8483 3.53508 20.8483 3.94341V6.55675L20.6383 6.34675C20.3583 6.06675 19.8917 6.06675 19.6117 6.34675C19.3317 6.62675 19.3317 7.09342 19.6117 7.37342L21.07 8.83175C21.1283 8.89008 21.21 8.93675 21.2917 8.97175C21.315 8.98342 21.3383 8.98342 21.3617 8.99508C21.42 9.01842 21.4783 9.03008 21.5483 9.03008C21.5717 9.03008 21.595 9.03008 21.6183 9.03008C21.7 9.03008 21.77 9.01841 21.8517 8.98342C21.8633 8.98342 21.8633 8.98342 21.875 8.98342C21.9567 8.94841 22.0267 8.90175 22.085 8.84342C22.0967 8.83175 22.0967 8.83175 22.1083 8.83175L23.5667 7.37342C23.8467 7.09342 23.8467 6.62675 23.555 6.34675Z" fill="currentColor"/>
<path d="M2.33331 13.37V19.2034C2.33331 21.875 4.49165 24.0334 7.16331 24.0334H20.825C23.4966 24.0334 25.6666 21.8634 25.6666 19.1917V13.37C25.6666 12.5884 25.0366 11.9584 24.255 11.9584H3.74498C2.96331 11.9584 2.33331 12.5884 2.33331 13.37ZM9.33331 20.125H6.99998C6.52165 20.125 6.12498 19.7284 6.12498 19.25C6.12498 18.7717 6.52165 18.375 6.99998 18.375H9.33331C9.81165 18.375 10.2083 18.7717 10.2083 19.25C10.2083 19.7284 9.81165 20.125 9.33331 20.125ZM16.9166 20.125H12.25C11.7716 20.125 11.375 19.7284 11.375 19.25C11.375 18.7717 11.7716 18.375 12.25 18.375H16.9166C17.395 18.375 17.7916 18.7717 17.7916 19.25C17.7916 19.7284 17.395 20.125 16.9166 20.125Z" fill="currentColor"/>
<path d="M15.75 5.37822V8.79655C15.75 9.57822 15.12 10.2082 14.3383 10.2082H3.74498C2.95165 10.2082 2.33331 9.55489 2.33331 8.77322C2.34498 7.45489 2.86998 6.25322 3.74498 5.37822C4.61998 4.50322 5.83331 3.96655 7.16331 3.96655H14.3383C15.12 3.96655 15.75 4.59655 15.75 5.37822Z" fill="currentColor"/>
</svg>
