<svg viewBox="0 0 47 16" fill="none" xmlns="http://www.w3.org/2000/svg">
<path fill-rule="evenodd" clip-rule="evenodd" d="M7.40951 11.8009C7.30161 10.3461 7.37109 8.83006 6.93054 7.44339C6.52073 6.14822 4.96697 5.4093 4.93592 3.98477C4.90518 2.8726 5.76322 1.585 7.37109 1.585C8.87842 1.57743 9.81394 2.65931 9.92216 3.86298C10.0534 5.25691 8.33734 6.19397 7.88911 7.51943C7.4252 8.87549 7.55646 10.3764 7.40951 11.8009Z" fill="currentColor" fill-opacity="1"/>
<path fill-rule="evenodd" clip-rule="evenodd" d="M6.82173 11.4502C6.89152 10.1854 6.88384 8.97412 6.53582 7.90013C6.1417 6.681 5.3224 5.65275 4.06991 5.31768C3.21187 5.08893 1.94402 6.07932 2.15277 7.09242C2.32278 7.9077 3.15008 8.86748 4.47972 8.97412C5.09028 9.02744 5.36082 9.51522 5.74726 9.79697C4.00812 9.62944 2.89491 8.95898 2.11403 8.25823C1.99813 8.85234 1.92097 9.8503 2.39257 10.1933C3.32009 10.8407 4.17813 10.315 5.26797 10.6198C5.87884 10.7949 6.24991 11.1758 6.82173 11.4502Z" fill="currentColor" fill-opacity="1"/>
<path d="M1.44554 1.52409C3.4709 0.503411 5.57342 0.000488281 7.74574 0.000488281C7.7611 0.000488281 7.77679 0.000488281 7.79216 0.000488281C7.80753 0.000488281 7.82322 0.000488281 7.83858 0.000488281C10.0109 0.000488281 12.1134 0.503411 14.1388 1.52409L14.2624 1.65345C15.0897 3.57332 15.5609 5.53138 15.5843 7.51972C15.5843 7.55758 15.5843 7.58819 15.5843 7.62636V7.7633C15.5766 9.6756 15.1591 11.6258 14.2624 13.6065L14.1234 13.7359C12.0129 14.6578 9.90236 15.1226 7.79216 15.1453C5.68164 15.1226 3.57143 14.6578 1.46091 13.7359L1.32196 13.6065C0.425178 11.6258 0.00768394 9.6756 0 7.7633V7.62636C0 7.58819 0 7.55758 0 7.51972C0.023372 5.53138 0.494654 3.57332 1.32196 1.65345L1.44554 1.52409ZM7.79216 0.518556C7.77679 0.518556 7.7611 0.518556 7.74574 0.518556C5.68164 0.518556 3.69502 0.990874 1.77019 1.94308C0.989628 3.77146 0.548762 5.63013 0.52571 7.52729C0.494654 9.409 0.889096 11.3361 1.7625 13.3018C3.7725 14.1625 5.78217 14.6045 7.79216 14.6272C9.80215 14.6045 11.8118 14.1625 13.8218 13.3018C14.6952 11.3361 15.0897 9.409 15.0586 7.52729C15.0356 5.63013 14.5947 3.77146 13.8141 1.94308C11.8893 0.990874 9.90236 0.518556 7.83858 0.518556C7.82322 0.518556 7.80753 0.518556 7.79216 0.518556Z" fill="currentColor" fill-opacity="1"/>
<path fill-rule="evenodd" clip-rule="evenodd" d="M8.52652 11.4502C8.4644 10.1854 8.4644 8.97412 8.82011 7.90013C9.21455 6.681 10.0339 5.65275 11.286 5.31768C12.1441 5.08893 13.4042 6.07932 13.2032 7.09242C13.0332 7.9077 12.2062 8.86748 10.8765 8.97412C10.258 9.02744 9.99511 9.51522 9.60867 9.79697C11.3401 9.62944 12.461 8.95898 13.2419 8.25823C13.3578 8.85234 13.4353 9.8503 12.9637 10.1933C12.0358 10.8407 11.1778 10.315 10.088 10.6198C9.4774 10.7949 9.09833 11.1758 8.52652 11.4502Z" fill="currentColor" fill-opacity="1"/>
<path fill-rule="evenodd" clip-rule="evenodd" d="M11.4641 13.3327V13.1273L11.6188 13.0892L11.4641 12.8607V12.4796L12.1598 13.4318L11.9124 13.493L11.7424 13.2567L11.4641 13.3327ZM11.4641 12.4796V12.8607L11.3559 12.7083L11.3095 13.1652L11.4641 13.1273V13.3327L11.2861 13.3709L11.2554 13.653L11.0079 13.7139L11.1702 12.472L11.4177 12.4111L11.4641 12.4796ZM9.16055 13.9956V13.7975H9.21466C9.2995 13.7899 9.35361 13.7823 9.37698 13.7748C9.40772 13.7672 9.43877 13.7441 9.45414 13.7214C9.47751 13.6908 9.4852 13.6605 9.4852 13.6224C9.47751 13.5842 9.46951 13.5539 9.44646 13.5309C9.43109 13.5081 9.40003 13.493 9.3693 13.4851C9.33824 13.4775 9.26877 13.4775 9.16055 13.4851V13.2873C9.22234 13.2873 9.26076 13.2794 9.27645 13.2794C9.31487 13.2718 9.34593 13.2491 9.3693 13.2261C9.39235 13.2034 9.40003 13.1728 9.39235 13.1349C9.39235 13.0967 9.37698 13.0661 9.35361 13.051C9.33824 13.0283 9.30719 13.0128 9.26076 13.0128C9.24539 13.0128 9.21466 13.0128 9.16055 13.0207V12.8225C9.24539 12.815 9.30719 12.815 9.34593 12.8225C9.39235 12.8225 9.43877 12.8377 9.47751 12.8607C9.51593 12.8759 9.54699 12.9062 9.57772 12.9443C9.6011 12.9825 9.61646 13.0283 9.62415 13.0816C9.63183 13.1349 9.61646 13.1882 9.59341 13.234C9.57004 13.2794 9.53162 13.3176 9.47751 13.3482C9.55467 13.3633 9.61646 13.3939 9.6552 13.4397C9.70163 13.4851 9.72468 13.5384 9.73236 13.6072C9.73236 13.6605 9.72468 13.7139 9.70931 13.7672C9.68594 13.8205 9.6552 13.8584 9.61646 13.8965C9.57004 13.9271 9.52362 13.9499 9.46182 13.9653C9.4234 13.9729 9.32287 13.9805 9.17592 13.9956H9.16055ZM10.6215 13.3558L10.8609 13.3864C10.8456 13.5157 10.8068 13.6224 10.7374 13.6984C10.6679 13.7672 10.5674 13.8205 10.4438 13.8432C10.2891 13.8663 10.1499 13.8356 10.034 13.752C9.91037 13.6605 9.84058 13.5309 9.80216 13.3482C9.7711 13.1576 9.79416 12.9977 9.87932 12.8759C9.9568 12.7538 10.0804 12.6777 10.2427 12.6471C10.3897 12.6244 10.5056 12.6471 10.6138 12.7159C10.6756 12.7538 10.7297 12.815 10.7684 12.9062L10.5443 12.9977C10.5209 12.9443 10.4822 12.8986 10.4358 12.8759C10.3817 12.8453 10.3275 12.8377 10.2658 12.8453C10.1809 12.8607 10.1191 12.9062 10.0727 12.9749C10.0263 13.051 10.0186 13.15 10.0416 13.2873C10.0727 13.4318 10.1191 13.5309 10.1809 13.5842C10.2427 13.6375 10.3199 13.6605 10.405 13.6454C10.4668 13.6299 10.5132 13.5996 10.552 13.5539C10.5904 13.5081 10.6138 13.4397 10.6215 13.3558ZM9.16055 12.8225V13.0207C9.12949 13.0207 9.09844 13.0283 9.06002 13.0283L8.92075 13.0434L8.94412 13.31L9.10612 13.2949C9.12181 13.2949 9.14486 13.2949 9.16055 13.2873V13.4851C9.16055 13.4851 9.16055 13.4851 9.15255 13.4851L8.96717 13.5006L8.99022 13.8129L9.16055 13.7975V13.9956L8.77379 14.0338L8.66558 12.8683L9.13718 12.8301C9.14486 12.8225 9.15255 12.8225 9.16055 12.8225ZM7.66858 13.5918V13.3939C7.72269 13.3939 7.75343 13.3864 7.7768 13.3785C7.80754 13.3709 7.83091 13.3482 7.85396 13.3252C7.86933 13.2949 7.87701 13.2643 7.87701 13.234C7.88502 13.1882 7.86933 13.1576 7.84628 13.1273C7.82322 13.0967 7.79217 13.0816 7.75343 13.0737C7.73038 13.0737 7.707 13.0661 7.66858 13.0661V12.8683C7.78448 12.8683 7.85396 12.8759 7.8927 12.891C7.96217 12.9062 8.01628 12.9443 8.06271 13.0052C8.10913 13.0661 8.13218 13.1425 8.1245 13.234C8.1245 13.3024 8.10913 13.3633 8.08576 13.4167C8.05502 13.4624 8.02397 13.5006 7.98555 13.5309C7.93912 13.5539 7.90038 13.569 7.85396 13.5842C7.80754 13.5918 7.74574 13.5918 7.66858 13.5918ZM7.66858 12.8683V13.0661C7.64521 13.0661 7.61448 13.0661 7.57574 13.0661L7.45984 13.0585V13.3939H7.58342C7.61448 13.3939 7.64521 13.3939 7.66858 13.3939V13.5918C7.6529 13.5918 7.62984 13.5918 7.60679 13.5918H7.45215L7.44415 14.0338L7.20467 14.0262L7.22772 12.8607L7.60679 12.8683C7.62984 12.8683 7.6529 12.8683 7.66858 12.8683ZM5.43448 13.4775V13.1194C5.50395 13.1349 5.55038 13.1349 5.57343 13.1349C5.60448 13.1273 5.62754 13.1194 5.65091 13.0967C5.66628 13.0737 5.68164 13.051 5.68965 13.0128C5.69733 12.9749 5.68965 12.9443 5.67396 12.9137C5.65859 12.8834 5.62754 12.8683 5.58912 12.8528C5.57343 12.8453 5.51932 12.8377 5.43448 12.8225V12.6244L5.53501 12.6395C5.65859 12.6626 5.74376 12.6853 5.79786 12.7159C5.85197 12.7462 5.89039 12.7919 5.91376 12.8528C5.93682 12.9062 5.9445 12.9749 5.92913 13.0434C5.91376 13.1273 5.87502 13.1958 5.81323 13.2415C5.75912 13.2873 5.67396 13.31 5.56574 13.31C5.61217 13.3482 5.65091 13.3864 5.67396 13.4242C5.70502 13.47 5.73575 13.5384 5.77449 13.6375L5.87502 13.889L5.5968 13.8356L5.47322 13.5539C5.45753 13.5309 5.44985 13.5006 5.43448 13.4775ZM6.11451 12.7538L6.34663 12.7768L6.29252 13.4091C6.28483 13.5081 6.28483 13.5766 6.28483 13.5996C6.29252 13.653 6.31557 13.6908 6.34663 13.7214C6.38537 13.7596 6.43179 13.7748 6.50127 13.7823C6.57074 13.7899 6.62485 13.7748 6.6559 13.752C6.69432 13.729 6.7177 13.6984 6.73306 13.6605C6.74075 13.6224 6.74843 13.5539 6.75612 13.4624L6.81054 12.815L7.05003 12.8377L6.99592 13.4473C6.98823 13.5918 6.97287 13.6908 6.9495 13.7441C6.93413 13.7975 6.90307 13.8508 6.87234 13.8814C6.8336 13.9196 6.77949 13.9499 6.7177 13.9653C6.66359 13.988 6.58611 13.988 6.49358 13.9805C6.37736 13.9729 6.29252 13.9499 6.23841 13.9196C6.1843 13.889 6.13788 13.8508 6.10682 13.8129C6.07609 13.7672 6.06072 13.7214 6.05271 13.6757C6.04503 13.6072 6.04503 13.5081 6.05271 13.3785L6.11451 12.7538ZM4.2361 13.0967L4.28253 12.9062L4.78518 13.0358L4.66128 13.4851C4.59949 13.5233 4.52233 13.546 4.41411 13.5539C4.31358 13.5615 4.22073 13.5539 4.12789 13.5309C4.0043 13.5006 3.90377 13.4473 3.8343 13.3785C3.75682 13.3024 3.71071 13.2109 3.68734 13.1119C3.67197 13.0052 3.67197 12.8986 3.70271 12.7919C3.73376 12.6777 3.78787 12.5787 3.86503 12.4947C3.93483 12.4187 4.02735 12.3729 4.13589 12.3502C4.22073 12.3272 4.32127 12.3348 4.42948 12.3654C4.56875 12.4035 4.67697 12.4569 4.73876 12.5405C4.80055 12.6168 4.83161 12.7159 4.8236 12.8225L4.58412 12.8074C4.58412 12.7462 4.56875 12.6929 4.53001 12.6471C4.49127 12.6093 4.44485 12.5711 4.37537 12.5559C4.27484 12.5329 4.19 12.5405 4.11252 12.5862C4.03536 12.632 3.98125 12.7235 3.94251 12.8453C3.90377 12.9825 3.91146 13.0892 3.9502 13.1728C3.99662 13.2567 4.06609 13.31 4.15894 13.3327C4.21305 13.3482 4.25947 13.3482 4.31358 13.3482C4.36769 13.3406 4.41411 13.3252 4.46054 13.31L4.49896 13.1652L4.2361 13.0967ZM5.43448 12.6244L5.03235 12.5559L4.83161 13.7063L5.06341 13.7441L5.14825 13.2643L5.20236 13.2718C5.25679 13.2794 5.29521 13.2949 5.31858 13.3024C5.34163 13.3176 5.357 13.3406 5.38037 13.3633C5.38805 13.3864 5.41111 13.4242 5.43448 13.4775V13.1194C5.41111 13.1194 5.38805 13.1119 5.357 13.1119L5.18699 13.0816L5.23341 12.7919L5.41911 12.8225C5.42679 12.8225 5.43448 12.8225 5.43448 12.8225V12.6244Z" fill="currentColor" fill-opacity="1"/>
<path fill-rule="evenodd" clip-rule="evenodd" d="M42.2769 11.1988V9.0505H43.2355V5.27195L42.2769 7.16122V2.44561H46.0414L47 13.3089H43.2355V11.1988H42.2769ZM42.2769 2.44561V7.16122L41.3184 9.0505H42.2769V11.1988H40.468L39.7259 13.1947H37.3912V10.711L39.9964 5.17288H39.463L40.9473 2.44561H42.2769ZM37.3912 6.06419L38.5586 3.33692L37.3912 2.69675V6.06419ZM28.1071 5.02049C28.1612 4.70813 28.1612 4.40335 28.1071 4.11371V5.02049ZM37.3912 2.69675V6.06419L37.2366 6.42987C34.933 4.8072 31.5316 6.28505 31.3385 7.99922C31.1452 9.78942 32.5289 11.237 36.0616 10.1551L34.8482 13.3547C30.1866 13.8652 28.3776 12.0444 28.1071 9.91878V8.71511C28.1769 8.15918 28.3235 7.61808 28.5246 7.11547C30.8205 1.49308 34.5466 2.75796 35.9611 2.65132L36.1698 2.02661L37.3912 2.69675ZM37.3912 10.711L36.2239 13.1947H37.3912V10.711ZM23.9174 13.1263C26.4144 12.6385 28.8649 9.68278 26.4067 7.32876C27.365 6.82584 27.9605 5.91938 28.1071 5.02049V4.11371C27.9371 3.17696 27.2026 2.415 25.8192 2.39229L23.9174 2.35411V4.44153H24.706C25.5484 4.44153 25.4401 6.58983 24.389 6.58983H23.9174V8.23522C25.0537 8.4485 24.6519 10.0027 23.9174 10.4826V13.1263ZM28.1071 8.71511V9.91878C28.0607 9.52282 28.0607 9.11896 28.1071 8.71511ZM20.6242 2.28565L19.0858 5.2262L19.7739 5.17288L17.9185 13.1947H23.2294C23.4612 13.1947 23.6856 13.1717 23.9174 13.1263V10.4826C23.7859 10.5741 23.6392 10.6274 23.4923 10.6274H21.5828L22.2167 8.2125H23.6469C23.7474 8.2125 23.84 8.22008 23.9174 8.23522V6.58983H22.5878L23.1212 4.44153H23.9174V2.35411L20.6242 2.28565Z" fill="currentColor" fill-opacity="1"/>
</svg>
