<svg viewBox="0 0 53 15" fill="none" xmlns="http://www.w3.org/2000/svg">
<path fill-rule="evenodd" clip-rule="evenodd" d="M18.1687 0.000488281C18.7755 0.413631 19.3927 1.04037 19.3927 1.64583V12.3145C19.3927 12.9123 18.8259 13.7578 18.31 14.0947C20.1302 14.0947 21.9508 14.0947 23.771 14.0947C27.304 13.9498 29.4471 12.681 29.7035 10.0211C29.8831 8.15533 28.8921 6.70432 26.4571 5.88606C27.6717 5.42634 28.3249 4.42501 28.3846 3.04425C28.4872 0.668582 25.7074 0.000488281 23.9591 0.000488281L18.1687 0.000488281ZM21.5584 5.71302V1.26481H23.2341C25.1354 1.26481 26.0308 2.19267 26.0308 3.59109C26.0304 4.98951 24.7447 5.71302 23.1404 5.71302H21.5584ZM23.3447 12.7368H21.5584V6.97734H23.5825C26.5984 6.97734 27.5107 8.78087 27.3488 10.2552C27.1869 11.7291 25.9133 12.7368 23.3447 12.7368ZM34.5117 0.000488281H31.5442C32.2043 0.730815 32.4921 1.11425 32.4921 2.24647V11.9692C32.4921 13.089 31.9927 13.7763 31.277 14.2625H35.2254C34.6393 13.9068 34.0079 13.2078 34.0079 11.9435V3.35421C36.0029 6.0041 37.9975 8.6544 39.992 11.3047C41.1231 12.7762 42.4343 14.0236 43.963 15.0005V2.19508C43.963 0.912694 44.483 0.423668 45.1785 0.000488281H41.329C42.0266 0.51521 42.3963 1.09698 42.3963 2.14409V10.7197L34.5117 0.000488281ZM47.3632 14.2625C48.1621 13.7358 48.5682 13.1175 48.5682 12.3145V2.13044C48.5682 0.926345 48.219 0.654129 47.5336 0.000488281H52.0907C51.3043 0.440933 50.7525 1.34029 50.7525 2.13044V12.2864C50.7525 13.0657 51.2159 13.7795 51.8449 14.2625H47.3632Z" fill="currentColor" fill-opacity="1"/>
<path fill-rule="evenodd" clip-rule="evenodd" d="M0 0.000488281H4.3993C4.1692 0.392753 3.99521 1.27444 4.44007 3.25464C4.83567 5.01481 5.97889 6.85126 7.17177 8.30268L5.6729 9.52645L0 2.43719V0.000488281H0ZM6.42415 0.000488281H14.1687V1.86706C13.5697 1.51896 12.4773 1.1825 10.8731 1.82048C8.28511 2.85033 8.06349 5.86559 8.06349 5.86559C6.63164 4.14556 5.68986 1.32543 6.42415 0.000488281ZM14.1687 4.3431V9.89824C12.4087 10.5627 9.9406 8.83547 9.32015 6.78462C8.42156 3.81272 10.5405 2.73992 12.0563 3.03421C13.189 3.25383 13.8466 3.92554 14.1687 4.3431ZM14.1687 10.8104V14.0931H9.42228L10.3737 13.3162C9.75289 13.3913 8.53297 13.101 7.93916 12.3586L6.26833 10.2704L7.79585 9.02337C8.73441 10.0524 9.62815 10.792 10.1336 11.0136C11.2158 11.4886 12.4349 11.7178 14.1687 10.8104ZM6.77172 14.0931H1.58646L4.8171 11.4553C5.08151 11.7857 5.33704 12.1049 5.57925 12.408C6.05519 13.0026 6.45483 13.59 6.77172 14.0931ZM0.0799285 14.0931H0V5.43518C1.23364 6.97693 2.81001 8.94669 4.22168 10.7113L0.0799285 14.0931Z" fill="currentColor" fill-opacity="1"/>
</svg>
