<svg viewBox="0 0 52 15" fill="none" xmlns="http://www.w3.org/2000/svg">
<path fill-rule="evenodd" clip-rule="evenodd" d="M23.0054 8.71094V12.2336H24.5791C25.3955 12.2336 26.0146 12.0813 26.4364 11.7754C26.8594 11.4695 27.0697 11.0243 27.0697 10.441C27.0697 9.86469 26.8771 9.43129 26.4896 9.14314C26.1021 8.855 25.5255 8.71094 24.7587 8.71094H23.0054ZM23.0054 2.70242V6.05269H24.2199C25.0659 6.05269 25.698 5.9098 26.1162 5.62401C26.5357 5.33941 26.746 4.90365 26.746 4.3191C26.746 3.79123 26.5487 3.38972 26.154 3.11456C25.7594 2.83941 25.1781 2.70242 24.4102 2.70242H23.0054ZM19.0911 0.000488281H25.2348C27.0496 0.000488281 28.4154 0.326419 29.3299 0.978285C30.2455 1.62897 30.7028 2.59851 30.7028 3.88689C30.7028 4.7525 30.4629 5.47286 29.9844 6.04678C29.5059 6.61953 28.8088 7.03285 27.8932 7.28674C28.9211 7.47687 29.7103 7.87957 30.2632 8.49601C30.8162 9.11008 31.0915 9.89657 31.0915 10.8531C31.0915 12.2608 30.5893 13.3035 29.5827 13.9825C28.5761 14.6616 27.0248 15.0005 24.9277 15.0005H19.0911V0.000488281ZM37.3687 2.63747V6.4849H38.7723C39.6383 6.4849 40.287 6.32784 40.7194 6.0149C41.153 5.70078 41.3692 5.23077 41.3692 4.6037C41.3692 3.92704 41.1282 3.43105 40.6461 3.11338C40.1641 2.79572 39.402 2.63747 38.3611 2.63747H37.3687ZM33.4544 0.000488281H39.4162C41.4035 0.000488281 42.878 0.322877 43.8397 0.966477C44.8014 1.61126 45.2823 2.59142 45.2823 3.90696C45.2823 4.87885 45.0294 5.67833 44.5214 6.30422C44.0134 6.93129 43.2797 7.34933 42.3215 7.56072C43.1107 7.84886 43.7452 8.66842 44.2248 10.0194L46.0172 15.0005H41.8453L40.5244 10.8956C40.313 10.2343 40.0247 9.77611 39.6584 9.52339C39.2933 9.2695 38.7227 9.14314 37.9488 9.14314H37.3687V15.0005H33.4544V0.000488281ZM47.663 0.000488281H51.6635V15.0005H47.663V0.000488281Z" fill="currentColor" fill-opacity="1"/>
<path fill-rule="evenodd" clip-rule="evenodd" d="M0 2.15143C0 0.963428 0.962959 0.000488281 2.15098 0.000488281H12.8493C14.0373 0.000488281 15 0.963428 15 2.15143V12.8498C15 14.0375 14.0373 15.0005 12.8493 15.0005H2.15098C0.962959 15.0005 0 14.0375 0 12.8498V2.15143ZM2.61693 13.5309C1.98335 13.5309 1.46993 13.0172 1.46993 12.3836V2.62088C1.46993 1.98732 1.98335 1.47391 2.61693 1.47391H3.92539C5.6494 1.47391 6.92621 3.22074 5.82347 4.32522L2.62425 7.52877L5.36983 10.405C6.70115 11.7996 5.14213 13.5309 3.66516 13.5309H2.61693ZM6.76884 1.47391H7.87452C9.59852 1.47391 10.8756 3.22074 9.77259 4.32522L6.57338 7.52877L12.4549 13.5285L6.24809 13.5274C7.58176 13.5274 8.42369 11.2838 6.99625 9.7978L4.81684 7.52877L7.35406 4.91336C8.72025 3.5047 7.72887 1.69281 6.76884 1.47391ZM13.5289 12.3836L8.76626 7.52877L11.3035 4.91336C12.6697 3.5047 11.678 1.69281 10.718 1.47391H12.3798C13.0134 1.47391 13.5268 1.98732 13.5268 2.62088L13.5289 12.3836Z" fill="currentColor" fill-opacity="1"/>
</svg>
