<svg viewBox="0 0 136 20" fill="none" xmlns="http://www.w3.org/2000/svg">
<path d="M22.0686 0.217285H0.795654V19.7827H22.0686V0.217285Z" fill="currentColor"/>
<path fill-rule="evenodd" clip-rule="evenodd" d="M3.47724 3.6311H14.8745L20.5724 9.96819L14.8745 16.8994H3.47724L8.58049 9.96819L3.47724 3.6311Z" fill="#07243A" fill-opacity="0.12"/>
<path fill-rule="evenodd" clip-rule="evenodd" d="M20.5724 9.96819L14.8745 3.6311H3.47724L8.58049 9.96819" fill="#07243A"/>
<path d="M36.4781 7.25609C35.891 6.56784 35.042 6.17471 33.9477 6.17471C31.7166 6.17471 30.0715 7.96515 30.0715 10.42C30.0715 12.8788 31.7166 14.668 33.8528 14.668C35.042 14.668 36.0036 14.1446 36.6108 13.2517L39.0655 15.0556C37.9526 16.622 36.0637 17.3485 34.2294 17.3485C30.0533 17.3485 27.0101 14.6499 27.0101 10.42C27.0101 6.19383 30.0533 3.49353 34.2294 3.49353C35.7239 3.49353 37.6128 3.99782 38.7471 5.43135L36.4781 7.25609Z" fill="currentColor"/>
<path d="M43.5832 3.83032H40.638V17.0115H43.5832V3.83032Z" fill="currentColor"/>
<path d="M46.2645 3.82947H50.7262L53.8058 12.4313H53.8458L56.9457 3.82947H61.3835V17.0117H58.4382V6.90299H58.4019L54.8841 17.0117H52.6369L49.2535 6.90299H49.2119V17.0117H46.2645V3.82947Z" fill="currentColor"/>
<path d="M64.1088 3.82947H69.0974C71.4427 3.82947 73.9896 4.31487 73.9896 7.18181C73.9896 8.65064 73.0661 9.65573 71.688 10.0843V10.1258C73.4424 10.346 74.6171 11.6326 74.6171 13.3459C74.6171 16.0989 71.9682 17.0135 69.5844 17.0135H64.1088V3.82947ZM67.0541 9.0998H69.1919C70.0973 9.0998 71.0464 8.72682 71.0464 7.6682C71.0464 6.56872 69.9865 6.29004 69.0576 6.29004H67.0541V9.0998ZM67.0541 14.5558H69.7028C70.6264 14.5558 71.6682 14.1646 71.6682 13.0109C71.6682 11.765 70.2498 11.5565 69.2883 11.5565H67.0541V14.5558Z" fill="currentColor"/>
<path d="M78.3673 4.04126H80.3127L87.8323 14.7875H87.8705V4.04126H89.4104V16.9824H87.4666L79.9475 6.23365H79.9129V16.9824H78.3673V4.04126Z" fill="currentColor"/>
<path d="M94.1845 4.04126H92.6393V16.9824H94.1845V4.04126Z" fill="currentColor"/>
<path d="M101.633 4.04236H103.082L108.605 16.9824H106.805L105.485 13.8023H98.9915L97.6497 16.9824H95.9062L101.633 4.04236ZM102.329 6.01537H102.293L99.5967 12.3751H104.896L102.329 6.01537Z" fill="currentColor"/>
<path d="M121.375 16.1042C119.888 16.9283 118.203 17.3084 116.512 17.3084C112.478 17.3084 109.576 14.5684 109.576 10.5089C109.576 6.4346 112.676 3.70984 116.566 3.70984C118.272 3.70984 119.926 4.16988 121.155 5.41324L120 6.61855C119.119 5.66859 117.777 5.13782 116.454 5.13782C113.485 5.13782 111.225 7.36745 111.225 10.5089C111.225 13.5994 113.412 15.8851 116.606 15.8851C117.65 15.8851 118.877 15.6116 119.833 15.1353V11.167H116.841V9.74346H121.375V16.1042Z" fill="currentColor"/>
<path d="M128.825 4.04236H130.274L135.796 16.9824H133.998L132.674 13.8023H126.18L124.838 16.9824H123.099L128.825 4.04236ZM129.518 6.01537H129.484L126.787 12.3751H132.089L129.518 6.01537Z" fill="currentColor"/>
</svg>
