<svg viewBox="0 0 93 24" fill="none" xmlns="http://www.w3.org/2000/svg">
<path fill-rule="evenodd" clip-rule="evenodd" d="M14.6299 3.29084L0.00035926 0V7.21247H14.6299H32.0634L68.5293 20.6951V15.3906L92.1822 20.6951V7.21247H68.5293L32.0637 7.21247L32.063 7.21229L14.6299 0V3.29084ZM2.23872 15.582V22.3164H3.19137C3.89224 22.3164 4.37537 22.1016 4.64075 21.6721C4.90613 21.2425 5.04222 20.3349 5.04222 18.9492C5.04222 17.5635 4.91294 16.6559 4.64075 16.2263C4.37537 15.7968 3.89224 15.582 3.19137 15.582H2.23872ZM0 14.1062H3.48397C4.84489 14.1062 5.79754 14.4665 6.34871 15.1801C6.89989 15.8938 7.17207 17.1617 7.17207 18.9769C7.17207 20.7852 6.89308 22.0462 6.34871 22.7667C5.79754 23.4873 4.83809 23.8406 3.48397 23.8406H0V14.1062ZM8.67589 18.8245V18.8176H10.5812C10.5812 18.5058 10.6628 18.2633 10.8262 18.1039C10.9895 17.9446 11.2344 17.8614 11.5611 17.8614C11.8537 17.8614 12.0646 17.9584 12.1939 18.1455C12.3232 18.3395 12.3844 18.6651 12.3844 19.1293V19.4411H11.7312C10.588 19.4965 9.75783 19.7113 9.24068 20.0785C8.73033 20.4457 8.47176 21.0069 8.47176 21.7691C8.47176 22.4272 8.64867 22.94 9.00251 23.321C9.35636 23.7021 9.83948 23.8891 10.4451 23.8891C10.8534 23.8891 11.2344 23.8129 11.6019 23.6605C11.9693 23.5081 12.2415 23.3072 12.432 23.0647L12.5886 23.8406H14.419C14.3714 23.6051 14.3305 23.3557 14.3101 23.0924C14.2897 22.8291 14.2761 22.545 14.2761 22.2471V18.8661C14.2761 18.1871 14.0583 17.6882 13.6229 17.3695C13.1874 17.0508 12.5001 16.8915 11.5679 16.8915C10.622 16.8915 9.90073 17.0439 9.41079 17.3487C8.92086 17.6536 8.67589 18.1039 8.67589 18.6928V18.8176H8.66909L8.67589 18.8245ZM12.3912 20.4734C11.6495 20.4734 11.1392 20.5635 10.8602 20.7506C10.5812 20.9307 10.4383 21.2563 10.4383 21.7206C10.4383 22.0531 10.5063 22.3164 10.6492 22.5035C10.7921 22.6905 10.9895 22.7806 11.2344 22.7806C11.6087 22.7806 11.8945 22.6351 12.0918 22.3441C12.2891 22.0531 12.3912 21.6305 12.3912 21.0831V20.4873V20.4734ZM17.8962 23.8406H15.8276V18.2702C15.8276 17.9584 15.8207 17.7159 15.8139 17.5497C15.8071 17.3765 15.7867 17.2171 15.7663 17.0578L15.7663 17.0577H17.8417L17.8962 17.7575C18.0595 17.4734 18.284 17.2587 18.563 17.1132C18.842 16.9677 19.1686 16.8915 19.5429 16.8915C20.1825 16.8915 20.6792 17.0439 21.0195 17.3487C21.3597 17.6536 21.5298 18.097 21.5298 18.679V23.8406H19.4612V19.2055C19.4612 18.7621 19.4068 18.4642 19.3047 18.2979C19.2026 18.1316 19.0257 18.0485 18.774 18.0485C18.5086 18.0485 18.2908 18.1386 18.1343 18.3118C17.9778 18.485 17.8962 18.7206 17.8962 19.0115V23.8337V23.8406ZM23.0132 18.8245V18.8176H24.9185C24.9185 18.5058 25.0002 18.2633 25.1635 18.1039C25.3268 17.9446 25.5718 17.8614 25.8984 17.8614C26.191 17.8614 26.4019 17.9584 26.5312 18.1455C26.6605 18.3395 26.7218 18.6651 26.7218 19.1293V19.4411H26.0685C24.9253 19.4965 24.0952 19.7113 23.578 20.0785C23.0677 20.4457 22.8091 21.0069 22.8091 21.7691C22.8091 22.4272 22.986 22.94 23.3399 23.321C23.6937 23.7021 24.1768 23.8891 24.7824 23.8891C25.1907 23.8891 25.5786 23.8129 25.9392 23.6605C26.3067 23.5081 26.5789 23.3072 26.7694 23.0647L26.9259 23.8406H28.7563C28.7087 23.6051 28.6679 23.3557 28.6475 23.0924C28.627 22.8291 28.6134 22.545 28.6134 22.2471V18.8661C28.6134 18.1871 28.3957 17.6882 27.9602 17.3695C27.5247 17.0508 26.8374 16.8915 25.9052 16.8915C24.9594 16.8915 24.2381 17.0439 23.7481 17.3487C23.2582 17.6536 23.0132 18.1039 23.0132 18.6928V18.8176H23.0064L23.0132 18.8245ZM26.7286 20.4734C25.9869 20.4734 25.4765 20.5635 25.1975 20.7506C24.9185 20.9307 24.7756 21.2563 24.7756 21.7206C24.7756 22.0531 24.8437 22.3164 24.9866 22.5035C25.1295 22.6905 25.3268 22.7806 25.5718 22.7806C25.946 22.7806 26.2318 22.6351 26.4292 22.3441C26.6265 22.0531 26.7286 21.6305 26.7286 21.0831V20.4873V20.4734ZM32.2335 17.7575C32.3968 17.4734 32.6214 17.2587 32.9003 17.1132C33.1793 16.9677 33.506 16.8915 33.8802 16.8915C34.3565 16.8915 34.758 16.9815 35.0846 17.1617C35.4113 17.3418 35.6358 17.5982 35.7719 17.9376C35.9624 17.5912 36.2074 17.3279 36.4932 17.1547C36.7858 16.9815 37.126 16.8915 37.5139 16.8915C38.1535 16.8915 38.6503 17.0439 38.9905 17.3487C39.3307 17.6536 39.5008 18.097 39.5008 18.679V23.8406H37.4322V19.2055C37.4322 18.7552 37.3846 18.4503 37.2825 18.291C37.1805 18.1316 37.0035 18.0485 36.7586 18.0485C36.4932 18.0485 36.2754 18.1386 36.1121 18.3118C35.9488 18.485 35.8672 18.7206 35.8672 19.0115V23.8337H33.7986V19.1986C33.7986 18.7552 33.7441 18.4573 33.6421 18.291C33.54 18.1247 33.3631 18.0416 33.1113 18.0416C32.8459 18.0416 32.6282 18.1316 32.4717 18.3048C32.3152 18.4781 32.2335 18.7136 32.2335 19.0046V23.8268H30.1649V18.2564C30.1649 17.9446 30.1581 17.7021 30.1513 17.5358C30.1445 17.3626 30.1241 17.2032 30.1036 17.0439H32.1791L32.2335 17.7436V17.7575ZM43.8966 16.8915C44.9581 16.8915 45.7271 17.1547 46.1898 17.6813C46.6593 18.2079 46.8907 19.0808 46.8907 20.3002C46.8907 21.7206 46.6661 22.6905 46.2238 23.2171C45.7815 23.7367 44.9922 24 43.8558 24C42.7126 24 41.9233 23.7367 41.4742 23.2102C41.0251 22.6905 40.8073 21.7136 40.8073 20.3002C40.8073 19.0739 41.0455 18.2009 41.5218 17.6744C41.9981 17.1547 42.7875 16.8915 43.8966 16.8915ZM42.8895 20.3869C42.8897 21.3411 42.9578 21.9842 43.1005 22.3164C43.2434 22.649 43.4951 22.8152 43.8558 22.8152C44.2164 22.8152 44.4682 22.649 44.6111 22.3164C44.7472 21.9838 44.822 21.3395 44.822 20.3834C44.822 19.448 44.754 18.8314 44.6111 18.5335C44.4682 18.2356 44.2096 18.0901 43.8422 18.0901C43.4815 18.0901 43.2298 18.2356 43.0937 18.5404C42.9577 18.838 42.8897 19.4535 42.8895 20.3869ZM50.293 23.8406H48.2244V18.2702C48.2244 17.9584 48.2176 17.7159 48.2107 17.5497C48.2039 17.3765 48.1835 17.2172 48.1631 17.0579L48.1631 17.0577H50.2385L50.293 17.7575C50.4563 17.4734 50.6808 17.2587 50.9598 17.1132C51.2388 16.9677 51.5654 16.8915 51.9397 16.8915C52.5793 16.8915 53.0761 17.0439 53.4163 17.3487C53.7565 17.6536 53.9266 18.097 53.9266 18.679V23.8406H51.858V19.2055C51.858 18.7621 51.8036 18.4642 51.7015 18.2979C51.5994 18.1316 51.4225 18.0485 51.1708 18.0485C50.9054 18.0485 50.6876 18.1386 50.5311 18.3118C50.3746 18.485 50.293 18.7206 50.293 19.0115V23.8337V23.8406Z" fill="currentColor" fill-opacity="1"/>
</svg>
