<svg viewBox="0 0 84 24" fill="none" xmlns="http://www.w3.org/2000/svg">
<g clip-path="url(#clip0_7915_102343)">
<path fill-rule="evenodd" clip-rule="evenodd" d="M1.74983 5.76425C3.74324 2.52069 7.02545 0.419362 11.0755 0.0440284C12.8948 -0.124638 14.8199 0.211584 16.3319 0.795806C17.4595 1.23136 19.2263 2.21581 20.0618 3.07336C20.2759 3.29311 20.4349 3.4444 20.5728 3.57567C20.8688 3.85738 21.0679 4.04689 21.508 4.62292C22.9328 6.48803 23.8218 8.55358 24.0173 11.0598C24.5509 17.9051 19.3415 23.4707 13.0277 23.9611C5.99065 24.5076 0.492775 19.2 0.033315 12.9311C-0.15446 10.3687 0.454449 7.87181 1.74983 5.76425ZM4.99169 13.7312C4.97324 12.0244 4.93892 8.85122 5.062 8.50296C5.20678 8.49271 5.38063 8.58927 5.61899 8.72167C5.99556 8.93084 6.53315 9.22944 7.37154 9.33763C8.89451 9.53422 10.4595 8.92843 12.0282 8.32121C14.2701 7.4534 16.5196 6.58267 18.6646 8.04696C19.0655 8.32049 19.0633 8.51602 19.0574 9.02216C19.0566 9.08717 19.0558 9.15732 19.0558 9.23341L19.0542 15.4474C19.0087 15.7453 18.8384 15.6368 18.6729 15.5315C18.6419 15.5118 18.6111 15.4922 18.5814 15.4754C16.3997 14.242 14.223 15.0038 12.0423 15.767C10.1505 16.4292 8.25564 17.0924 6.35216 16.4545C4.9712 15.9917 4.97802 15.7009 4.99549 14.9548C4.99759 14.8648 4.99986 14.7682 4.99986 14.6639C4.99986 14.4861 4.99626 14.1535 4.99169 13.7312Z" fill="currentColor" fill-opacity="1"/>
<path fill-rule="evenodd" clip-rule="evenodd" d="M33.2118 18.0823C34.809 18.1941 36.6695 16.9803 37.3251 16.2852C39.6022 13.8703 39.6571 10.3763 37.3648 7.84763C36.5112 6.90607 34.5128 5.86541 33.2381 6.01118L28.6346 6.01452L28.6335 18.0672L33.2118 18.0823ZM31.2195 15.4707C31.5585 15.5285 32.9512 15.507 33.3338 15.4725C36.4785 15.1907 37.5893 10.9774 34.9455 9.21252C34.5067 8.91941 34.0184 8.68585 33.3778 8.61607C33.0269 8.57763 31.5284 8.55385 31.2179 8.60874L31.2195 15.4707Z" fill="currentColor" fill-opacity="1"/>
<path fill-rule="evenodd" clip-rule="evenodd" d="M73.5317 18.1047L76.1502 18.1036L76.1529 15.5058L81.3487 15.5067L81.3639 18.1038L83.9812 18.1042C83.983 16.6607 83.9818 15.2287 83.9818 13.7969C83.9818 12.5071 84.0925 10.8925 83.7678 9.72246C83.2185 7.74224 81.2967 5.98601 78.7677 5.97624C76.2114 5.96646 74.3559 7.71757 73.7635 9.66913C73.4129 10.824 73.5299 12.4798 73.5299 13.7511C73.5299 15.2 73.5147 16.6567 73.5317 18.1047ZM76.1527 12.8922L81.3616 12.8945C81.3743 11.7802 81.4963 10.6973 80.9861 9.84357C80.6209 9.2329 79.8508 8.59379 78.769 8.58935C77.6655 8.5849 76.9296 9.19846 76.5359 9.83113C76.02 10.6609 76.1365 11.8033 76.1527 12.8922Z" fill="currentColor" fill-opacity="1"/>
<path fill-rule="evenodd" clip-rule="evenodd" d="M43.5813 18.1018L46.1909 18.1041C46.1925 17.5618 46.1208 15.8998 46.2163 15.5058L51.3922 15.5065L51.4105 18.1023L54.0235 18.1047C54.0099 16.6654 54.0224 15.2283 54.0224 13.797C54.0224 12.569 54.1385 10.8096 53.8101 9.72096C52.3147 4.76296 45.353 4.72785 43.8079 9.67141C43.458 10.791 43.5775 12.5043 43.5775 13.7512C43.5775 15.1901 43.5439 16.6678 43.5813 18.1018ZM46.1925 12.8921L51.408 12.8947C51.4189 11.7967 51.5414 10.6934 51.0298 9.84141C50.0936 8.28207 47.7129 8.05763 46.5803 9.83385C46.0626 10.6459 46.1755 11.823 46.1925 12.8921Z" fill="currentColor" fill-opacity="1"/>
<path fill-rule="evenodd" clip-rule="evenodd" d="M58.6168 10.7187L58.5812 12.5191C58.5812 14.0287 58.5045 16.8447 58.5866 18.0693L61.1456 18.0707C61.205 17.2122 61.0531 11.0862 61.2152 10.8911C61.2159 9.70068 62.4825 8.59379 63.7636 8.58913C64.5505 8.58624 65.1243 8.90001 65.542 9.27246C65.8681 9.56335 66.3668 10.226 66.3573 10.8973C66.477 10.9633 66.3825 17.3533 66.4201 18.0689L68.9818 18.0707L68.9614 10.7553C69.0254 10.1822 68.6732 9.29624 68.4473 8.84646C66.551 5.06935 61.1077 5.01935 59.1574 8.78135C58.9288 9.22246 58.5628 10.1325 58.6168 10.7187Z" fill="currentColor" fill-opacity="1"/>
<path fill-rule="evenodd" clip-rule="evenodd" d="M33.2118 18.0823L28.6335 18.0672L28.6346 6.01452L33.2381 6.01118C33.1544 5.89629 31.2338 5.96496 30.9646 5.96496C30.2949 5.96496 29.2376 5.90318 28.6151 5.97474C28.5564 6.16674 28.5323 17.7961 28.611 18.1094C29.0349 18.163 31.9889 18.1216 32.9228 18.1238L33.1796 18.0974C33.1877 18.0952 33.2011 18.0874 33.2118 18.0823Z" fill="currentColor" fill-opacity="1"/>
<path fill-rule="evenodd" clip-rule="evenodd" d="M66.3573 10.8974C66.3847 11.8834 66.3028 17.7585 66.3967 18.1107L69.0052 18.1218C69.0732 17.8394 69.0312 13.2583 69.0312 12.5647C69.0312 12.2331 69.122 10.9307 68.9614 10.7554L68.9818 18.0707L66.4201 18.0689C66.3824 17.3534 66.477 10.9634 66.3573 10.8974Z" fill="currentColor" fill-opacity="1"/>
<path fill-rule="evenodd" clip-rule="evenodd" d="M61.2152 10.8912C61.0531 11.0863 61.205 17.2123 61.1456 18.0707L58.5866 18.0694C58.5045 16.8447 58.5812 14.0287 58.5812 12.5192L58.6168 10.7188C58.4712 10.7807 58.5363 13.9896 58.5363 14.3901C58.5363 14.9732 58.4655 17.7779 58.5673 18.1121L61.1744 18.1214L61.2152 10.8912Z" fill="currentColor" fill-opacity="1"/>
</g>
<defs>
<clipPath id="clip0_7915_102343">
<rect width="84" height="24" fill="white"/>
</clipPath>
</defs>
</svg>
