<svg viewBox="0 0 72 15" fill="none" xmlns="http://www.w3.org/2000/svg">
<path d="M7.76973 0C12.0608 0 15.5395 3.35698 15.5395 7.49845C15.5395 11.6394 12.0608 14.9964 7.76973 14.9964C3.47868 14.9964 0 11.6394 0 7.49845C0 3.35698 3.47868 0 7.76973 0Z" fill="currentColor" fill-opacity="1"/>
<path fill-rule="evenodd" clip-rule="evenodd" d="M12.3024 7.26725C12.2433 6.31266 11.4011 5.58095 10.4118 5.62347H5.50394C5.32504 5.62347 5.17987 5.48368 5.17987 5.31114C5.17987 5.13859 5.32504 4.9988 5.50394 4.9988H10.4763C10.4475 4.35214 9.99001 3.79688 9.34335 3.62434C7.89361 3.37408 6.40966 3.37408 4.95992 3.62434C4.13583 3.81936 3.51996 4.48118 3.40607 5.29256C3.17928 6.76332 3.17928 8.25802 3.40607 9.72877C3.57959 10.5876 4.28638 11.2523 5.17987 11.3975C6.97714 11.616 8.79591 11.616 10.5932 11.3975C11.3938 11.2406 11.9994 10.6057 12.0952 9.82262C12.2594 8.98044 12.3288 8.1236 12.3024 7.26725ZM10.6836 8.31667V8.59186C10.6836 8.7644 10.5389 8.90419 10.36 8.90419C10.1811 8.90419 10.036 8.7644 10.036 8.59186V8.31667C9.93135 8.22869 9.87221 8.10063 9.87417 7.9667C9.87417 7.70814 10.0917 7.49845 10.36 7.49845C10.6279 7.49845 10.8454 7.70814 10.8454 7.9667C10.8439 8.10014 10.7853 8.22674 10.6836 8.31667Z" fill="#132E43"/>
<path d="M37.6702 6.65481C37.6809 5.33998 36.5851 4.26563 35.2228 4.25536C33.8601 4.2451 32.7471 5.30234 32.7364 6.61717C32.7256 7.932 33.8215 9.00635 35.1837 9.01662C35.1969 9.01662 35.2096 9.01662 35.2228 9.01662C36.5152 9.08358 37.6193 8.12654 37.6887 6.87916C37.6927 6.80438 37.6931 6.72959 37.6897 6.65481H37.6702ZM30.3408 6.65481C30.3408 4.15516 32.3869 2.24939 35.2228 2.24939C38.0588 2.24939 40.1048 4.16787 40.1048 6.65481C40.1048 9.14175 38.0778 11.0661 35.2228 11.0661C32.3673 11.0661 30.3408 9.14761 30.3408 6.65481Z" fill="currentColor" fill-opacity="1"/>
<path d="M26.4561 7.11081C26.4561 8.14166 25.3681 8.9853 23.9892 8.9853C22.7223 9.10896 21.5922 8.21791 21.4641 6.99595C21.4509 6.87228 21.449 6.74764 21.4573 6.62349C21.4573 5.26125 22.4935 4.32376 24.086 4.32376C25.3812 4.32376 26.4561 5.18011 26.4561 6.14839V7.11081ZM26.5529 2.243V3.23035C25.7649 2.53969 24.7214 2.18581 23.6588 2.24936C21.1469 2.27184 19.1292 4.25533 19.1522 6.6797C19.1756 9.10408 21.231 11.0509 23.7428 11.0284C24.7771 11.0734 25.784 10.6995 26.5206 9.99757V10.8412C26.5206 11.9845 25.4976 12.8218 24.151 12.8218C23.1221 12.8936 22.1093 12.5495 21.3537 11.8721L19.7803 13.3345C20.9602 14.4519 22.5634 15.0526 24.2155 14.9964C26.9737 14.9964 28.8643 13.2094 28.8643 10.8285V2.243H26.5529Z" fill="currentColor" fill-opacity="1"/>
<path d="M41.5292 2.49962H43.847V3.23671H43.8793C44.6393 2.56805 45.6428 2.21759 46.6702 2.26207C49.1928 2.35347 51.1612 4.40148 51.0659 6.83612C50.9759 9.14221 49.0599 10.9918 46.6702 11.0788C45.6887 11.1003 44.7307 10.7884 43.9638 10.1975V14.3717H41.5487L41.5292 2.49962ZM46.2943 4.32377C44.9995 4.32377 43.9443 5.19234 43.9443 6.13618V7.19196C43.9443 8.19788 44.9864 9.0293 46.3075 9.0293C47.6537 9.09626 48.8013 8.09719 48.8707 6.798C48.9401 5.49832 47.9054 4.39073 46.5588 4.32377C46.4752 4.31986 46.3911 4.31986 46.3075 4.32377H46.2943Z" fill="currentColor" fill-opacity="1"/>
<path d="M55.7022 5.84892C57.2883 5.64265 57.761 5.42367 57.761 4.99892C57.761 4.44904 57.1588 4.11813 56.2267 4.11813C55.2217 4.03846 54.3067 4.67779 54.0706 5.62359L51.7914 5.16755C52.115 3.46805 53.9279 2.25586 56.1617 2.25586C58.6872 2.25586 60.2538 3.50568 60.2538 5.53023V10.835H58.085V9.91023H58.0523C57.3162 10.7099 56.2379 11.1341 55.1323 11.0599C53.2221 11.0599 51.895 10.0539 51.895 8.5607C51.895 7.06697 52.9826 6.21111 55.7022 5.84892ZM57.9555 6.72971H57.9232C57.7092 7.02982 57.2756 7.20481 56.0776 7.40472C54.6596 7.66084 54.1352 7.92967 54.1352 8.41699C54.1352 8.90431 54.556 9.14186 55.469 9.14186C56.8611 9.14186 57.9359 8.51671 57.9359 7.72341L57.9555 6.72971Z" fill="currentColor" fill-opacity="1"/>
<path d="M64.6243 10.3661L60.6295 2.49963H63.2904L65.9128 7.94812H65.9514L68.5415 2.49963H71.2156L65.2329 14.3717H62.5719L64.6243 10.3661Z" fill="currentColor" fill-opacity="1"/>
</svg>
