<svg viewBox="0 0 91 24" fill="none" xmlns="http://www.w3.org/2000/svg">
<path d="M16.406 0.0822118C15.8511 0.272414 15.5737 0.45397 15.1954 0.877602C14.1277 2.07069 14.1109 3.65282 15.1702 4.42227C15.5148 4.66435 15.5905 4.68164 16.263 4.68164C16.8599 4.68164 17.0617 4.63841 17.3559 4.48279C17.9108 4.1802 18.432 3.63553 18.6926 3.09086C18.8944 2.68452 18.928 2.49432 18.928 1.90642C18.928 1.29259 18.9028 1.17155 18.6926 0.851665C18.3479 0.306996 17.9024 0.0476296 17.2719 0.00440192C16.9692 -0.0128892 16.5993 0.021693 16.406 0.0822118Z" fill="currentColor" fill-opacity="1"/>
<path d="M68.5703 0.350275C67.6876 0.59235 66.9478 1.41368 66.6703 2.45114C66.5442 2.90936 66.5442 3.06498 66.6283 3.45403C66.9898 5.13126 69.0747 5.41656 70.3525 3.95547C71.252 2.92665 71.3361 1.58659 70.5543 0.782552C70.0415 0.255174 69.4025 0.116845 68.5703 0.350275Z" fill="currentColor" fill-opacity="1"/>
<path d="M35.8257 1.02456C35.7416 1.26664 33.455 18.6096 33.4886 18.7047C33.5474 18.8603 37.5071 18.869 37.5995 18.722C37.6584 18.6182 39.9871 1.47413 39.9871 1.11102V0.920817H37.9274C36.3469 0.920817 35.8509 0.946754 35.8257 1.02456Z" fill="currentColor" fill-opacity="1"/>
<path d="M55.607 1.4396C55.2539 1.55199 54.7999 1.85458 54.6234 2.11395C54.5393 2.24363 52.8916 5.95257 50.958 10.3618C48.4696 16.0592 47.4692 18.4281 47.5112 18.5578C47.5616 18.722 47.6205 18.7307 49.5709 18.7307C51.3531 18.7307 51.5885 18.7134 51.7398 18.5751C51.8323 18.4973 52.177 17.771 52.5133 16.9583C52.8411 16.1543 53.1522 15.4627 53.211 15.4281C53.2615 15.3935 54.3039 15.3589 55.5061 15.3589C57.1706 15.3589 57.7255 15.3849 57.7843 15.4627C57.8348 15.5232 57.9273 16.2321 58.0029 17.0448C58.129 18.3503 58.1626 18.5318 58.3224 18.6702C58.4821 18.7998 58.7175 18.8171 60.4577 18.8171C62.2736 18.8171 62.4165 18.8085 62.551 18.6529C62.6939 18.4886 62.6435 18.1341 61.3825 10.3704C60.3989 4.32721 60.0206 2.19176 59.8945 1.98426C59.8104 1.83729 59.575 1.6298 59.3732 1.5347C59.0538 1.37043 58.8688 1.35314 57.4228 1.36179C56.5485 1.36179 55.7331 1.39637 55.607 1.4396ZM57.1454 8.91799C57.2715 10.3359 57.3556 11.5549 57.3304 11.6154C57.2967 11.7019 56.9773 11.7278 55.9937 11.7278C55.2791 11.7278 54.699 11.7019 54.699 11.6673C54.699 11.4598 56.7587 6.2811 56.8344 6.30704C56.8848 6.32433 57.0109 7.39638 57.1454 8.91799Z" fill="currentColor" fill-opacity="1"/>
<path d="M1.83689 1.84594C1.67716 1.98426 1.57628 2.65862 0.811256 8.48571C-0.138716 15.6875 -0.155529 15.9036 0.256405 16.7336C0.550644 17.3301 1.14753 17.918 1.79485 18.2725C2.76164 18.8085 2.87934 18.8171 7.25929 18.8171H11.2357L11.3198 18.6183C11.4207 18.3503 11.8494 15.3416 11.8074 15.0909L11.7822 14.8834L8.33537 14.8402C6.43542 14.8143 4.83813 14.7624 4.77928 14.7278C4.72884 14.6846 4.61955 14.5462 4.55229 14.4166C4.44301 14.1918 4.50185 13.673 5.26687 8.34739C5.72925 5.13989 6.10756 2.37331 6.10756 2.2004C6.10756 1.96697 6.05712 1.85458 5.94783 1.78542C5.84695 1.73354 5.03148 1.69896 3.89656 1.69896C2.2152 1.69896 1.98821 1.71625 1.83689 1.84594Z" fill="currentColor" fill-opacity="1"/>
<path d="M86.9981 3.57509C86.8299 3.72207 86.7879 4.08518 86.3423 8.93533C85.9388 13.2495 85.8799 14.1572 85.964 14.2696C86.0565 14.382 86.3087 14.408 87.4941 14.408C88.8896 14.408 88.9232 14.408 88.9989 14.2091C89.1586 13.8374 91.0249 4.11112 90.9997 3.79123L90.9745 3.47135L89.0745 3.44541C87.3596 3.42812 87.1578 3.43677 86.9981 3.57509Z" fill="currentColor" fill-opacity="1"/>
<path d="M77.2714 5.51171C74.0684 5.8143 72.16 7.59529 71.4286 10.993C71.2857 11.6414 71.2269 12.2379 71.1932 13.4224C71.1596 14.8057 71.1764 15.065 71.3362 15.6962C71.7565 17.4166 72.7569 18.3417 74.6232 18.7567C75.7161 18.9988 78.1793 19.016 79.289 18.7913C80.8275 18.48 82.0969 18.0045 82.3155 17.6673C82.5088 17.3647 83.8287 6.57511 83.6942 6.4022C83.4756 6.12554 81.4328 5.64139 79.9111 5.50306C78.835 5.40796 78.3643 5.40796 77.2714 5.51171ZM78.7594 9.14284C79.0032 9.19471 79.2386 9.26388 79.2722 9.3071C79.3479 9.37627 78.6837 14.8489 78.5912 14.9354C78.482 15.0391 77.6497 15.1861 77.2041 15.1861C75.6993 15.1774 75.1276 13.7855 75.7077 11.5117C75.9347 10.6039 76.1701 10.1284 76.5904 9.7048C77.1957 9.10826 77.8262 8.94399 78.7594 9.14284Z" fill="currentColor" fill-opacity="1"/>
<path d="M24.0225 5.67597C21.946 5.84888 21.1978 6.24658 20.9036 7.30998C20.6262 8.30422 19.2138 18.2812 19.3147 18.4887C19.3904 18.627 19.5753 18.6443 21.3239 18.6443C22.669 18.6443 23.2659 18.6184 23.3079 18.5492C23.3416 18.4887 23.6526 16.3446 24.0141 13.7682L24.653 9.09096L25.0313 9.0218C25.5526 8.91805 26.595 9.00451 27.0238 9.17742C27.5198 9.38491 27.772 9.72209 27.8392 10.2927C27.9065 10.8114 27.856 11.2523 27.2423 15.5492C26.9145 17.8921 26.864 18.3936 26.9481 18.506C27.049 18.627 27.3348 18.6443 28.9321 18.6443C30.3276 18.6443 30.8236 18.6184 30.8909 18.5319C30.9666 18.4368 31.4289 15.359 31.8325 12.2985C32.194 9.55782 31.967 8.2437 30.9498 7.07655C30.4622 6.51459 29.9325 6.17741 29.1002 5.88346C28.4613 5.65868 28.3436 5.64139 26.6623 5.6241C25.6955 5.61545 24.5017 5.64139 24.0225 5.67597Z" fill="currentColor" fill-opacity="1"/>
<path d="M14.0772 5.9094C13.9259 6.09096 12.2613 18.2552 12.3538 18.4973C12.4043 18.627 12.5976 18.6443 14.3715 18.6443C15.9435 18.6443 16.3639 18.6184 16.4395 18.5232C16.49 18.4627 16.9103 15.6356 17.3727 12.2466C18.1629 6.46272 18.205 6.07367 18.0789 5.91805C17.9444 5.77972 17.7762 5.76243 16.0696 5.76243C14.3967 5.76243 14.1949 5.77972 14.0772 5.9094Z" fill="currentColor" fill-opacity="1"/>
<path d="M66.2668 6.12548C66.1996 6.24652 65.9894 7.50877 65.754 9.30704C65.1487 13.9238 64.7116 16.9929 64.5771 17.5376C64.2156 18.9987 63.5178 19.6903 61.5758 20.5376C61.3488 20.6327 61.1723 20.7624 61.1723 20.8229C61.1723 20.8834 61.3909 21.6183 61.6599 22.4483C62.2231 24.2206 62.1391 24.1601 63.3833 23.7883C64.8797 23.3474 66.2248 22.5607 67.0066 21.6529C67.8473 20.7019 68.5451 18.7566 68.8982 16.3704C69.2597 13.9756 70.176 6.60963 70.1508 6.29839L70.1256 5.97851L68.2592 5.95257C66.3929 5.93528 66.3929 5.93528 66.2668 6.12548Z" fill="currentColor" fill-opacity="1"/>
<path d="M43.1144 6.38484C42.61 6.93815 39.0539 11.235 39.0119 11.3474C38.9698 11.4338 43.0303 20.6327 43.2069 20.8661C43.2657 20.9526 43.7701 20.9785 45.1993 20.9785C46.9395 20.9785 47.116 20.9612 47.2422 20.8229C47.3262 20.7364 47.3851 20.6154 47.3851 20.5549C47.3851 20.4944 46.4771 18.4367 45.3674 15.9814C43.375 11.5722 43.3498 11.5203 43.5095 11.3474C45.3002 9.31568 47.755 6.47129 47.7802 6.38484C47.8054 6.32432 47.7802 6.22057 47.7213 6.15141C47.6373 6.03902 47.2758 6.02173 45.5356 6.02173H43.4507L43.1144 6.38484Z" fill="currentColor" fill-opacity="1"/>
<path d="M86.8383 15.7912C86.0733 15.9555 85.3839 16.4742 85.0224 17.1572C84.5012 18.1342 84.5433 19.016 85.1401 19.7163C85.5605 20.2091 86.0733 20.4166 86.8131 20.4079C87.7379 20.3907 88.5785 19.8806 89.0745 19.0333C89.3099 18.6356 89.3688 18.4368 89.4024 17.9267C89.4444 17.2264 89.3436 16.8806 88.9568 16.4137C88.5113 15.869 87.6538 15.6183 86.8383 15.7912Z" fill="currentColor" fill-opacity="1"/>
</svg>
