<svg viewBox="0 0 52 15" fill="none" xmlns="http://www.w3.org/2000/svg">
<path d="M38.4552 8.5502H40.2621V14.8186H38.4552V8.5502ZM34.0083 14.8186V10.4961C34.0083 10.1423 34.0021 9.80289 33.9898 9.47628C33.9774 9.15154 33.9609 8.84368 33.9362 8.5502H35.5925L35.6585 9.67193C35.8153 9.28687 36.0668 8.99558 36.4113 8.79774C36.7539 8.60021 37.1829 8.50238 37.6944 8.50238H37.748L37.7418 10.1486C37.6324 10.1401 37.5522 10.1339 37.4983 10.1298C37.4425 10.1257 37.3933 10.1236 37.3499 10.1236C36.8775 10.1236 36.5083 10.2401 36.2425 10.4711C35.9742 10.7021 35.8401 11.0246 35.8401 11.4347V14.8186H34.0083ZM31.2764 8.5502H33.0833V14.8186H31.2764V8.5502ZM28.3484 14.8186L28.2886 13.9238C28.0659 14.261 27.7979 14.5148 27.4841 14.6855C27.1706 14.8561 26.8159 14.9418 26.4197 14.9418C25.667 14.9418 25.0564 14.6439 24.5861 14.0488C24.1178 13.4534 23.8826 12.6646 23.8826 11.6866C23.8826 10.7021 24.1119 9.91353 24.5716 9.32219C25.0316 8.73117 25.64 8.43581 26.3971 8.43581C26.8076 8.43581 27.1666 8.51676 27.4717 8.6771C27.7793 8.83743 28.0433 9.08309 28.2641 9.41158V5.82605H30.0587V13.5575C30.0587 13.8738 30.0627 14.132 30.0729 14.3276C30.0831 14.5251 30.0999 14.6899 30.1185 14.8186H28.3484ZM25.7144 11.6969C25.7144 12.3442 25.8259 12.8458 26.0464 13.2018C26.2673 13.5575 26.5786 13.7344 26.9767 13.7344C27.3831 13.7344 27.7072 13.5534 27.9441 13.1893C28.1814 12.8249 28.301 12.3276 28.301 11.6969C28.301 11.0643 28.1814 10.5627 27.9441 10.1986C27.7072 9.83227 27.3831 9.64911 26.9767 9.64911C26.5786 9.64911 26.2673 9.82789 26.0464 10.1883C25.8259 10.548 25.7144 11.0518 25.7144 11.6969ZM17.175 14.8186V9.75288C17.175 9.5741 17.171 9.38689 17.1605 9.19123C17.1505 8.99558 17.1338 8.78117 17.1152 8.5502H18.8357L18.8726 9.49065C19.1059 9.11216 19.384 8.83524 19.704 8.66053C20.0237 8.48582 20.4156 8.3983 20.8796 8.3983C21.5646 8.3983 22.072 8.59396 22.4041 8.98714C22.7361 9.37845 22.9031 9.97791 22.9031 10.7833V14.8186H21.1272V11.0331C21.1272 10.5649 21.0469 10.2298 20.888 10.0257C20.7291 9.82383 20.4714 9.72194 20.1123 9.72194C19.766 9.72194 19.4853 9.83445 19.275 10.0611C19.0625 10.2858 18.9572 10.5855 18.9572 10.9602V14.8186H17.175ZM0.047396 14.8186V9.75288C0.047396 9.52816 0.0433689 9.31813 0.0350049 9.12029C0.0266409 8.92276 0.0145596 8.73335 0 8.5502H1.70997L1.75737 9.49065C1.99032 9.11216 2.26695 8.83524 2.58881 8.66053C2.9085 8.48582 3.30037 8.3983 3.76225 8.3983C4.23064 8.3983 4.62467 8.50238 4.94839 8.71241C5.27025 8.92276 5.50537 9.22655 5.65376 9.62411C5.85604 9.20155 6.11997 8.8915 6.44586 8.69366C6.77174 8.49613 7.18437 8.3983 7.68559 8.3983C8.37051 8.3983 8.88009 8.59396 9.21403 8.98714C9.54828 9.37845 9.71525 9.97791 9.71525 10.7833V14.8186H7.92071V11.0331C7.92071 10.5649 7.84048 10.2298 7.68156 10.0257C7.52265 9.82383 7.26491 9.72194 6.90588 9.72194C6.55955 9.72194 6.28106 9.83445 6.07443 10.0611C5.86626 10.2858 5.76311 10.5855 5.76311 10.9602V14.8186H3.96856V11.0331C3.96856 10.5689 3.89019 10.2358 3.73344 10.0298C3.5767 9.82383 3.32299 9.72194 2.97232 9.72194C2.62599 9.72194 2.35152 9.83445 2.14738 10.057C1.94324 10.2817 1.84194 10.5814 1.84194 10.9602V14.8186H0.047396ZM14.5707 14.1638C14.2089 14.483 13.5004 14.8252 13.0138 14.9355C12.827 14.9796 12.6234 15.0005 12.4032 15.0005C11.8812 15.0005 11.4441 14.8149 11.0922 14.4454C10.7403 14.0738 10.565 13.6009 10.565 13.0265C10.565 12.5652 10.6551 12.1898 10.8336 11.8988C11.0138 11.606 11.2672 11.3759 11.5959 11.2078C11.9212 11.0409 12.3264 10.9206 12.8087 10.8496C13.2907 10.7787 13.791 10.7252 14.308 10.6927V10.658C14.308 9.15904 12.1891 9.34563 11.283 9.98635L10.9692 8.80555C11.6774 8.46988 12.3744 8.29985 13.2405 8.29985C14.7597 8.29985 16.0428 9.03465 16.0428 10.7908V14.8321H14.5707V14.1638ZM14.4285 12.9409V11.7322C14.1547 11.7588 13.8561 11.7941 13.5357 11.8388C13.2161 11.8851 12.9732 11.9382 12.8075 11.9979C12.6049 12.0707 12.4487 12.1795 12.3431 12.3189C12.2347 12.4602 12.1808 12.6439 12.1808 12.874C12.1808 14.4617 14.0184 13.9463 14.4285 12.9409Z" fill="currentColor" fill-opacity="1"/>
<path fill-rule="evenodd" clip-rule="evenodd" d="M20.056 4.55711C20.6102 5.1822 21.6418 6.87682 22.8629 6.77212C25.724 6.52677 27.3534 3.40537 30.8855 3.62822C32.3365 3.71948 33.0199 6.17516 34.4588 6.38675C36.7267 6.72024 38.8995 3.20159 42.5957 3.4035C44.1155 3.48664 44.7434 6.06264 46.2583 6.2111C47.6702 6.34987 49.882 4.3302 51.8259 3.28317C51.3312 2.44211 50.4114 1.12879 49.4322 1.06222C47.5048 0.931258 45.9627 3.416 44.2676 2.98219C43.2807 2.72965 42.1571 -0.00481727 40.5317 0.000496014C37.5228 0.0104975 35.4464 3.01625 32.7863 3.25348C31.2768 3.38818 30.551 0.000808525 28.5294 0.312417C25.763 0.738417 22.9357 3.03844 20.056 4.55711Z" fill="currentColor" fill-opacity="1"/>
</svg>
