<svg viewBox="0 0 61 20" fill="none" xmlns="http://www.w3.org/2000/svg">
<path fill-rule="evenodd" clip-rule="evenodd" d="M20.676 0.551913H28.5244L28.529 3.69782L26.5971 3.69437L31.1773 14.5533L35.6817 3.70472H33.6946V0.561106L39.9744 0.55766L39.9652 2.35023L32.4078 20C30.5839 20.0046 29.3972 19.3434 28.7613 17.9602L22.5366 3.70472L20.6749 3.70127L20.676 0.551913ZM9.88148 0C15.3391 0 19.763 4.4544 19.763 9.94824C19.763 15.4421 15.3391 19.8954 9.88148 19.8954C4.42384 19.8954 0 15.4421 0 9.94824C0 4.4544 4.42384 0 9.88148 0ZM9.85158 3.25514C13.2934 3.25514 16.0831 6.28492 16.0831 10.0218C16.0831 13.7599 13.2934 16.7885 9.85158 16.7885C6.40865 16.7885 3.61888 13.7599 3.61888 10.0218C3.61888 6.28492 6.40865 3.25514 9.85158 3.25514ZM51.1185 0C56.5762 0 61 4.4544 61 9.94824C61 15.4421 56.5762 19.8954 51.1185 19.8954C45.6609 19.8954 41.237 15.4421 41.237 9.94824C41.237 4.4544 45.6609 0 51.1185 0ZM51.0886 3.25514C54.5304 3.25514 57.3202 6.28492 57.3202 10.0218C57.3202 13.7599 54.5304 16.7885 51.0886 16.7885C47.6457 16.7885 44.8559 13.7599 44.8559 10.0218C44.8559 6.28492 47.6457 3.25514 51.0886 3.25514Z" fill="currentColor"/>
</svg>
