<svg width="26" height="30" viewBox="0 0 26 30" fill="none" xmlns="http://www.w3.org/2000/svg">
<path d="M22.1008 13.7H3.90078C2.46484 13.7 1.30078 14.864 1.30078 16.3V25.4C1.30078 26.8359 2.46484 28 3.90078 28H22.1008C23.5367 28 24.7008 26.8359 24.7008 25.4V16.3C24.7008 14.864 23.5367 13.7 22.1008 13.7Z" stroke="white" stroke-width="2.5" stroke-linecap="round" stroke-linejoin="round"/>
<path d="M6.5 13.7V8.5C6.5 6.77609 7.18482 5.12279 8.40381 3.90381C9.62279 2.68482 11.2761 2 13 2C14.7239 2 16.3772 2.68482 17.5962 3.90381C18.8152 5.12279 19.5 6.77609 19.5 8.5V13.7" stroke="white" stroke-width="2.5" stroke-linecap="round" stroke-linejoin="round"/>
</svg>
