<svg width="21" height="20" viewBox="0 0 21 20" fill="none" xmlns="http://www.w3.org/2000/svg">
<circle cx="10.9707" cy="10" r="7" stroke="#BDD0DB" stroke-width="1.5"/>
<circle cx="10.6895" cy="10" r="3" stroke="#BDD0DB" stroke-width="2"/>
<path fill-rule="evenodd" clip-rule="evenodd" d="M9.66522 12.5421C9.80246 12.611 9.94636 12.6686 10.0957 12.7137V16.5618H11.8457V12.6512C11.9728 12.6027 12.0954 12.5448 12.2125 12.4784L14.9924 15.2584L16.2298 14.0209L13.3773 11.1684C13.4174 11.073 13.4522 10.9749 13.4813 10.8743L17.5332 10.8743V9.26239C17.5691 9.54335 17.5876 9.82974 17.5876 10.1204C17.5876 13.8254 14.5841 16.8288 10.8792 16.8288C7.17432 16.8288 4.1709 13.8254 4.1709 10.1204C4.1709 6.68058 6.75997 3.84543 10.0957 3.45738V7.52718C10.0055 7.5544 9.91722 7.58621 9.83123 7.62233L6.94906 4.74016L5.71162 5.97759L8.52124 8.78721C8.46007 8.89516 8.4061 9.00773 8.35998 9.12427H4.4082L4.4082 10.8743L8.27719 10.8743C8.31927 11.0198 8.37322 11.1602 8.43793 11.2945L5.71159 14.0209L6.94903 15.2583L9.66522 12.5421ZM10.3 3.43677C10.4909 3.42044 10.6841 3.41211 10.8792 3.41211C11.0744 3.41211 11.2676 3.42044 11.4585 3.43677H10.3ZM11.8457 3.48121V7.58964C11.9164 7.61664 11.9856 7.64652 12.0533 7.67914L14.9469 4.78558C14.0606 4.10882 13.0008 3.64788 11.8457 3.48121ZM16.1882 6.01912L13.3009 8.90643C13.3365 8.97732 13.3691 9.04999 13.3985 9.12427H17.5141C17.3417 7.9661 16.8733 6.90458 16.1882 6.01912Z" fill="#BDD0DB"/>
</svg>
