<svg width="13" height="16" viewBox="0 0 13 16" fill="none" xmlns="http://www.w3.org/2000/svg">
<ellipse cx="6.31383" cy="3.84152" rx="5.32164" ry="2.34152" stroke="#BDD0DB" stroke-width="1.5"/>
<path d="M0.992188 3.62891C0.992188 3.62891 0.992188 5.40801 0.992188 6.28972C0.992188 7.17144 3.29874 8.34243 6.2378 8.34243C9.17686 8.34243 11.6355 7.17144 11.6355 6.28972C11.6355 5.84962 11.6355 3.62891 11.6355 3.62891" stroke="#BDD0DB" stroke-width="1.5"/>
<path d="M0.992188 5.75781C0.992188 5.75781 0.992188 7.53691 0.992188 8.41863C0.992188 9.30035 3.37477 10.3952 6.31383 10.3952C9.25288 10.3952 11.6355 9.30035 11.6355 8.41863C11.6355 7.97853 11.6355 5.75781 11.6355 5.75781" stroke="#BDD0DB" stroke-width="1.5"/>
<path d="M0.992188 7.88574C0.992188 7.88574 0.992188 9.66484 0.992188 10.5466C0.992188 11.4283 3.29874 12.4471 6.2378 12.4471C9.17686 12.4471 11.6355 11.4283 11.6355 10.5466C11.6355 10.1065 11.6355 7.88574 11.6355 7.88574" stroke="#BDD0DB" stroke-width="1.5"/>
<path d="M0.992188 10.0146C0.992188 10.0146 0.992188 11.7937 0.992188 12.6755C0.992188 13.5572 3.37477 14.5001 6.31383 14.5001C9.25288 14.5001 11.6355 13.5572 11.6355 12.6755C11.6355 12.2354 11.6355 10.0146 11.6355 10.0146" stroke="#BDD0DB" stroke-width="1.5"/>
</svg>
