<svg width="16" height="17" viewBox="0 0 16 17" fill="none" xmlns="http://www.w3.org/2000/svg">
<path d="M14.3085 1.75002C13.7585 1.34169 12.9668 1.73335 12.9668 2.42502V2.50835C12.9668 3.48335 12.2668 4.38335 11.2918 4.48335C10.1668 4.60002 9.21683 3.71669 9.21683 2.61669V1.75002C9.21683 1.29169 8.84183 0.916687 8.3835 0.916687H7.61683C7.1585 0.916687 6.7835 1.29169 6.7835 1.75002V2.61669C6.7835 3.27502 6.44183 3.85835 5.92516 4.18335C5.85016 4.23335 5.76683 4.27502 5.6835 4.31669C5.6085 4.35835 5.52516 4.39169 5.4335 4.41669C5.3335 4.45002 5.22516 4.47502 5.1085 4.48335C4.97516 4.50002 4.84183 4.50002 4.7085 4.48335C4.59183 4.47502 4.4835 4.45002 4.3835 4.41669C4.30016 4.39169 4.21683 4.35835 4.1335 4.31669C4.05016 4.27502 3.96683 4.23335 3.89183 4.18335C3.36683 3.81669 3.0335 3.18335 3.0335 2.50835V2.42502C3.0335 1.78335 2.35016 1.40002 1.8085 1.67502C1.80016 1.68335 1.79183 1.68335 1.7835 1.69169C1.75016 1.70835 1.72516 1.72502 1.69183 1.75002C1.66683 1.77502 1.6335 1.79169 1.6085 1.81669C1.37516 2.00002 1.16683 2.20835 0.991829 2.43335C0.900163 2.53335 0.825163 2.64169 0.758496 2.75002C0.750163 2.75835 0.741829 2.76669 0.733496 2.78335C0.658496 2.89169 0.591829 3.01669 0.533496 3.13335C0.516829 3.15002 0.508496 3.15835 0.508496 3.17502C0.458496 3.27502 0.408496 3.37502 0.375163 3.48335C0.350163 3.52502 0.341829 3.55835 0.325163 3.60002C0.275163 3.72502 0.24183 3.85002 0.208496 3.97502C0.175163 4.09169 0.150163 4.21669 0.133496 4.34169C0.116829 4.43335 0.108496 4.52502 0.100163 4.62502C0.0918294 4.74169 0.0834961 4.85835 0.0834961 4.97502V12.275C0.0834961 14.5167 1.90016 16.3334 4.14183 16.3334H11.8585C14.1002 16.3334 15.9168 14.5167 15.9168 12.275V4.97502C15.9168 3.65002 15.2835 2.49169 14.3085 1.75002ZM8.00016 12.5167H4.1335C3.79183 12.5167 3.5085 12.2334 3.5085 11.8917C3.5085 11.5417 3.79183 11.2584 4.1335 11.2584H8.00016C8.35016 11.2584 8.62516 11.5417 8.62516 11.8917C8.62516 12.2334 8.35016 12.5167 8.00016 12.5167ZM10.3168 9.42502H4.1335C3.79183 9.42502 3.5085 9.14169 3.5085 8.80002C3.5085 8.45002 3.79183 8.16669 4.1335 8.16669H10.3168C10.6668 8.16669 10.9502 8.45002 10.9502 8.80002C10.9502 9.14169 10.6668 9.42502 10.3168 9.42502Z" fill="#D3F2FF"/>
</svg>
