<svg width="21" height="20" viewBox="0 0 21 20" fill="none" xmlns="http://www.w3.org/2000/svg">
<rect x="5.95898" y="5.30566" width="7.83333" height="10.9444" rx="1.25" stroke="#BDD0DB" stroke-width="1.5"/>
<path fill-rule="evenodd" clip-rule="evenodd" d="M8.71214 4.5H14.0455C14.3216 4.5 14.5455 4.72386 14.5455 5V13.4444C14.5455 13.5272 14.5254 13.6052 14.4898 13.6739V14.9999C14.4898 15.1382 14.4758 15.2733 14.449 15.4037C15.3601 15.217 16.0455 14.4108 16.0455 13.4444V5C16.0455 3.89543 15.15 3 14.0455 3H8.71214C7.74591 3 6.93972 3.68517 6.75293 4.59615C6.88327 4.56945 7.01823 4.55542 7.15647 4.55542H8.48311C8.55173 4.52 8.6296 4.5 8.71214 4.5Z" fill="#BDD0DB"/>
<path d="M9.08146 8.70653C9.4817 8.18285 10.2702 8.18285 10.6705 8.70653L11.5973 9.91921C11.8713 10.2777 11.8713 10.7752 11.5973 11.1337L10.6705 12.3464C10.2702 12.8701 9.4817 12.8701 9.08146 12.3464L8.15461 11.1337C7.88063 10.7752 7.88063 10.2777 8.15461 9.91921L9.08146 8.70653Z" fill="#BDD0DB"/>
</svg>
