<svg width="17" height="16" viewBox="0 0 17 16" fill="none" xmlns="http://www.w3.org/2000/svg">
<circle cx="8.28418" cy="8" r="7" stroke="#BDD0DB" stroke-width="1.5"/>
<path fill-rule="evenodd" clip-rule="evenodd" d="M8.22168 11.875C10.3963 11.875 12.1592 10.1121 12.1592 7.9375C12.1592 5.76288 10.3963 4 8.22168 4C6.04706 4 4.28418 5.76288 4.28418 7.9375C4.28418 10.1121 6.04706 11.875 8.22168 11.875ZM9.63857 8.9252C9.63649 9.61763 8.97733 10.125 8.05617 10.125C7.12669 10.125 6.46961 9.61763 6.47169 8.9252C6.46961 8.39288 6.85845 7.9479 7.36166 7.86472V7.83561C6.92291 7.73996 6.62764 7.3532 6.62972 6.89158C6.62764 6.23449 7.23066 5.75 8.05617 5.75C8.87544 5.75 9.47846 6.23657 9.48054 6.89158C9.47846 7.3532 9.17903 7.73996 8.7486 7.83561V7.86472C9.24349 7.9479 9.63649 8.39288 9.63857 8.9252ZM7.26601 8.87114C7.26185 9.26414 7.57376 9.5303 8.05617 9.5303C8.53235 9.5303 8.84217 9.26414 8.84633 8.87114C8.84217 8.46566 8.50947 8.17455 8.05617 8.17455C7.59663 8.17455 7.26185 8.46358 7.26601 8.87114ZM7.38245 6.96435C7.37829 7.33448 7.66109 7.59024 8.05617 7.59024C8.44501 7.59024 8.72573 7.33656 8.72989 6.96435C8.72573 6.59838 8.45333 6.35302 8.05617 6.35302C7.65277 6.35302 7.37829 6.59838 7.38245 6.96435Z" fill="#BDD0DB"/>
</svg>
