<svg width="44" height="54" viewBox="0 0 44 54" fill="none" xmlns="http://www.w3.org/2000/svg">
<path d="M3.8155 11.1603L17.8155 2.56832C20.3827 0.992792 23.6173 0.992793 26.1845 2.56832L40.1178 11.1194C42.5246 12.5964 43.9743 15.2329 43.9324 18.0564L43.6696 35.7776C43.6287 38.5317 42.1739 41.0711 39.8187 42.4994L26.1547 50.7857C23.6303 52.3165 20.468 52.3326 17.9282 50.8276L3.9217 42.5278C1.49071 41.0873 0 38.4711 0 35.6454V17.9786C0 15.1971 1.4448 12.6152 3.8155 11.1603Z" fill="currentColor"/>
<path d="M7.36989 14.5136L18.8801 7.50685C20.7964 6.3403 23.2035 6.3403 25.1198 7.50686L36.5794 14.4828C38.3953 15.5882 39.4906 17.5719 39.4589 19.6976L39.2448 34.014C39.2138 36.087 38.1148 37.9971 36.3382 39.0658L25.1002 45.8257C23.216 46.9591 20.8628 46.971 18.9671 45.8568L7.44941 39.087C5.61577 38.0093 4.48975 36.0413 4.48975 33.9144V19.6387C4.48975 17.5448 5.58134 15.6024 7.36989 14.5136Z" fill="#062338"/>
<g filter="url(#filter0_i_701_7528)">
<path d="M21.5757 33.6496C21.8806 33.5244 21.9991 32.9455 22.0203 32.6716L22.8207 32.5673L24.1294 33.2714C23.9769 34.6693 22.9308 35.8663 22.4523 36.1793L21.385 34.9405L21.8424 34.6406L21.9199 34.715C22.1747 34.4732 22.7025 33.7957 22.7745 33.0201L22.5046 32.9278C22.2405 33.5217 21.8653 33.7197 21.7027 33.7539L21.5757 33.6496Z" fill="url(#paint0_linear_701_7528)"/>
<mask id="mask0_701_7528" style="mask-type:alpha" maskUnits="userSpaceOnUse" x="21" y="32" width="4" height="5">
<path d="M21.5757 33.6496C21.8806 33.5244 21.9991 32.9455 22.0203 32.6716L22.8207 32.5673L24.1294 33.2714C23.9769 34.6693 22.9308 35.8663 22.4523 36.1793L21.385 34.9405L21.8424 34.6406L21.9199 34.715C22.1747 34.4732 22.7025 33.7957 22.7745 33.0201L22.5046 32.9278C22.2405 33.5217 21.8653 33.7197 21.7027 33.7539L21.5757 33.6496Z" fill="url(#paint1_linear_701_7528)"/>
</mask>
<g mask="url(#mask0_701_7528)">
<g style="mix-blend-mode:overlay">
<path d="M22.0457 34.8901L21.5882 35.1889L21.2244 34.8901C21.2279 34.8687 21.3575 34.7493 21.8482 34.4419C22.3389 34.1346 22.6349 33.3251 22.7216 32.9587L22.3161 32.8307C22.2495 33.3002 21.8656 33.6523 21.6819 33.7697L21.318 33.567L21.8482 32.5532L22.3992 32.7347L23.1167 32.9587C23.0667 33.838 22.4304 34.6127 22.1185 34.8901L21.921 34.7408L22.0457 34.8901Z" fill="url(#paint2_linear_701_7528)"/>
</g>
</g>
<path d="M25.153 22.7712C24.3392 22.8489 23.2905 23.7431 22.9436 24.1962L26.0898 26.5026C26.0819 26.2113 26.1277 25.4149 26.3736 24.5604C26.5442 23.9681 27.562 23.6085 28.0531 23.565C27.375 23.2575 25.8967 22.7003 25.153 22.7712Z" fill="url(#paint3_linear_701_7528)"/>
<mask id="mask1_701_7528" style="mask-type:alpha" maskUnits="userSpaceOnUse" x="22" y="22" width="7" height="5">
<path d="M25.153 22.7712C24.3392 22.8489 23.2905 23.7431 22.9436 24.1962L26.0898 26.5026C26.0819 26.2113 26.1277 25.4149 26.3736 24.5604C26.5442 23.9681 27.562 23.6085 28.0531 23.565C27.375 23.2575 25.8967 22.7003 25.153 22.7712Z" fill="#C4C4C4"/>
</mask>
<g mask="url(#mask1_701_7528)">
<path d="M25.4944 23.2498C25.1519 23.3903 24.1449 24.3308 23.6972 24.8307L22.5913 24.1416C23.0653 23.6754 23.8868 22.8605 24.8032 22.6822C25.7196 22.5039 27.6208 23.1754 28.2791 23.6145C27.5023 23.4659 26.0869 23.0065 25.4944 23.2498Z" fill="url(#paint4_linear_701_7528)"/>
</g>
<path d="M31.2256 31.2872C31.107 31.7157 30.8985 32.0723 30.6591 32.3029C30.4191 32.5341 30.153 32.6348 29.9156 32.5655C29.8567 32.5483 29.7778 32.5228 29.7134 32.5015C29.6812 32.4909 29.6527 32.4813 29.6324 32.4744L29.6155 32.4687C29.6131 32.4611 29.61 32.4509 29.6062 32.4383C29.5971 32.408 29.5844 32.3639 29.5696 32.3089C29.54 32.1988 29.5026 32.0451 29.4707 31.871C29.4069 31.5211 29.3672 31.0943 29.4568 30.771C29.4949 30.6334 29.5755 30.4781 29.6766 30.3214C29.7774 30.165 29.8975 30.0091 30.0129 29.8705C30.1284 29.7319 30.239 29.611 30.3207 29.5247C30.3616 29.4816 30.3952 29.4472 30.4186 29.4235C30.4281 29.414 30.4358 29.4061 30.4417 29.4003C30.446 29.4016 30.4511 29.4032 30.457 29.4052C30.479 29.4126 30.5123 29.4253 30.5561 29.4463C30.6438 29.4883 30.7739 29.5634 30.9407 29.6951C31.1035 29.8237 31.2333 30.0076 31.2934 30.2652C31.3538 30.5234 31.3446 30.8578 31.2256 31.2872Z" fill="url(#paint5_linear_701_7528)" stroke="url(#paint6_linear_701_7528)" stroke-width="0.1"/>
<path d="M30.9363 31.2026C30.8176 31.6309 30.608 31.9872 30.3669 32.2174C30.1252 32.448 29.8565 32.5481 29.6162 32.478C29.3758 32.4079 29.1987 32.1776 29.1114 31.851C29.0243 31.5251 29.0288 31.1089 29.1474 30.6806C29.2661 30.2523 29.4757 29.8959 29.7169 29.6658C29.9585 29.4352 30.2272 29.3351 30.4675 29.4052C30.7079 29.4753 30.885 29.7056 30.9723 30.0322C31.0594 30.3581 31.0549 30.7743 30.9363 31.2026Z" fill="#6D533B"/>
<path d="M30.9363 31.2026C30.8176 31.6309 30.608 31.9872 30.3669 32.2174C30.1252 32.448 29.8565 32.5481 29.6162 32.478C29.3758 32.4079 29.1987 32.1776 29.1114 31.851C29.0243 31.5251 29.0288 31.1089 29.1474 30.6806C29.2661 30.2523 29.4757 29.8959 29.7169 29.6658C29.9585 29.4352 30.2272 29.3351 30.4675 29.4052C30.7079 29.4753 30.885 29.7056 30.9723 30.0322C31.0594 30.3581 31.0549 30.7743 30.9363 31.2026Z" fill="url(#paint7_radial_701_7528)"/>
<path d="M30.9363 31.2026C30.8176 31.6309 30.608 31.9872 30.3669 32.2174C30.1252 32.448 29.8565 32.5481 29.6162 32.478C29.3758 32.4079 29.1987 32.1776 29.1114 31.851C29.0243 31.5251 29.0288 31.1089 29.1474 30.6806C29.2661 30.2523 29.4757 29.8959 29.7169 29.6658C29.9585 29.4352 30.2272 29.3351 30.4675 29.4052C30.7079 29.4753 30.885 29.7056 30.9723 30.0322C31.0594 30.3581 31.0549 30.7743 30.9363 31.2026Z" stroke="url(#paint8_linear_701_7528)" stroke-width="0.1"/>
<path d="M29.6997 33.0235C29.6202 32.7121 29.5317 32.333 29.5317 32.333C30.0122 32.2982 30.3505 31.9371 30.3505 31.9371L30.5235 32.0981C30.5235 32.0981 30.6557 32.1438 30.7958 32.2035C30.7958 33.0544 30.8127 33.3357 30.8542 33.5817C30.8868 33.7749 30.9941 34.2141 31.2778 34.5467C30.9859 34.4599 30.4793 34.2013 30.2667 34.0697C30.0541 33.9381 29.8861 33.7531 29.6997 33.0235Z" fill="url(#paint9_linear_701_7528)"/>
<mask id="mask2_701_7528" style="mask-type:alpha" maskUnits="userSpaceOnUse" x="29" y="31" width="3" height="4">
<path d="M29.6997 33.0235C29.6202 32.7121 29.5317 32.333 29.5317 32.333C30.0122 32.2982 30.3505 31.9371 30.3505 31.9371L30.5235 32.0981C30.5235 32.0981 30.6557 32.1438 30.7958 32.2035C30.7958 33.0544 30.8127 33.3357 30.8542 33.5817C30.8868 33.7749 30.9941 34.2141 31.2778 34.5467C30.9859 34.4599 30.4793 34.2013 30.2667 34.0697C30.0541 33.9381 29.8861 33.7531 29.6997 33.0235Z" fill="url(#paint10_linear_701_7528)"/>
</mask>
<g mask="url(#mask2_701_7528)">
<path d="M30.5314 33.759C30.4142 33.569 30.3519 32.3355 30.3748 31.8735C30.107 31.9697 29.4656 32.1139 29.3768 32.0589C29.3545 32.4027 29.4147 33.2341 29.8335 33.8094C30.2524 34.3848 31.0689 34.6154 31.4248 34.6588C31.1026 34.4519 30.6486 33.9489 30.5314 33.759Z" fill="url(#paint11_linear_701_7528)"/>
</g>
<path d="M30.6282 29.0486C30.3482 29.2983 30.2778 29.3885 30.2778 29.3885C30.5936 29.6016 30.7673 30.0532 30.7673 30.0532L30.9143 29.9596C30.9143 29.9596 31.066 29.9384 31.2422 30.0172C31.6531 29.3885 31.8562 29.1451 32.2176 28.891C32.3839 28.7742 32.5332 28.6784 32.9999 28.581C32.7128 28.4692 32.2091 28.327 31.9155 28.327C31.622 28.327 31.4601 28.3067 30.6282 29.0486Z" fill="url(#paint12_linear_701_7528)"/>
<mask id="mask3_701_7528" style="mask-type:alpha" maskUnits="userSpaceOnUse" x="30" y="28" width="3" height="3">
<path d="M30.6282 29.0486C30.3482 29.2983 30.2778 29.3885 30.2778 29.3885C30.5936 29.6016 30.7673 30.0532 30.7673 30.0532L30.9143 29.9596C30.9143 29.9596 31.066 29.9384 31.2422 30.0172C31.6531 29.3885 31.8562 29.1451 32.2176 28.891C32.3839 28.7742 32.5332 28.6784 32.9999 28.581C32.7128 28.4692 32.2091 28.327 31.9155 28.327C31.622 28.327 31.4601 28.3067 30.6282 29.0486Z" fill="url(#paint13_linear_701_7528)"/>
</mask>
<g mask="url(#mask3_701_7528)">
<path d="M31.9017 28.7138C31.7475 28.7945 31.1994 29.1708 30.7281 30.16C30.4793 29.8776 30.0171 29.5441 30.0171 29.3807C30.199 29.0186 30.4674 28.7217 31.2339 28.4015C32.0003 28.0814 32.6945 28.3978 33.0807 28.5769C32.6314 28.5845 32.1694 28.5738 31.9017 28.7138Z" fill="url(#paint14_linear_701_7528)"/>
</g>
<path d="M30.3021 29.3711L28.5979 28.2296C29.1947 29.6084 28.2941 31.5685 28.0088 31.8764C28.3801 32.0192 29.1564 32.2856 29.3243 32.3341C29.5343 32.3948 30.5418 32.2929 30.7808 31.1573C31.0094 30.0707 30.659 29.6422 30.3021 29.3711Z" fill="url(#paint15_linear_701_7528)"/>
<path d="M15.1167 24.104L15.1868 22.3358C15.7211 22.2741 16.9097 22.5414 17.6709 23.1582C18.4322 23.7751 20.3454 26.1292 21.2069 27.2292L22.5592 28.9974L19.6343 30.1899L13.6242 28.4628C12.9991 27.7556 13.3638 26.6467 13.6242 26.1806C13.5922 26.9865 14.025 27.5376 14.5458 27.9694L18.0316 27.6609L17.08 25.1732L16.3487 23.4564L15.1167 24.104Z" fill="url(#paint16_radial_701_7528)"/>
<path style="mix-blend-mode:multiply" d="M15.1167 24.104L15.1868 22.3358C15.7211 22.2741 16.9097 22.5414 17.6709 23.1582C18.4322 23.7751 20.3454 26.1292 21.2069 27.2292L22.5592 28.9974L19.6343 30.1899L13.6242 28.4628C12.9991 27.7556 13.3638 26.6467 13.6242 26.1806C13.5922 26.9865 14.025 27.5376 14.5458 27.9694L18.0316 27.6609L17.08 25.1732L16.3487 23.4564L15.1167 24.104Z" fill="url(#paint17_linear_701_7528)"/>
<path d="M17.3705 21.3282L16.8096 20.1357L17.9314 20.3413L19.5341 22.2329L17.3705 21.3282Z" fill="#201A27"/>
<path d="M28.6326 31.3407C28.2599 32.2478 27.7083 32.9745 27.1195 33.4168C26.53 33.8596 25.9086 34.014 25.3911 33.79C25.2664 33.736 25.1006 33.6585 24.9656 33.5943C24.8982 33.5622 24.8386 33.5336 24.7959 33.5129L24.7455 33.4885L24.7423 33.487L24.7403 33.4764C24.737 33.4583 24.7322 33.4317 24.7262 33.3972C24.7143 33.3283 24.6978 33.2283 24.6798 33.1038C24.644 32.8548 24.6021 32.5083 24.578 32.1185C24.5299 31.3372 24.5539 30.3877 24.8372 29.698C24.9585 29.4029 25.1776 29.0826 25.4399 28.7673C25.7019 28.4524 26.0056 28.1442 26.2943 27.8729C26.5829 27.6017 26.8563 27.3678 27.0574 27.2018C27.1579 27.1188 27.2405 27.0527 27.2979 27.0075C27.3265 26.9848 27.3489 26.9674 27.3641 26.9556L27.3728 26.9489C27.3731 26.949 27.3735 26.9492 27.3739 26.9493C27.3857 26.9542 27.4037 26.9619 27.4274 26.9734C27.4748 26.9963 27.5454 27.034 27.6369 27.0926C27.8198 27.2099 28.0862 27.4112 28.4175 27.7462C28.7451 28.0775 28.9844 28.5225 29.0497 29.1103C29.1149 29.6988 29.0058 30.4325 28.6326 31.3407Z" fill="url(#paint18_linear_701_7528)" stroke="url(#paint19_linear_701_7528)" stroke-width="0.1"/>
<path d="M28.0236 31.0772C27.6508 31.9843 27.097 32.71 26.5044 33.1507C25.9113 33.5918 25.2845 33.7441 24.7611 33.5175C24.2376 33.2909 23.9063 32.7241 23.8 31.9803C23.6938 31.2372 23.8135 30.3235 24.1862 29.4165C24.5589 28.5094 25.1128 27.7837 25.7054 27.343C26.2985 26.9019 26.9253 26.7497 27.4487 26.9762C27.9722 27.2028 28.3035 27.7696 28.4097 28.5135C28.5159 29.2565 28.3963 30.1702 28.0236 31.0772Z" fill="#6D533B"/>
<path d="M28.0236 31.0772C27.6508 31.9843 27.097 32.71 26.5044 33.1507C25.9113 33.5918 25.2845 33.7441 24.7611 33.5175C24.2376 33.2909 23.9063 32.7241 23.8 31.9803C23.6938 31.2372 23.8135 30.3235 24.1862 29.4165C24.5589 28.5094 25.1128 27.7837 25.7054 27.343C26.2985 26.9019 26.9253 26.7497 27.4487 26.9762C27.9722 27.2028 28.3035 27.7696 28.4097 28.5135C28.5159 29.2565 28.3963 30.1702 28.0236 31.0772Z" fill="url(#paint20_radial_701_7528)"/>
<path d="M28.0236 31.0772C27.6508 31.9843 27.097 32.71 26.5044 33.1507C25.9113 33.5918 25.2845 33.7441 24.7611 33.5175C24.2376 33.2909 23.9063 32.7241 23.8 31.9803C23.6938 31.2372 23.8135 30.3235 24.1862 29.4165C24.5589 28.5094 25.1128 27.7837 25.7054 27.343C26.2985 26.9019 26.9253 26.7497 27.4487 26.9762C27.9722 27.2028 28.3035 27.7696 28.4097 28.5135C28.5159 29.2565 28.3963 30.1702 28.0236 31.0772Z" stroke="url(#paint21_linear_701_7528)" stroke-width="0.1"/>
<path d="M24.7828 33.4385C24.0711 33.4385 21.7111 32.7258 20.696 32.3488C21.4572 32.1638 22.6562 31.5097 23.6209 29.5115C24.7227 27.2293 23.6676 25.2691 23.2202 24.2274C24.6359 25.2691 27.3939 27.0763 27.6075 27.2498C28.0883 27.6405 28.4489 29.6349 27.5073 31.4031C26.5658 33.1712 25.2436 33.4385 24.7828 33.4385Z" fill="url(#paint22_linear_701_7528)"/>
<path style="mix-blend-mode:multiply" d="M24.7828 33.4385C24.0711 33.4385 21.7111 32.7258 20.696 32.3488C21.4572 32.1638 22.6562 31.5097 23.6209 29.5115C24.7227 27.2293 23.6676 25.2691 23.2202 24.2274C24.6359 25.2691 27.3939 27.0763 27.6075 27.2498C28.0883 27.6405 28.4489 29.6349 27.5073 31.4031C26.5658 33.1712 25.2436 33.4385 24.7828 33.4385Z" fill="url(#paint23_radial_701_7528)" fill-opacity="0.65"/>
<path style="mix-blend-mode:overlay" d="M24.7828 33.4385C24.0711 33.4385 21.7111 32.7258 20.696 32.3488C21.4572 32.1638 22.6562 31.5097 23.6209 29.5115C24.7227 27.2293 23.6676 25.2691 23.2202 24.2274C24.6359 25.2691 27.3939 27.0763 27.6075 27.2498C28.0883 27.6405 28.4489 29.6349 27.5073 31.4031C26.5658 33.1712 25.2436 33.4385 24.7828 33.4385Z" fill="url(#paint24_linear_701_7528)" fill-opacity="0.5"/>
<path d="M24.7829 33.4045C24.6087 33.4045 24.3308 33.3606 23.9937 33.288C23.6573 33.2154 23.2646 33.1147 22.862 33.0022C22.1085 32.7915 21.322 32.5397 20.8091 32.3541C21.5822 32.133 22.725 31.4439 23.6506 29.5266C24.672 27.4111 23.8525 25.5692 23.3677 24.4798C23.3444 24.4274 23.3219 24.3768 23.3004 24.3279C24.0047 24.8415 24.9943 25.5166 25.8464 26.0926C26.0837 26.253 26.31 26.4055 26.5166 26.5446C26.6994 26.6678 26.8667 26.7805 27.0128 26.8792C27.3245 27.09 27.5351 27.2343 27.587 27.2765C27.6995 27.3679 27.8096 27.5581 27.8957 27.8256C27.9813 28.0917 28.0416 28.4297 28.0577 28.8113C28.09 29.5745 27.9458 30.5088 27.4783 31.3867C26.5432 33.1427 25.233 33.4045 24.7829 33.4045Z" stroke="url(#paint25_linear_701_7528)" stroke-opacity="0.5" stroke-width="0.1"/>
<mask id="mask4_701_7528" style="mask-type:alpha" maskUnits="userSpaceOnUse" x="20" y="24" width="9" height="10">
<path d="M24.7828 33.4385C24.0711 33.4385 21.7111 32.7258 20.696 32.3488C21.4572 32.1638 22.6562 31.5097 23.6209 29.5115C24.7227 27.2293 23.6676 25.2691 23.2202 24.2274C24.6359 25.2691 27.3939 27.0763 27.6075 27.2498C28.0883 27.6405 28.4489 29.6349 27.5073 31.4031C26.5658 33.1712 25.2436 33.4385 24.7828 33.4385Z" fill="url(#paint26_linear_701_7528)"/>
<path d="M24.7828 33.4385C24.0711 33.4385 21.7111 32.7258 20.696 32.3488C21.4572 32.1638 22.6562 31.5097 23.6209 29.5115C24.7227 27.2293 23.6676 25.2691 23.2202 24.2274C24.6359 25.2691 27.3939 27.0763 27.6075 27.2498C28.0883 27.6405 28.4489 29.6349 27.5073 31.4031C26.5658 33.1712 25.2436 33.4385 24.7828 33.4385Z" fill="url(#paint27_radial_701_7528)" fill-opacity="0.65"/>
<path d="M24.7828 33.4385C24.0711 33.4385 21.7111 32.7258 20.696 32.3488C21.4572 32.1638 22.6562 31.5097 23.6209 29.5115C24.7227 27.2293 23.6676 25.2691 23.2202 24.2274C24.6359 25.2691 27.3939 27.0763 27.6075 27.2498C28.0883 27.6405 28.4489 29.6349 27.5073 31.4031C26.5658 33.1712 25.2436 33.4385 24.7828 33.4385Z" fill="url(#paint28_linear_701_7528)" fill-opacity="0.5"/>
<path d="M24.7829 33.4045C24.6087 33.4045 24.3308 33.3606 23.9937 33.288C23.6573 33.2154 23.2646 33.1147 22.862 33.0022C22.1085 32.7915 21.322 32.5397 20.8091 32.3541C21.5822 32.133 22.725 31.4439 23.6506 29.5266C24.672 27.4111 23.8525 25.5692 23.3677 24.4798C23.3444 24.4274 23.3219 24.3768 23.3004 24.3279C24.0047 24.8415 24.9943 25.5166 25.8464 26.0926C26.0837 26.253 26.31 26.4055 26.5166 26.5446C26.6994 26.6678 26.8667 26.7805 27.0128 26.8792C27.3245 27.09 27.5351 27.2343 27.587 27.2765C27.6995 27.3679 27.8096 27.5581 27.8957 27.8256C27.9813 28.0917 28.0416 28.4297 28.0577 28.8113C28.09 29.5745 27.9458 30.5088 27.4783 31.3867C26.5432 33.1427 25.233 33.4045 24.7829 33.4045Z" stroke="url(#paint29_linear_701_7528)" stroke-opacity="0.5" stroke-width="0.1"/>
</mask>
<g mask="url(#mask4_701_7528)">
<g style="mix-blend-mode:multiply">
<path d="M24.0948 29.241C22.9742 32.1615 20.9593 32.6568 20.0549 32.5749L19.3071 32.0254L21.8605 23.6722L23.1 23.8984C23.5389 24.3898 25.1034 26.6124 24.0948 29.241Z" fill="#603B30" fill-opacity="0.5"/>
</g>
<g style="mix-blend-mode:multiply">
<path d="M23.9526 26.954L24.379 26.8391L28.3149 29.1002L28.2419 29.6823L24.4075 27.6588L23.9526 27.7534V26.954Z" fill="#6D5752"/>
</g>
<g style="mix-blend-mode:multiply">
<path d="M22.1753 31.4596L22.3163 31.7998L26.5011 33.3407L26.7758 33.0129L22.8211 31.3605L22.5792 30.9591L22.1753 31.4596Z" fill="#6D5752"/>
</g>
<g filter="url(#filter1_i_701_7528)">
<path d="M30.5017 36.4612C29.2238 34.87 28.9103 33.1785 29.0436 32.4785L27.5404 32.0735L27.2988 31.7379L27.0521 31.6392C26.7754 32.1331 26.286 32.6515 26.1919 32.732C26.4428 33.255 27.2279 34.3854 27.4913 34.675C27.7548 34.9647 29.2908 35.999 30.5017 36.4612Z" fill="url(#paint30_linear_701_7528)"/>
</g>
</g>
<path d="M21.0832 23.487L21.663 22.6936L22.9959 23.8603C23.3538 24.3304 23.7984 25.1182 24.0557 26.0531C24.3134 26.9896 24.3825 28.0715 23.9906 29.1292C22.9175 32.0254 20.9361 32.3948 20.42 32.3969L20.4126 32.3948L20.3788 32.3852C20.3495 32.3768 20.307 32.3645 20.2546 32.3488C20.1497 32.3174 20.0048 32.2725 19.845 32.2187C19.5276 32.1118 19.1544 31.9706 18.917 31.8301C18.8033 31.6399 18.7097 31.2621 18.6768 30.7392C18.6435 30.2116 18.6723 29.5411 18.8015 28.7777C19.0597 27.251 19.7189 25.3542 21.0832 23.487Z" fill="url(#paint31_linear_701_7528)" stroke="url(#paint32_linear_701_7528)" stroke-width="0.1"/>
<mask id="mask5_701_7528" style="mask-type:alpha" maskUnits="userSpaceOnUse" x="18" y="22" width="7" height="11">
<path d="M21.6576 22.6442L21.0566 23.4666C18.3211 27.2103 18.4122 31.074 18.8932 31.8553C19.3738 32.1431 20.4156 32.431 20.4156 32.431C20.9364 32.431 22.9397 32.0609 24.0215 29.1413C24.8118 27.0085 23.7411 24.7825 23.0199 23.8367L21.6576 22.6442Z" fill="#C4C4C4"/>
</mask>
<g mask="url(#mask5_701_7528)">
<g style="mix-blend-mode:multiply">
<path d="M21.5691 22.3053L21.5553 22.2589L21.5175 22.2879C18.8683 24.3168 17.5933 26.5161 17.2574 28.3063C16.922 30.0942 17.5237 31.4844 18.642 31.867C18.9506 31.9725 19.3478 31.9627 19.7775 31.8549C20.2076 31.747 20.6732 31.5403 21.12 31.2484C22.0134 30.6649 22.8362 29.7386 23.1518 28.5747C23.6964 26.5669 22.8898 24.7883 22.4063 24.0439C22.0233 23.4544 21.6615 22.6172 21.5691 22.3053Z" fill="url(#paint33_radial_701_7528)"/>
<path d="M21.5691 22.3053L21.5553 22.2589L21.5175 22.2879C18.8683 24.3168 17.5933 26.5161 17.2574 28.3063C16.922 30.0941 17.5237 31.4844 18.642 31.867C18.9506 31.9725 19.3478 31.9627 19.7775 31.8549C20.2076 31.747 20.6732 31.5403 21.12 31.2484C22.0134 30.6649 22.8362 29.7386 23.1518 28.5747C23.6964 26.5669 22.8898 24.7883 22.4063 24.0439C22.0233 23.4544 21.6615 22.6172 21.5691 22.3053Z" stroke="url(#paint34_linear_701_7528)" stroke-width="0.1"/>
</g>
</g>
<path d="M30.5017 36.4612C29.2238 34.87 28.9103 33.1785 29.0436 32.4785L27.5404 32.0735L27.2988 31.7379L27.0521 31.6392C26.7754 32.1331 26.286 32.6515 26.1919 32.732C26.4428 33.255 27.2279 34.3854 27.4913 34.675C27.7548 34.9647 29.2908 35.999 30.5017 36.4612Z" fill="url(#paint35_linear_701_7528)"/>
<mask id="mask6_701_7528" style="mask-type:alpha" maskUnits="userSpaceOnUse" x="26" y="31" width="5" height="6">
<path d="M30.5017 36.4612C29.2238 34.87 28.9103 33.1785 29.0436 32.4785L27.5404 32.0735L27.2988 31.7379L27.0521 31.6392C26.7754 32.1331 26.286 32.6515 26.1919 32.732C26.4428 33.255 27.2279 34.3854 27.4913 34.675C27.7548 34.9647 29.2908 35.999 30.5017 36.4612Z" fill="#C4C4C4"/>
</mask>
<g mask="url(#mask6_701_7528)">
<path d="M28.1907 34.4844C27.9331 34.154 27.3143 32.4008 27.0371 31.5656L25.8967 32.6257C25.9907 32.9653 26.2884 33.8373 26.7284 34.6083C27.1685 35.3793 29.5054 36.2238 30.6189 36.5497C29.9168 35.999 28.4483 34.8149 28.1907 34.4844Z" fill="url(#paint36_linear_701_7528)"/>
</g>
<path d="M14.9461 23.2943C15.1664 23.3457 21.8876 26.2035 21.8876 26.2035C22.2282 28.3007 20.6055 29.8428 19.5037 30.3156C19.5037 30.3156 13.4437 26.7278 13.2534 26.5428C13.063 26.3577 13.0489 25.6945 13.5738 24.641C14.2449 23.2943 14.7257 23.2429 14.9461 23.2943Z" fill="url(#paint37_linear_701_7528)"/>
<path d="M14.9461 23.2943C15.1664 23.3457 21.8876 26.2035 21.8876 26.2035C22.2282 28.3007 20.6055 29.8428 19.5037 30.3156C19.5037 30.3156 13.4437 26.7278 13.2534 26.5428C13.063 26.3577 13.0489 25.6945 13.5738 24.641C14.2449 23.2943 14.7257 23.2429 14.9461 23.2943Z" fill="url(#paint38_radial_701_7528)"/>
<mask id="mask7_701_7528" style="mask-type:alpha" maskUnits="userSpaceOnUse" x="13" y="23" width="9" height="8">
<path d="M14.9461 23.2943C15.1664 23.3457 21.8876 26.2035 21.8876 26.2035C22.2282 28.3007 20.6055 29.8428 19.5037 30.3156C19.5037 30.3156 13.4437 26.7278 13.2534 26.5428C13.063 26.3577 13.0489 25.6945 13.5738 24.641C14.2449 23.2943 14.7257 23.2429 14.9461 23.2943Z" fill="#C4C4C4"/>
</mask>
<g mask="url(#mask7_701_7528)">
<g style="mix-blend-mode:multiply">
<path d="M16.1579 26.142C16.4784 25.3196 16.6855 24.1613 16.6387 23.9009L21.5669 25.484C22.0878 25.7102 22.3512 26.7561 21.8073 28.2391C21.1062 30.1512 20.425 30.3774 20.0644 30.254L14.7756 27.9101C15.1162 27.6429 15.7573 27.17 16.1579 26.142Z" fill="#4C5159"/>
</g>
<path d="M13.2834 26.5746C13.5838 26.7317 14.1921 26.124 14.6421 25.2174C15.0922 24.3107 15.2135 23.4484 14.9131 23.2913C14.6127 23.1343 14.0043 23.7419 13.5543 24.6486C13.1043 25.5553 12.983 26.4176 13.2834 26.5746Z" fill="url(#paint39_linear_701_7528)"/>
<path d="M13.343 26.407C13.5915 26.5369 14.1221 25.9792 14.5281 25.1612C14.9341 24.3432 15.0618 23.5748 14.8133 23.4449C14.5648 23.3149 14.0341 23.8727 13.6281 24.6907C13.2221 25.5086 13.0945 26.2771 13.343 26.407Z" fill="url(#paint40_radial_701_7528)"/>
<g style="mix-blend-mode:multiply">
<path fill-rule="evenodd" clip-rule="evenodd" d="M14.1886 23.5174L15.3994 23.1496C15.8304 23.4041 16.2417 24.2471 16.2417 24.8906L17.2945 24.1304L17.663 24.4737C17.663 24.4737 17.6114 25.0033 17.545 25.3368C17.4716 25.7049 17.4331 25.9125 17.4331 25.9125C17.6788 25.7572 18.3747 25.3368 19.1107 25.6508L19.3964 25.9125C19.1946 26.3948 19.1107 27.0639 19.1107 27.539C19.4879 27.351 20.1777 27.2901 20.5847 27.539L20.9794 29.0104L21.9533 28.667L22.5588 29.2801C22.9711 28.3237 23.5803 26.4824 21.6901 24.4737C19.8 22.4651 15.8732 19.8391 14.5571 17.8528C14.1272 18.0163 13.4359 18.9795 13.6358 20.4521C13.8357 21.9247 14.1886 22.3894 14.1886 23.5174ZM17.0096 21.7155L16.7577 21.1091H17.545L18.8885 22.5858L17.0096 21.7155Z" fill="url(#paint41_radial_701_7528)" fill-opacity="0.75"/>
</g>
<g style="mix-blend-mode:multiply">
<path d="M22.0408 28.1535L22.7219 28.6675C22.1209 30.3741 20.3462 31.2651 19.5048 31.361C14.7289 31.3281 12.1192 28.5785 11.4114 27.2077L12.0324 27.1049C12.385 27.9109 13.969 27.5778 14.7169 27.3105C14.9092 26.5539 14.9958 25.9947 15.2094 25.7686C15.4498 27.3105 16.2311 27.7834 16.6718 27.9479C16.772 27.3311 17.393 26.8582 17.7536 26.4676C17.6574 27.5861 18.555 28.5647 18.9757 28.832L19.176 28.4208C19.2962 27.804 19.8972 27.5778 20.358 27.3105L20.9991 28.832L22.0408 28.1535Z" fill="url(#paint42_radial_701_7528)"/>
</g>
</g>
<g filter="url(#filter2_i_701_7528)">
<path d="M21.9782 28.5449L22.5792 29.0589C21.9782 30.7654 19.9348 31.6564 19.0935 31.7523C14.3175 31.7194 11.7078 28.9698 11 27.5991L11.621 27.4963C11.9736 28.3023 13.5576 27.9692 14.3055 27.7019C14.4978 26.9453 14.9732 26.3038 15.1868 26.0776C15.1868 27.7019 16.1285 28.7505 16.4891 28.7505C16.6494 27.887 17.2904 27.0919 17.7512 26.7973C17.655 27.9157 18.0316 28.8807 18.232 29.2233L18.8129 29.5523C19.0533 28.4503 19.9282 27.8115 20.3355 27.7019L20.9165 29.3262L21.9782 28.5449Z" fill="url(#paint43_radial_701_7528)"/>
<path d="M21.9782 28.5449L22.5792 29.0589C21.9782 30.7654 19.9348 31.6564 19.0935 31.7523C14.3175 31.7194 11.7078 28.9698 11 27.5991L11.621 27.4963C11.9736 28.3023 13.5576 27.9692 14.3055 27.7019C14.4978 26.9453 14.9732 26.3038 15.1868 26.0776C15.1868 27.7019 16.1285 28.7505 16.4891 28.7505C16.6494 27.887 17.2904 27.0919 17.7512 26.7973C17.655 27.9157 18.0316 28.8807 18.232 29.2233L18.8129 29.5523C19.0533 28.4503 19.9282 27.8115 20.3355 27.7019L20.9165 29.3262L21.9782 28.5449Z" fill="url(#paint44_radial_701_7528)"/>
</g>
<mask id="mask8_701_7528" style="mask-type:alpha" maskUnits="userSpaceOnUse" x="11" y="26" width="12" height="6">
<path d="M21.9782 28.5449L22.5792 29.0589C21.9782 30.7654 19.9348 31.6564 19.0935 31.7523C14.3175 31.7194 11.7078 28.9698 11 27.5991L11.621 27.4963C11.9736 28.3023 13.5576 27.9692 14.3055 27.7019C14.4978 26.9453 14.9732 26.3038 15.1868 26.0776C15.1868 27.7019 16.1285 28.7505 16.4891 28.7505C16.6494 27.887 17.2904 27.0919 17.7512 26.7973C17.655 27.9157 18.0316 28.8807 18.232 29.2233L18.8129 29.5523C19.0533 28.4503 19.9282 27.8115 20.3355 27.7019L20.9165 29.3262L21.9782 28.5449Z" fill="url(#paint45_radial_701_7528)"/>
<path d="M21.9782 28.5449L22.5792 29.0589C21.9782 30.7654 19.9348 31.6564 19.0935 31.7523C14.3175 31.7194 11.7078 28.9698 11 27.5991L11.621 27.4963C11.9736 28.3023 13.5576 27.9692 14.3055 27.7019C14.4978 26.9453 14.9732 26.3038 15.1868 26.0776C15.1868 27.7019 16.1285 28.7505 16.4891 28.7505C16.6494 27.887 17.2904 27.0919 17.7512 26.7973C17.655 27.9157 18.0316 28.8807 18.232 29.2233L18.8129 29.5523C19.0533 28.4503 19.9282 27.8115 20.3355 27.7019L20.9165 29.3262L21.9782 28.5449Z" fill="url(#paint46_radial_701_7528)"/>
</mask>
<g mask="url(#mask8_701_7528)">
<path d="M16.4959 29.2166C15.2138 28.1475 15.0668 26.6123 15.2071 26.0366C15.6879 27.3854 16.339 27.9556 16.6195 28.0104C16.4431 28.4052 16.4959 28.9664 16.4959 29.2166Z" fill="#7E6243"/>
<path d="M18.1621 29.4085C17.6813 28.4627 17.6479 27.4038 17.7414 26.8179L18.8231 29.4085C18.7831 29.647 18.9934 29.9808 19.1036 30.1179L18.1621 29.4085Z" fill="#7E6243"/>
<path d="M21.0367 29.7169L20.2854 27.5991L21.0367 29.0178L21.9482 28.4627L22.0283 28.5449L21.0367 29.7169Z" fill="#7E6243"/>
</g>
<g filter="url(#filter3_i_701_7528)">
<path fill-rule="evenodd" clip-rule="evenodd" d="M14.6085 22.9554L15.764 22.5687C15.9566 23.0241 16.3869 24.0278 16.5677 24.399L17.5725 23.5998L17.9242 23.9608L17.5725 25.8427C17.807 25.6794 18.4818 25.3219 19.3057 25.1982L19.7578 25.6364C19.5653 26.1434 19.17 27.2709 19.1298 27.7246C19.4899 27.527 20.3104 27.142 20.7123 27.1832L21.0891 28.73L22.0185 28.3691L22.5962 29.0136C22.9898 28.0082 23.5712 26.0723 21.7673 23.9608C19.9635 21.8492 16.2161 19.0884 14.9601 17.0002C14.5499 17.1721 13.8902 18.1848 14.081 19.7329C14.2717 21.281 14.6085 21.7695 14.6085 22.9554ZM17.3007 21.061L17.0603 20.4236H17.8115L19.0936 21.9759L17.3007 21.061Z" fill="url(#paint47_radial_701_7528)"/>
<path fill-rule="evenodd" clip-rule="evenodd" d="M14.6085 22.9554L15.764 22.5687C15.9566 23.0241 16.3869 24.0278 16.5677 24.399L17.5725 23.5998L17.9242 23.9608L17.5725 25.8427C17.807 25.6794 18.4818 25.3219 19.3057 25.1982L19.7578 25.6364C19.5653 26.1434 19.17 27.2709 19.1298 27.7246C19.4899 27.527 20.3104 27.142 20.7123 27.1832L21.0891 28.73L22.0185 28.3691L22.5962 29.0136C22.9898 28.0082 23.5712 26.0723 21.7673 23.9608C19.9635 21.8492 16.2161 19.0884 14.9601 17.0002C14.5499 17.1721 13.8902 18.1848 14.081 19.7329C14.2717 21.281 14.6085 21.7695 14.6085 22.9554ZM17.3007 21.061L17.0603 20.4236H17.8115L19.0936 21.9759L17.3007 21.061Z" fill="url(#paint48_radial_701_7528)"/>
</g>
<mask id="mask9_701_7528" style="mask-type:alpha" maskUnits="userSpaceOnUse" x="14" y="17" width="10" height="13">
<path fill-rule="evenodd" clip-rule="evenodd" d="M14.6085 22.9554L15.764 22.5687C15.9566 23.0241 16.3869 24.0278 16.5677 24.399L17.5725 23.5998L17.9242 23.9608L17.5725 25.8427C17.807 25.6794 18.4818 25.3219 19.3057 25.1982L19.7578 25.6364C19.5653 26.1434 19.17 27.2709 19.1298 27.7246C19.4899 27.527 20.3104 27.142 20.7123 27.1832L21.0891 28.73L22.0185 28.3691L22.5962 29.0136C22.9898 28.0082 23.5712 26.0723 21.7673 23.9608C19.9635 21.8492 16.2161 19.0884 14.9601 17.0002C14.5499 17.1721 13.8902 18.1848 14.081 19.7329C14.2717 21.281 14.6085 21.7695 14.6085 22.9554ZM17.3007 21.061L17.0603 20.4236H17.8115L19.0936 21.9759L17.3007 21.061Z" fill="#C4C4C4"/>
</mask>
<g mask="url(#mask9_701_7528)">
<path d="M14.7487 21.9838L14.5759 23.1891L16.0033 23.1377L15.5275 21.9838H14.7487Z" fill="#6C4A32"/>
<g style="mix-blend-mode:multiply">
<path fill-rule="evenodd" clip-rule="evenodd" d="M14.8863 16.9489C14.8329 17.5383 14.8863 19.0542 15.5274 20.403C15.748 20.8672 16.0623 21.8777 16.0623 21.8777L16.5291 24.3917C16.5291 24.3917 17.3305 23.5076 17.5992 23.3226L18.0116 22.9525L17.7712 23.5076L18.0116 23.7338L18.3922 23.5076L17.5992 25.8104C17.5992 25.8104 18.2723 25.452 18.7127 25.2553C19.1531 25.0586 19.8546 24.803 19.8546 24.803L19.494 25.1525L19.8546 25.4198L20.2753 25.1525L19.0733 27.8254C19.8145 27.2497 20.9684 26.8014 21.8178 26.9824L20.9765 27.2702L21.1167 28.874L20.4556 27.4758L18.5724 28.4833L19.3337 25.6871L17.2303 26.2011L13.504 23.117C12.903 21.3282 12.3381 17.5903 14.8863 16.9489ZM14.7462 21.9861H15.5274L15.7729 22.5953L14.5859 23.117L14.7462 21.9861Z" fill="url(#paint49_radial_701_7528)"/>
<path fill-rule="evenodd" clip-rule="evenodd" d="M14.8863 16.9489C14.8329 17.5383 14.8863 19.0542 15.5274 20.403C15.748 20.8672 16.0623 21.8777 16.0623 21.8777L16.5291 24.3917C16.5291 24.3917 17.3305 23.5076 17.5992 23.3226L18.0116 22.9525L17.7712 23.5076L18.0116 23.7338L18.3922 23.5076L17.5992 25.8104C17.5992 25.8104 18.2723 25.452 18.7127 25.2553C19.1531 25.0586 19.8546 24.803 19.8546 24.803L19.494 25.1525L19.8546 25.4198L20.2753 25.1525L19.0733 27.8254C19.8145 27.2497 20.9684 26.8014 21.8178 26.9824L20.9765 27.2702L21.1167 28.874L20.4556 27.4758L18.5724 28.4833L19.3337 25.6871L17.2303 26.2011L13.504 23.117C12.903 21.3282 12.3381 17.5903 14.8863 16.9489ZM14.7462 21.9861H15.5274L15.7729 22.5953L14.5859 23.117L14.7462 21.9861Z" fill="url(#paint50_linear_701_7528)" fill-opacity="0.2"/>
</g>
</g>
</g>
<defs>
<filter id="filter0_i_701_7528" x="11" y="17.0002" width="22" height="21.4609" filterUnits="userSpaceOnUse" color-interpolation-filters="sRGB">
<feFlood flood-opacity="0" result="BackgroundImageFix"/>
<feBlend mode="normal" in="SourceGraphic" in2="BackgroundImageFix" result="shape"/>
<feColorMatrix in="SourceAlpha" type="matrix" values="0 0 0 0 0 0 0 0 0 0 0 0 0 0 0 0 0 0 127 0" result="hardAlpha"/>
<feOffset dy="2"/>
<feGaussianBlur stdDeviation="1"/>
<feComposite in2="hardAlpha" operator="arithmetic" k2="-1" k3="1"/>
<feColorMatrix type="matrix" values="0 0 0 0 0 0 0 0 0 0 0 0 0 0 0 0 0 0 0.5 0"/>
<feBlend mode="normal" in2="shape" result="effect1_innerShadow_701_7528"/>
</filter>
<filter id="filter1_i_701_7528" x="26.1919" y="31.5192" width="4.30981" height="4.94202" filterUnits="userSpaceOnUse" color-interpolation-filters="sRGB">
<feFlood flood-opacity="0" result="BackgroundImageFix"/>
<feBlend mode="normal" in="SourceGraphic" in2="BackgroundImageFix" result="shape"/>
<feColorMatrix in="SourceAlpha" type="matrix" values="0 0 0 0 0 0 0 0 0 0 0 0 0 0 0 0 0 0 127 0" result="hardAlpha"/>
<feOffset dy="-0.12"/>
<feGaussianBlur stdDeviation="0.25"/>
<feComposite in2="hardAlpha" operator="arithmetic" k2="-1" k3="1"/>
<feColorMatrix type="matrix" values="0 0 0 0 0.283333 0 0 0 0 0.172408 0 0 0 0 0.0920833 0 0 0 1 0"/>
<feBlend mode="normal" in2="shape" result="effect1_innerShadow_701_7528"/>
</filter>
<filter id="filter2_i_701_7528" x="11" y="26.0776" width="11.5793" height="5.72468" filterUnits="userSpaceOnUse" color-interpolation-filters="sRGB">
<feFlood flood-opacity="0" result="BackgroundImageFix"/>
<feBlend mode="normal" in="SourceGraphic" in2="BackgroundImageFix" result="shape"/>
<feColorMatrix in="SourceAlpha" type="matrix" values="0 0 0 0 0 0 0 0 0 0 0 0 0 0 0 0 0 0 127 0" result="hardAlpha"/>
<feOffset dy="0.1"/>
<feGaussianBlur stdDeviation="0.025"/>
<feComposite in2="hardAlpha" operator="arithmetic" k2="-1" k3="1"/>
<feColorMatrix type="matrix" values="0 0 0 0 1 0 0 0 0 0.933333 0 0 0 0 0.933333 0 0 0 0.75 0"/>
<feBlend mode="normal" in2="shape" result="effect1_innerShadow_701_7528"/>
</filter>
<filter id="filter3_i_701_7528" x="14.0471" y="17.0002" width="8.96143" height="12.0633" filterUnits="userSpaceOnUse" color-interpolation-filters="sRGB">
<feFlood flood-opacity="0" result="BackgroundImageFix"/>
<feBlend mode="normal" in="SourceGraphic" in2="BackgroundImageFix" result="shape"/>
<feColorMatrix in="SourceAlpha" type="matrix" values="0 0 0 0 0 0 0 0 0 0 0 0 0 0 0 0 0 0 127 0" result="hardAlpha"/>
<feOffset dy="0.2"/>
<feGaussianBlur stdDeviation="0.025"/>
<feComposite in2="hardAlpha" operator="arithmetic" k2="-1" k3="1"/>
<feColorMatrix type="matrix" values="0 0 0 0 1 0 0 0 0 0.933333 0 0 0 0 0.933333 0 0 0 0.75 0"/>
<feBlend mode="normal" in2="shape" result="effect1_innerShadow_701_7528"/>
</filter>
<linearGradient id="paint0_linear_701_7528" x1="23.5036" y1="32.3119" x2="21.6942" y2="35.5322" gradientUnits="userSpaceOnUse">
<stop offset="0.166667" stop-color="#543019"/>
<stop offset="0.748381" stop-color="#A08060"/>
</linearGradient>
<linearGradient id="paint1_linear_701_7528" x1="23.5036" y1="32.3119" x2="21.6942" y2="35.5322" gradientUnits="userSpaceOnUse">
<stop offset="0.166667" stop-color="#543019"/>
<stop offset="0.748381" stop-color="#A08060"/>
</linearGradient>
<linearGradient id="paint2_linear_701_7528" x1="22.5033" y1="32.628" x2="21.174" y2="34.8601" gradientUnits="userSpaceOnUse">
<stop offset="0.149762" stop-color="#C4C4C4" stop-opacity="0"/>
<stop offset="0.918875" stop-color="#C4C4C4"/>
</linearGradient>
<linearGradient id="paint3_linear_701_7528" x1="25.4984" y1="22.7651" x2="25.4984" y2="26.3508" gradientUnits="userSpaceOnUse">
<stop stop-color="#CFB786"/>
<stop offset="0.960432" stop-color="#5A3F2E"/>
</linearGradient>
<linearGradient id="paint4_linear_701_7528" x1="23.6973" y1="24.5267" x2="26.4995" y2="22.0064" gradientUnits="userSpaceOnUse">
<stop offset="0.373144" stop-color="#DFCBA4"/>
<stop offset="0.579811" stop-color="#FFEECE"/>
<stop offset="0.621838" stop-color="#F8DFAD"/>
<stop offset="0.900109" stop-color="#CCA97B"/>
</linearGradient>
<linearGradient id="paint5_linear_701_7528" x1="30.7566" y1="29.0797" x2="29.7701" y2="33.1122" gradientUnits="userSpaceOnUse">
<stop offset="0.32623" stop-color="#F8DFAD"/>
<stop offset="0.598958" stop-color="#704B2E"/>
<stop offset="1" stop-color="#88674E"/>
</linearGradient>
<linearGradient id="paint6_linear_701_7528" x1="30.7759" y1="29.46" x2="31.6806" y2="31.3639" gradientUnits="userSpaceOnUse">
<stop stop-color="#FFF2C2"/>
<stop offset="1" stop-color="#FFF4CF" stop-opacity="0"/>
</linearGradient>
<radialGradient id="paint7_radial_701_7528" cx="0" cy="0" r="1" gradientUnits="userSpaceOnUse" gradientTransform="translate(29.8359 31.1394) rotate(79.8455) scale(2.19226 1.5899)">
<stop offset="0.590192" stop-color="#47210B" stop-opacity="0.38"/>
<stop offset="1" stop-color="#F8DFAD"/>
</radialGradient>
<linearGradient id="paint8_linear_701_7528" x1="30.4766" y1="29.3725" x2="31.3751" y2="31.2902" gradientUnits="userSpaceOnUse">
<stop stop-color="#FFF2C2"/>
<stop offset="1" stop-color="#FFF4CF" stop-opacity="0"/>
</linearGradient>
<linearGradient id="paint9_linear_701_7528" x1="31.2528" y1="34.5703" x2="31.1966" y2="31.9367" gradientUnits="userSpaceOnUse">
<stop offset="0.0001" stop-color="#665230"/>
<stop offset="0.586935" stop-color="#724D33"/>
</linearGradient>
<linearGradient id="paint10_linear_701_7528" x1="31.2528" y1="34.5703" x2="31.1966" y2="31.9367" gradientUnits="userSpaceOnUse">
<stop offset="0.0001" stop-color="#665230"/>
<stop offset="0.586935" stop-color="#724D33"/>
</linearGradient>
<linearGradient id="paint11_linear_701_7528" x1="30.2612" y1="33.9698" x2="29.6312" y2="32.3106" gradientUnits="userSpaceOnUse">
<stop stop-color="#836336"/>
<stop offset="0.139718" stop-color="#AA905E"/>
<stop offset="0.323357" stop-color="#9A814E"/>
<stop offset="1" stop-color="#462712"/>
</linearGradient>
<linearGradient id="paint12_linear_701_7528" x1="32.1874" y1="28.6661" x2="31.4687" y2="31.1443" gradientUnits="userSpaceOnUse">
<stop offset="0.0001" stop-color="#A68D66"/>
<stop offset="1" stop-color="#724D33"/>
</linearGradient>
<linearGradient id="paint13_linear_701_7528" x1="32.1874" y1="28.6661" x2="31.4687" y2="31.1443" gradientUnits="userSpaceOnUse">
<stop offset="0.0001" stop-color="#A68D66"/>
<stop offset="1" stop-color="#724D33"/>
</linearGradient>
<linearGradient id="paint14_linear_701_7528" x1="31.4306" y1="28.255" x2="30.2229" y2="29.9845" gradientUnits="userSpaceOnUse">
<stop stop-color="#C7AD89"/>
<stop offset="0.139718" stop-color="#F4E2C0"/>
<stop offset="0.292657" stop-color="#D8BF8E"/>
<stop offset="1" stop-color="#A7826A"/>
</linearGradient>
<linearGradient id="paint15_linear_701_7528" x1="30.712" y1="28.4669" x2="28.5787" y2="33.1596" gradientUnits="userSpaceOnUse">
<stop offset="0.0781331" stop-color="#F8DFAD"/>
<stop offset="0.679881" stop-color="#60432F"/>
<stop offset="1" stop-color="#76563F"/>
</linearGradient>
<radialGradient id="paint16_radial_701_7528" cx="0" cy="0" r="1" gradientUnits="userSpaceOnUse" gradientTransform="translate(19.5341 27.3525) rotate(-150.309) scale(7.67932 7.92898)">
<stop offset="0.43833" stop-color="#442011"/>
<stop offset="1" stop-color="#BC946B"/>
</radialGradient>
<linearGradient id="paint17_linear_701_7528" x1="17.9191" y1="22.3271" x2="13.9383" y2="28.6792" gradientUnits="userSpaceOnUse">
<stop offset="0.172061" stop-color="#ACA18B"/>
<stop offset="0.252868" stop-color="#CBC1B8" stop-opacity="0.89039"/>
<stop offset="0.772058" stop-color="#C7C0BB" stop-opacity="0.55706"/>
<stop offset="0.934186" stop-color="#AB9B91"/>
</linearGradient>
<linearGradient id="paint18_linear_701_7528" x1="28.1487" y1="26.3828" x2="24.9026" y2="34.8874" gradientUnits="userSpaceOnUse">
<stop offset="0.32623" stop-color="#F8DFAD"/>
<stop offset="0.598958" stop-color="#704B2E"/>
<stop offset="1" stop-color="#88674E"/>
</linearGradient>
<linearGradient id="paint19_linear_701_7528" x1="28.0916" y1="27.2174" x2="29.548" y2="31.6237" gradientUnits="userSpaceOnUse">
<stop stop-color="#FFF2C2"/>
<stop offset="1" stop-color="#FFF4CF" stop-opacity="0"/>
</linearGradient>
<radialGradient id="paint20_radial_701_7528" cx="0" cy="0" r="1" gradientUnits="userSpaceOnUse" gradientTransform="translate(25.6043 30.6218) rotate(86.6637) scale(4.81933 3.48998)">
<stop offset="0.590192" stop-color="#47210B" stop-opacity="0.38"/>
<stop offset="1" stop-color="#F8DFAD"/>
</radialGradient>
<linearGradient id="paint21_linear_701_7528" x1="27.4617" y1="26.9449" x2="28.9006" y2="31.3797" gradientUnits="userSpaceOnUse">
<stop stop-color="#FFF2C2"/>
<stop offset="1" stop-color="#FFF4CF" stop-opacity="0"/>
</linearGradient>
<linearGradient id="paint22_linear_701_7528" x1="27.4673" y1="26.633" x2="24.6406" y2="33.2838" gradientUnits="userSpaceOnUse">
<stop stop-color="#C8A789"/>
<stop offset="0.420444" stop-color="#F6DEAC"/>
<stop offset="1" stop-color="#836045"/>
</linearGradient>
<radialGradient id="paint23_radial_701_7528" cx="0" cy="0" r="1" gradientUnits="userSpaceOnUse" gradientTransform="translate(22.2786 28.4218) rotate(110.136) scale(6.28501 6.32496)">
<stop offset="0.0892346" stop-color="#2E0303"/>
<stop offset="1" stop-color="#250B03" stop-opacity="0"/>
</radialGradient>
<linearGradient id="paint24_linear_701_7528" x1="27.4673" y1="26.633" x2="24.6406" y2="33.2838" gradientUnits="userSpaceOnUse">
<stop stop-color="#C8A789"/>
<stop offset="0.420444" stop-color="#E1D4B8"/>
<stop offset="1" stop-color="#645E5A"/>
</linearGradient>
<linearGradient id="paint25_linear_701_7528" x1="25.0057" y1="24.4446" x2="26.7152" y2="27.9844" gradientUnits="userSpaceOnUse">
<stop offset="0.00855286" stop-color="white"/>
<stop offset="1" stop-color="white" stop-opacity="0"/>
</linearGradient>
<linearGradient id="paint26_linear_701_7528" x1="27.4673" y1="26.633" x2="24.6406" y2="33.2838" gradientUnits="userSpaceOnUse">
<stop stop-color="#C8A789"/>
<stop offset="0.420444" stop-color="#F6DEAC"/>
<stop offset="1" stop-color="#836045"/>
</linearGradient>
<radialGradient id="paint27_radial_701_7528" cx="0" cy="0" r="1" gradientUnits="userSpaceOnUse" gradientTransform="translate(22.2786 28.4218) rotate(110.136) scale(6.28501 6.32496)">
<stop offset="0.0892346" stop-color="#2E0303"/>
<stop offset="1" stop-color="#250B03" stop-opacity="0"/>
</radialGradient>
<linearGradient id="paint28_linear_701_7528" x1="27.4673" y1="26.633" x2="24.6406" y2="33.2838" gradientUnits="userSpaceOnUse">
<stop stop-color="#C8A789"/>
<stop offset="0.420444" stop-color="#E1D4B8"/>
<stop offset="1" stop-color="#645E5A"/>
</linearGradient>
<linearGradient id="paint29_linear_701_7528" x1="25.0057" y1="24.4446" x2="26.7152" y2="27.9844" gradientUnits="userSpaceOnUse">
<stop offset="0.00855286" stop-color="white"/>
<stop offset="1" stop-color="white" stop-opacity="0"/>
</linearGradient>
<linearGradient id="paint30_linear_701_7528" x1="29.7914" y1="31.833" x2="26.156" y2="33.5754" gradientUnits="userSpaceOnUse">
<stop stop-color="#C7AF83"/>
<stop offset="1" stop-color="#5C402C"/>
</linearGradient>
<linearGradient id="paint31_linear_701_7528" x1="24.2999" y1="22.0685" x2="18.6307" y2="32.3079" gradientUnits="userSpaceOnUse">
<stop offset="0.215353" stop-color="#CFB787"/>
<stop offset="0.443374" stop-color="#F8DFAD"/>
<stop offset="0.65174" stop-color="#815C40"/>
<stop offset="0.893027" stop-color="#88674E"/>
</linearGradient>
<linearGradient id="paint32_linear_701_7528" x1="23.2403" y1="22.8292" x2="23.1066" y2="24.4406" gradientUnits="userSpaceOnUse">
<stop offset="0.00855286" stop-color="white"/>
<stop offset="1" stop-color="white" stop-opacity="0"/>
</linearGradient>
<radialGradient id="paint33_radial_701_7528" cx="0" cy="0" r="1" gradientUnits="userSpaceOnUse" gradientTransform="translate(22.539 29.7581) rotate(-120.403) scale(8.62957 5.56528)">
<stop stop-color="#77513F"/>
<stop offset="0.466803" stop-color="#745547"/>
<stop offset="1" stop-color="#F0C1AB"/>
</radialGradient>
<linearGradient id="paint34_linear_701_7528" x1="20.8361" y1="22.5413" x2="19.1715" y2="32.273" gradientUnits="userSpaceOnUse">
<stop offset="0.00855286" stop-color="white"/>
<stop offset="1" stop-color="#351919" stop-opacity="0.1"/>
</linearGradient>
<linearGradient id="paint35_linear_701_7528" x1="29.7914" y1="31.833" x2="26.156" y2="33.5754" gradientUnits="userSpaceOnUse">
<stop stop-color="#C7AF83"/>
<stop offset="1" stop-color="#5C402C"/>
</linearGradient>
<linearGradient id="paint36_linear_701_7528" x1="26.1" y1="32.5423" x2="30.2422" y2="36.4421" gradientUnits="userSpaceOnUse">
<stop stop-color="#674431"/>
<stop offset="0.225859" stop-color="#BEA37A"/>
<stop offset="0.398269" stop-color="#EDDAB0"/>
<stop offset="0.464964" stop-color="#BEA37A"/>
</linearGradient>
<linearGradient id="paint37_linear_701_7528" x1="17.5332" y1="23.282" x2="14.7635" y2="28.7163" gradientUnits="userSpaceOnUse">
<stop offset="0.253238" stop-color="#6F5031"/>
<stop offset="0.424916" stop-color="#E1B88D"/>
<stop offset="0.526988" stop-color="#E1B88D"/>
<stop offset="0.707902" stop-color="#A47748"/>
<stop offset="0.877313" stop-color="#34200B"/>
</linearGradient>
<radialGradient id="paint38_radial_701_7528" cx="0" cy="0" r="1" gradientUnits="userSpaceOnUse" gradientTransform="translate(13.4936 24.5999) rotate(29.7038) scale(8.67203 7.81291)">
<stop offset="0.409036" stop-color="#6A372E" stop-opacity="0"/>
<stop offset="0.882267" stop-color="#624021"/>
</radialGradient>
<linearGradient id="paint39_linear_701_7528" x1="15.1263" y1="25.4633" x2="13.3689" y2="24.7056" gradientUnits="userSpaceOnUse">
<stop stop-color="#F8DFAD"/>
<stop offset="1" stop-color="#F8DFAD" stop-opacity="0"/>
</linearGradient>
<radialGradient id="paint40_radial_701_7528" cx="0" cy="0" r="1" gradientUnits="userSpaceOnUse" gradientTransform="translate(13.6738 24.6204) rotate(27.165) scale(2.16163 4.8464)">
<stop offset="0.0104167" stop-color="#342D35"/>
<stop offset="0.534521" stop-color="#1B1624"/>
</radialGradient>
<radialGradient id="paint41_radial_701_7528" cx="0" cy="0" r="1" gradientUnits="userSpaceOnUse" gradientTransform="translate(14.9891 27.1461) rotate(7.32112) scale(8.06738 6.58722)">
<stop offset="0.424604" stop-color="#917A4C" stop-opacity="0.24"/>
<stop offset="1" stop-color="#593815"/>
</radialGradient>
<radialGradient id="paint42_radial_701_7528" cx="0" cy="0" r="1" gradientUnits="userSpaceOnUse" gradientTransform="translate(17.5533 27.3105) rotate(104.954) scale(4.1924 8.50905)">
<stop offset="0.120024" stop-color="#9F8C8C" stop-opacity="0"/>
<stop offset="0.666171" stop-color="#918282"/>
</radialGradient>
<radialGradient id="paint43_radial_701_7528" cx="0" cy="0" r="1" gradientUnits="userSpaceOnUse" gradientTransform="translate(15.9082 27.1057) rotate(95.9719) scale(6.7393 19.812)">
<stop offset="0.266314" stop-color="#C5A176"/>
<stop offset="1" stop-color="#73502F"/>
</radialGradient>
<radialGradient id="paint44_radial_701_7528" cx="0" cy="0" r="1" gradientUnits="userSpaceOnUse" gradientTransform="translate(16.7896 27.7842) rotate(99.9779) scale(4.50927 9.21592)">
<stop offset="0.461541" stop-color="#F2D8A6" stop-opacity="0.37"/>
<stop offset="0.68404" stop-color="#542E20" stop-opacity="0.43"/>
<stop offset="0.994396" stop-color="#BC8C88"/>
</radialGradient>
<radialGradient id="paint45_radial_701_7528" cx="0" cy="0" r="1" gradientUnits="userSpaceOnUse" gradientTransform="translate(15.9082 27.1057) rotate(95.9719) scale(6.7393 19.812)">
<stop offset="0.266314" stop-color="#C5A176"/>
<stop offset="1" stop-color="#73502F"/>
</radialGradient>
<radialGradient id="paint46_radial_701_7528" cx="0" cy="0" r="1" gradientUnits="userSpaceOnUse" gradientTransform="translate(16.7896 27.7842) rotate(99.9779) scale(4.50927 9.21592)">
<stop offset="0.461541" stop-color="#F2D8A6" stop-opacity="0.37"/>
<stop offset="0.68404" stop-color="#542E20" stop-opacity="0.43"/>
<stop offset="0.994396" stop-color="#BC8C88"/>
</radialGradient>
<radialGradient id="paint47_radial_701_7528" cx="0" cy="0" r="1" gradientUnits="userSpaceOnUse" gradientTransform="translate(16.4092 17.6685) rotate(58.8964) scale(12.7747 9.66493)">
<stop offset="0.476909" stop-color="#F8DFAD"/>
<stop offset="1" stop-color="#BC946B"/>
</radialGradient>
<radialGradient id="paint48_radial_701_7528" cx="0" cy="0" r="1" gradientUnits="userSpaceOnUse" gradientTransform="translate(15.5678 22.0273) rotate(45.4825) scale(12.5721 9.62401)">
<stop offset="0.55935" stop-color="#765A3B" stop-opacity="0"/>
<stop offset="1" stop-color="#63421E"/>
</radialGradient>
<radialGradient id="paint49_radial_701_7528" cx="0" cy="0" r="1" gradientUnits="userSpaceOnUse" gradientTransform="translate(12.8831 22.0478) rotate(30.5945) scale(12.0788 9.29132)">
<stop stop-color="#B48C64"/>
<stop offset="1" stop-color="#B48C64" stop-opacity="0"/>
</radialGradient>
<linearGradient id="paint50_linear_701_7528" x1="21.8179" y1="28.874" x2="17.0977" y2="24.5347" gradientUnits="userSpaceOnUse">
<stop offset="0.450039" stop-color="#4D3B2B"/>
<stop offset="1" stop-color="white" stop-opacity="0"/>
</linearGradient>
</defs>
</svg>
