<svg width="44" height="54" viewBox="0 0 44 54" fill="none" xmlns="http://www.w3.org/2000/svg">
<path d="M3.8155 11.16L17.8155 2.56808C20.3827 0.992548 23.6173 0.992549 26.1845 2.56808L40.1178 11.1191C42.5246 12.5962 43.9743 15.2326 43.9324 18.0561L43.6696 35.7773C43.6287 38.5315 42.1739 41.0709 39.8187 42.4991L26.1547 50.7854C23.6303 52.3163 20.468 52.3324 17.9282 50.8274L3.9217 42.5275C1.49071 41.087 0 38.4709 0 35.6452V17.9784C0 15.1968 1.4448 12.615 3.8155 11.16Z" fill="currentColor"/>
<path d="M7.36989 14.5136L18.8801 7.50685C20.7964 6.3403 23.2035 6.3403 25.1198 7.50686L36.5794 14.4828C38.3953 15.5882 39.4906 17.5719 39.4589 19.6976L39.2448 34.014C39.2138 36.087 38.1148 37.9971 36.3382 39.0658L25.1002 45.8257C23.216 46.9591 20.8628 46.971 18.9671 45.8568L7.44941 39.087C5.61577 38.0093 4.48975 36.0413 4.48975 33.9144V19.6387C4.48975 17.5448 5.58134 15.6024 7.36989 14.5136Z" fill="#062338"/>
<path fill-rule="evenodd" clip-rule="evenodd" d="M17.4079 20.5419C14.6131 20.5419 12.4662 23.0172 12.8615 25.784L13.0539 27.1309L14.2675 31.3783C14.6193 32.6096 15.7447 33.4585 17.0252 33.4585C18.0012 33.4585 18.9101 32.9623 19.4379 32.1414L19.7499 31.6561C20.8028 30.0182 23.197 30.0182 24.25 31.6561L24.4408 31.9529C25.044 32.8913 26.083 33.4585 27.1986 33.4585C28.8301 33.4585 30.2133 32.2589 30.4441 30.6437L31.1383 25.784C31.5336 23.0172 29.3867 20.5419 26.5919 20.5419C25.9493 20.5419 25.3139 20.6767 24.7267 20.9377L24.2842 21.1344C23.4297 21.5141 23.0838 21.6644 22.7353 21.7383C22.2505 21.8413 21.7494 21.8413 21.2645 21.7383C20.916 21.6644 20.5701 21.5141 19.7156 21.1344L19.2732 20.9377C18.6859 20.6767 18.0505 20.5419 17.4079 20.5419ZM17.8332 23.8752C18.1784 23.8752 18.4582 24.155 18.4582 24.5002V25.5419H19.4999C19.8451 25.5419 20.1249 25.8217 20.1249 26.1669C20.1249 26.512 19.8451 26.7919 19.4999 26.7919H18.4582V27.8335C18.4582 28.1787 18.1784 28.4585 17.8332 28.4585C17.488 28.4585 17.2082 28.1787 17.2082 27.8335V26.7919H16.1666C15.8214 26.7919 15.5416 26.512 15.5416 26.1669C15.5416 25.8217 15.8214 25.5419 16.1666 25.5419H17.2082V24.5002C17.2082 24.155 17.488 23.8752 17.8332 23.8752ZM26.1666 25.3335C26.6268 25.3335 26.9999 24.9604 26.9999 24.5002C26.9999 24.04 26.6268 23.6669 26.1666 23.6669C25.7064 23.6669 25.3333 24.04 25.3333 24.5002C25.3333 24.9604 25.7064 25.3335 26.1666 25.3335ZM24.4999 27.0002C24.9602 27.0002 25.3333 26.6271 25.3333 26.1669C25.3333 25.7066 24.9602 25.3335 24.4999 25.3335C24.0397 25.3335 23.6666 25.7066 23.6666 26.1669C23.6666 26.6271 24.0397 27.0002 24.4999 27.0002ZM28.6666 26.1669C28.6666 26.6271 28.2935 27.0002 27.8333 27.0002C27.373 27.0002 26.9999 26.6271 26.9999 26.1669C26.9999 25.7066 27.373 25.3335 27.8333 25.3335C28.2935 25.3335 28.6666 25.7066 28.6666 26.1669ZM26.1666 28.6669C26.6268 28.6669 26.9999 28.2938 26.9999 27.8335C26.9999 27.3733 26.6268 27.0002 26.1666 27.0002C25.7064 27.0002 25.3333 27.3733 25.3333 27.8335C25.3333 28.2938 25.7064 28.6669 26.1666 28.6669Z" fill="#1AA9E7"/>
</svg>
