<svg width="44" height="54" viewBox="0 0 44 54" fill="none" xmlns="http://www.w3.org/2000/svg">
<path d="M3.8155 11.1603L17.8155 2.56832C20.3827 0.992792 23.6173 0.992793 26.1845 2.56832L40.1178 11.1194C42.5246 12.5964 43.9743 15.2329 43.9324 18.0564L43.6696 35.7776C43.6287 38.5317 42.1739 41.0711 39.8187 42.4994L26.1547 50.7857C23.6303 52.3165 20.468 52.3326 17.9282 50.8276L3.9217 42.5278C1.49071 41.0873 0 38.4711 0 35.6454V17.9786C0 15.1971 1.4448 12.6152 3.8155 11.1603Z" fill="currentColor"/>
<path d="M7.36989 14.5136L18.8801 7.50685C20.7964 6.3403 23.2035 6.3403 25.1198 7.50686L36.5794 14.4828C38.3953 15.5882 39.4906 17.5719 39.4589 19.6976L39.2448 34.014C39.2138 36.087 38.1148 37.9971 36.3382 39.0658L25.1002 45.8257C23.216 46.9591 20.8628 46.971 18.9671 45.8568L7.44941 39.087C5.61577 38.0093 4.48975 36.0413 4.48975 33.9144V19.6387C4.48975 17.5448 5.58134 15.6024 7.36989 14.5136Z" fill="#062338"/>
<g filter="url(#filter0_i_701_7431)">
<path d="M22 36.4739C26.9706 36.4739 31 32.3385 31 27.2371C31 22.1357 26.9706 18.0002 22 18.0002C17.0294 18.0002 13 22.1357 13 27.2371C13 32.3385 17.0294 36.4739 22 36.4739Z" fill="url(#paint0_radial_701_7431)"/>
<path d="M22 36.4739C26.9706 36.4739 31 32.3385 31 27.2371C31 22.1357 26.9706 18.0002 22 18.0002C17.0294 18.0002 13 22.1357 13 27.2371C13 32.3385 17.0294 36.4739 22 36.4739Z" fill="url(#paint1_radial_701_7431)"/>
<path d="M22 36.4739C26.9706 36.4739 31 32.3385 31 27.2371C31 22.1357 26.9706 18.0002 22 18.0002C17.0294 18.0002 13 22.1357 13 27.2371C13 32.3385 17.0294 36.4739 22 36.4739Z" fill="url(#paint2_radial_701_7431)"/>
<path d="M22 36.4739C26.9706 36.4739 31 32.3385 31 27.2371C31 22.1357 26.9706 18.0002 22 18.0002C17.0294 18.0002 13 22.1357 13 27.2371C13 32.3385 17.0294 36.4739 22 36.4739Z" stroke="url(#paint3_linear_701_7431)" stroke-width="0.5"/>
<path d="M18.3151 24.1392C18.6598 25.2206 19.5709 25.93 20.8149 26.1156C19.7422 27.0483 19.298 28.3842 19.7084 29.6715C20.3212 31.5939 22.3209 32.3498 24.4361 31.6675C26.5848 30.9744 27.7697 29.1158 27.1514 27.1762C26.7355 25.8717 25.6237 25.1135 24.195 24.9874C25.033 24.0736 25.4254 22.9816 25.0643 21.8487C24.5609 20.2696 22.7689 19.3522 20.7544 20.0019C18.8406 20.6192 17.746 22.3541 18.3151 24.1392ZM21.4784 28.8356C21.1556 27.8229 21.6702 26.824 22.5333 26.3374C23.7459 26.1923 24.9331 26.5477 25.2942 27.6805C25.6115 28.6761 25.0574 29.7256 23.9495 30.0829C22.8583 30.4349 21.8286 29.9342 21.4784 28.8356ZM20.1219 23.6511C19.8318 22.7414 20.2677 21.8436 21.2246 21.535C22.1815 21.2264 23.0605 21.719 23.3615 22.663C23.6132 23.4526 23.2331 24.3512 22.4762 24.8225C21.3807 24.9866 20.4228 24.5952 20.1219 23.6511Z" fill="url(#paint4_radial_701_7431)"/>
<path d="M20.8147 26.1156L20.9108 26.23L21.1577 26.0153L20.8347 25.9671L20.8147 26.1156ZM24.1948 24.9874L24.0868 24.8845L23.88 25.1101L24.1835 25.1369L24.1948 24.9874ZM22.5331 26.3374L22.5146 26.1884L22.486 26.1918L22.461 26.2059L22.5331 26.3374ZM22.476 24.8225L22.4987 24.9709L22.5282 24.9665L22.5536 24.9507L22.476 24.8225ZM18.175 24.1844C18.5402 25.3301 19.5054 26.0716 20.7948 26.264L20.8347 25.9671C19.636 25.7883 18.7789 25.1111 18.4548 24.0941L18.175 24.1844ZM20.7186 26.001C19.6084 26.9665 19.1367 28.3628 19.5683 29.7166L19.8481 29.6264C19.4589 28.4055 19.8758 27.1301 20.9108 26.23L20.7186 26.001ZM19.5683 29.7166C19.8887 30.7218 20.5742 31.4251 21.4549 31.7854C22.333 32.1445 23.3974 32.1602 24.4815 31.8105L24.3903 31.5245C23.3592 31.857 22.3661 31.8359 21.5623 31.5071C20.7612 31.1794 20.1405 30.5436 19.8481 29.6264L19.5683 29.7166ZM24.4815 31.8105C26.6837 31.1002 27.9416 29.1719 27.2911 27.131L27.0113 27.2213C27.5972 29.0596 26.4856 30.8487 24.3903 31.5245L24.4815 31.8105ZM27.2911 27.131C26.8529 25.7566 25.6807 24.9681 24.2061 24.8381L24.1835 25.1369C25.5662 25.2588 26.6177 25.9867 27.0113 27.2213L27.2911 27.131ZM24.3028 25.0904C25.1641 24.151 25.5868 23.0045 25.204 21.8036L24.9242 21.8939C25.2636 22.9587 24.9015 23.9961 24.0868 24.8845L24.3028 25.0904ZM25.204 21.8036C24.6704 20.1298 22.784 19.1895 20.7086 19.8589L20.7998 20.145C22.7533 19.5149 24.451 20.4094 24.9242 21.8939L25.204 21.8036ZM20.7086 19.8589C18.7387 20.4942 17.5744 22.3002 18.175 24.1844L18.4548 24.0941C17.9173 22.408 18.9421 20.7441 20.7998 20.145L20.7086 19.8589ZM21.6181 28.7904C21.3212 27.8592 21.7905 26.9281 22.6053 26.4688L22.461 26.2059C21.5495 26.7198 20.9894 27.7865 21.3383 28.8807L21.6181 28.7904ZM22.5517 26.4863C23.7424 26.3439 24.827 26.6996 25.1541 27.7257L25.4339 27.6354C25.0387 26.3957 23.7491 26.0408 22.5146 26.1884L22.5517 26.4863ZM25.1541 27.7257C25.443 28.632 24.9447 29.6041 23.9037 29.9399L23.9949 30.226C25.1698 29.847 25.7796 28.7202 25.4339 27.6354L25.1541 27.7257ZM23.9037 29.9399C23.39 30.1056 22.8993 30.0683 22.4995 29.8686C22.1005 29.6694 21.7815 29.3033 21.6181 28.7904L21.3383 28.8807C21.525 29.4665 21.896 29.9 22.3722 30.1378C22.8476 30.3751 23.4173 30.4122 23.9949 30.226L23.9037 29.9399ZM20.2616 23.606C19.9974 22.7773 20.3884 21.9624 21.27 21.678L21.1788 21.3919C20.1466 21.7248 19.6659 22.7055 19.9818 23.6962L20.2616 23.606ZM21.27 21.678C22.1477 21.395 22.9449 21.8411 23.2214 22.7081L23.5012 22.6179C23.1756 21.5968 22.2148 21.0578 21.1788 21.3919L21.27 21.678ZM23.2214 22.7081C23.4485 23.4207 23.1081 24.2525 22.3984 24.6943L22.5536 24.9507C23.3577 24.45 23.7774 23.4845 23.5012 22.6179L23.2214 22.7081ZM22.4533 24.6741C21.3951 24.8326 20.5309 24.451 20.2616 23.606L19.9818 23.6962C20.3143 24.7393 21.3659 25.1406 22.4987 24.9709L22.4533 24.6741Z" fill="url(#paint5_linear_701_7431)"/>
</g>
<defs>
<filter id="filter0_i_701_7431" x="12.75" y="17.7502" width="18.5" height="20.9736" filterUnits="userSpaceOnUse" color-interpolation-filters="sRGB">
<feFlood flood-opacity="0" result="BackgroundImageFix"/>
<feBlend mode="normal" in="SourceGraphic" in2="BackgroundImageFix" result="shape"/>
<feColorMatrix in="SourceAlpha" type="matrix" values="0 0 0 0 0 0 0 0 0 0 0 0 0 0 0 0 0 0 127 0" result="hardAlpha"/>
<feOffset dy="2"/>
<feGaussianBlur stdDeviation="1"/>
<feComposite in2="hardAlpha" operator="arithmetic" k2="-1" k3="1"/>
<feColorMatrix type="matrix" values="0 0 0 0 0 0 0 0 0 0 0 0 0 0 0 0 0 0 0.5 0"/>
<feBlend mode="normal" in2="shape" result="effect1_innerShadow_701_7431"/>
</filter>
<radialGradient id="paint0_radial_701_7431" cx="0" cy="0" r="1" gradientUnits="userSpaceOnUse" gradientTransform="translate(23.2101 20.1501) rotate(101.286) scale(16.8376 16.4394)">
<stop offset="0.187384" stop-color="#F6DF9C"/>
<stop offset="0.793956" stop-color="#A8815F"/>
</radialGradient>
<radialGradient id="paint1_radial_701_7431" cx="0" cy="0" r="1" gradientUnits="userSpaceOnUse" gradientTransform="translate(21.9998 24.3328) rotate(108.871) scale(14.2356 13.9479)">
<stop offset="0.308509" stop-color="#F7E1A4"/>
<stop offset="0.713026" stop-color="#8F6B44"/>
<stop offset="1" stop-color="#8F5544" stop-opacity="0"/>
</radialGradient>
<radialGradient id="paint2_radial_701_7431" cx="0" cy="0" r="1" gradientUnits="userSpaceOnUse" gradientTransform="translate(25.5419 21.4851) rotate(104.899) scale(12.305 11.8937)">
<stop offset="0.0803149" stop-color="white"/>
<stop offset="0.127237" stop-color="white" stop-opacity="0"/>
</radialGradient>
<linearGradient id="paint3_linear_701_7431" x1="17.1257" y1="16.9033" x2="20.5701" y2="37.6613" gradientUnits="userSpaceOnUse">
<stop offset="0.122202" stop-color="white"/>
<stop offset="0.668146" stop-color="white" stop-opacity="0"/>
<stop offset="0.992872" stop-color="#AB805F" stop-opacity="0.38"/>
</linearGradient>
<radialGradient id="paint4_radial_701_7431" cx="0" cy="0" r="1" gradientUnits="userSpaceOnUse" gradientTransform="translate(22.8624 22.0754) rotate(93.4509) scale(11.3404 7.4143)">
<stop offset="0.357699" stop-color="#312121" stop-opacity="0.71"/>
<stop offset="1" stop-color="#261818"/>
</radialGradient>
<linearGradient id="paint5_linear_701_7431" x1="23.9211" y1="35.313" x2="17.6757" y2="10.9375" gradientUnits="userSpaceOnUse">
<stop stop-color="#FFEBB9"/>
<stop offset="1" stop-color="#FFE8AC" stop-opacity="0"/>
</linearGradient>
</defs>
</svg>
