<svg width="44" height="54" viewBox="0 0 44 54" fill="none" xmlns="http://www.w3.org/2000/svg">
<path d="M3.8155 11.1603L17.8155 2.56832C20.3827 0.992792 23.6173 0.992793 26.1845 2.56832L40.1178 11.1194C42.5246 12.5964 43.9743 15.2329 43.9324 18.0564L43.6696 35.7776C43.6287 38.5317 42.1739 41.0711 39.8187 42.4994L26.1547 50.7857C23.6303 52.3165 20.468 52.3326 17.9282 50.8276L3.9217 42.5278C1.49071 41.0873 0 38.4711 0 35.6454V17.9786C0 15.1971 1.4448 12.6152 3.8155 11.1603Z" fill="currentColor"/>
<path d="M7.36989 14.5136L18.8801 7.50685C20.7964 6.3403 23.2035 6.3403 25.1198 7.50686L36.5794 14.4828C38.3953 15.5882 39.4906 17.5719 39.4589 19.6976L39.2448 34.014C39.2138 36.087 38.1148 37.9971 36.3382 39.0658L25.1002 45.8257C23.216 46.9591 20.8628 46.971 18.9671 45.8568L7.44941 39.087C5.61577 38.0093 4.48975 36.0413 4.48975 33.9144V19.6387C4.48975 17.5448 5.58134 15.6024 7.36989 14.5136Z" fill="#062338"/>
<g filter="url(#filter0_i_701_7475)">
<path d="M23.6094 17.0779L12.6972 17.828C12.3294 17.8533 12.0512 18.1798 12.0759 18.5573L13.0816 33.9696C13.1063 34.3471 13.4244 34.6326 13.7922 34.6073L24.7044 33.8572C25.0722 33.832 25.3504 33.5055 25.3258 33.128L24.32 17.7156C24.2954 17.3382 23.9772 17.0526 23.6094 17.0779Z" fill="url(#paint0_linear_701_7475)"/>
<path d="M23.6094 17.0779L12.6972 17.828C12.3294 17.8533 12.0512 18.1798 12.0759 18.5573L13.0816 33.9696C13.1063 34.3471 13.4244 34.6326 13.7922 34.6073L24.7044 33.8572C25.0722 33.832 25.3504 33.5055 25.3258 33.128L24.32 17.7156C24.2954 17.3382 23.9772 17.0526 23.6094 17.0779Z" fill="url(#paint1_linear_701_7475)" fill-opacity="0.6"/>
<path d="M23.6094 17.0779L12.6972 17.828C12.3294 17.8533 12.0512 18.1798 12.0759 18.5573L13.0816 33.9696C13.1063 34.3471 13.4244 34.6326 13.7922 34.6073L24.7044 33.8572C25.0722 33.832 25.3504 33.5055 25.3258 33.128L24.32 17.7156C24.2954 17.3382 23.9772 17.0526 23.6094 17.0779Z" stroke="url(#paint2_linear_701_7475)" stroke-width="0.2"/>
<path d="M23.4088 17.5834L12.9619 18.3015C12.7371 18.3169 12.5671 18.5165 12.5822 18.7472L13.5588 33.712C13.5738 33.9426 13.7682 34.1171 13.993 34.1017L24.4399 33.3836C24.6647 33.3681 24.8347 33.1686 24.8196 32.9379L23.8431 17.9731C23.828 17.7424 23.6336 17.5679 23.4088 17.5834Z" fill="url(#paint3_linear_701_7475)" stroke="url(#paint4_linear_701_7475)" stroke-width="0.1"/>
<path d="M16.9623 27.647C15.4529 26.7181 14.4475 25.1865 15.2866 23.4765C15.6331 22.7704 16.7838 22.4859 17.536 22.8552C18.2609 23.211 18.5943 24.2087 18.5943 24.2087C18.5943 24.2087 18.7175 23.1797 19.3897 22.7277C20.0871 22.2589 21.3421 22.3779 21.7772 23.0303C22.831 24.6102 22.0337 26.2657 20.6585 27.393C19.8434 28.0611 18.9144 29.1136 18.9144 29.1136C18.9144 29.1136 17.8569 28.1976 16.9623 27.647Z" fill="url(#paint5_linear_701_7475)"/>
<path d="M13.275 20.6718C13.0721 20.5469 12.9369 20.341 13.0497 20.1111C13.0963 20.0162 13.251 19.978 13.3521 20.0276C13.4496 20.0754 13.4944 20.2096 13.4944 20.2096C13.4944 20.2096 13.511 20.0712 13.6013 20.0105C13.6951 19.9474 13.8638 19.9634 13.9223 20.0512C14.064 20.2636 13.9568 20.4861 13.7719 20.6377C13.6623 20.7275 13.5374 20.869 13.5374 20.869C13.5374 20.869 13.3953 20.7459 13.275 20.6718Z" fill="url(#paint6_linear_701_7475)"/>
<path d="M13.2965 18.6475L13.4711 18.6355L13.8503 19.4348C13.8989 19.5413 13.9499 19.6014 14.0033 19.615L13.6052 19.6424C13.6209 19.6393 13.6332 19.6313 13.6423 19.6185C13.6523 19.6056 13.6567 19.5885 13.6553 19.5672C13.6543 19.552 13.6329 19.4971 13.591 19.4023L13.2136 19.4282C13.1887 19.5164 13.1769 19.5711 13.1783 19.5924C13.1799 19.6167 13.187 19.635 13.1997 19.6474C13.2134 19.6597 13.2282 19.6663 13.2441 19.6672L12.9126 19.69C12.9321 19.6856 12.9531 19.6658 12.9756 19.6307C12.9991 19.5956 13.0202 19.5473 13.039 19.486L13.2965 18.6475ZM13.5321 19.2736L13.3671 18.9096L13.2539 19.2927L13.5321 19.2736Z" fill="url(#paint7_linear_701_7475)"/>
<path d="M23.6341 31.119C23.4492 31.2705 23.3419 31.4931 23.4836 31.7055C23.5421 31.7932 23.7004 31.81 23.7942 31.7469C23.8846 31.6862 23.9116 31.5471 23.9116 31.5471C23.9116 31.5471 23.9459 31.6819 24.0434 31.7298C24.1445 31.7794 24.3096 31.7405 24.3563 31.6456C24.4691 31.4157 24.3339 31.2097 24.131 31.0848C24.0107 31.0108 23.8685 30.8877 23.8685 30.8877C23.8685 30.8877 23.7436 31.0292 23.6341 31.119Z" fill="url(#paint8_linear_701_7475)"/>
<path d="M23.9185 33.1222L24.0931 33.1102L24.3651 32.2661C24.3994 32.154 24.4421 32.0874 24.4933 32.0667L24.0952 32.094C24.1111 32.0949 24.1244 32.1011 24.1351 32.1126C24.1467 32.124 24.1533 32.1403 24.1546 32.1616C24.1556 32.1768 24.1415 32.2342 24.1123 32.3339L23.735 32.3598C23.6988 32.2758 23.68 32.2232 23.6785 32.202C23.677 32.1776 23.6817 32.1585 23.6926 32.1445C23.7046 32.1305 23.7184 32.1219 23.7341 32.1188L23.4026 32.1416C23.4225 32.1433 23.4459 32.16 23.4727 32.1917C23.5006 32.2234 23.5278 32.2683 23.5544 32.3264L23.9185 33.1222ZM24.0706 32.4694L23.9544 32.8528L23.7925 32.4885L24.0706 32.4694Z" fill="url(#paint9_linear_701_7475)"/>
<mask id="mask0_701_7475" style="mask-type:alpha" maskUnits="userSpaceOnUse" x="12" y="17" width="14" height="18">
<path d="M12.0017 18.5623C11.9743 18.1429 12.2834 17.7801 12.6921 17.7521L23.6043 17.002C24.013 16.9739 24.3665 17.2911 24.3938 17.7105L25.3996 33.1229C25.427 33.5423 25.1179 33.9051 24.7092 33.9332L13.797 34.6833C13.3883 34.7114 13.0348 34.3941 13.0075 33.9747L12.0017 18.5623Z" fill="url(#paint10_linear_701_7475)"/>
<path d="M12.619 18.7447C12.6053 18.535 12.7599 18.3536 12.9642 18.3396L23.4111 17.6215C23.6155 17.6074 23.7922 17.766 23.8059 17.9758L24.7825 32.9406C24.7962 33.1503 24.6416 33.3317 24.4372 33.3457L13.9903 34.0638C13.786 34.0779 13.6093 33.9193 13.5956 33.7095L12.619 18.7447Z" fill="url(#paint11_linear_701_7475)"/>
<path d="M16.962 27.647C15.4526 26.7181 14.4473 25.1864 15.2864 23.4765C15.6329 22.7703 16.7835 22.4859 17.5357 22.8551C18.2606 23.211 18.5941 24.2087 18.5941 24.2087C18.5941 24.2087 18.7172 23.1796 19.3894 22.7277C20.0869 22.2589 21.3418 22.3779 21.777 23.0303C22.8308 24.6102 22.0335 26.2657 20.6582 27.393C19.8432 28.0611 18.9141 29.1136 18.9141 29.1136C18.9141 29.1136 17.8567 28.1976 16.962 27.647Z" fill="url(#paint12_linear_701_7475)"/>
<path d="M13.275 20.6718C13.0721 20.5469 12.9369 20.341 13.0497 20.1111C13.0963 20.0162 13.251 19.978 13.3521 20.0276C13.4496 20.0754 13.4944 20.2096 13.4944 20.2096C13.4944 20.2096 13.511 20.0712 13.6013 20.0105C13.6951 19.9474 13.8638 19.9634 13.9223 20.0511C14.064 20.2635 13.9568 20.4861 13.7719 20.6377C13.6623 20.7275 13.5374 20.869 13.5374 20.869C13.5374 20.869 13.3953 20.7458 13.275 20.6718Z" fill="url(#paint13_linear_701_7475)"/>
<path d="M13.2965 18.6475L13.4711 18.6355L13.8503 19.4348C13.8989 19.5413 13.9499 19.6014 14.0033 19.615L13.6052 19.6424C13.6209 19.6393 13.6332 19.6313 13.6423 19.6185C13.6524 19.6056 13.6567 19.5885 13.6553 19.5672C13.6543 19.552 13.6329 19.4971 13.591 19.4023L13.2136 19.4282C13.1887 19.5164 13.1769 19.5711 13.1783 19.5924C13.1799 19.6167 13.187 19.635 13.1997 19.6474C13.2134 19.6597 13.2282 19.6663 13.2441 19.6672L12.9126 19.69C12.9321 19.6856 12.9531 19.6658 12.9756 19.6307C12.9991 19.5956 13.0202 19.5473 13.039 19.486L13.2965 18.6475ZM13.5321 19.2736L13.3671 18.9096L13.2539 19.2927L13.5321 19.2736Z" fill="url(#paint14_linear_701_7475)"/>
<path d="M23.6343 31.119C23.4494 31.2705 23.3422 31.4931 23.4839 31.7055C23.5424 31.7932 23.7007 31.8099 23.7944 31.7469C23.8848 31.6861 23.9118 31.5471 23.9118 31.5471C23.9118 31.5471 23.9461 31.6819 24.0437 31.7297C24.1447 31.7794 24.3099 31.7405 24.3565 31.6455C24.4693 31.4156 24.3342 31.2097 24.1312 31.0848C24.011 31.0108 23.8688 30.8877 23.8688 30.8877C23.8688 30.8877 23.7438 31.0292 23.6343 31.119Z" fill="url(#paint15_linear_701_7475)"/>
<path d="M23.9185 33.1221L24.0931 33.1101L24.3651 32.266C24.3994 32.1538 24.4421 32.0873 24.4933 32.0665L24.0952 32.0939C24.1111 32.0948 24.1244 32.101 24.135 32.1125C24.1467 32.1239 24.1532 32.1403 24.1546 32.1615C24.1556 32.1767 24.1415 32.2341 24.1123 32.3338L23.7349 32.3597C23.6987 32.2758 23.68 32.2231 23.6785 32.2019C23.677 32.1776 23.6817 32.1584 23.6926 32.1445C23.7046 32.1304 23.7184 32.1218 23.7341 32.1187L23.4026 32.1415C23.4225 32.1432 23.4459 32.1598 23.4727 32.1916C23.5006 32.2232 23.5278 32.2682 23.5544 32.3264L23.9185 33.1221ZM24.0706 32.4694L23.9544 32.8527L23.7924 32.4885L24.0706 32.4694Z" fill="url(#paint16_linear_701_7475)"/>
</mask>
<g mask="url(#mask0_701_7475)">
<path style="mix-blend-mode:multiply" d="M31.3566 19.8968L19.4571 18.2104C19.0513 18.1529 18.677 18.4439 18.621 18.8603L16.5543 34.2203C16.4983 34.6367 16.7818 35.0209 17.1876 35.0784L29.0871 36.7648C29.4928 36.8223 29.8672 36.5314 29.9232 36.115L31.9898 20.7549C32.0458 20.3385 31.7623 19.9543 31.3566 19.8968Z" fill="url(#paint17_linear_701_7475)"/>
</g>
<path d="M31.3388 20.0306L20.5049 18.4952C20.1398 18.4434 19.8029 18.7053 19.7524 19.0801L17.6937 34.3817C17.6433 34.7565 17.8984 35.1023 18.2636 35.154L29.0974 36.6894C29.4626 36.7411 29.7995 36.4793 29.8499 36.1045L31.9087 20.8028C31.9591 20.4281 31.704 20.0823 31.3388 20.0306Z" fill="url(#paint18_linear_701_7475)"/>
<path d="M31.3388 20.0306L20.5049 18.4952C20.1398 18.4434 19.8029 18.7053 19.7524 19.0801L17.6937 34.3817C17.6433 34.7565 17.8984 35.1023 18.2636 35.154L29.0974 36.6894C29.4626 36.7411 29.7995 36.4793 29.8499 36.1045L31.9087 20.8028C31.9591 20.4281 31.704 20.0823 31.3388 20.0306Z" fill="url(#paint19_linear_701_7475)" fill-opacity="0.6"/>
<path d="M31.3388 20.0306L20.5049 18.4952C20.1398 18.4434 19.8029 18.7053 19.7524 19.0801L17.6937 34.3817C17.6433 34.7565 17.8984 35.1023 18.2636 35.154L29.0974 36.6894C29.4626 36.7411 29.7995 36.4793 29.8499 36.1045L31.9087 20.8028C31.9591 20.4281 31.704 20.0823 31.3388 20.0306Z" stroke="url(#paint20_linear_701_7475)" stroke-width="0.2"/>
<path d="M25.3355 23.6198L25.2949 23.556V23.5561L25.2948 23.5561L25.2942 23.5565L25.2919 23.558L25.2826 23.5643L25.2462 23.5882C25.2144 23.6092 25.1678 23.6396 25.1091 23.6775C24.9916 23.7531 24.8253 23.8585 24.6302 23.977C24.2397 24.2144 23.7359 24.5037 23.2787 24.714C22.4932 25.0754 21.8185 25.5868 21.4346 26.2181C21.0482 26.8537 20.96 27.6061 21.342 28.4315C21.6611 29.1208 22.3251 29.2955 22.8873 29.3038C23.1698 29.3081 23.4321 29.2708 23.6235 29.2326C23.6807 29.2212 23.7318 29.2097 23.7751 29.1991L22.7236 31.3214L22.6764 31.4167L22.7795 31.4313L24.2563 31.6406L25.7331 31.8498L25.8363 31.8645L25.8159 31.7596L25.3641 29.4243C25.4032 29.4466 25.4492 29.4718 25.5013 29.4988C25.6754 29.5887 25.9181 29.6976 26.1911 29.7721C26.7344 29.9204 27.4198 29.9369 27.9089 29.3621C28.4946 28.6739 28.6084 27.9251 28.4043 27.2059C28.2015 26.4914 27.687 25.8114 27.0263 25.2451C26.6418 24.9155 26.2332 24.497 25.92 24.1599C25.7636 23.9915 25.6313 23.8438 25.5381 23.7383C25.4916 23.6855 25.4548 23.6433 25.4297 23.6143L25.4011 23.581L25.3937 23.5725L25.3919 23.5704L25.3914 23.5698L25.3914 23.5697L25.3355 23.6198ZM25.3355 23.6198L25.3913 23.5697L25.3489 23.5199L25.2949 23.556L25.3355 23.6198Z" fill="url(#paint21_linear_701_7475)" stroke="url(#paint22_linear_701_7475)" stroke-width="0.2"/>
<path d="M20.9395 21.6718L20.8919 21.4262C20.912 21.4364 20.9392 21.4484 20.9699 21.4568C21.0333 21.474 21.1166 21.4769 21.1763 21.4068C21.2455 21.3254 21.2592 21.2362 21.2349 21.1507C21.211 21.0665 21.1507 20.9871 21.0743 20.9217C21.0308 20.8844 20.9845 20.837 20.9487 20.7985C20.9309 20.7794 20.9159 20.7626 20.9054 20.7506L20.893 20.7365L20.8898 20.7327L20.889 20.7318L20.8887 20.7316L20.8887 20.7315L20.8781 20.719L20.8646 20.7281H20.8645L20.8643 20.7283L20.8632 20.729L20.8591 20.7317L20.8435 20.7418C20.8302 20.7504 20.8112 20.7624 20.789 20.7759C20.7445 20.8029 20.6873 20.8358 20.6356 20.8595C20.5449 20.9013 20.4659 20.9608 20.4206 21.0353C20.3747 21.1108 20.3643 21.2005 20.4094 21.2981C20.4484 21.3821 20.5293 21.4026 20.5949 21.4036C20.6266 21.4041 20.6559 21.4001 20.678 21.3959L20.5674 21.619L20.5556 21.6429L20.5813 21.6465L20.7501 21.6704L20.9188 21.6943L20.9445 21.698L20.9395 21.6718Z" fill="url(#paint23_linear_701_7475)" stroke="url(#paint24_linear_701_7475)" stroke-width="0.05"/>
<path d="M20.9553 19.4261L21.1287 19.4507L21.3422 20.3123C21.3687 20.4267 21.4068 20.4962 21.4564 20.5206L21.0612 20.4646C21.0771 20.4648 21.0908 20.4596 21.1023 20.4489C21.1146 20.4384 21.1223 20.4225 21.1251 20.4014C21.1271 20.3864 21.117 20.3281 21.0947 20.2266L20.72 20.1735C20.6782 20.2546 20.6558 20.3057 20.653 20.3268C20.6497 20.351 20.6531 20.3704 20.6631 20.3851C20.6741 20.4 20.6872 20.4096 20.7027 20.4138L20.3735 20.3671C20.3936 20.3669 20.418 20.3519 20.447 20.3222C20.4769 20.2927 20.5071 20.2498 20.5377 20.1937L20.9553 19.4261ZM21.0624 20.0883L20.9728 19.6975L20.7862 20.0491L21.0624 20.0883Z" fill="#352B30"/>
<path d="M20.9553 19.426L20.9603 19.3883L20.9352 19.3848L20.9229 19.4075L20.9553 19.426ZM21.1286 19.4506L21.1645 19.4412L21.1585 19.4164L21.1337 19.4129L21.1286 19.4506ZM21.3422 20.3122L21.3782 20.3034L21.378 20.3028L21.3422 20.3122ZM21.4564 20.5205L21.4512 20.5582L21.4724 20.4862L21.4564 20.5205ZM21.0611 20.4645L21.0616 20.4264L21.056 20.5022L21.0611 20.4645ZM21.1022 20.4488L21.0784 20.4194L21.0772 20.4206L21.1022 20.4488ZM21.0946 20.2264L21.1308 20.2181L21.1252 20.1923L21.0997 20.1887L21.0946 20.2264ZM20.7199 20.1733L20.7251 20.1356L20.6993 20.132L20.6872 20.1555L20.7199 20.1733ZM20.6631 20.385L20.6326 20.4068L20.6335 20.408L20.6631 20.385ZM20.7026 20.4137L20.6975 20.4514L20.7121 20.3769L20.7026 20.4137ZM20.3735 20.367L20.373 20.329L20.3684 20.4047L20.3735 20.367ZM20.4469 20.3221L20.4211 20.2947L20.4207 20.2952L20.4469 20.3221ZM20.5376 20.1936L20.5052 20.175V20.175L20.5376 20.1936ZM21.0623 20.0882L21.0572 20.1259L21.1108 20.1334L21.0984 20.0794L21.0623 20.0882ZM20.9727 19.6974L21.0087 19.6887L20.9865 19.5917L20.94 19.6792L20.9727 19.6974ZM20.7861 20.049L20.7535 20.0308L20.7279 20.0792L20.781 20.0867L20.7861 20.049ZM20.9502 19.4637L21.1236 19.4883L21.1337 19.4129L20.9603 19.3883L20.9502 19.4637ZM21.0927 19.46L21.3062 20.3216L21.378 20.3028L21.1645 19.4412L21.0927 19.46ZM21.306 20.321C21.3198 20.3802 21.337 20.4299 21.3582 20.4688C21.3795 20.5076 21.4063 20.5381 21.4403 20.5548L21.4724 20.4862C21.4567 20.4785 21.4397 20.462 21.4229 20.4314C21.4062 20.4009 21.391 20.3586 21.3782 20.3034L21.306 20.321ZM21.4614 20.4828L21.0662 20.4268L21.056 20.5022L21.4512 20.5582L21.4614 20.4828ZM21.0606 20.5025C21.0856 20.5029 21.1085 20.4943 21.1271 20.4769L21.0772 20.4206C21.0729 20.4246 21.0684 20.4265 21.0616 20.4264L21.0606 20.5025ZM21.1258 20.4781C21.1472 20.4599 21.158 20.4342 21.1617 20.4065L21.0883 20.3961C21.0863 20.4106 21.0818 20.4166 21.0785 20.4195L21.1258 20.4781ZM21.1617 20.4065C21.163 20.3975 21.1621 20.3867 21.1611 20.3776C21.1599 20.3673 21.158 20.3546 21.1554 20.3396C21.1502 20.3096 21.142 20.269 21.1308 20.2181L21.0585 20.2348C21.0695 20.2853 21.0775 20.3246 21.0824 20.353C21.0849 20.3671 21.0865 20.3781 21.0874 20.3862C21.0884 20.3954 21.0881 20.3976 21.0883 20.3961L21.1617 20.4065ZM21.0997 20.1887L20.7251 20.1356L20.7149 20.211L21.0896 20.2641L21.0997 20.1887ZM20.6872 20.1555C20.6661 20.1964 20.6496 20.2303 20.638 20.257C20.6269 20.2821 20.6184 20.3048 20.6162 20.3215L20.6896 20.3319C20.6902 20.3275 20.6943 20.3141 20.7056 20.2881C20.7163 20.2636 20.7319 20.2314 20.7527 20.1911L20.6872 20.1555ZM20.6162 20.3215C20.6121 20.3517 20.6156 20.3817 20.6326 20.4068L20.6935 20.3633C20.6904 20.3588 20.6872 20.35 20.6896 20.3319L20.6162 20.3215ZM20.6335 20.408C20.6487 20.4286 20.6685 20.4437 20.693 20.4504L20.7121 20.3769C20.7058 20.3752 20.6993 20.3712 20.6926 20.362L20.6335 20.408ZM20.7077 20.376L20.3786 20.3293L20.3684 20.4047L20.6975 20.4514L20.7077 20.376ZM20.3739 20.4051C20.4097 20.4046 20.4435 20.3795 20.4731 20.349L20.4207 20.2952C20.3924 20.3242 20.3772 20.3289 20.373 20.329L20.3739 20.4051ZM20.4726 20.3495C20.5061 20.3164 20.5385 20.27 20.5699 20.2121L20.5052 20.175C20.4756 20.2294 20.4475 20.2687 20.4212 20.2947L20.4726 20.3495ZM20.5699 20.2121L20.9877 19.4446L20.9229 19.4075L20.5052 20.175L20.5699 20.2121ZM21.0984 20.0794L21.0087 19.6887L20.9366 19.7061L21.0262 20.0969L21.0984 20.0794ZM20.94 19.6792L20.7535 20.0308L20.8186 20.0672L21.0052 19.7156L20.94 19.6792ZM20.781 20.0867L21.0572 20.1259L21.0674 20.0505L20.7911 20.0113L20.781 20.0867Z" fill="url(#paint25_linear_701_7475)"/>
<path d="M29.0759 33.6437L28.9653 33.8669C28.9873 33.8627 29.0167 33.8587 29.0483 33.8592C29.114 33.8601 29.1949 33.8807 29.2338 33.9647C29.279 34.0623 29.2686 34.152 29.2227 34.2275C29.1774 34.302 29.0984 34.3615 29.0076 34.4033C28.9559 34.427 28.8988 34.4598 28.8543 34.4869C28.832 34.5004 28.8131 34.5124 28.7997 34.521L28.7842 34.5311L28.78 34.5338L28.779 34.5345L28.7788 34.5347H28.7787L28.7652 34.5438L28.7546 34.5313L28.7545 34.5312L28.7543 34.531L28.7535 34.5301L28.7502 34.5263L28.7379 34.5122C28.7273 34.5002 28.7123 34.4834 28.6945 34.4643C28.6588 34.4258 28.6124 34.3784 28.569 34.3411C28.4926 34.2756 28.4323 34.1963 28.4083 34.1121C28.3841 34.0266 28.3978 33.9374 28.467 33.856C28.5267 33.7859 28.61 33.7887 28.6734 33.806C28.704 33.8144 28.7312 33.8264 28.7513 33.8365L28.7038 33.591L28.6987 33.5648L28.7245 33.5685L28.8932 33.5924L29.0619 33.6163L29.0876 33.6199L29.0759 33.6437Z" fill="url(#paint26_linear_701_7475)" stroke="url(#paint27_linear_701_7475)" stroke-width="0.05"/>
<path d="M28.4982 35.8099L28.6716 35.8345L29.1047 35.0644C29.1604 34.9617 29.2154 34.9055 29.2696 34.8958L28.8744 34.8397C28.8897 34.8439 28.9015 34.8528 28.9097 34.8662C28.9189 34.8798 28.922 34.8972 28.9192 34.9183C28.9172 34.9334 28.892 34.9867 28.8438 35.0782L28.4691 35.0251C28.4503 34.9353 28.4423 34.8799 28.4451 34.8588C28.4483 34.8346 28.4567 34.8169 28.4702 34.8055C28.4847 34.7942 28.4999 34.7887 28.5158 34.7889L28.1868 34.7423C28.2059 34.7481 28.2256 34.7693 28.2456 34.8059C28.2666 34.8427 28.2844 34.8923 28.2989 34.9549L28.4982 35.8099ZM28.7762 35.2023L28.5866 35.5535L28.5 35.1631L28.7762 35.2023Z" fill="#352B30"/>
<path d="M28.4983 35.8098L28.4932 35.8475L28.4682 35.844L28.4622 35.8186L28.4983 35.8098ZM28.6717 35.8344L28.7038 35.8534L28.6913 35.8756L28.6666 35.872L28.6717 35.8344ZM29.1047 35.0643L29.1371 35.0829L29.1368 35.0834L29.1047 35.0643ZM29.2696 34.8957L29.2747 34.858L29.276 34.9331L29.2696 34.8957ZM28.8744 34.8396L28.8648 34.8764L28.8795 34.802L28.8744 34.8396ZM28.9097 34.8661L28.8793 34.8878L28.8783 34.8863L28.9097 34.8661ZM28.8438 35.0781L28.8764 35.0962L28.8642 35.1194L28.8388 35.1158L28.8438 35.0781ZM28.4691 35.025L28.4641 35.0627L28.4384 35.0591L28.4329 35.033L28.4691 35.025ZM28.4702 34.8054L28.4467 34.776L28.4479 34.7751L28.4702 34.8054ZM28.5159 34.7888L28.521 34.7511L28.5154 34.8269L28.5159 34.7888ZM28.1868 34.7422L28.1763 34.7787L28.1918 34.7045L28.1868 34.7422ZM28.2456 34.8059L28.2136 34.8251L28.2133 34.8244L28.2456 34.8059ZM28.2989 34.9548L28.2628 34.9636L28.2989 34.9548ZM28.7762 35.2022L28.7813 35.1645L28.8348 35.1721L28.8086 35.2207L28.7762 35.2022ZM28.5867 35.5534L28.6192 35.5719L28.5721 35.6589L28.5506 35.5619L28.5867 35.5534ZM28.5 35.1631L28.4638 35.1715L28.4519 35.1178L28.505 35.1254L28.5 35.1631ZM28.5034 35.7721L28.6768 35.7967L28.6666 35.872L28.4932 35.8475L28.5034 35.7721ZM28.6396 35.8153L29.0726 35.0453L29.1368 35.0834L28.7038 35.8534L28.6396 35.8153ZM29.0723 35.0458C29.1011 34.9927 29.1307 34.9497 29.1616 34.9182C29.1923 34.8868 29.2262 34.8648 29.2633 34.8581L29.276 34.9331C29.2589 34.9362 29.2381 34.9473 29.2139 34.9721C29.1898 34.9968 29.164 35.0333 29.1371 35.0829L29.0723 35.0458ZM29.2646 34.9333L28.8693 34.8773L28.8795 34.802L29.2747 34.858L29.2646 34.9333ZM28.884 34.8029C28.9082 34.8095 28.9279 34.8241 28.9413 34.846L28.8783 34.8863C28.8752 34.8814 28.8715 34.8782 28.8648 34.8764L28.884 34.8029ZM28.9403 34.8445C28.9561 34.868 28.9597 34.8957 28.9559 34.9234L28.8825 34.913C28.8844 34.8985 28.8818 34.8915 28.8793 34.8878L28.9403 34.8445ZM28.9559 34.9234C28.9547 34.9324 28.9511 34.9426 28.9477 34.9511C28.9439 34.9607 28.9387 34.9724 28.9322 34.9861C28.9193 35.0135 28.9007 35.0503 28.8764 35.0962L28.8112 35.06C28.8352 35.0144 28.8533 34.9788 28.8655 34.9529C28.8716 34.94 28.8761 34.9298 28.879 34.9223C28.8824 34.9137 28.8827 34.9116 28.8825 34.913L28.9559 34.9234ZM28.8388 35.1158L28.4641 35.0627L28.4742 34.9873L28.8489 35.0404L28.8388 35.1158ZM28.4329 35.033C28.4234 34.9878 28.4165 34.9506 28.4123 34.9217C28.4083 34.8944 28.4061 34.8702 28.4084 34.8535L28.4818 34.8639C28.4812 34.8683 28.4816 34.8824 28.4857 34.9105C28.4895 34.9371 28.4961 34.9725 28.5054 35.017L28.4329 35.033ZM28.4084 34.8535C28.4124 34.8234 28.4237 34.7953 28.4467 34.776L28.4938 34.8348C28.4897 34.8383 28.4843 34.8458 28.4818 34.8639L28.4084 34.8535ZM28.4479 34.7751C28.4679 34.7594 28.491 34.7504 28.5164 34.7507L28.5154 34.8269C28.5089 34.8268 28.5015 34.8288 28.4926 34.8358L28.4479 34.7751ZM28.5108 34.8266L28.1817 34.7799L28.1918 34.7045L28.521 34.7511L28.5108 34.8266ZM28.1973 34.7057C28.2316 34.716 28.2574 34.7497 28.2779 34.7872L28.2133 34.8244C28.1937 34.7887 28.1803 34.7799 28.1763 34.7787L28.1973 34.7057ZM28.2776 34.7866C28.3011 34.8278 28.32 34.8814 28.335 34.9459L28.2628 34.9636C28.2488 34.9031 28.232 34.8575 28.2136 34.8251L28.2776 34.7866ZM28.335 34.9459L28.5344 35.801L28.4622 35.8186L28.2628 34.9636L28.335 34.9459ZM28.8086 35.2207L28.6192 35.5719L28.5543 35.5349L28.7438 35.1838L28.8086 35.2207ZM28.5506 35.5619L28.4638 35.1715L28.5361 35.1546L28.6229 35.5449L28.5506 35.5619ZM28.505 35.1254L28.7813 35.1645L28.7711 35.2399L28.4949 35.2008L28.505 35.1254Z" fill="url(#paint28_linear_701_7475)"/>
</g>
<defs>
<filter id="filter0_i_701_7475" x="11.9744" y="16.9763" width="20.0405" height="21.8197" filterUnits="userSpaceOnUse" color-interpolation-filters="sRGB">
<feFlood flood-opacity="0" result="BackgroundImageFix"/>
<feBlend mode="normal" in="SourceGraphic" in2="BackgroundImageFix" result="shape"/>
<feColorMatrix in="SourceAlpha" type="matrix" values="0 0 0 0 0 0 0 0 0 0 0 0 0 0 0 0 0 0 127 0" result="hardAlpha"/>
<feOffset dy="2"/>
<feGaussianBlur stdDeviation="1"/>
<feComposite in2="hardAlpha" operator="arithmetic" k2="-1" k3="1"/>
<feColorMatrix type="matrix" values="0 0 0 0 0 0 0 0 0 0 0 0 0 0 0 0 0 0 0.5 0"/>
<feBlend mode="normal" in2="shape" result="effect1_innerShadow_701_7475"/>
</filter>
<linearGradient id="paint0_linear_701_7475" x1="18.1439" y1="17.3826" x2="19.3075" y2="34.3098" gradientUnits="userSpaceOnUse">
<stop stop-color="#F5DDA2"/>
<stop offset="0.561318" stop-color="#B48C64"/>
</linearGradient>
<linearGradient id="paint1_linear_701_7475" x1="18.1439" y1="17.3826" x2="19.2973" y2="37.8728" gradientUnits="userSpaceOnUse">
<stop offset="0.630253" stop-color="#F0D39A" stop-opacity="0"/>
<stop offset="0.893474" stop-color="#F0D39A"/>
</linearGradient>
<linearGradient id="paint2_linear_701_7475" x1="18.1439" y1="17.3826" x2="19.3075" y2="34.3098" gradientUnits="userSpaceOnUse">
<stop stop-color="#FFF3C0"/>
<stop offset="1" stop-color="#FFF5CE" stop-opacity="0"/>
</linearGradient>
<linearGradient id="paint3_linear_701_7475" x1="18.1901" y1="17.9776" x2="19.2707" y2="33.6981" gradientUnits="userSpaceOnUse">
<stop stop-color="#34292F"/>
<stop offset="0.861787" stop-color="#1A1321" stop-opacity="0.65"/>
</linearGradient>
<linearGradient id="paint4_linear_701_7475" x1="18.1901" y1="17.9776" x2="19.2707" y2="33.6981" gradientUnits="userSpaceOnUse">
<stop stop-color="#695B4D"/>
<stop offset="0.4375" stop-color="#EBD6C2"/>
</linearGradient>
<linearGradient id="paint5_linear_701_7475" x1="18.9144" y1="29.1136" x2="18.3033" y2="20.2226" gradientUnits="userSpaceOnUse">
<stop offset="0.358595" stop-color="#B48C64"/>
<stop offset="0.779246" stop-color="#EDD29A"/>
</linearGradient>
<linearGradient id="paint6_linear_701_7475" x1="13.5374" y1="20.869" x2="13.4553" y2="19.6737" gradientUnits="userSpaceOnUse">
<stop offset="0.358595" stop-color="#B48C64"/>
<stop offset="0.779246" stop-color="#EDD29A"/>
</linearGradient>
<linearGradient id="paint7_linear_701_7475" x1="13.3589" y1="18.1336" x2="13.5018" y2="20.2127" gradientUnits="userSpaceOnUse">
<stop offset="0.210517" stop-color="#EDD29A"/>
<stop offset="0.657394" stop-color="#B48C64"/>
</linearGradient>
<linearGradient id="paint8_linear_701_7475" x1="23.8685" y1="30.8877" x2="23.9507" y2="32.083" gradientUnits="userSpaceOnUse">
<stop offset="0.358595" stop-color="#B48C64"/>
<stop offset="0.779246" stop-color="#EDD29A"/>
</linearGradient>
<linearGradient id="paint9_linear_701_7475" x1="24.0471" y1="33.6229" x2="23.8343" y2="30.5266" gradientUnits="userSpaceOnUse">
<stop offset="0.218613" stop-color="#B48C64"/>
<stop offset="0.533684" stop-color="#EDD29A"/>
</linearGradient>
<linearGradient id="paint10_linear_701_7475" x1="24.0471" y1="33.623" x2="23.8343" y2="30.5267" gradientUnits="userSpaceOnUse">
<stop offset="0.218613" stop-color="#B48C64"/>
<stop offset="0.533684" stop-color="#EDD29A"/>
</linearGradient>
<linearGradient id="paint11_linear_701_7475" x1="24.0472" y1="33.623" x2="23.8344" y2="30.5267" gradientUnits="userSpaceOnUse">
<stop offset="0.218613" stop-color="#B48C64"/>
<stop offset="0.533684" stop-color="#EDD29A"/>
</linearGradient>
<linearGradient id="paint12_linear_701_7475" x1="24.0471" y1="33.6229" x2="23.8343" y2="30.5266" gradientUnits="userSpaceOnUse">
<stop offset="0.218613" stop-color="#B48C64"/>
<stop offset="0.533684" stop-color="#EDD29A"/>
</linearGradient>
<linearGradient id="paint13_linear_701_7475" x1="24.0472" y1="33.6229" x2="23.8344" y2="30.5266" gradientUnits="userSpaceOnUse">
<stop offset="0.218613" stop-color="#B48C64"/>
<stop offset="0.533684" stop-color="#EDD29A"/>
</linearGradient>
<linearGradient id="paint14_linear_701_7475" x1="24.0472" y1="33.623" x2="23.8344" y2="30.5267" gradientUnits="userSpaceOnUse">
<stop offset="0.218613" stop-color="#B48C64"/>
<stop offset="0.533684" stop-color="#EDD29A"/>
</linearGradient>
<linearGradient id="paint15_linear_701_7475" x1="24.0472" y1="33.6231" x2="23.8344" y2="30.5267" gradientUnits="userSpaceOnUse">
<stop offset="0.218613" stop-color="#B48C64"/>
<stop offset="0.533684" stop-color="#EDD29A"/>
</linearGradient>
<linearGradient id="paint16_linear_701_7475" x1="24.0471" y1="33.6229" x2="23.8342" y2="30.5266" gradientUnits="userSpaceOnUse">
<stop offset="0.218613" stop-color="#B48C64"/>
<stop offset="0.533684" stop-color="#EDD29A"/>
</linearGradient>
<linearGradient id="paint17_linear_701_7475" x1="20.9394" y1="28.1958" x2="17.0852" y2="27.8074" gradientUnits="userSpaceOnUse">
<stop offset="0.592109" stop-color="#8D7C7C"/>
<stop offset="1" stop-color="#8D7C7C" stop-opacity="0"/>
</linearGradient>
<linearGradient id="paint18_linear_701_7475" x1="25.9441" y1="19.1794" x2="23.5642" y2="35.9723" gradientUnits="userSpaceOnUse">
<stop stop-color="#F5DDA2"/>
<stop offset="0.561318" stop-color="#B48C64"/>
</linearGradient>
<linearGradient id="paint19_linear_701_7475" x1="25.9441" y1="19.1794" x2="22.8144" y2="39.4515" gradientUnits="userSpaceOnUse">
<stop offset="0.630253" stop-color="#F0D39A" stop-opacity="0"/>
<stop offset="0.893474" stop-color="#F0D39A"/>
</linearGradient>
<linearGradient id="paint20_linear_701_7475" x1="25.9441" y1="19.1794" x2="23.5642" y2="35.9723" gradientUnits="userSpaceOnUse">
<stop stop-color="#FFF3C0" stop-opacity="0.92"/>
<stop offset="1" stop-color="#FFF5CE" stop-opacity="0"/>
</linearGradient>
<linearGradient id="paint21_linear_701_7475" x1="25.3355" y1="23.6198" x2="24.2106" y2="31.5573" gradientUnits="userSpaceOnUse">
<stop stop-color="#32282E"/>
<stop offset="1" stop-color="#362A2F" stop-opacity="0.59"/>
</linearGradient>
<linearGradient id="paint22_linear_701_7475" x1="25.3355" y1="23.6198" x2="24.2106" y2="31.5573" gradientUnits="userSpaceOnUse">
<stop stop-color="#856848"/>
<stop offset="1" stop-color="#D8BC9B"/>
</linearGradient>
<linearGradient id="paint23_linear_701_7475" x1="20.8747" y1="20.744" x2="20.7462" y2="21.6506" gradientUnits="userSpaceOnUse">
<stop stop-color="#32282E"/>
<stop offset="1" stop-color="#362A2F" stop-opacity="0.59"/>
</linearGradient>
<linearGradient id="paint24_linear_701_7475" x1="20.8747" y1="20.744" x2="20.7462" y2="21.6506" gradientUnits="userSpaceOnUse">
<stop stop-color="#856848"/>
<stop offset="1" stop-color="#D8BC9B"/>
</linearGradient>
<linearGradient id="paint25_linear_701_7475" x1="21.1178" y1="18.9358" x2="20.7976" y2="21.1955" gradientUnits="userSpaceOnUse">
<stop stop-color="#856848"/>
<stop offset="1" stop-color="#D8BC9B"/>
</linearGradient>
<linearGradient id="paint26_linear_701_7475" x1="28.7685" y1="34.5188" x2="28.8971" y2="33.6121" gradientUnits="userSpaceOnUse">
<stop stop-color="#32282E"/>
<stop offset="1" stop-color="#362A2F" stop-opacity="0.59"/>
</linearGradient>
<linearGradient id="paint27_linear_701_7475" x1="28.7685" y1="34.5188" x2="28.8971" y2="33.6121" gradientUnits="userSpaceOnUse">
<stop stop-color="#856848"/>
<stop offset="1" stop-color="#D8BC9B"/>
</linearGradient>
<linearGradient id="paint28_linear_701_7475" x1="28.5253" y1="36.3269" x2="28.8456" y2="34.0672" gradientUnits="userSpaceOnUse">
<stop stop-color="#856848"/>
<stop offset="1" stop-color="#D8BC9B"/>
</linearGradient>
</defs>
</svg>
